%TF.GenerationSoftware,KiCad,Pcbnew,(6.0.1)*%
%TF.CreationDate,2022-04-19T14:46:11-07:00*%
%TF.ProjectId,Alpenglow_GoldSun_PCB,416c7065-6e67-46c6-9f77-5f476f6c6453,rev?*%
%TF.SameCoordinates,Original*%
%TF.FileFunction,Copper,L2,Bot*%
%TF.FilePolarity,Positive*%
%FSLAX46Y46*%
G04 Gerber Fmt 4.6, Leading zero omitted, Abs format (unit mm)*
G04 Created by KiCad (PCBNEW (6.0.1)) date 2022-04-19 14:46:11*
%MOMM*%
%LPD*%
G01*
G04 APERTURE LIST*
G04 Aperture macros list*
%AMHorizOval*
0 Thick line with rounded ends*
0 $1 width*
0 $2 $3 position (X,Y) of the first rounded end (center of the circle)*
0 $4 $5 position (X,Y) of the second rounded end (center of the circle)*
0 Add line between two ends*
20,1,$1,$2,$3,$4,$5,0*
0 Add two circle primitives to create the rounded ends*
1,1,$1,$2,$3*
1,1,$1,$4,$5*%
%AMRotRect*
0 Rectangle, with rotation*
0 The origin of the aperture is its center*
0 $1 length*
0 $2 width*
0 $3 Rotation angle, in degrees counterclockwise*
0 Add horizontal line*
21,1,$1,$2,0,0,$3*%
G04 Aperture macros list end*
%TA.AperFunction,ComponentPad*%
%ADD10R,1.800000X1.800000*%
%TD*%
%TA.AperFunction,ComponentPad*%
%ADD11C,1.800000*%
%TD*%
%TA.AperFunction,ComponentPad*%
%ADD12RotRect,1.800000X1.800000X240.000000*%
%TD*%
%TA.AperFunction,ComponentPad*%
%ADD13RotRect,1.800000X1.800000X120.000000*%
%TD*%
%TA.AperFunction,ComponentPad*%
%ADD14RotRect,1.800000X1.800000X310.000000*%
%TD*%
%TA.AperFunction,ComponentPad*%
%ADD15RotRect,1.800000X1.800000X55.000000*%
%TD*%
%TA.AperFunction,ComponentPad*%
%ADD16O,2.500000X4.000000*%
%TD*%
%TA.AperFunction,SMDPad,CuDef*%
%ADD17C,17.272000*%
%TD*%
%TA.AperFunction,ComponentPad*%
%ADD18HorizOval,1.900000X-0.400000X-0.692820X0.400000X0.692820X0*%
%TD*%
%TA.AperFunction,ComponentPad*%
%ADD19RotRect,1.300000X2.500000X330.000000*%
%TD*%
%TA.AperFunction,ComponentPad*%
%ADD20HorizOval,1.300000X-0.300000X-0.519615X0.300000X0.519615X0*%
%TD*%
%TA.AperFunction,Conductor*%
%ADD21C,0.508000*%
%TD*%
%TA.AperFunction,Conductor*%
%ADD22C,0.254000*%
%TD*%
G04 APERTURE END LIST*
D10*
%TO.P,D1,1*%
%TO.N,GND*%
X153924000Y-66548000D03*
D11*
%TO.P,D1,2*%
%TO.N,Net-(D1-Pad2)*%
X151384000Y-66548000D03*
%TD*%
D12*
%TO.P,D2,1*%
%TO.N,GND*%
X132334000Y-79121000D03*
D11*
%TO.P,D2,2*%
%TO.N,Net-(D1-Pad2)*%
X131064000Y-81320705D03*
%TD*%
D13*
%TO.P,D3,1*%
%TO.N,GND*%
X173812200Y-80365600D03*
D11*
%TO.P,D3,2*%
%TO.N,Net-(D1-Pad2)*%
X172542200Y-78165895D03*
%TD*%
D14*
%TO.P,D4,1*%
%TO.N,GND*%
X134112000Y-103886000D03*
D11*
%TO.P,D4,2*%
%TO.N,Net-(D1-Pad2)*%
X135744681Y-105831753D03*
%TD*%
D15*
%TO.P,D5,1*%
%TO.N,GND*%
X170053000Y-104394000D03*
D11*
%TO.P,D5,2*%
%TO.N,Net-(D1-Pad2)*%
X171509884Y-102313354D03*
%TD*%
D16*
%TO.P,BT1,1*%
%TO.N,VCC*%
X141859000Y-89408000D03*
X162941000Y-89408000D03*
D17*
%TO.P,BT1,2*%
%TO.N,GND*%
X152400000Y-89408000D03*
%TD*%
D18*
%TO.P,SW1,*%
%TO.N,GND*%
X161376347Y-68292000D03*
X168477755Y-72392000D03*
D19*
%TO.P,SW1,1*%
%TO.N,Net-(SW1-Pad1)*%
X163195000Y-69342000D03*
D20*
%TO.P,SW1,2*%
%TO.N,VCC*%
X164927051Y-70342000D03*
%TO.P,SW1,3*%
%TO.N,Net-(D1-Pad2)*%
X166659102Y-71342000D03*
%TD*%
D21*
%TO.N,VCC*%
X146964400Y-78587600D02*
X156514800Y-78587600D01*
X164084000Y-71185051D02*
X164084000Y-88265000D01*
X162941000Y-85013800D02*
X162941000Y-89408000D01*
X141859000Y-83693000D02*
X146964400Y-78587600D01*
X141859000Y-89408000D02*
X141859000Y-83693000D01*
X164927051Y-70342000D02*
X164084000Y-71185051D01*
X156514800Y-78587600D02*
X162941000Y-85013800D01*
X164084000Y-88265000D02*
X162941000Y-89408000D01*
%TO.N,Net-(D1-Pad2)*%
X165912800Y-73609200D02*
X165912800Y-72088302D01*
X172738319Y-78191247D02*
X170494847Y-78191247D01*
X130877116Y-96028316D02*
X136468883Y-101620083D01*
X170494847Y-78191247D02*
X165912800Y-73609200D01*
X171509884Y-79419682D02*
X172738319Y-78191247D01*
X136468883Y-105066647D02*
X135568884Y-105966646D01*
X136730354Y-81201646D02*
X151384000Y-66548000D01*
X130877116Y-81201646D02*
X130877116Y-96028316D01*
X130877116Y-81201646D02*
X136730354Y-81201646D01*
D22*
X165912800Y-72088302D02*
X166659102Y-71342000D01*
D21*
X136468883Y-101620083D02*
X136468883Y-105066647D01*
X171509884Y-102313354D02*
X171509884Y-79419682D01*
%TD*%
%TA.AperFunction,Conductor*%
%TO.N,GND*%
G36*
X153017774Y-64092279D02*
G01*
X153497844Y-64099821D01*
X153502679Y-64099989D01*
X154216587Y-64138652D01*
X154483382Y-64153101D01*
X154488192Y-64153455D01*
X155466076Y-64244170D01*
X155470878Y-64244709D01*
X156444587Y-64372901D01*
X156449325Y-64373617D01*
X156933388Y-64456359D01*
X157417427Y-64539098D01*
X157422179Y-64540005D01*
X157762575Y-64611737D01*
X158383172Y-64742517D01*
X158387836Y-64743593D01*
X159340404Y-64982862D01*
X159345047Y-64984125D01*
X160287659Y-65259763D01*
X160292255Y-65261203D01*
X161145634Y-65546740D01*
X161223621Y-65572834D01*
X161228174Y-65574455D01*
X161384717Y-65633608D01*
X162146880Y-65921606D01*
X162151370Y-65923402D01*
X162196431Y-65942436D01*
X162251400Y-65987369D01*
X162273351Y-66054887D01*
X162255314Y-66123554D01*
X162203016Y-66171569D01*
X162133061Y-66183687D01*
X162121421Y-66181798D01*
X161964764Y-66148785D01*
X161954547Y-66147495D01*
X161725353Y-66137488D01*
X161715049Y-66137884D01*
X161487311Y-66165443D01*
X161477207Y-66167516D01*
X161257019Y-66231904D01*
X161247395Y-66235598D01*
X161040679Y-66335084D01*
X161031792Y-66340298D01*
X160844094Y-66472215D01*
X160836187Y-66478802D01*
X160672546Y-66639611D01*
X160665822Y-66647402D01*
X160554868Y-66799557D01*
X160551209Y-66805180D01*
X160249740Y-67327341D01*
X160245996Y-67342776D01*
X160246598Y-67344516D01*
X160252414Y-67349804D01*
X161267687Y-67935972D01*
X161283122Y-67939717D01*
X161284862Y-67939114D01*
X161290149Y-67933298D01*
X162265410Y-66244099D01*
X162269155Y-66228663D01*
X162258121Y-66196782D01*
X162254743Y-66125865D01*
X162290242Y-66064381D01*
X162353346Y-66031849D01*
X162426220Y-66039503D01*
X163056074Y-66305563D01*
X163060437Y-66307506D01*
X163949828Y-66724126D01*
X163954161Y-66726258D01*
X164108784Y-66806065D01*
X164826882Y-67176703D01*
X164831137Y-67179004D01*
X165643353Y-67638533D01*
X165685898Y-67662604D01*
X165690056Y-67665063D01*
X165724047Y-67686056D01*
X166525636Y-68181129D01*
X166529702Y-68183749D01*
X166741152Y-68325837D01*
X167344873Y-68731521D01*
X167348812Y-68734279D01*
X167490681Y-68837731D01*
X168142351Y-69312938D01*
X168146204Y-69315863D01*
X168916931Y-69924546D01*
X168920659Y-69927607D01*
X169029834Y-70020852D01*
X169068641Y-70080300D01*
X169069149Y-70151295D01*
X169031193Y-70211293D01*
X168966824Y-70241247D01*
X168942506Y-70242541D01*
X168826761Y-70237488D01*
X168816457Y-70237884D01*
X168588719Y-70265443D01*
X168578615Y-70267516D01*
X168358427Y-70331904D01*
X168348803Y-70335598D01*
X168189707Y-70412166D01*
X168119651Y-70423683D01*
X168054489Y-70395498D01*
X168023557Y-70357297D01*
X168021517Y-70353418D01*
X167934864Y-70188718D01*
X167855368Y-70087877D01*
X167806624Y-70026046D01*
X167806623Y-70026045D01*
X167803048Y-70021510D01*
X167714889Y-69944196D01*
X167647313Y-69884933D01*
X167647309Y-69884930D01*
X167642969Y-69881124D01*
X167638004Y-69878170D01*
X167638001Y-69878168D01*
X167464948Y-69775213D01*
X167464947Y-69775213D01*
X167459986Y-69772261D01*
X167260229Y-69698566D01*
X167073171Y-69666423D01*
X167056085Y-69663487D01*
X167056084Y-69663487D01*
X167050387Y-69662508D01*
X166950484Y-69663816D01*
X166843267Y-69665220D01*
X166843264Y-69665220D01*
X166837488Y-69665296D01*
X166831824Y-69666423D01*
X166831820Y-69666423D01*
X166634331Y-69705705D01*
X166634329Y-69705706D01*
X166628661Y-69706833D01*
X166543771Y-69740701D01*
X166473089Y-69747366D01*
X166410023Y-69714759D01*
X166374598Y-69653232D01*
X166371954Y-69638481D01*
X166365769Y-69586222D01*
X166365768Y-69586219D01*
X166365090Y-69580487D01*
X166301950Y-69377147D01*
X166202813Y-69188718D01*
X166198589Y-69183359D01*
X166074573Y-69026046D01*
X166074572Y-69026045D01*
X166070997Y-69021510D01*
X166066656Y-69017703D01*
X165915262Y-68884933D01*
X165915258Y-68884930D01*
X165910918Y-68881124D01*
X165905953Y-68878170D01*
X165905950Y-68878168D01*
X165732897Y-68775213D01*
X165732896Y-68775213D01*
X165727935Y-68772261D01*
X165528178Y-68698566D01*
X165406887Y-68677724D01*
X165324034Y-68663487D01*
X165324033Y-68663487D01*
X165318336Y-68662508D01*
X165218433Y-68663816D01*
X165111216Y-68665220D01*
X165111213Y-68665220D01*
X165105437Y-68665296D01*
X165099773Y-68666423D01*
X165099769Y-68666423D01*
X165074769Y-68671396D01*
X165042956Y-68677724D01*
X164972243Y-68671396D01*
X164916176Y-68627841D01*
X164893275Y-68569173D01*
X164880211Y-68460417D01*
X164880210Y-68460414D01*
X164879140Y-68451505D01*
X164872733Y-68436520D01*
X164825409Y-68325837D01*
X164825408Y-68325835D01*
X164821877Y-68317577D01*
X164729325Y-68205102D01*
X164721029Y-68199030D01*
X164681599Y-68170171D01*
X164681593Y-68170167D01*
X164678852Y-68168161D01*
X164675909Y-68166462D01*
X164675900Y-68166456D01*
X163761509Y-67638533D01*
X163469648Y-67470027D01*
X163412420Y-67444786D01*
X163404625Y-67443489D01*
X163404623Y-67443488D01*
X163312568Y-67428167D01*
X163248655Y-67397253D01*
X163210146Y-67330719D01*
X163176518Y-67176487D01*
X163173509Y-67166645D01*
X163088682Y-66953486D01*
X163084099Y-66944253D01*
X162965600Y-66747813D01*
X162959573Y-66739457D01*
X162810588Y-66565017D01*
X162803264Y-66557745D01*
X162728066Y-66494423D01*
X162715823Y-66489039D01*
X162704612Y-66499377D01*
X161723317Y-68199030D01*
X161501979Y-68582398D01*
X161501979Y-68582399D01*
X161469317Y-68638970D01*
X160487284Y-70339901D01*
X160484005Y-70353418D01*
X160495375Y-70362276D01*
X160553566Y-70384964D01*
X160563447Y-70387910D01*
X160787929Y-70435216D01*
X160798145Y-70436506D01*
X161027340Y-70446512D01*
X161037645Y-70446116D01*
X161265383Y-70418557D01*
X161275487Y-70416484D01*
X161464751Y-70361139D01*
X161535748Y-70361218D01*
X161597410Y-70402015D01*
X161655651Y-70472794D01*
X161655656Y-70472799D01*
X161660675Y-70478898D01*
X161667049Y-70483563D01*
X161667050Y-70483564D01*
X161708401Y-70513829D01*
X161708407Y-70513833D01*
X161711148Y-70515839D01*
X161714091Y-70517538D01*
X161714100Y-70517544D01*
X162189350Y-70791929D01*
X162920352Y-71213973D01*
X162977580Y-71239214D01*
X162985375Y-71240511D01*
X162985377Y-71240512D01*
X163112404Y-71261654D01*
X163112406Y-71261654D01*
X163121262Y-71263128D01*
X163180473Y-71256015D01*
X163250492Y-71267750D01*
X163303052Y-71315477D01*
X163321500Y-71381116D01*
X163321500Y-84011773D01*
X163301498Y-84079894D01*
X163247842Y-84126387D01*
X163177568Y-84136491D01*
X163112988Y-84106997D01*
X163106405Y-84100868D01*
X160118164Y-81112626D01*
X157101610Y-78096072D01*
X157089223Y-78081659D01*
X157080595Y-78069935D01*
X157076254Y-78064036D01*
X157035745Y-78029621D01*
X157028229Y-78022691D01*
X157022485Y-78016947D01*
X157019611Y-78014673D01*
X157019604Y-78014667D01*
X157000089Y-77999228D01*
X156996685Y-77996437D01*
X156946328Y-77953655D01*
X156946324Y-77953652D01*
X156940749Y-77948916D01*
X156934232Y-77945588D01*
X156929168Y-77942211D01*
X156923944Y-77938984D01*
X156918200Y-77934440D01*
X156891909Y-77922152D01*
X156851718Y-77903368D01*
X156847767Y-77901437D01*
X156788917Y-77871387D01*
X156782396Y-77868057D01*
X156775281Y-77866316D01*
X156769535Y-77864179D01*
X156763752Y-77862255D01*
X156757121Y-77859156D01*
X156685243Y-77844206D01*
X156680971Y-77843239D01*
X156609688Y-77825796D01*
X156604089Y-77825449D01*
X156604085Y-77825448D01*
X156598470Y-77825100D01*
X156598472Y-77825061D01*
X156594571Y-77824828D01*
X156590212Y-77824439D01*
X156583044Y-77822948D01*
X156575727Y-77823146D01*
X156505223Y-77825054D01*
X156501814Y-77825100D01*
X147031776Y-77825100D01*
X147012826Y-77823667D01*
X146998427Y-77821476D01*
X146998421Y-77821476D01*
X146991192Y-77820376D01*
X146983900Y-77820969D01*
X146983897Y-77820969D01*
X146938217Y-77824685D01*
X146928002Y-77825100D01*
X146919875Y-77825100D01*
X146916239Y-77825524D01*
X146916237Y-77825524D01*
X146912785Y-77825927D01*
X146891476Y-77828411D01*
X146887156Y-77828838D01*
X146813974Y-77834791D01*
X146807012Y-77837047D01*
X146801024Y-77838243D01*
X146795067Y-77839651D01*
X146787793Y-77840499D01*
X146780911Y-77842997D01*
X146780907Y-77842998D01*
X146718793Y-77865545D01*
X146714689Y-77866955D01*
X146644825Y-77889587D01*
X146638562Y-77893387D01*
X146633020Y-77895925D01*
X146627544Y-77898667D01*
X146620659Y-77901166D01*
X146614535Y-77905181D01*
X146559268Y-77941415D01*
X146555600Y-77943730D01*
X146492819Y-77981827D01*
X146488614Y-77985541D01*
X146488611Y-77985543D01*
X146484395Y-77989267D01*
X146484369Y-77989238D01*
X146481438Y-77991838D01*
X146478084Y-77994642D01*
X146471965Y-77998654D01*
X146442630Y-78029621D01*
X146418412Y-78055186D01*
X146416034Y-78057628D01*
X141367472Y-83106190D01*
X141353059Y-83118577D01*
X141335436Y-83131546D01*
X141330692Y-83137129D01*
X141330693Y-83137129D01*
X141301021Y-83172055D01*
X141294091Y-83179571D01*
X141288347Y-83185315D01*
X141286073Y-83188189D01*
X141286067Y-83188196D01*
X141270628Y-83207711D01*
X141267837Y-83211115D01*
X141225055Y-83261472D01*
X141225052Y-83261476D01*
X141220316Y-83267051D01*
X141216988Y-83273568D01*
X141213611Y-83278632D01*
X141210384Y-83283856D01*
X141205840Y-83289600D01*
X141202741Y-83296231D01*
X141174768Y-83356082D01*
X141172837Y-83360033D01*
X141139457Y-83425404D01*
X141137716Y-83432519D01*
X141135579Y-83438265D01*
X141133655Y-83444048D01*
X141130556Y-83450679D01*
X141129066Y-83457843D01*
X141115608Y-83522547D01*
X141114639Y-83526829D01*
X141097196Y-83598112D01*
X141096500Y-83609330D01*
X141096461Y-83609328D01*
X141096228Y-83613229D01*
X141095839Y-83617588D01*
X141094348Y-83624756D01*
X141094546Y-83632073D01*
X141096454Y-83702577D01*
X141096500Y-83705986D01*
X141096500Y-86992400D01*
X141076498Y-87060521D01*
X141023253Y-87106825D01*
X141008319Y-87113710D01*
X141004072Y-87115668D01*
X140965067Y-87141241D01*
X140789404Y-87256410D01*
X140789399Y-87256414D01*
X140785491Y-87258976D01*
X140590494Y-87433018D01*
X140423363Y-87633970D01*
X140420934Y-87637973D01*
X140310858Y-87819373D01*
X140287771Y-87857419D01*
X140186697Y-88098455D01*
X140122359Y-88351783D01*
X140100500Y-88568867D01*
X140100500Y-90224354D01*
X140114939Y-90418652D01*
X140115968Y-90423200D01*
X140115969Y-90423206D01*
X140158147Y-90609601D01*
X140172623Y-90673577D01*
X140267353Y-90917177D01*
X140397049Y-91144098D01*
X140558862Y-91349357D01*
X140749237Y-91528443D01*
X140963991Y-91677424D01*
X140968181Y-91679490D01*
X140968184Y-91679492D01*
X141194219Y-91790960D01*
X141194222Y-91790961D01*
X141198407Y-91793025D01*
X141202850Y-91794447D01*
X141202852Y-91794448D01*
X141442877Y-91871280D01*
X141447335Y-91872707D01*
X141705307Y-91914721D01*
X141819058Y-91916210D01*
X141961978Y-91918081D01*
X141961981Y-91918081D01*
X141966655Y-91918142D01*
X142225638Y-91882896D01*
X142476567Y-91809757D01*
X142512862Y-91793025D01*
X142531112Y-91784611D01*
X142713928Y-91700332D01*
X142763976Y-91667519D01*
X142928596Y-91559590D01*
X142928601Y-91559586D01*
X142932509Y-91557024D01*
X143095607Y-91411453D01*
X143124016Y-91386097D01*
X143127506Y-91382982D01*
X143232838Y-91256335D01*
X143291776Y-91216752D01*
X143362758Y-91215316D01*
X143423248Y-91252484D01*
X143453582Y-91313835D01*
X143464153Y-91370597D01*
X143465025Y-91374562D01*
X143609428Y-91943148D01*
X143610558Y-91947062D01*
X143791348Y-92505136D01*
X143792732Y-92508978D01*
X144009157Y-93054215D01*
X144010788Y-93057966D01*
X144261947Y-93588100D01*
X144263805Y-93591714D01*
X144548670Y-94104570D01*
X144550745Y-94108037D01*
X144868107Y-94601433D01*
X144870424Y-94604790D01*
X145218945Y-95076649D01*
X145221476Y-95079854D01*
X145599730Y-95528250D01*
X145602457Y-95531278D01*
X145744272Y-95678904D01*
X145758057Y-95686794D01*
X145759221Y-95686734D01*
X145766854Y-95681936D01*
X152027978Y-89420812D01*
X152035592Y-89406868D01*
X152035461Y-89405035D01*
X152031210Y-89398420D01*
X145767486Y-83134696D01*
X145753542Y-83127082D01*
X145751737Y-83127211D01*
X145745084Y-83131490D01*
X145721266Y-83155350D01*
X145718474Y-83158333D01*
X145331671Y-83599396D01*
X145329106Y-83602518D01*
X144971566Y-84067634D01*
X144969203Y-84070923D01*
X144642418Y-84558146D01*
X144640276Y-84561575D01*
X144345626Y-85068854D01*
X144343700Y-85072430D01*
X144082392Y-85597679D01*
X144080707Y-85601361D01*
X143853853Y-86142346D01*
X143852388Y-86146184D01*
X143660921Y-86700671D01*
X143659717Y-86704559D01*
X143504431Y-87270251D01*
X143503471Y-87274247D01*
X143455330Y-87507743D01*
X143421985Y-87570422D01*
X143360046Y-87605122D01*
X143289180Y-87600827D01*
X143232976Y-87560306D01*
X143192536Y-87509008D01*
X143159138Y-87466643D01*
X142968763Y-87287557D01*
X142754009Y-87138576D01*
X142691770Y-87107883D01*
X142639523Y-87059815D01*
X142621500Y-86994878D01*
X142621500Y-84061028D01*
X142641502Y-83992907D01*
X142658405Y-83971933D01*
X143866854Y-82763484D01*
X146118769Y-82763484D01*
X146118904Y-82765351D01*
X146123131Y-82771921D01*
X152387188Y-89035978D01*
X152401132Y-89043592D01*
X152402965Y-89043461D01*
X152409580Y-89039210D01*
X158671079Y-82777711D01*
X158678693Y-82763767D01*
X158678615Y-82762664D01*
X158673605Y-82755052D01*
X158511389Y-82599765D01*
X158508390Y-82597074D01*
X158059300Y-82219573D01*
X158056124Y-82217075D01*
X157583638Y-81869364D01*
X157580279Y-81867056D01*
X157086349Y-81550567D01*
X157082831Y-81548470D01*
X156569517Y-81264520D01*
X156565892Y-81262665D01*
X156035322Y-81012432D01*
X156031554Y-81010802D01*
X155485947Y-80795331D01*
X155482118Y-80793960D01*
X154923695Y-80614132D01*
X154919820Y-80613021D01*
X154350982Y-80469612D01*
X154346976Y-80468738D01*
X153770073Y-80362336D01*
X153766082Y-80361732D01*
X153183467Y-80292775D01*
X153179465Y-80292432D01*
X152593604Y-80261216D01*
X152589587Y-80261132D01*
X152002964Y-80267787D01*
X151998902Y-80267964D01*
X151413943Y-80312461D01*
X151409916Y-80312898D01*
X150829073Y-80395047D01*
X150825036Y-80395751D01*
X150250698Y-80515214D01*
X150246750Y-80516170D01*
X149681315Y-80672447D01*
X149677423Y-80673660D01*
X149123239Y-80866104D01*
X149119456Y-80867557D01*
X148578857Y-81095359D01*
X148575158Y-81097060D01*
X148050368Y-81359283D01*
X148046817Y-81361203D01*
X147540033Y-81656751D01*
X147536611Y-81658898D01*
X147049964Y-81986528D01*
X147046673Y-81988901D01*
X146582210Y-82347232D01*
X146579055Y-82349831D01*
X146138664Y-82737405D01*
X146135718Y-82740173D01*
X146126367Y-82749541D01*
X146118769Y-82763484D01*
X143866854Y-82763484D01*
X147243333Y-79387005D01*
X147305645Y-79352979D01*
X147332428Y-79350100D01*
X156146772Y-79350100D01*
X156214893Y-79370102D01*
X156235867Y-79387005D01*
X162141595Y-85292733D01*
X162175621Y-85355045D01*
X162178500Y-85381828D01*
X162178500Y-86992400D01*
X162158498Y-87060521D01*
X162105253Y-87106825D01*
X162090319Y-87113710D01*
X162086072Y-87115668D01*
X162047067Y-87141241D01*
X161871404Y-87256410D01*
X161871399Y-87256414D01*
X161867491Y-87258976D01*
X161672494Y-87433018D01*
X161669506Y-87436611D01*
X161565768Y-87561341D01*
X161506830Y-87600924D01*
X161435848Y-87602360D01*
X161375358Y-87565192D01*
X161346099Y-87509008D01*
X161245828Y-87072948D01*
X161244782Y-87068992D01*
X161076703Y-86506976D01*
X161075405Y-86503095D01*
X160871398Y-85953065D01*
X160869872Y-85949327D01*
X160630795Y-85413611D01*
X160629007Y-85409929D01*
X160355872Y-84890786D01*
X160353857Y-84887238D01*
X160047778Y-84386782D01*
X160045550Y-84383391D01*
X159707795Y-83903704D01*
X159705369Y-83900485D01*
X159337364Y-83443595D01*
X159334720Y-83440522D01*
X159055963Y-83136845D01*
X159042359Y-83128642D01*
X159041960Y-83128654D01*
X159033167Y-83134043D01*
X152772022Y-89395188D01*
X152764408Y-89409132D01*
X152764539Y-89410965D01*
X152768790Y-89417580D01*
X159030232Y-95679022D01*
X159044176Y-95686636D01*
X159045220Y-95686562D01*
X159052913Y-95681489D01*
X159218876Y-95507514D01*
X159221599Y-95504468D01*
X159598289Y-95054749D01*
X159600783Y-95051569D01*
X159947674Y-94578469D01*
X159949974Y-94575109D01*
X160265609Y-94080616D01*
X160267680Y-94077128D01*
X160550752Y-93563284D01*
X160552588Y-93559682D01*
X160801911Y-93028639D01*
X160803513Y-93024920D01*
X161018048Y-92478895D01*
X161019405Y-92475085D01*
X161198257Y-91916350D01*
X161199363Y-91912469D01*
X161341789Y-91343345D01*
X161342641Y-91339401D01*
X161347122Y-91314866D01*
X161379038Y-91251447D01*
X161440173Y-91215350D01*
X161511119Y-91218036D01*
X161570022Y-91259497D01*
X161640862Y-91349357D01*
X161831237Y-91528443D01*
X162045991Y-91677424D01*
X162050181Y-91679490D01*
X162050184Y-91679492D01*
X162276219Y-91790960D01*
X162276222Y-91790961D01*
X162280407Y-91793025D01*
X162284850Y-91794447D01*
X162284852Y-91794448D01*
X162524877Y-91871280D01*
X162529335Y-91872707D01*
X162787307Y-91914721D01*
X162901058Y-91916210D01*
X163043978Y-91918081D01*
X163043981Y-91918081D01*
X163048655Y-91918142D01*
X163307638Y-91882896D01*
X163558567Y-91809757D01*
X163594862Y-91793025D01*
X163613112Y-91784611D01*
X163795928Y-91700332D01*
X163845976Y-91667519D01*
X164010596Y-91559590D01*
X164010601Y-91559586D01*
X164014509Y-91557024D01*
X164177607Y-91411453D01*
X164206016Y-91386097D01*
X164209506Y-91382982D01*
X164376637Y-91182030D01*
X164402117Y-91140040D01*
X164509804Y-90962578D01*
X164509806Y-90962574D01*
X164512229Y-90958581D01*
X164613303Y-90717545D01*
X164677641Y-90464217D01*
X164682193Y-90419017D01*
X164699184Y-90250271D01*
X164699500Y-90247133D01*
X164699500Y-88762346D01*
X164720260Y-88693802D01*
X164722684Y-88690949D01*
X164726013Y-88684429D01*
X164729398Y-88679354D01*
X164732617Y-88674143D01*
X164737160Y-88668400D01*
X164768232Y-88601918D01*
X164770163Y-88597967D01*
X164800213Y-88539117D01*
X164803543Y-88532596D01*
X164805284Y-88525481D01*
X164807421Y-88519735D01*
X164809345Y-88513952D01*
X164812444Y-88507321D01*
X164827394Y-88435443D01*
X164828363Y-88431162D01*
X164844470Y-88365339D01*
X164845804Y-88359888D01*
X164846500Y-88348670D01*
X164846539Y-88348672D01*
X164846772Y-88344771D01*
X164847161Y-88340412D01*
X164848652Y-88333244D01*
X164846546Y-88255423D01*
X164846500Y-88252014D01*
X164846500Y-72102649D01*
X164866502Y-72034528D01*
X164920158Y-71988035D01*
X164947920Y-71979070D01*
X164950824Y-71978492D01*
X164951827Y-71978293D01*
X164951828Y-71978293D01*
X164957492Y-71977166D01*
X164977612Y-71969139D01*
X165048294Y-71962476D01*
X165111359Y-71995084D01*
X165146784Y-72056612D01*
X165150300Y-72086170D01*
X165150300Y-73541824D01*
X165148867Y-73560774D01*
X165146676Y-73575173D01*
X165146676Y-73575179D01*
X165145576Y-73582408D01*
X165146169Y-73589700D01*
X165146169Y-73589703D01*
X165149885Y-73635383D01*
X165150300Y-73645598D01*
X165150300Y-73653725D01*
X165153611Y-73682124D01*
X165154038Y-73686444D01*
X165159991Y-73759626D01*
X165162247Y-73766588D01*
X165163443Y-73772576D01*
X165164851Y-73778533D01*
X165165699Y-73785807D01*
X165168197Y-73792689D01*
X165168198Y-73792693D01*
X165190745Y-73854807D01*
X165192155Y-73858911D01*
X165214787Y-73928775D01*
X165218587Y-73935038D01*
X165221125Y-73940580D01*
X165223867Y-73946056D01*
X165226366Y-73952941D01*
X165230381Y-73959065D01*
X165266615Y-74014332D01*
X165268930Y-74018000D01*
X165307027Y-74080781D01*
X165310741Y-74084986D01*
X165310743Y-74084989D01*
X165314467Y-74089205D01*
X165314438Y-74089231D01*
X165317038Y-74092162D01*
X165319842Y-74095516D01*
X165323854Y-74101635D01*
X165329166Y-74106667D01*
X165380386Y-74155188D01*
X165382828Y-74157566D01*
X169908037Y-78682775D01*
X169920424Y-78697188D01*
X169933393Y-78714811D01*
X169938976Y-78719554D01*
X169973902Y-78749226D01*
X169981418Y-78756156D01*
X169987162Y-78761900D01*
X169990036Y-78764174D01*
X169990043Y-78764180D01*
X170009558Y-78779619D01*
X170012962Y-78782410D01*
X170063319Y-78825192D01*
X170063323Y-78825195D01*
X170068898Y-78829931D01*
X170075415Y-78833259D01*
X170080479Y-78836636D01*
X170085703Y-78839863D01*
X170091447Y-78844407D01*
X170098078Y-78847506D01*
X170157929Y-78875479D01*
X170161880Y-78877410D01*
X170227251Y-78910790D01*
X170234366Y-78912531D01*
X170240112Y-78914668D01*
X170245895Y-78916592D01*
X170252526Y-78919691D01*
X170324404Y-78934641D01*
X170328676Y-78935608D01*
X170399959Y-78953051D01*
X170405558Y-78953398D01*
X170405562Y-78953399D01*
X170411177Y-78953747D01*
X170411175Y-78953786D01*
X170415076Y-78954019D01*
X170419435Y-78954408D01*
X170426603Y-78955899D01*
X170433920Y-78955701D01*
X170504424Y-78953793D01*
X170507833Y-78953747D01*
X170685803Y-78953747D01*
X170753924Y-78973749D01*
X170800417Y-79027405D01*
X170810521Y-79097679D01*
X170798019Y-79137049D01*
X170790341Y-79152086D01*
X170788600Y-79159200D01*
X170786463Y-79164947D01*
X170784539Y-79170730D01*
X170781440Y-79177361D01*
X170779950Y-79184525D01*
X170766492Y-79249229D01*
X170765523Y-79253511D01*
X170748080Y-79324794D01*
X170747384Y-79336012D01*
X170747345Y-79336010D01*
X170747112Y-79339911D01*
X170746723Y-79344270D01*
X170745232Y-79351438D01*
X170745430Y-79358755D01*
X170747338Y-79429259D01*
X170747384Y-79432668D01*
X170747384Y-101061485D01*
X170727382Y-101129606D01*
X170697038Y-101162244D01*
X170631792Y-101211232D01*
X170626839Y-101214951D01*
X170571539Y-101256471D01*
X170411523Y-101423918D01*
X170408609Y-101428190D01*
X170408608Y-101428191D01*
X170393036Y-101451019D01*
X170281003Y-101615253D01*
X170183486Y-101825335D01*
X170121591Y-102048523D01*
X170096979Y-102278823D01*
X170097276Y-102283976D01*
X170097276Y-102283979D01*
X170102951Y-102382395D01*
X170110253Y-102509051D01*
X170110253Y-102509053D01*
X170110311Y-102510051D01*
X170110105Y-102510063D01*
X170100106Y-102578093D01*
X170053445Y-102631603D01*
X169985262Y-102651391D01*
X169954215Y-102647406D01*
X169896991Y-102632660D01*
X169879327Y-102630710D01*
X169751835Y-102634828D01*
X169734332Y-102637914D01*
X169613119Y-102677649D01*
X169597182Y-102685526D01*
X169491110Y-102758291D01*
X169479387Y-102768708D01*
X169445675Y-102807216D01*
X169441485Y-102812559D01*
X169055713Y-103363501D01*
X169050637Y-103378550D01*
X169051086Y-103380337D01*
X169056416Y-103386108D01*
X169990624Y-104040247D01*
X171337215Y-104983139D01*
X171352264Y-104988215D01*
X171354051Y-104987766D01*
X171359822Y-104982436D01*
X171748213Y-104427756D01*
X171751805Y-104421986D01*
X171776465Y-104377131D01*
X171782240Y-104362563D01*
X171814340Y-104237993D01*
X171816290Y-104220327D01*
X171812172Y-104092835D01*
X171809086Y-104075332D01*
X171769351Y-103954119D01*
X171761476Y-103938186D01*
X171728048Y-103889457D01*
X171706007Y-103821968D01*
X171723952Y-103753277D01*
X171776185Y-103705192D01*
X171802996Y-103695890D01*
X171803731Y-103695796D01*
X172025574Y-103629240D01*
X172090617Y-103597376D01*
X172228933Y-103529616D01*
X172228936Y-103529614D01*
X172233568Y-103527345D01*
X172422127Y-103392848D01*
X172586187Y-103229359D01*
X172721342Y-103041271D01*
X172823962Y-102833634D01*
X172891292Y-102612025D01*
X172921524Y-102382395D01*
X172923211Y-102313354D01*
X172914512Y-102207546D01*
X172904657Y-102087672D01*
X172904656Y-102087666D01*
X172904233Y-102082521D01*
X172847809Y-101857887D01*
X172839629Y-101839074D01*
X172757514Y-101650222D01*
X172757512Y-101650219D01*
X172755454Y-101645485D01*
X172629648Y-101451019D01*
X172622785Y-101443476D01*
X172556211Y-101370313D01*
X172473771Y-101279712D01*
X172469720Y-101276513D01*
X172469716Y-101276509D01*
X172320292Y-101158502D01*
X172279229Y-101100585D01*
X172272384Y-101059620D01*
X172272384Y-81293814D01*
X172724216Y-81293814D01*
X172726609Y-81301302D01*
X173065174Y-81887711D01*
X173068897Y-81893422D01*
X173099119Y-81934717D01*
X173109885Y-81946111D01*
X173209213Y-82027844D01*
X173224406Y-82037082D01*
X173341692Y-82087230D01*
X173358854Y-82091829D01*
X173485507Y-82107043D01*
X173503279Y-82106640D01*
X173630170Y-82085520D01*
X173645186Y-82081036D01*
X173692011Y-82060384D01*
X173698087Y-82057301D01*
X174280541Y-81721021D01*
X174291501Y-81709526D01*
X174291850Y-81707718D01*
X174289457Y-81700231D01*
X173728287Y-80728259D01*
X173716792Y-80717299D01*
X173714984Y-80716950D01*
X173707497Y-80719343D01*
X172735524Y-81280512D01*
X172724564Y-81292007D01*
X172724216Y-81293814D01*
X172272384Y-81293814D01*
X172272384Y-80952358D01*
X172292386Y-80884237D01*
X172346042Y-80837744D01*
X172416316Y-80827640D01*
X172441047Y-80839654D01*
X172470082Y-80845250D01*
X172477569Y-80842857D01*
X173135818Y-80462816D01*
X174163550Y-80462816D01*
X174165943Y-80470303D01*
X174727112Y-81442276D01*
X174738607Y-81453236D01*
X174740414Y-81453584D01*
X174747902Y-81451191D01*
X175334311Y-81112626D01*
X175340022Y-81108903D01*
X175381317Y-81078681D01*
X175392711Y-81067915D01*
X175474444Y-80968587D01*
X175483682Y-80953394D01*
X175533830Y-80836108D01*
X175538429Y-80818946D01*
X175553643Y-80692293D01*
X175553240Y-80674521D01*
X175532120Y-80547630D01*
X175527636Y-80532614D01*
X175506984Y-80485789D01*
X175503901Y-80479713D01*
X175167621Y-79897259D01*
X175156126Y-79886299D01*
X175154318Y-79885950D01*
X175146831Y-79888343D01*
X174174859Y-80449513D01*
X174163899Y-80461008D01*
X174163550Y-80462816D01*
X173135818Y-80462816D01*
X173905170Y-80018630D01*
X174888876Y-79450688D01*
X174899836Y-79439193D01*
X174900184Y-79437386D01*
X174897791Y-79429898D01*
X174559226Y-78843489D01*
X174555503Y-78837778D01*
X174525281Y-78796483D01*
X174514515Y-78785089D01*
X174415187Y-78703356D01*
X174399994Y-78694118D01*
X174282708Y-78643970D01*
X174265546Y-78639371D01*
X174138893Y-78624157D01*
X174121121Y-78624560D01*
X174062153Y-78634375D01*
X173991673Y-78625829D01*
X173937001Y-78580535D01*
X173915497Y-78512873D01*
X173920906Y-78473460D01*
X173922105Y-78469513D01*
X173923608Y-78464566D01*
X173953840Y-78234936D01*
X173954730Y-78198516D01*
X173955445Y-78169260D01*
X173955445Y-78169256D01*
X173955527Y-78165895D01*
X173944051Y-78026312D01*
X173936973Y-77940213D01*
X173936972Y-77940207D01*
X173936549Y-77935062D01*
X173880125Y-77710428D01*
X173850449Y-77642177D01*
X173789830Y-77502763D01*
X173789828Y-77502760D01*
X173787770Y-77498026D01*
X173661964Y-77303560D01*
X173506087Y-77132253D01*
X173502036Y-77129054D01*
X173502032Y-77129050D01*
X173328377Y-76991906D01*
X173328372Y-76991903D01*
X173324323Y-76988705D01*
X173319807Y-76986212D01*
X173319804Y-76986210D01*
X173126079Y-76879268D01*
X173126075Y-76879266D01*
X173121555Y-76876771D01*
X173116686Y-76875047D01*
X173116682Y-76875045D01*
X172908103Y-76801183D01*
X172908099Y-76801182D01*
X172903228Y-76799457D01*
X172898135Y-76798550D01*
X172898132Y-76798549D01*
X172680295Y-76759746D01*
X172680289Y-76759745D01*
X172675206Y-76758840D01*
X172602296Y-76757949D01*
X172448781Y-76756074D01*
X172448779Y-76756074D01*
X172443611Y-76756011D01*
X172214664Y-76791045D01*
X171994514Y-76863001D01*
X171989926Y-76865389D01*
X171989922Y-76865391D01*
X171963265Y-76879268D01*
X171789072Y-76969947D01*
X171784939Y-76973050D01*
X171784936Y-76973052D01*
X171759825Y-76991906D01*
X171603855Y-77109012D01*
X171443839Y-77276459D01*
X171440925Y-77280731D01*
X171440924Y-77280732D01*
X171377471Y-77373751D01*
X171322560Y-77418754D01*
X171273383Y-77428747D01*
X170862875Y-77428747D01*
X170794754Y-77408745D01*
X170773780Y-77391842D01*
X168133909Y-74751971D01*
X168099883Y-74689659D01*
X168104948Y-74618844D01*
X168147495Y-74562008D01*
X168207867Y-74537789D01*
X168366791Y-74518557D01*
X168376895Y-74516484D01*
X168597083Y-74452096D01*
X168606707Y-74448402D01*
X168813423Y-74348915D01*
X168822311Y-74343701D01*
X169010007Y-74211786D01*
X169017913Y-74205200D01*
X169181554Y-74044390D01*
X169188278Y-74036600D01*
X169299245Y-73884427D01*
X169302886Y-73878831D01*
X169604362Y-73356659D01*
X169608107Y-73341224D01*
X169607504Y-73339484D01*
X169601688Y-73334197D01*
X168239904Y-72547970D01*
X168190911Y-72496588D01*
X168177475Y-72426874D01*
X168193785Y-72375851D01*
X168321785Y-72154149D01*
X168373168Y-72105156D01*
X168442881Y-72091720D01*
X168493904Y-72108030D01*
X169851731Y-72891972D01*
X169867166Y-72895717D01*
X169868906Y-72895114D01*
X169874193Y-72889298D01*
X170169515Y-72377785D01*
X170171916Y-72373202D01*
X170244998Y-72218598D01*
X170248623Y-72208953D01*
X170311472Y-71988321D01*
X170313475Y-71978206D01*
X170339443Y-71750276D01*
X170339767Y-71739971D01*
X170328161Y-71510847D01*
X170326799Y-71500639D01*
X170325544Y-71494882D01*
X170330576Y-71424064D01*
X170373096Y-71367208D01*
X170439604Y-71342366D01*
X170508986Y-71357425D01*
X170537592Y-71378790D01*
X171091980Y-71931246D01*
X171095340Y-71934726D01*
X171763864Y-72654144D01*
X171767076Y-72657735D01*
X172407544Y-73402348D01*
X172410566Y-73406000D01*
X172956363Y-74092162D01*
X173021966Y-74174636D01*
X173024894Y-74178466D01*
X173606308Y-74969965D01*
X173609097Y-74973919D01*
X174159718Y-75787184D01*
X174162352Y-75791241D01*
X174681300Y-76624966D01*
X174683777Y-76629121D01*
X175170390Y-77482242D01*
X175172697Y-77486473D01*
X175626174Y-78357594D01*
X175628322Y-78361920D01*
X176048043Y-79249848D01*
X176050000Y-79254202D01*
X176435333Y-80157600D01*
X176437125Y-80162034D01*
X176551982Y-80462816D01*
X176787487Y-81079546D01*
X176789125Y-81084098D01*
X177104004Y-82014367D01*
X177105466Y-82018976D01*
X177328500Y-82771921D01*
X177384391Y-82960606D01*
X177385672Y-82965255D01*
X177624879Y-83903704D01*
X177628252Y-83916936D01*
X177629354Y-83921632D01*
X177711118Y-84303029D01*
X177835223Y-84881930D01*
X177836146Y-84886679D01*
X178004998Y-85854150D01*
X178005735Y-85858912D01*
X178119545Y-86700671D01*
X178137324Y-86832166D01*
X178137879Y-86836959D01*
X178224700Y-87738621D01*
X178232011Y-87814549D01*
X178232380Y-87819349D01*
X178242700Y-87998326D01*
X178288913Y-88799826D01*
X178289099Y-88804660D01*
X178300706Y-89409132D01*
X178307682Y-89772408D01*
X178307962Y-89787015D01*
X178307976Y-89790973D01*
X178300351Y-90415060D01*
X178300240Y-90419017D01*
X178257382Y-91400608D01*
X178257078Y-91405436D01*
X178176608Y-92384224D01*
X178176119Y-92389035D01*
X178111378Y-92924032D01*
X178058135Y-93364007D01*
X178057465Y-93368779D01*
X177972203Y-93901084D01*
X177902132Y-94338548D01*
X177901275Y-94343309D01*
X177708844Y-95306335D01*
X177707806Y-95311060D01*
X177478533Y-96266050D01*
X177477313Y-96270732D01*
X177391983Y-96574304D01*
X177253798Y-97065914D01*
X177211562Y-97216172D01*
X177210167Y-97220792D01*
X177115589Y-97513613D01*
X176908309Y-98155363D01*
X176906734Y-98159937D01*
X176569223Y-99082231D01*
X176567488Y-99086704D01*
X176203819Y-99973420D01*
X176194820Y-99995362D01*
X176192899Y-99999801D01*
X175785632Y-100893468D01*
X175783542Y-100897831D01*
X175342270Y-101775201D01*
X175340014Y-101779480D01*
X174865374Y-102639291D01*
X174862963Y-102643468D01*
X174558565Y-103148073D01*
X174355677Y-103484404D01*
X174353099Y-103488498D01*
X174057177Y-103938997D01*
X173813910Y-104309335D01*
X173811182Y-104313320D01*
X173642355Y-104550007D01*
X173240853Y-105112892D01*
X173237968Y-105116775D01*
X173060249Y-105346717D01*
X172708075Y-105802378D01*
X172637419Y-105893796D01*
X172634396Y-105897557D01*
X172340249Y-106249353D01*
X172004408Y-106651013D01*
X172001234Y-106654664D01*
X171342804Y-107383363D01*
X171339492Y-107386889D01*
X170653603Y-108089746D01*
X170650159Y-108093143D01*
X169937755Y-108769189D01*
X169934182Y-108772451D01*
X169196386Y-109420621D01*
X169192691Y-109423744D01*
X168430528Y-110043137D01*
X168426716Y-110046115D01*
X167641353Y-110635781D01*
X167637429Y-110638611D01*
X166830010Y-111197695D01*
X166825981Y-111200372D01*
X165997690Y-111728052D01*
X165993560Y-111730573D01*
X165145631Y-112226062D01*
X165141409Y-112228422D01*
X164275034Y-112691024D01*
X164270771Y-112693196D01*
X163387305Y-113122184D01*
X163382947Y-113124198D01*
X162483635Y-113518968D01*
X162479197Y-113520815D01*
X161967333Y-113722444D01*
X161565422Y-113880761D01*
X161560888Y-113882447D01*
X160633988Y-114207043D01*
X160629392Y-114208554D01*
X159690706Y-114497331D01*
X159686056Y-114498664D01*
X159153610Y-114640337D01*
X158736976Y-114751194D01*
X158732314Y-114752339D01*
X157774224Y-114968255D01*
X157769505Y-114969224D01*
X156803827Y-115148201D01*
X156799072Y-115148989D01*
X156601666Y-115177787D01*
X155827276Y-115290758D01*
X155822476Y-115291365D01*
X155334193Y-115343548D01*
X154845890Y-115395732D01*
X154841113Y-115396149D01*
X154252383Y-115436285D01*
X153861305Y-115462946D01*
X153856473Y-115463183D01*
X153365624Y-115477752D01*
X152874763Y-115492320D01*
X152869952Y-115492370D01*
X152191570Y-115486449D01*
X151887900Y-115483799D01*
X151883065Y-115483664D01*
X151448765Y-115463183D01*
X150902069Y-115437401D01*
X150897258Y-115437083D01*
X149918710Y-115353191D01*
X149913916Y-115352687D01*
X148939349Y-115231299D01*
X148934564Y-115230609D01*
X147965385Y-115071900D01*
X147960627Y-115071027D01*
X147458097Y-114968786D01*
X146998228Y-114875224D01*
X146993509Y-114874169D01*
X146039361Y-114641573D01*
X146034684Y-114640337D01*
X145090178Y-114371287D01*
X145085552Y-114369873D01*
X144152051Y-114064758D01*
X144147482Y-114063167D01*
X143226386Y-113722444D01*
X143221882Y-113720679D01*
X142314537Y-113344844D01*
X142310104Y-113342907D01*
X141834614Y-113124206D01*
X141417851Y-112932516D01*
X141413524Y-112930424D01*
X140537675Y-112486081D01*
X140533412Y-112483814D01*
X139675295Y-112006192D01*
X139671114Y-112003759D01*
X139219795Y-111729353D01*
X138831940Y-111493533D01*
X138827883Y-111490959D01*
X138008907Y-110948891D01*
X138004925Y-110946144D01*
X137207385Y-110373053D01*
X137203511Y-110370155D01*
X136428551Y-109766866D01*
X136424791Y-109763821D01*
X136020937Y-109423744D01*
X135673561Y-109131226D01*
X135669938Y-109128054D01*
X134943528Y-108467071D01*
X134940037Y-108463771D01*
X134239498Y-107775352D01*
X134236179Y-107771961D01*
X133562620Y-107057198D01*
X133559378Y-107053623D01*
X133552505Y-107045744D01*
X132913758Y-106313535D01*
X132910682Y-106309869D01*
X132437624Y-105723602D01*
X132293947Y-105545541D01*
X132290982Y-105541719D01*
X131704048Y-104754287D01*
X131701232Y-104750353D01*
X131144971Y-103940987D01*
X131142308Y-103936948D01*
X131017357Y-103739296D01*
X132333273Y-103739296D01*
X132340284Y-103866675D01*
X132343765Y-103884093D01*
X132386600Y-104005398D01*
X132393622Y-104019405D01*
X132422094Y-104061936D01*
X132426181Y-104067379D01*
X132858497Y-104582592D01*
X132871722Y-104591391D01*
X132873561Y-104591420D01*
X132880519Y-104587763D01*
X133740279Y-103866338D01*
X133749078Y-103853113D01*
X133749107Y-103851274D01*
X133745450Y-103844316D01*
X133024025Y-102984556D01*
X133010800Y-102975757D01*
X133008961Y-102975728D01*
X133002003Y-102979385D01*
X132483289Y-103414638D01*
X132478319Y-103419289D01*
X132442895Y-103456227D01*
X132433546Y-103468805D01*
X132370297Y-103580826D01*
X132363844Y-103597376D01*
X132334821Y-103721601D01*
X132333273Y-103739296D01*
X131017357Y-103739296D01*
X130666463Y-103184237D01*
X130617521Y-103106819D01*
X130615019Y-103102687D01*
X130581852Y-103045470D01*
X130351192Y-102647561D01*
X133406580Y-102647561D01*
X133410237Y-102654519D01*
X134131662Y-103514279D01*
X134144887Y-103523078D01*
X134146726Y-103523107D01*
X134153684Y-103519450D01*
X135013444Y-102798025D01*
X135022243Y-102784800D01*
X135022272Y-102782961D01*
X135018615Y-102776003D01*
X134583362Y-102257289D01*
X134578711Y-102252319D01*
X134541773Y-102216895D01*
X134529195Y-102207546D01*
X134417174Y-102144297D01*
X134400624Y-102137844D01*
X134276399Y-102108821D01*
X134258704Y-102107273D01*
X134131325Y-102114284D01*
X134113907Y-102117765D01*
X133992602Y-102160600D01*
X133978595Y-102167622D01*
X133936064Y-102196094D01*
X133930621Y-102200181D01*
X133415408Y-102632497D01*
X133406609Y-102645722D01*
X133406580Y-102647561D01*
X130351192Y-102647561D01*
X130271480Y-102510051D01*
X130122485Y-102253021D01*
X130120140Y-102248790D01*
X129660601Y-101380872D01*
X129658419Y-101376554D01*
X129426989Y-100895678D01*
X129232514Y-100491588D01*
X129230503Y-100487196D01*
X129193939Y-100403105D01*
X128838887Y-99586540D01*
X128837048Y-99582079D01*
X128643925Y-99086742D01*
X128480305Y-98667077D01*
X128478638Y-98662548D01*
X128157272Y-97734499D01*
X128155777Y-97729898D01*
X127870283Y-96790225D01*
X127868966Y-96785571D01*
X127673127Y-96039079D01*
X127619744Y-95835595D01*
X127618609Y-95830900D01*
X127586648Y-95686734D01*
X127406051Y-94872110D01*
X127405097Y-94867383D01*
X127229491Y-93901084D01*
X127228718Y-93896309D01*
X127090342Y-92924032D01*
X127089752Y-92919230D01*
X126988794Y-91942283D01*
X126988392Y-91937486D01*
X126987142Y-91918142D01*
X126925018Y-90957474D01*
X126924798Y-90952642D01*
X126923755Y-90912824D01*
X126899089Y-89970851D01*
X126899055Y-89966039D01*
X126901195Y-89790973D01*
X126911055Y-88983989D01*
X126911206Y-88979176D01*
X126912709Y-88949522D01*
X126960895Y-87998310D01*
X126961232Y-87993500D01*
X126976773Y-87819373D01*
X127048532Y-87015317D01*
X127049054Y-87010509D01*
X127088745Y-86700671D01*
X127173849Y-86036335D01*
X127174553Y-86031572D01*
X127199113Y-85884811D01*
X127336646Y-85062939D01*
X127337534Y-85058195D01*
X127373054Y-84886679D01*
X127530503Y-84126387D01*
X127536691Y-84096507D01*
X127537763Y-84091789D01*
X127773688Y-83138460D01*
X127774940Y-83133787D01*
X128047287Y-82190219D01*
X128048717Y-82185598D01*
X128081815Y-82085520D01*
X128346172Y-81286174D01*
X129651095Y-81286174D01*
X129651392Y-81291327D01*
X129651392Y-81291330D01*
X129651967Y-81301302D01*
X129664427Y-81517402D01*
X129665564Y-81522448D01*
X129665565Y-81522454D01*
X129671428Y-81548470D01*
X129715346Y-81743347D01*
X129717288Y-81748129D01*
X129717289Y-81748133D01*
X129798750Y-81948747D01*
X129802484Y-81957942D01*
X129923501Y-82155424D01*
X130075147Y-82330489D01*
X130077138Y-82332142D01*
X130111448Y-82393437D01*
X130114616Y-82421512D01*
X130114616Y-95960940D01*
X130113183Y-95979890D01*
X130110992Y-95994289D01*
X130110992Y-95994295D01*
X130109892Y-96001524D01*
X130110485Y-96008816D01*
X130110485Y-96008819D01*
X130114201Y-96054499D01*
X130114616Y-96064714D01*
X130114616Y-96072841D01*
X130117927Y-96101240D01*
X130118354Y-96105560D01*
X130124307Y-96178742D01*
X130126563Y-96185704D01*
X130127759Y-96191692D01*
X130129167Y-96197649D01*
X130130015Y-96204923D01*
X130132513Y-96211805D01*
X130132514Y-96211809D01*
X130155061Y-96273923D01*
X130156471Y-96278027D01*
X130179103Y-96347891D01*
X130182903Y-96354154D01*
X130185441Y-96359696D01*
X130188183Y-96365172D01*
X130190682Y-96372057D01*
X130194697Y-96378181D01*
X130230931Y-96433448D01*
X130233246Y-96437116D01*
X130271343Y-96499897D01*
X130275057Y-96504102D01*
X130275059Y-96504105D01*
X130278783Y-96508321D01*
X130278754Y-96508347D01*
X130281354Y-96511278D01*
X130284158Y-96514632D01*
X130288170Y-96520751D01*
X130293482Y-96525783D01*
X130344702Y-96574304D01*
X130347144Y-96576682D01*
X135669478Y-101899016D01*
X135703504Y-101961328D01*
X135706383Y-101988111D01*
X135706383Y-103249471D01*
X135686381Y-103317592D01*
X135632725Y-103364085D01*
X135562451Y-103374189D01*
X135497871Y-103344695D01*
X135483861Y-103330462D01*
X135365503Y-103189408D01*
X135352278Y-103180609D01*
X135350439Y-103180580D01*
X135343481Y-103184237D01*
X134355987Y-104012844D01*
X134080693Y-104243843D01*
X133210556Y-104973975D01*
X133201757Y-104987200D01*
X133201728Y-104989039D01*
X133205385Y-104995997D01*
X133640638Y-105514711D01*
X133645289Y-105519681D01*
X133682227Y-105555105D01*
X133694805Y-105564454D01*
X133806826Y-105627703D01*
X133823376Y-105634156D01*
X133947601Y-105663179D01*
X133965296Y-105664727D01*
X134092675Y-105657716D01*
X134110093Y-105654235D01*
X134167867Y-105633834D01*
X134238761Y-105630012D01*
X134300467Y-105665125D01*
X134333393Y-105728025D01*
X134335109Y-105766033D01*
X134331776Y-105797222D01*
X134332073Y-105802375D01*
X134332073Y-105802378D01*
X134337748Y-105900794D01*
X134345108Y-106028450D01*
X134346245Y-106033496D01*
X134346246Y-106033502D01*
X134372520Y-106150086D01*
X134396027Y-106254395D01*
X134397969Y-106259177D01*
X134397970Y-106259181D01*
X134481221Y-106464203D01*
X134483165Y-106468990D01*
X134604182Y-106666472D01*
X134755828Y-106841537D01*
X134934030Y-106989483D01*
X135134003Y-107106337D01*
X135350375Y-107188962D01*
X135355441Y-107189993D01*
X135355442Y-107189993D01*
X135408527Y-107200793D01*
X135577337Y-107235138D01*
X135708005Y-107239929D01*
X135803630Y-107243436D01*
X135803634Y-107243436D01*
X135808794Y-107243625D01*
X135813914Y-107242969D01*
X135813916Y-107242969D01*
X135886951Y-107233613D01*
X136038528Y-107214195D01*
X136043476Y-107212710D01*
X136043483Y-107212709D01*
X136255428Y-107149122D01*
X136260371Y-107147639D01*
X136340917Y-107108180D01*
X136463730Y-107048015D01*
X136463733Y-107048013D01*
X136468365Y-107045744D01*
X136656924Y-106911247D01*
X136820984Y-106747758D01*
X136956139Y-106559670D01*
X137003322Y-106464203D01*
X137056465Y-106356675D01*
X137056466Y-106356673D01*
X137058759Y-106352033D01*
X137126089Y-106130424D01*
X137156321Y-105900794D01*
X137158008Y-105831753D01*
X137146622Y-105693264D01*
X169458785Y-105693264D01*
X169459234Y-105695051D01*
X169464564Y-105700822D01*
X170019244Y-106089213D01*
X170025014Y-106092805D01*
X170069869Y-106117465D01*
X170084437Y-106123240D01*
X170209007Y-106155340D01*
X170226673Y-106157290D01*
X170354165Y-106153172D01*
X170371668Y-106150086D01*
X170492881Y-106110351D01*
X170508818Y-106102474D01*
X170614890Y-106029709D01*
X170626613Y-106019292D01*
X170660325Y-105980784D01*
X170664515Y-105975441D01*
X171050287Y-105424499D01*
X171055363Y-105409450D01*
X171054914Y-105407663D01*
X171049584Y-105401892D01*
X170130215Y-104758144D01*
X170115166Y-104753068D01*
X170113379Y-104753517D01*
X170107608Y-104758847D01*
X169463861Y-105678215D01*
X169458785Y-105693264D01*
X137146622Y-105693264D01*
X137139030Y-105600920D01*
X137122625Y-105535610D01*
X137125429Y-105464670D01*
X137130681Y-105451566D01*
X137153118Y-105403559D01*
X137155030Y-105399646D01*
X137188426Y-105334243D01*
X137190167Y-105327129D01*
X137192299Y-105321395D01*
X137194227Y-105315599D01*
X137197327Y-105308967D01*
X137212278Y-105237087D01*
X137213248Y-105232803D01*
X137229352Y-105166989D01*
X137230687Y-105161535D01*
X137231383Y-105150317D01*
X137231420Y-105150319D01*
X137231656Y-105146420D01*
X137232046Y-105142049D01*
X137233535Y-105134890D01*
X137231429Y-105057070D01*
X137231383Y-105053661D01*
X137231383Y-104567673D01*
X168289710Y-104567673D01*
X168293828Y-104695165D01*
X168296914Y-104712668D01*
X168336649Y-104833881D01*
X168344526Y-104849818D01*
X168417291Y-104955890D01*
X168427708Y-104967613D01*
X168466216Y-105001325D01*
X168471559Y-105005515D01*
X169022501Y-105391287D01*
X169037550Y-105396363D01*
X169039337Y-105395914D01*
X169045108Y-105390584D01*
X169688856Y-104471215D01*
X169693932Y-104456166D01*
X169693483Y-104454379D01*
X169688153Y-104448608D01*
X168768785Y-103804861D01*
X168753736Y-103799785D01*
X168751949Y-103800234D01*
X168746178Y-103805564D01*
X168357787Y-104360244D01*
X168354195Y-104366014D01*
X168329535Y-104410869D01*
X168323760Y-104425437D01*
X168291660Y-104550007D01*
X168289710Y-104567673D01*
X137231383Y-104567673D01*
X137231383Y-101687459D01*
X137232816Y-101668509D01*
X137235007Y-101654110D01*
X137235007Y-101654104D01*
X137236107Y-101646875D01*
X137231798Y-101593900D01*
X137231383Y-101583685D01*
X137231383Y-101575558D01*
X137228072Y-101547159D01*
X137227643Y-101542819D01*
X137222285Y-101476950D01*
X137221692Y-101469657D01*
X137219436Y-101462695D01*
X137218240Y-101456707D01*
X137216832Y-101450750D01*
X137215984Y-101443476D01*
X137213486Y-101436594D01*
X137213485Y-101436590D01*
X137190938Y-101374476D01*
X137189528Y-101370372D01*
X137166896Y-101300508D01*
X137163096Y-101294245D01*
X137160558Y-101288703D01*
X137157816Y-101283227D01*
X137155317Y-101276342D01*
X137142289Y-101256471D01*
X137115068Y-101214951D01*
X137112753Y-101211283D01*
X137074656Y-101148502D01*
X137067216Y-101140078D01*
X137067245Y-101140052D01*
X137064645Y-101137121D01*
X137061841Y-101133767D01*
X137057829Y-101127648D01*
X137001296Y-101074094D01*
X136998855Y-101071717D01*
X131980161Y-96053023D01*
X146120517Y-96053023D01*
X146120541Y-96053362D01*
X146126364Y-96061994D01*
X146444622Y-96353113D01*
X146447724Y-96355773D01*
X146905235Y-96722963D01*
X146908478Y-96725399D01*
X147388723Y-97062294D01*
X147392150Y-97064537D01*
X147893130Y-97369737D01*
X147896665Y-97371737D01*
X148416331Y-97643990D01*
X148419969Y-97645749D01*
X148956089Y-97883884D01*
X148959879Y-97885423D01*
X149510248Y-98088465D01*
X149514113Y-98089751D01*
X150076443Y-98256854D01*
X150080384Y-98257888D01*
X150652318Y-98388353D01*
X150656313Y-98389130D01*
X151235493Y-98482418D01*
X151239532Y-98482935D01*
X151823504Y-98538651D01*
X151827573Y-98538907D01*
X152413923Y-98556822D01*
X152418010Y-98556814D01*
X153004306Y-98536853D01*
X153008348Y-98536585D01*
X153592145Y-98478828D01*
X153596181Y-98478297D01*
X154175015Y-98382991D01*
X154179018Y-98382198D01*
X154750506Y-98249734D01*
X154754426Y-98248691D01*
X155316191Y-98079619D01*
X155320024Y-98078329D01*
X155869684Y-97873366D01*
X155873477Y-97871810D01*
X156408752Y-97631810D01*
X156412413Y-97630024D01*
X156931116Y-97355964D01*
X156934622Y-97353964D01*
X157434558Y-97047003D01*
X157437955Y-97044762D01*
X157917034Y-96706183D01*
X157920258Y-96703745D01*
X158376504Y-96334943D01*
X158379571Y-96332296D01*
X158671018Y-96063827D01*
X158679196Y-96050210D01*
X158679182Y-96049751D01*
X158673837Y-96041047D01*
X152412812Y-89780022D01*
X152398868Y-89772408D01*
X152397035Y-89772539D01*
X152390420Y-89776790D01*
X146128131Y-96039079D01*
X146120517Y-96053023D01*
X131980161Y-96053023D01*
X131676521Y-95749383D01*
X131642495Y-95687071D01*
X131639616Y-95660288D01*
X131639616Y-82685814D01*
X131659618Y-82617693D01*
X131710182Y-82572664D01*
X131787684Y-82534696D01*
X131976243Y-82400199D01*
X132140303Y-82236710D01*
X132275458Y-82048622D01*
X132282526Y-82034321D01*
X132330638Y-81982114D01*
X132395484Y-81964146D01*
X136662978Y-81964146D01*
X136681928Y-81965579D01*
X136696327Y-81967770D01*
X136696333Y-81967770D01*
X136703562Y-81968870D01*
X136710854Y-81968277D01*
X136710857Y-81968277D01*
X136756537Y-81964561D01*
X136766752Y-81964146D01*
X136774879Y-81964146D01*
X136778515Y-81963722D01*
X136778517Y-81963722D01*
X136781969Y-81963319D01*
X136803278Y-81960835D01*
X136807598Y-81960408D01*
X136880780Y-81954455D01*
X136887742Y-81952199D01*
X136893730Y-81951003D01*
X136899687Y-81949595D01*
X136906961Y-81948747D01*
X136913843Y-81946249D01*
X136913847Y-81946248D01*
X136975961Y-81923701D01*
X136980065Y-81922291D01*
X137049929Y-81899659D01*
X137056192Y-81895859D01*
X137061734Y-81893321D01*
X137067210Y-81890579D01*
X137074095Y-81888080D01*
X137135486Y-81847831D01*
X137139154Y-81845516D01*
X137201935Y-81807419D01*
X137206140Y-81803705D01*
X137206143Y-81803703D01*
X137210359Y-81799979D01*
X137210385Y-81800008D01*
X137213316Y-81797408D01*
X137216670Y-81794604D01*
X137222789Y-81790592D01*
X137276343Y-81734059D01*
X137278720Y-81731618D01*
X150066308Y-68944030D01*
X159514334Y-68944030D01*
X159525941Y-69173152D01*
X159527303Y-69183359D01*
X159576176Y-69407513D01*
X159579185Y-69417356D01*
X159664012Y-69630515D01*
X159668595Y-69639748D01*
X159787094Y-69836187D01*
X159793121Y-69844543D01*
X159942106Y-70018983D01*
X159949430Y-70026255D01*
X160024628Y-70089577D01*
X160036871Y-70094961D01*
X160048082Y-70084623D01*
X161020319Y-68400660D01*
X161024064Y-68385225D01*
X161023461Y-68383485D01*
X161017645Y-68378198D01*
X160002371Y-67792028D01*
X159986936Y-67788283D01*
X159985196Y-67788886D01*
X159979909Y-67794702D01*
X159684587Y-68306215D01*
X159682186Y-68310798D01*
X159609104Y-68465402D01*
X159605479Y-68475047D01*
X159542631Y-68695678D01*
X159540627Y-68705796D01*
X159514658Y-68933726D01*
X159514334Y-68944030D01*
X150066308Y-68944030D01*
X151037741Y-67972597D01*
X151100053Y-67938571D01*
X151151953Y-67938221D01*
X151216656Y-67951385D01*
X151221831Y-67951575D01*
X151221833Y-67951575D01*
X151442949Y-67959683D01*
X151442953Y-67959683D01*
X151448113Y-67959872D01*
X151453233Y-67959216D01*
X151453235Y-67959216D01*
X151552668Y-67946478D01*
X151677847Y-67930442D01*
X151682795Y-67928957D01*
X151682802Y-67928956D01*
X151894747Y-67865369D01*
X151899690Y-67863886D01*
X151996856Y-67816285D01*
X152103049Y-67764262D01*
X152103052Y-67764260D01*
X152107684Y-67761991D01*
X152296243Y-67627494D01*
X152299898Y-67623852D01*
X152299906Y-67623845D01*
X152341697Y-67582199D01*
X152404068Y-67548282D01*
X152474875Y-67553470D01*
X152531637Y-67596116D01*
X152548619Y-67627218D01*
X152570677Y-67686056D01*
X152579214Y-67701649D01*
X152655715Y-67803724D01*
X152668276Y-67816285D01*
X152770351Y-67892786D01*
X152785946Y-67901324D01*
X152906394Y-67946478D01*
X152921649Y-67950105D01*
X152972514Y-67955631D01*
X152979328Y-67956000D01*
X153651885Y-67956000D01*
X153667124Y-67951525D01*
X153668329Y-67950135D01*
X153670000Y-67942452D01*
X153670000Y-67937884D01*
X154178000Y-67937884D01*
X154182475Y-67953123D01*
X154183865Y-67954328D01*
X154191548Y-67955999D01*
X154868669Y-67955999D01*
X154875490Y-67955629D01*
X154926352Y-67950105D01*
X154941604Y-67946479D01*
X155062054Y-67901324D01*
X155077649Y-67892786D01*
X155179724Y-67816285D01*
X155192285Y-67803724D01*
X155268786Y-67701649D01*
X155277324Y-67686054D01*
X155322478Y-67565606D01*
X155326105Y-67550351D01*
X155331631Y-67499486D01*
X155332000Y-67492672D01*
X155332000Y-66820115D01*
X155327525Y-66804876D01*
X155326135Y-66803671D01*
X155318452Y-66802000D01*
X154196115Y-66802000D01*
X154180876Y-66806475D01*
X154179671Y-66807865D01*
X154178000Y-66815548D01*
X154178000Y-67937884D01*
X153670000Y-67937884D01*
X153670000Y-66275885D01*
X154178000Y-66275885D01*
X154182475Y-66291124D01*
X154183865Y-66292329D01*
X154191548Y-66294000D01*
X155313884Y-66294000D01*
X155329123Y-66289525D01*
X155330328Y-66288135D01*
X155331999Y-66280452D01*
X155331999Y-65603331D01*
X155331629Y-65596510D01*
X155326105Y-65545648D01*
X155322479Y-65530396D01*
X155277324Y-65409946D01*
X155268786Y-65394351D01*
X155192285Y-65292276D01*
X155179724Y-65279715D01*
X155077649Y-65203214D01*
X155062054Y-65194676D01*
X154941606Y-65149522D01*
X154926351Y-65145895D01*
X154875486Y-65140369D01*
X154868672Y-65140000D01*
X154196115Y-65140000D01*
X154180876Y-65144475D01*
X154179671Y-65145865D01*
X154178000Y-65153548D01*
X154178000Y-66275885D01*
X153670000Y-66275885D01*
X153670000Y-65158116D01*
X153665525Y-65142877D01*
X153664135Y-65141672D01*
X153656452Y-65140001D01*
X152979331Y-65140001D01*
X152972510Y-65140371D01*
X152921648Y-65145895D01*
X152906396Y-65149521D01*
X152785946Y-65194676D01*
X152770351Y-65203214D01*
X152668276Y-65279715D01*
X152655715Y-65292276D01*
X152579214Y-65394351D01*
X152570675Y-65409948D01*
X152549934Y-65465275D01*
X152507293Y-65522040D01*
X152440731Y-65546740D01*
X152371383Y-65531533D01*
X152348388Y-65514909D01*
X152347887Y-65514358D01*
X152266684Y-65450228D01*
X152170177Y-65374011D01*
X152170172Y-65374008D01*
X152166123Y-65370810D01*
X152161607Y-65368317D01*
X152161604Y-65368315D01*
X151967879Y-65261373D01*
X151967875Y-65261371D01*
X151963355Y-65258876D01*
X151958486Y-65257152D01*
X151958482Y-65257150D01*
X151749903Y-65183288D01*
X151749899Y-65183287D01*
X151745028Y-65181562D01*
X151739935Y-65180655D01*
X151739932Y-65180654D01*
X151522095Y-65141851D01*
X151522089Y-65141850D01*
X151517006Y-65140945D01*
X151439644Y-65140000D01*
X151290581Y-65138179D01*
X151290579Y-65138179D01*
X151285411Y-65138116D01*
X151056464Y-65173150D01*
X150836314Y-65245106D01*
X150831726Y-65247494D01*
X150831722Y-65247496D01*
X150635461Y-65349663D01*
X150630872Y-65352052D01*
X150626739Y-65355155D01*
X150626736Y-65355157D01*
X150480073Y-65465275D01*
X150445655Y-65491117D01*
X150285639Y-65658564D01*
X150155119Y-65849899D01*
X150057602Y-66059981D01*
X149995707Y-66283169D01*
X149971095Y-66513469D01*
X149984427Y-66744697D01*
X149985562Y-66749732D01*
X149992072Y-66778619D01*
X149987534Y-66849470D01*
X149958249Y-66895413D01*
X136451421Y-80402241D01*
X136389109Y-80436267D01*
X136362326Y-80439146D01*
X133417024Y-80439146D01*
X133348903Y-80419144D01*
X133302410Y-80365488D01*
X133292306Y-80295214D01*
X133307905Y-80250146D01*
X133417306Y-80060659D01*
X133421051Y-80045224D01*
X133420448Y-80043484D01*
X133414632Y-80038197D01*
X132426970Y-79467970D01*
X131664530Y-79027775D01*
X132686283Y-79027775D01*
X132686886Y-79029515D01*
X132692702Y-79034802D01*
X133664674Y-79595971D01*
X133680109Y-79599716D01*
X133681849Y-79599113D01*
X133687136Y-79593297D01*
X134025700Y-79006888D01*
X134028786Y-79000805D01*
X134049433Y-78953993D01*
X134053921Y-78938965D01*
X134075040Y-78812079D01*
X134075443Y-78794307D01*
X134060229Y-78667654D01*
X134055630Y-78650492D01*
X134005482Y-78533206D01*
X133996244Y-78518013D01*
X133914515Y-78418689D01*
X133903111Y-78407915D01*
X133861830Y-78377702D01*
X133856106Y-78373971D01*
X133273659Y-78037694D01*
X133258224Y-78033949D01*
X133256484Y-78034552D01*
X133251197Y-78040368D01*
X132690028Y-79012340D01*
X132686283Y-79027775D01*
X131664530Y-79027775D01*
X131003326Y-78646029D01*
X130987891Y-78642284D01*
X130986151Y-78642887D01*
X130980864Y-78648703D01*
X130642300Y-79235112D01*
X130639214Y-79241195D01*
X130618567Y-79288007D01*
X130614079Y-79303035D01*
X130592960Y-79429921D01*
X130592557Y-79447693D01*
X130607771Y-79574346D01*
X130612370Y-79591508D01*
X130662518Y-79708794D01*
X130671756Y-79723987D01*
X130712089Y-79773003D01*
X130739928Y-79838314D01*
X130728037Y-79908307D01*
X130680193Y-79960761D01*
X130653939Y-79972828D01*
X130602215Y-79989734D01*
X130516314Y-80017811D01*
X130511726Y-80020199D01*
X130511722Y-80020201D01*
X130434003Y-80060659D01*
X130310872Y-80124757D01*
X130306739Y-80127860D01*
X130306736Y-80127862D01*
X130129790Y-80260717D01*
X130125655Y-80263822D01*
X130122083Y-80267560D01*
X130000254Y-80395047D01*
X129965639Y-80431269D01*
X129962725Y-80435541D01*
X129962724Y-80435542D01*
X129960266Y-80439146D01*
X129835119Y-80622604D01*
X129737602Y-80832686D01*
X129675707Y-81055874D01*
X129651095Y-81286174D01*
X128346172Y-81286174D01*
X128357096Y-81253143D01*
X128358698Y-81248596D01*
X128420202Y-81084098D01*
X128557342Y-80717299D01*
X128702635Y-80328696D01*
X128704416Y-80324198D01*
X129083411Y-79418183D01*
X129085363Y-79413757D01*
X129498859Y-78522955D01*
X129500980Y-78518606D01*
X129665668Y-78196776D01*
X131246949Y-78196776D01*
X131247552Y-78198516D01*
X131253368Y-78203803D01*
X132225340Y-78764972D01*
X132240775Y-78768717D01*
X132242515Y-78768114D01*
X132247802Y-78762298D01*
X132808971Y-77790326D01*
X132812716Y-77774891D01*
X132812113Y-77773151D01*
X132806297Y-77767864D01*
X132219888Y-77429300D01*
X132213805Y-77426214D01*
X132166993Y-77405567D01*
X132151965Y-77401079D01*
X132025079Y-77379960D01*
X132007307Y-77379557D01*
X131880654Y-77394771D01*
X131863492Y-77399370D01*
X131746206Y-77449518D01*
X131731013Y-77458756D01*
X131631689Y-77540485D01*
X131620915Y-77551889D01*
X131590702Y-77593170D01*
X131586971Y-77598894D01*
X131250694Y-78181341D01*
X131246949Y-78196776D01*
X129665668Y-78196776D01*
X129756363Y-78019543D01*
X129948378Y-77644314D01*
X129950657Y-77640063D01*
X130027707Y-77502763D01*
X130246572Y-77112750D01*
X130431272Y-76783619D01*
X130433720Y-76779446D01*
X130946877Y-75942050D01*
X130949484Y-75937975D01*
X131494378Y-75120940D01*
X131497139Y-75116967D01*
X132073019Y-74321420D01*
X132075904Y-74317590D01*
X132519122Y-73752333D01*
X132681919Y-73544711D01*
X132684977Y-73540962D01*
X133320187Y-72791949D01*
X133323386Y-72788321D01*
X133904497Y-72154149D01*
X133986867Y-72064258D01*
X133990198Y-72060759D01*
X134056842Y-71993414D01*
X134681014Y-71362670D01*
X134684483Y-71359297D01*
X135401565Y-70688265D01*
X135405160Y-70685028D01*
X136147481Y-70042009D01*
X136151197Y-70038913D01*
X136917650Y-69424868D01*
X136921483Y-69421916D01*
X137710963Y-68837731D01*
X137714907Y-68834929D01*
X138526208Y-68281498D01*
X138530245Y-68278856D01*
X138647819Y-68205102D01*
X139362213Y-67756963D01*
X139366324Y-67754493D01*
X139987583Y-67397253D01*
X140217709Y-67264925D01*
X140221948Y-67262594D01*
X140810711Y-66953486D01*
X141091523Y-66806056D01*
X141095814Y-66803908D01*
X141982268Y-66381092D01*
X141986644Y-66379107D01*
X142888663Y-65990636D01*
X142893121Y-65988817D01*
X143809392Y-65635257D01*
X143813903Y-65633614D01*
X144349530Y-65450228D01*
X144743077Y-65315487D01*
X144747684Y-65314008D01*
X145282525Y-65153548D01*
X145688365Y-65031791D01*
X145692991Y-65030499D01*
X146643827Y-64784596D01*
X146648533Y-64783475D01*
X146831420Y-64743599D01*
X147608124Y-64574250D01*
X147612820Y-64573321D01*
X148579714Y-64401091D01*
X148584455Y-64400340D01*
X149557258Y-64265352D01*
X149562045Y-64264781D01*
X150539313Y-64167237D01*
X150544099Y-64166851D01*
X151524387Y-64106894D01*
X151529187Y-64106693D01*
X152511097Y-64084411D01*
X152515897Y-64084395D01*
X153017774Y-64092279D01*
G37*
%TD.AperFunction*%
%TD*%
M02*
