%TF.GenerationSoftware,KiCad,Pcbnew,(5.1.8)-1*%
%TF.CreationDate,2022-03-30T15:59:02-07:00*%
%TF.ProjectId,Alpenglow_GoldSun_PCB,416c7065-6e67-46c6-9f77-5f476f6c6453,rev?*%
%TF.SameCoordinates,Original*%
%TF.FileFunction,Soldermask,Bot*%
%TF.FilePolarity,Negative*%
%FSLAX46Y46*%
G04 Gerber Fmt 4.6, Leading zero omitted, Abs format (unit mm)*
G04 Created by KiCad (PCBNEW (5.1.8)-1) date 2022-03-30 15:59:02*
%MOMM*%
%LPD*%
G01*
G04 APERTURE LIST*
%ADD10C,17.272000*%
%ADD11O,2.500000X4.000000*%
%ADD12R,1.800000X1.800000*%
%ADD13C,1.800000*%
%ADD14C,0.100000*%
G04 APERTURE END LIST*
D10*
%TO.C,BT1*%
X152400000Y-89408000D03*
D11*
X162941000Y-89408000D03*
X141859000Y-89408000D03*
%TD*%
D12*
%TO.C,D1*%
X153924000Y-66548000D03*
D13*
X151384000Y-66548000D03*
%TD*%
D14*
%TO.C,D3*%
G36*
X175041623Y-80695023D02*
G01*
X173482777Y-81595023D01*
X172582777Y-80036177D01*
X174141623Y-79136177D01*
X175041623Y-80695023D01*
G37*
D13*
X172542200Y-78165895D03*
%TD*%
D14*
%TO.C,D2*%
G36*
X132004577Y-77891577D02*
G01*
X133563423Y-78791577D01*
X132663423Y-80350423D01*
X131104577Y-79450423D01*
X132004577Y-77891577D01*
G37*
D13*
X131064000Y-81320705D03*
%TD*%
D14*
%TO.C,D4*%
G36*
X132844051Y-103775069D02*
G01*
X134222931Y-102618051D01*
X135379949Y-103996931D01*
X134001069Y-105153949D01*
X132844051Y-103775069D01*
G37*
D13*
X135744681Y-105831753D03*
%TD*%
D14*
%TO.C,D5*%
G36*
X170274018Y-105647456D02*
G01*
X168799544Y-104615018D01*
X169831982Y-103140544D01*
X171306456Y-104172982D01*
X170274018Y-105647456D01*
G37*
D13*
X171509884Y-102313354D03*
%TD*%
D14*
%TO.C,SW1*%
G36*
X162007083Y-70099532D02*
G01*
X163257083Y-67934468D01*
X164382917Y-68584468D01*
X163132917Y-70749532D01*
X162007083Y-70099532D01*
G37*
G36*
G01*
X164064134Y-70536615D02*
X164664134Y-69497385D01*
G75*
G02*
X165552051Y-69259468I562917J-325000D01*
G01*
X165552051Y-69259468D01*
G75*
G02*
X165789968Y-70147385I-325000J-562917D01*
G01*
X165189968Y-71186615D01*
G75*
G02*
X164302051Y-71424532I-562917J325000D01*
G01*
X164302051Y-71424532D01*
G75*
G02*
X164064134Y-70536615I325000J562917D01*
G01*
G37*
G36*
G01*
X165796185Y-71536615D02*
X166396185Y-70497385D01*
G75*
G02*
X167284102Y-70259468I562917J-325000D01*
G01*
X167284102Y-70259468D01*
G75*
G02*
X167522019Y-71147385I-325000J-562917D01*
G01*
X166922019Y-72186615D01*
G75*
G02*
X166034102Y-72424532I-562917J325000D01*
G01*
X166034102Y-72424532D01*
G75*
G02*
X165796185Y-71536615I325000J562917D01*
G01*
G37*
G36*
G01*
X160153623Y-68509820D02*
X160953623Y-67124180D01*
G75*
G02*
X162251347Y-66776456I822724J-475000D01*
G01*
X162251347Y-66776456D01*
G75*
G02*
X162599071Y-68074180I-475000J-822724D01*
G01*
X161799071Y-69459820D01*
G75*
G02*
X160501347Y-69807544I-822724J475000D01*
G01*
X160501347Y-69807544D01*
G75*
G02*
X160153623Y-68509820I475000J822724D01*
G01*
G37*
G36*
G01*
X167255031Y-72609820D02*
X168055031Y-71224180D01*
G75*
G02*
X169352755Y-70876456I822724J-475000D01*
G01*
X169352755Y-70876456D01*
G75*
G02*
X169700479Y-72174180I-475000J-822724D01*
G01*
X168900479Y-73559820D01*
G75*
G02*
X167602755Y-73907544I-822724J475000D01*
G01*
X167602755Y-73907544D01*
G75*
G02*
X167255031Y-72609820I475000J822724D01*
G01*
G37*
%TD*%
M02*
