%TF.GenerationSoftware,KiCad,Pcbnew,(5.1.8)-1*%
%TF.CreationDate,2022-03-30T15:59:02-07:00*%
%TF.ProjectId,Alpenglow_GoldSun_PCB,416c7065-6e67-46c6-9f77-5f476f6c6453,rev?*%
%TF.SameCoordinates,Original*%
%TF.FileFunction,Legend,Bot*%
%TF.FilePolarity,Positive*%
%FSLAX46Y46*%
G04 Gerber Fmt 4.6, Leading zero omitted, Abs format (unit mm)*
G04 Created by KiCad (PCBNEW (5.1.8)-1) date 2022-03-30 15:59:02*
%MOMM*%
%LPD*%
G01*
G04 APERTURE LIST*
%ADD10C,0.152400*%
%ADD11C,0.177800*%
%ADD12C,0.150000*%
%ADD13C,0.254000*%
%ADD14C,0.010000*%
G04 APERTURE END LIST*
D10*
X171937699Y-75946248D02*
X171145072Y-76501251D01*
X171818888Y-76620063D02*
X171263884Y-75827436D01*
X173738636Y-100757769D02*
X172946009Y-100202765D01*
X173064821Y-100876581D02*
X173619824Y-100083954D01*
X137564123Y-108168070D02*
X136942150Y-107426831D01*
X136882517Y-108108437D02*
X137623756Y-107486464D01*
X129677869Y-83078089D02*
X128768604Y-82747144D01*
X129057764Y-83367249D02*
X129388709Y-82457984D01*
X149374860Y-66308514D02*
X148407240Y-66308514D01*
X148891050Y-66792323D02*
X148891050Y-65824704D01*
X157071060Y-66308514D02*
X156103440Y-66308514D01*
X134107969Y-76451363D02*
X133552965Y-77243990D01*
X132915923Y-102503870D02*
X132293950Y-101762631D01*
X168880569Y-105991563D02*
X168325565Y-106784190D01*
X174908030Y-82055602D02*
X175391840Y-82893584D01*
D11*
X158779028Y-75712561D02*
X158839504Y-75652085D01*
X158960457Y-75591609D01*
X159081409Y-75591609D01*
X159202361Y-75652085D01*
X159262838Y-75712561D01*
X159323314Y-75833514D01*
X159323314Y-75954466D01*
X159262838Y-76075419D01*
X159202361Y-76135895D01*
X159081409Y-76196371D01*
X158960457Y-76196371D01*
X158839504Y-76135895D01*
X158779028Y-76075419D01*
X158779028Y-75591609D02*
X158779028Y-76075419D01*
X158718552Y-76135895D01*
X158658076Y-76135895D01*
X158537123Y-76075419D01*
X158476647Y-75954466D01*
X158476647Y-75652085D01*
X158597600Y-75470657D01*
X158779028Y-75349704D01*
X159020933Y-75289228D01*
X159262838Y-75349704D01*
X159444266Y-75470657D01*
X159565219Y-75652085D01*
X159625695Y-75893990D01*
X159565219Y-76135895D01*
X159444266Y-76317323D01*
X159262838Y-76438276D01*
X159020933Y-76498752D01*
X158779028Y-76438276D01*
X158597600Y-76317323D01*
X157992838Y-75954466D02*
X157388076Y-75954466D01*
X158113790Y-76317323D02*
X157690457Y-75047323D01*
X157267123Y-76317323D01*
X156662361Y-76317323D02*
X156783314Y-76256847D01*
X156843790Y-76135895D01*
X156843790Y-75047323D01*
X156178552Y-75470657D02*
X156178552Y-76740657D01*
X156178552Y-75531133D02*
X156057600Y-75470657D01*
X155815695Y-75470657D01*
X155694742Y-75531133D01*
X155634266Y-75591609D01*
X155573790Y-75712561D01*
X155573790Y-76075419D01*
X155634266Y-76196371D01*
X155694742Y-76256847D01*
X155815695Y-76317323D01*
X156057600Y-76317323D01*
X156178552Y-76256847D01*
X154545695Y-76256847D02*
X154666647Y-76317323D01*
X154908552Y-76317323D01*
X155029504Y-76256847D01*
X155089980Y-76135895D01*
X155089980Y-75652085D01*
X155029504Y-75531133D01*
X154908552Y-75470657D01*
X154666647Y-75470657D01*
X154545695Y-75531133D01*
X154485219Y-75652085D01*
X154485219Y-75773038D01*
X155089980Y-75893990D01*
X153940933Y-75470657D02*
X153940933Y-76317323D01*
X153940933Y-75591609D02*
X153880457Y-75531133D01*
X153759504Y-75470657D01*
X153578076Y-75470657D01*
X153457123Y-75531133D01*
X153396647Y-75652085D01*
X153396647Y-76317323D01*
X152247600Y-75470657D02*
X152247600Y-76498752D01*
X152308076Y-76619704D01*
X152368552Y-76680180D01*
X152489504Y-76740657D01*
X152670933Y-76740657D01*
X152791885Y-76680180D01*
X152247600Y-76256847D02*
X152368552Y-76317323D01*
X152610457Y-76317323D01*
X152731409Y-76256847D01*
X152791885Y-76196371D01*
X152852361Y-76075419D01*
X152852361Y-75712561D01*
X152791885Y-75591609D01*
X152731409Y-75531133D01*
X152610457Y-75470657D01*
X152368552Y-75470657D01*
X152247600Y-75531133D01*
X151461409Y-76317323D02*
X151582361Y-76256847D01*
X151642838Y-76135895D01*
X151642838Y-75047323D01*
X150796171Y-76317323D02*
X150917123Y-76256847D01*
X150977600Y-76196371D01*
X151038076Y-76075419D01*
X151038076Y-75712561D01*
X150977600Y-75591609D01*
X150917123Y-75531133D01*
X150796171Y-75470657D01*
X150614742Y-75470657D01*
X150493790Y-75531133D01*
X150433314Y-75591609D01*
X150372838Y-75712561D01*
X150372838Y-76075419D01*
X150433314Y-76196371D01*
X150493790Y-76256847D01*
X150614742Y-76317323D01*
X150796171Y-76317323D01*
X149949504Y-75470657D02*
X149707600Y-76317323D01*
X149465695Y-75712561D01*
X149223790Y-76317323D01*
X148981885Y-75470657D01*
X148498076Y-76317323D02*
X148498076Y-75047323D01*
X147893314Y-75470657D02*
X147893314Y-76317323D01*
X147893314Y-75591609D02*
X147832838Y-75531133D01*
X147711885Y-75470657D01*
X147530457Y-75470657D01*
X147409504Y-75531133D01*
X147349028Y-75652085D01*
X147349028Y-76317323D01*
X146199980Y-76317323D02*
X146199980Y-75047323D01*
X146199980Y-76256847D02*
X146320933Y-76317323D01*
X146562838Y-76317323D01*
X146683790Y-76256847D01*
X146744266Y-76196371D01*
X146804742Y-76075419D01*
X146804742Y-75712561D01*
X146744266Y-75591609D01*
X146683790Y-75531133D01*
X146562838Y-75470657D01*
X146320933Y-75470657D01*
X146199980Y-75531133D01*
X159932914Y-102698247D02*
X159751485Y-102758723D01*
X159449104Y-102758723D01*
X159328152Y-102698247D01*
X159267676Y-102637771D01*
X159207200Y-102516819D01*
X159207200Y-102395866D01*
X159267676Y-102274914D01*
X159328152Y-102214438D01*
X159449104Y-102153961D01*
X159691009Y-102093485D01*
X159811961Y-102033009D01*
X159872438Y-101972533D01*
X159932914Y-101851580D01*
X159932914Y-101730628D01*
X159872438Y-101609676D01*
X159811961Y-101549200D01*
X159691009Y-101488723D01*
X159388628Y-101488723D01*
X159207200Y-101549200D01*
X158662914Y-101488723D02*
X158662914Y-102516819D01*
X158602438Y-102637771D01*
X158541961Y-102698247D01*
X158421009Y-102758723D01*
X158179104Y-102758723D01*
X158058152Y-102698247D01*
X157997676Y-102637771D01*
X157937200Y-102516819D01*
X157937200Y-101488723D01*
X157332438Y-102758723D02*
X157332438Y-101488723D01*
X156606723Y-102758723D01*
X156606723Y-101488723D01*
X156001961Y-102758723D02*
X156001961Y-101488723D01*
X155276247Y-102758723D01*
X155276247Y-101488723D01*
X154429580Y-102153961D02*
X154429580Y-102758723D01*
X154852914Y-101488723D02*
X154429580Y-102153961D01*
X154006247Y-101488723D01*
X152675771Y-102698247D02*
X152494342Y-102758723D01*
X152191961Y-102758723D01*
X152071009Y-102698247D01*
X152010533Y-102637771D01*
X151950057Y-102516819D01*
X151950057Y-102395866D01*
X152010533Y-102274914D01*
X152071009Y-102214438D01*
X152191961Y-102153961D01*
X152433866Y-102093485D01*
X152554819Y-102033009D01*
X152615295Y-101972533D01*
X152675771Y-101851580D01*
X152675771Y-101730628D01*
X152615295Y-101609676D01*
X152554819Y-101549200D01*
X152433866Y-101488723D01*
X152131485Y-101488723D01*
X151950057Y-101549200D01*
X151405771Y-101488723D02*
X151405771Y-102516819D01*
X151345295Y-102637771D01*
X151284819Y-102698247D01*
X151163866Y-102758723D01*
X150921961Y-102758723D01*
X150801009Y-102698247D01*
X150740533Y-102637771D01*
X150680057Y-102516819D01*
X150680057Y-101488723D01*
X149349580Y-102758723D02*
X149772914Y-102153961D01*
X150075295Y-102758723D02*
X150075295Y-101488723D01*
X149591485Y-101488723D01*
X149470533Y-101549200D01*
X149410057Y-101609676D01*
X149349580Y-101730628D01*
X149349580Y-101912057D01*
X149410057Y-102033009D01*
X149470533Y-102093485D01*
X149591485Y-102153961D01*
X150075295Y-102153961D01*
X148805295Y-102758723D02*
X148805295Y-101488723D01*
X148321485Y-101488723D01*
X148200533Y-101549200D01*
X148140057Y-101609676D01*
X148079580Y-101730628D01*
X148079580Y-101912057D01*
X148140057Y-102033009D01*
X148200533Y-102093485D01*
X148321485Y-102153961D01*
X148805295Y-102153961D01*
X146809580Y-102758723D02*
X147232914Y-102153961D01*
X147535295Y-102758723D02*
X147535295Y-101488723D01*
X147051485Y-101488723D01*
X146930533Y-101549200D01*
X146870057Y-101609676D01*
X146809580Y-101730628D01*
X146809580Y-101912057D01*
X146870057Y-102033009D01*
X146930533Y-102093485D01*
X147051485Y-102153961D01*
X147535295Y-102153961D01*
X146265295Y-102758723D02*
X146265295Y-101488723D01*
X145721009Y-102698247D02*
X145539580Y-102758723D01*
X145237200Y-102758723D01*
X145116247Y-102698247D01*
X145055771Y-102637771D01*
X144995295Y-102516819D01*
X144995295Y-102395866D01*
X145055771Y-102274914D01*
X145116247Y-102214438D01*
X145237200Y-102153961D01*
X145479104Y-102093485D01*
X145600057Y-102033009D01*
X145660533Y-101972533D01*
X145721009Y-101851580D01*
X145721009Y-101730628D01*
X145660533Y-101609676D01*
X145600057Y-101549200D01*
X145479104Y-101488723D01*
X145176723Y-101488723D01*
X144995295Y-101549200D01*
X144451009Y-102093485D02*
X144027676Y-102093485D01*
X143846247Y-102758723D02*
X144451009Y-102758723D01*
X144451009Y-101488723D01*
X143846247Y-101488723D01*
X143301961Y-102637771D02*
X143241485Y-102698247D01*
X143301961Y-102758723D01*
X143362438Y-102698247D01*
X143301961Y-102637771D01*
X143301961Y-102758723D01*
X143301961Y-102274914D02*
X143362438Y-101549200D01*
X143301961Y-101488723D01*
X143241485Y-101549200D01*
X143301961Y-102274914D01*
X143301961Y-101488723D01*
D12*
X170619887Y-72940404D02*
X170510635Y-73096433D01*
X170495016Y-73201761D01*
X170518404Y-73334401D01*
X170647120Y-73482661D01*
X170920170Y-73673853D01*
X171103512Y-73744099D01*
X171236153Y-73720711D01*
X171329787Y-73670009D01*
X171439039Y-73513980D01*
X171454658Y-73408653D01*
X171431270Y-73276012D01*
X171302555Y-73127752D01*
X171029504Y-72936560D01*
X170846162Y-72866315D01*
X170713521Y-72889703D01*
X170619887Y-72940404D01*
X170947402Y-74216111D02*
X170128250Y-73642534D01*
X170619645Y-74684198D01*
X169800492Y-74110621D01*
X159259938Y-65881204D02*
X159164700Y-66046161D01*
X159158320Y-66152449D01*
X159193180Y-66282547D01*
X159334327Y-66419024D01*
X159623003Y-66585691D01*
X159811769Y-66639690D01*
X159941867Y-66604830D01*
X160030725Y-66546161D01*
X160125963Y-66381204D01*
X160132343Y-66274916D01*
X160097484Y-66144818D01*
X159956336Y-66008341D01*
X159667661Y-65841674D01*
X159478894Y-65787675D01*
X159348796Y-65822535D01*
X159259938Y-65881204D01*
X159077093Y-67150282D02*
X159243760Y-66861607D01*
X159697392Y-67123511D02*
X158831367Y-66623511D01*
X158593271Y-67035904D01*
X158648521Y-67892589D02*
X158815188Y-67603914D01*
X159268821Y-67865819D02*
X158402795Y-67365819D01*
X158164700Y-67778212D01*
D10*
X137377714Y-84305140D02*
X137377714Y-85272759D01*
X134769860Y-84825114D02*
X133802240Y-84825114D01*
X134286050Y-85308923D02*
X134286050Y-84341304D01*
D13*
X137954052Y-87146795D02*
X138020576Y-87346366D01*
X138020576Y-87678985D01*
X137954052Y-87812033D01*
X137887528Y-87878557D01*
X137754480Y-87945080D01*
X137621433Y-87945080D01*
X137488385Y-87878557D01*
X137421861Y-87812033D01*
X137355338Y-87678985D01*
X137288814Y-87412890D01*
X137222290Y-87279842D01*
X137155766Y-87213319D01*
X137022719Y-87146795D01*
X136889671Y-87146795D01*
X136756623Y-87213319D01*
X136690100Y-87279842D01*
X136623576Y-87412890D01*
X136623576Y-87745509D01*
X136690100Y-87945080D01*
X138020576Y-88543795D02*
X136623576Y-88543795D01*
X137288814Y-88543795D02*
X137288814Y-89342080D01*
X138020576Y-89342080D02*
X136623576Y-89342080D01*
X136623576Y-90273414D02*
X136623576Y-90539509D01*
X136690100Y-90672557D01*
X136823147Y-90805604D01*
X137089242Y-90872128D01*
X137554909Y-90872128D01*
X137821004Y-90805604D01*
X137954052Y-90672557D01*
X138020576Y-90539509D01*
X138020576Y-90273414D01*
X137954052Y-90140366D01*
X137821004Y-90007319D01*
X137554909Y-89940795D01*
X137089242Y-89940795D01*
X136823147Y-90007319D01*
X136690100Y-90140366D01*
X136623576Y-90273414D01*
X138020576Y-92269128D02*
X137355338Y-91803461D01*
X138020576Y-91470842D02*
X136623576Y-91470842D01*
X136623576Y-92003033D01*
X136690100Y-92136080D01*
X136756623Y-92202604D01*
X136889671Y-92269128D01*
X137089242Y-92269128D01*
X137222290Y-92202604D01*
X137288814Y-92136080D01*
X137355338Y-92003033D01*
X137355338Y-91470842D01*
X136623576Y-92668271D02*
X136623576Y-93466557D01*
X138020576Y-93067414D02*
X136623576Y-93067414D01*
X134947176Y-87954757D02*
X134947176Y-87289519D01*
X133550176Y-87289519D01*
X133550176Y-88686519D02*
X133550176Y-88952614D01*
X133616700Y-89085661D01*
X133749747Y-89218709D01*
X134015842Y-89285233D01*
X134481509Y-89285233D01*
X134747604Y-89218709D01*
X134880652Y-89085661D01*
X134947176Y-88952614D01*
X134947176Y-88686519D01*
X134880652Y-88553471D01*
X134747604Y-88420423D01*
X134481509Y-88353900D01*
X134015842Y-88353900D01*
X133749747Y-88420423D01*
X133616700Y-88553471D01*
X133550176Y-88686519D01*
X134947176Y-89883947D02*
X133550176Y-89883947D01*
X134947176Y-90682233D01*
X133550176Y-90682233D01*
X133616700Y-92079233D02*
X133550176Y-91946185D01*
X133550176Y-91746614D01*
X133616700Y-91547042D01*
X133749747Y-91413995D01*
X133882795Y-91347471D01*
X134148890Y-91280947D01*
X134348461Y-91280947D01*
X134614557Y-91347471D01*
X134747604Y-91413995D01*
X134880652Y-91547042D01*
X134947176Y-91746614D01*
X134947176Y-91879661D01*
X134880652Y-92079233D01*
X134814128Y-92145757D01*
X134348461Y-92145757D01*
X134348461Y-91879661D01*
%TO.C,BT1*%
X140081000Y-99314000D02*
X140081000Y-83820000D01*
X164973000Y-99314000D02*
X164973000Y-83820000D01*
X140081000Y-99314000D02*
X164973000Y-99314000D01*
X158623000Y-78232000D02*
X164973000Y-83820000D01*
X146177000Y-78232000D02*
X140081000Y-83820000D01*
X146177000Y-78232000D02*
X158623000Y-78232000D01*
D14*
%TO.C,G\u002A\u002A\u002A*%
G36*
X160740329Y-106504127D02*
G01*
X160803199Y-106560160D01*
X160907614Y-106641085D01*
X161043721Y-106739889D01*
X161201664Y-106849559D01*
X161371590Y-106963083D01*
X161543644Y-107073448D01*
X161681308Y-107157809D01*
X161892956Y-107293325D01*
X162044970Y-107415423D01*
X162146001Y-107535250D01*
X162204704Y-107663953D01*
X162229730Y-107812677D01*
X162232058Y-107867254D01*
X162232357Y-107929010D01*
X162232219Y-108054173D01*
X162231683Y-108233581D01*
X162230783Y-108458071D01*
X162229556Y-108718480D01*
X162228037Y-109005646D01*
X162226580Y-109258100D01*
X162223709Y-109622078D01*
X162219767Y-109918043D01*
X162214577Y-110150550D01*
X162207961Y-110324151D01*
X162199743Y-110443399D01*
X162189744Y-110512849D01*
X162177788Y-110537053D01*
X162176788Y-110537171D01*
X162126076Y-110514925D01*
X162032136Y-110454084D01*
X161906660Y-110363492D01*
X161761339Y-110251994D01*
X161607865Y-110128434D01*
X161457927Y-110001657D01*
X161392043Y-109943510D01*
X161281655Y-109849613D01*
X161187111Y-109778413D01*
X161124261Y-109741539D01*
X161113159Y-109738885D01*
X161065660Y-109710533D01*
X160985460Y-109632039D01*
X160880702Y-109513249D01*
X160759528Y-109364007D01*
X160630083Y-109194159D01*
X160500509Y-109013549D01*
X160440338Y-108925448D01*
X160238307Y-108600482D01*
X160043876Y-108243127D01*
X159865941Y-107872553D01*
X159713397Y-107507935D01*
X159595138Y-107168446D01*
X159549238Y-107004606D01*
X159511750Y-106876982D01*
X159472163Y-106775926D01*
X159440389Y-106724956D01*
X159422438Y-106709261D01*
X159408163Y-106702248D01*
X159394929Y-106712573D01*
X159380103Y-106748891D01*
X159361051Y-106819856D01*
X159335139Y-106934123D01*
X159299733Y-107100346D01*
X159252198Y-107327180D01*
X159241342Y-107378969D01*
X159201923Y-107564116D01*
X159167148Y-107722216D01*
X159139910Y-107840520D01*
X159123100Y-107906278D01*
X159119691Y-107915347D01*
X159099865Y-107894007D01*
X159066609Y-107826519D01*
X159061749Y-107814997D01*
X159016385Y-107736425D01*
X158956615Y-107712262D01*
X158922085Y-107714048D01*
X158851293Y-107740554D01*
X158799505Y-107811986D01*
X158775412Y-107870171D01*
X158725903Y-107981517D01*
X158653661Y-108117815D01*
X158595830Y-108214885D01*
X158469621Y-108414457D01*
X158419693Y-108293274D01*
X158381334Y-108216237D01*
X158347307Y-108198243D01*
X158316768Y-108216074D01*
X158271505Y-108276913D01*
X158263772Y-108308398D01*
X158232028Y-108346653D01*
X158154239Y-108376989D01*
X158140532Y-108379860D01*
X158067643Y-108400773D01*
X158017347Y-108442143D01*
X157973328Y-108522358D01*
X157939409Y-108606501D01*
X157872747Y-108744806D01*
X157778344Y-108898255D01*
X157694295Y-109011382D01*
X157530910Y-109246037D01*
X157383323Y-109531681D01*
X157262025Y-109846924D01*
X157226129Y-109965990D01*
X157178992Y-110111740D01*
X157133762Y-110196939D01*
X157084848Y-110233005D01*
X157016799Y-110270172D01*
X156925523Y-110340302D01*
X156876509Y-110384543D01*
X156796067Y-110453305D01*
X156736039Y-110489464D01*
X156716720Y-110489929D01*
X156711228Y-110449405D01*
X156705990Y-110344287D01*
X156701162Y-110182552D01*
X156696899Y-109972178D01*
X156693356Y-109721142D01*
X156690688Y-109437421D01*
X156689051Y-109128993D01*
X156688840Y-109056733D01*
X156685343Y-107647921D01*
X156775662Y-107515718D01*
X156858108Y-107422413D01*
X156974417Y-107322617D01*
X157058734Y-107263986D01*
X157202635Y-107173296D01*
X157369890Y-107065607D01*
X157546745Y-106950033D01*
X157719445Y-106835690D01*
X157874236Y-106731695D01*
X157997362Y-106647161D01*
X158075070Y-106591206D01*
X158081801Y-106585966D01*
X158146783Y-106525482D01*
X158152162Y-106497005D01*
X158103273Y-106500147D01*
X158005453Y-106534522D01*
X157864038Y-106599742D01*
X157859276Y-106602122D01*
X157595759Y-106737548D01*
X157347716Y-106871564D01*
X157125118Y-106998313D01*
X156937936Y-107111942D01*
X156796139Y-107206595D01*
X156709698Y-107276417D01*
X156707821Y-107278315D01*
X156650107Y-107337992D01*
X156602468Y-107392867D01*
X156563882Y-107450304D01*
X156533328Y-107517666D01*
X156509782Y-107602317D01*
X156492223Y-107711620D01*
X156479628Y-107852941D01*
X156470974Y-108033642D01*
X156465240Y-108261087D01*
X156461403Y-108542641D01*
X156458441Y-108885667D01*
X156456948Y-109085365D01*
X156454316Y-109470142D01*
X156453262Y-109789587D01*
X156454659Y-110050938D01*
X156459381Y-110261429D01*
X156468301Y-110428299D01*
X156482292Y-110558783D01*
X156502228Y-110660117D01*
X156528982Y-110739539D01*
X156563427Y-110804284D01*
X156606438Y-110861590D01*
X156658887Y-110918691D01*
X156680946Y-110941304D01*
X156737779Y-110985488D01*
X156848913Y-111060083D01*
X157005447Y-111159832D01*
X157198482Y-111279480D01*
X157419115Y-111413770D01*
X157658448Y-111557447D01*
X157907578Y-111705255D01*
X158157605Y-111851938D01*
X158399629Y-111992239D01*
X158624749Y-112120902D01*
X158824064Y-112232673D01*
X158988673Y-112322293D01*
X159109676Y-112384509D01*
X159170915Y-112411676D01*
X159356118Y-112449879D01*
X159561483Y-112448936D01*
X159746774Y-112409145D01*
X159751486Y-112407398D01*
X159814101Y-112377281D01*
X159929913Y-112315286D01*
X160089797Y-112226712D01*
X160284624Y-112116858D01*
X160505269Y-111991024D01*
X160742602Y-111854508D01*
X160987498Y-111712609D01*
X161230829Y-111570628D01*
X161463467Y-111433862D01*
X161676286Y-111307612D01*
X161860159Y-111197176D01*
X162005958Y-111107854D01*
X162104557Y-111044945D01*
X162136463Y-111022692D01*
X162224776Y-110937425D01*
X162316095Y-110821758D01*
X162354177Y-110762727D01*
X162454772Y-110591599D01*
X162447387Y-109176457D01*
X162444003Y-108740954D01*
X162438747Y-108376832D01*
X162431583Y-108082925D01*
X162422473Y-107858064D01*
X162411380Y-107701082D01*
X162398265Y-107610812D01*
X162397049Y-107606154D01*
X162358164Y-107497988D01*
X162300007Y-107399334D01*
X162214781Y-107303838D01*
X162094694Y-107205143D01*
X161931949Y-107096893D01*
X161718753Y-106972731D01*
X161447310Y-106826303D01*
X161428579Y-106816449D01*
X161227574Y-106712272D01*
X161047507Y-106621697D01*
X160898479Y-106549581D01*
X160790590Y-106500780D01*
X160733941Y-106480151D01*
X160728859Y-106479999D01*
X160740329Y-106504127D01*
G37*
X160740329Y-106504127D02*
X160803199Y-106560160D01*
X160907614Y-106641085D01*
X161043721Y-106739889D01*
X161201664Y-106849559D01*
X161371590Y-106963083D01*
X161543644Y-107073448D01*
X161681308Y-107157809D01*
X161892956Y-107293325D01*
X162044970Y-107415423D01*
X162146001Y-107535250D01*
X162204704Y-107663953D01*
X162229730Y-107812677D01*
X162232058Y-107867254D01*
X162232357Y-107929010D01*
X162232219Y-108054173D01*
X162231683Y-108233581D01*
X162230783Y-108458071D01*
X162229556Y-108718480D01*
X162228037Y-109005646D01*
X162226580Y-109258100D01*
X162223709Y-109622078D01*
X162219767Y-109918043D01*
X162214577Y-110150550D01*
X162207961Y-110324151D01*
X162199743Y-110443399D01*
X162189744Y-110512849D01*
X162177788Y-110537053D01*
X162176788Y-110537171D01*
X162126076Y-110514925D01*
X162032136Y-110454084D01*
X161906660Y-110363492D01*
X161761339Y-110251994D01*
X161607865Y-110128434D01*
X161457927Y-110001657D01*
X161392043Y-109943510D01*
X161281655Y-109849613D01*
X161187111Y-109778413D01*
X161124261Y-109741539D01*
X161113159Y-109738885D01*
X161065660Y-109710533D01*
X160985460Y-109632039D01*
X160880702Y-109513249D01*
X160759528Y-109364007D01*
X160630083Y-109194159D01*
X160500509Y-109013549D01*
X160440338Y-108925448D01*
X160238307Y-108600482D01*
X160043876Y-108243127D01*
X159865941Y-107872553D01*
X159713397Y-107507935D01*
X159595138Y-107168446D01*
X159549238Y-107004606D01*
X159511750Y-106876982D01*
X159472163Y-106775926D01*
X159440389Y-106724956D01*
X159422438Y-106709261D01*
X159408163Y-106702248D01*
X159394929Y-106712573D01*
X159380103Y-106748891D01*
X159361051Y-106819856D01*
X159335139Y-106934123D01*
X159299733Y-107100346D01*
X159252198Y-107327180D01*
X159241342Y-107378969D01*
X159201923Y-107564116D01*
X159167148Y-107722216D01*
X159139910Y-107840520D01*
X159123100Y-107906278D01*
X159119691Y-107915347D01*
X159099865Y-107894007D01*
X159066609Y-107826519D01*
X159061749Y-107814997D01*
X159016385Y-107736425D01*
X158956615Y-107712262D01*
X158922085Y-107714048D01*
X158851293Y-107740554D01*
X158799505Y-107811986D01*
X158775412Y-107870171D01*
X158725903Y-107981517D01*
X158653661Y-108117815D01*
X158595830Y-108214885D01*
X158469621Y-108414457D01*
X158419693Y-108293274D01*
X158381334Y-108216237D01*
X158347307Y-108198243D01*
X158316768Y-108216074D01*
X158271505Y-108276913D01*
X158263772Y-108308398D01*
X158232028Y-108346653D01*
X158154239Y-108376989D01*
X158140532Y-108379860D01*
X158067643Y-108400773D01*
X158017347Y-108442143D01*
X157973328Y-108522358D01*
X157939409Y-108606501D01*
X157872747Y-108744806D01*
X157778344Y-108898255D01*
X157694295Y-109011382D01*
X157530910Y-109246037D01*
X157383323Y-109531681D01*
X157262025Y-109846924D01*
X157226129Y-109965990D01*
X157178992Y-110111740D01*
X157133762Y-110196939D01*
X157084848Y-110233005D01*
X157016799Y-110270172D01*
X156925523Y-110340302D01*
X156876509Y-110384543D01*
X156796067Y-110453305D01*
X156736039Y-110489464D01*
X156716720Y-110489929D01*
X156711228Y-110449405D01*
X156705990Y-110344287D01*
X156701162Y-110182552D01*
X156696899Y-109972178D01*
X156693356Y-109721142D01*
X156690688Y-109437421D01*
X156689051Y-109128993D01*
X156688840Y-109056733D01*
X156685343Y-107647921D01*
X156775662Y-107515718D01*
X156858108Y-107422413D01*
X156974417Y-107322617D01*
X157058734Y-107263986D01*
X157202635Y-107173296D01*
X157369890Y-107065607D01*
X157546745Y-106950033D01*
X157719445Y-106835690D01*
X157874236Y-106731695D01*
X157997362Y-106647161D01*
X158075070Y-106591206D01*
X158081801Y-106585966D01*
X158146783Y-106525482D01*
X158152162Y-106497005D01*
X158103273Y-106500147D01*
X158005453Y-106534522D01*
X157864038Y-106599742D01*
X157859276Y-106602122D01*
X157595759Y-106737548D01*
X157347716Y-106871564D01*
X157125118Y-106998313D01*
X156937936Y-107111942D01*
X156796139Y-107206595D01*
X156709698Y-107276417D01*
X156707821Y-107278315D01*
X156650107Y-107337992D01*
X156602468Y-107392867D01*
X156563882Y-107450304D01*
X156533328Y-107517666D01*
X156509782Y-107602317D01*
X156492223Y-107711620D01*
X156479628Y-107852941D01*
X156470974Y-108033642D01*
X156465240Y-108261087D01*
X156461403Y-108542641D01*
X156458441Y-108885667D01*
X156456948Y-109085365D01*
X156454316Y-109470142D01*
X156453262Y-109789587D01*
X156454659Y-110050938D01*
X156459381Y-110261429D01*
X156468301Y-110428299D01*
X156482292Y-110558783D01*
X156502228Y-110660117D01*
X156528982Y-110739539D01*
X156563427Y-110804284D01*
X156606438Y-110861590D01*
X156658887Y-110918691D01*
X156680946Y-110941304D01*
X156737779Y-110985488D01*
X156848913Y-111060083D01*
X157005447Y-111159832D01*
X157198482Y-111279480D01*
X157419115Y-111413770D01*
X157658448Y-111557447D01*
X157907578Y-111705255D01*
X158157605Y-111851938D01*
X158399629Y-111992239D01*
X158624749Y-112120902D01*
X158824064Y-112232673D01*
X158988673Y-112322293D01*
X159109676Y-112384509D01*
X159170915Y-112411676D01*
X159356118Y-112449879D01*
X159561483Y-112448936D01*
X159746774Y-112409145D01*
X159751486Y-112407398D01*
X159814101Y-112377281D01*
X159929913Y-112315286D01*
X160089797Y-112226712D01*
X160284624Y-112116858D01*
X160505269Y-111991024D01*
X160742602Y-111854508D01*
X160987498Y-111712609D01*
X161230829Y-111570628D01*
X161463467Y-111433862D01*
X161676286Y-111307612D01*
X161860159Y-111197176D01*
X162005958Y-111107854D01*
X162104557Y-111044945D01*
X162136463Y-111022692D01*
X162224776Y-110937425D01*
X162316095Y-110821758D01*
X162354177Y-110762727D01*
X162454772Y-110591599D01*
X162447387Y-109176457D01*
X162444003Y-108740954D01*
X162438747Y-108376832D01*
X162431583Y-108082925D01*
X162422473Y-107858064D01*
X162411380Y-107701082D01*
X162398265Y-107610812D01*
X162397049Y-107606154D01*
X162358164Y-107497988D01*
X162300007Y-107399334D01*
X162214781Y-107303838D01*
X162094694Y-107205143D01*
X161931949Y-107096893D01*
X161718753Y-106972731D01*
X161447310Y-106826303D01*
X161428579Y-106816449D01*
X161227574Y-106712272D01*
X161047507Y-106621697D01*
X160898479Y-106549581D01*
X160790590Y-106500780D01*
X160733941Y-106480151D01*
X160728859Y-106479999D01*
X160740329Y-106504127D01*
G36*
X149301200Y-110409782D02*
G01*
X149303084Y-110676169D01*
X149310347Y-110879677D01*
X149325403Y-111029939D01*
X149350667Y-111136587D01*
X149388556Y-111209253D01*
X149441484Y-111257569D01*
X149511867Y-111291168D01*
X149523227Y-111295237D01*
X149715211Y-111331941D01*
X149897250Y-111300634D01*
X149937080Y-111284804D01*
X150003141Y-111249120D01*
X150052903Y-111200789D01*
X150088610Y-111129914D01*
X150112505Y-111026596D01*
X150126834Y-110880937D01*
X150133841Y-110683039D01*
X150135768Y-110423005D01*
X150135772Y-110408464D01*
X150135772Y-109775171D01*
X149886550Y-109775171D01*
X149875090Y-110395025D01*
X149870190Y-110623241D01*
X149864338Y-110789769D01*
X149856234Y-110905492D01*
X149844580Y-110981294D01*
X149828076Y-111028058D01*
X149805422Y-111056666D01*
X149795116Y-111064905D01*
X149712588Y-111095248D01*
X149659898Y-111079231D01*
X149635422Y-111060056D01*
X149617377Y-111025571D01*
X149604541Y-110965216D01*
X149595687Y-110868431D01*
X149589592Y-110724655D01*
X149585031Y-110523329D01*
X149583268Y-110418422D01*
X149573343Y-109793314D01*
X149437272Y-109782052D01*
X149301200Y-109770790D01*
X149301200Y-110409782D01*
G37*
X149301200Y-110409782D02*
X149303084Y-110676169D01*
X149310347Y-110879677D01*
X149325403Y-111029939D01*
X149350667Y-111136587D01*
X149388556Y-111209253D01*
X149441484Y-111257569D01*
X149511867Y-111291168D01*
X149523227Y-111295237D01*
X149715211Y-111331941D01*
X149897250Y-111300634D01*
X149937080Y-111284804D01*
X150003141Y-111249120D01*
X150052903Y-111200789D01*
X150088610Y-111129914D01*
X150112505Y-111026596D01*
X150126834Y-110880937D01*
X150133841Y-110683039D01*
X150135768Y-110423005D01*
X150135772Y-110408464D01*
X150135772Y-109775171D01*
X149886550Y-109775171D01*
X149875090Y-110395025D01*
X149870190Y-110623241D01*
X149864338Y-110789769D01*
X149856234Y-110905492D01*
X149844580Y-110981294D01*
X149828076Y-111028058D01*
X149805422Y-111056666D01*
X149795116Y-111064905D01*
X149712588Y-111095248D01*
X149659898Y-111079231D01*
X149635422Y-111060056D01*
X149617377Y-111025571D01*
X149604541Y-110965216D01*
X149595687Y-110868431D01*
X149589592Y-110724655D01*
X149585031Y-110523329D01*
X149583268Y-110418422D01*
X149573343Y-109793314D01*
X149437272Y-109782052D01*
X149301200Y-109770790D01*
X149301200Y-110409782D01*
G36*
X148549056Y-109795434D02*
G01*
X148441130Y-109862376D01*
X148376290Y-109955873D01*
X148329094Y-110077464D01*
X148326950Y-110164920D01*
X148369258Y-110207914D01*
X148391090Y-110210599D01*
X148482206Y-110222114D01*
X148518090Y-110232625D01*
X148561852Y-110231087D01*
X148575427Y-110171644D01*
X148575486Y-110164496D01*
X148598574Y-110069172D01*
X148655840Y-110011414D01*
X148729284Y-110006372D01*
X148750885Y-110016838D01*
X148810381Y-110072567D01*
X148821457Y-110141218D01*
X148781153Y-110230499D01*
X148686506Y-110348116D01*
X148582396Y-110455316D01*
X148434935Y-110611875D01*
X148341804Y-110742632D01*
X148296449Y-110861281D01*
X148292318Y-110981518D01*
X148302342Y-111040614D01*
X148363937Y-111166136D01*
X148474855Y-111262261D01*
X148614518Y-111319086D01*
X148762344Y-111326708D01*
X148847629Y-111303011D01*
X148971880Y-111211645D01*
X149059131Y-111070020D01*
X149082931Y-110993202D01*
X149099012Y-110898682D01*
X149080733Y-110851006D01*
X149012802Y-110829385D01*
X148957020Y-110822035D01*
X148878299Y-110822415D01*
X148842407Y-110862247D01*
X148830020Y-110914291D01*
X148791082Y-111010817D01*
X148727814Y-111066473D01*
X148658583Y-111078582D01*
X148601754Y-111044469D01*
X148575694Y-110961457D01*
X148575486Y-110951371D01*
X148592218Y-110885683D01*
X148647349Y-110801425D01*
X148748280Y-110688571D01*
X148829486Y-110607269D01*
X148945912Y-110492199D01*
X149019838Y-110410976D01*
X149060846Y-110346914D01*
X149078520Y-110283325D01*
X149082444Y-110203521D01*
X149082332Y-110166993D01*
X149059335Y-109989789D01*
X148990448Y-109867861D01*
X148872118Y-109797545D01*
X148702486Y-109775171D01*
X148549056Y-109795434D01*
G37*
X148549056Y-109795434D02*
X148441130Y-109862376D01*
X148376290Y-109955873D01*
X148329094Y-110077464D01*
X148326950Y-110164920D01*
X148369258Y-110207914D01*
X148391090Y-110210599D01*
X148482206Y-110222114D01*
X148518090Y-110232625D01*
X148561852Y-110231087D01*
X148575427Y-110171644D01*
X148575486Y-110164496D01*
X148598574Y-110069172D01*
X148655840Y-110011414D01*
X148729284Y-110006372D01*
X148750885Y-110016838D01*
X148810381Y-110072567D01*
X148821457Y-110141218D01*
X148781153Y-110230499D01*
X148686506Y-110348116D01*
X148582396Y-110455316D01*
X148434935Y-110611875D01*
X148341804Y-110742632D01*
X148296449Y-110861281D01*
X148292318Y-110981518D01*
X148302342Y-111040614D01*
X148363937Y-111166136D01*
X148474855Y-111262261D01*
X148614518Y-111319086D01*
X148762344Y-111326708D01*
X148847629Y-111303011D01*
X148971880Y-111211645D01*
X149059131Y-111070020D01*
X149082931Y-110993202D01*
X149099012Y-110898682D01*
X149080733Y-110851006D01*
X149012802Y-110829385D01*
X148957020Y-110822035D01*
X148878299Y-110822415D01*
X148842407Y-110862247D01*
X148830020Y-110914291D01*
X148791082Y-111010817D01*
X148727814Y-111066473D01*
X148658583Y-111078582D01*
X148601754Y-111044469D01*
X148575694Y-110961457D01*
X148575486Y-110951371D01*
X148592218Y-110885683D01*
X148647349Y-110801425D01*
X148748280Y-110688571D01*
X148829486Y-110607269D01*
X148945912Y-110492199D01*
X149019838Y-110410976D01*
X149060846Y-110346914D01*
X149078520Y-110283325D01*
X149082444Y-110203521D01*
X149082332Y-110166993D01*
X149059335Y-109989789D01*
X148990448Y-109867861D01*
X148872118Y-109797545D01*
X148702486Y-109775171D01*
X148549056Y-109795434D01*
G36*
X144369163Y-109803126D02*
G01*
X144245520Y-109883723D01*
X144173031Y-110012063D01*
X144163765Y-110050578D01*
X144149077Y-110142610D01*
X144162029Y-110188725D01*
X144218952Y-110212799D01*
X144284700Y-110227387D01*
X144364951Y-110239169D01*
X144397071Y-110218963D01*
X144402629Y-110163497D01*
X144425817Y-110068660D01*
X144483249Y-110011299D01*
X144556723Y-110006613D01*
X144578027Y-110017021D01*
X144632299Y-110067395D01*
X144642105Y-110129670D01*
X144604058Y-110212967D01*
X144514769Y-110326407D01*
X144428358Y-110419886D01*
X144319980Y-110536925D01*
X144228183Y-110643038D01*
X144167078Y-110721622D01*
X144153431Y-110743428D01*
X144116604Y-110879087D01*
X144123381Y-111034056D01*
X144153656Y-111132429D01*
X144235755Y-111232704D01*
X144362506Y-111300509D01*
X144510380Y-111328224D01*
X144655846Y-111308231D01*
X144674772Y-111301154D01*
X144797474Y-111213421D01*
X144877236Y-111074166D01*
X144900339Y-110975416D01*
X144909473Y-110881634D01*
X144896134Y-110839179D01*
X144849981Y-110827825D01*
X144824692Y-110827457D01*
X144745022Y-110824334D01*
X144706748Y-110818385D01*
X144682384Y-110842918D01*
X144650471Y-110915085D01*
X144643248Y-110936314D01*
X144602973Y-111025061D01*
X144547973Y-111060089D01*
X144511486Y-111063314D01*
X144443216Y-111048484D01*
X144413528Y-110989924D01*
X144408758Y-110958012D01*
X144410872Y-110896248D01*
X144439133Y-110834082D01*
X144503605Y-110756248D01*
X144612125Y-110649583D01*
X144747027Y-110516845D01*
X144834681Y-110412694D01*
X144884704Y-110320633D01*
X144906716Y-110224166D01*
X144910629Y-110137622D01*
X144879312Y-109979215D01*
X144791461Y-109860551D01*
X144656224Y-109790511D01*
X144537313Y-109775171D01*
X144369163Y-109803126D01*
G37*
X144369163Y-109803126D02*
X144245520Y-109883723D01*
X144173031Y-110012063D01*
X144163765Y-110050578D01*
X144149077Y-110142610D01*
X144162029Y-110188725D01*
X144218952Y-110212799D01*
X144284700Y-110227387D01*
X144364951Y-110239169D01*
X144397071Y-110218963D01*
X144402629Y-110163497D01*
X144425817Y-110068660D01*
X144483249Y-110011299D01*
X144556723Y-110006613D01*
X144578027Y-110017021D01*
X144632299Y-110067395D01*
X144642105Y-110129670D01*
X144604058Y-110212967D01*
X144514769Y-110326407D01*
X144428358Y-110419886D01*
X144319980Y-110536925D01*
X144228183Y-110643038D01*
X144167078Y-110721622D01*
X144153431Y-110743428D01*
X144116604Y-110879087D01*
X144123381Y-111034056D01*
X144153656Y-111132429D01*
X144235755Y-111232704D01*
X144362506Y-111300509D01*
X144510380Y-111328224D01*
X144655846Y-111308231D01*
X144674772Y-111301154D01*
X144797474Y-111213421D01*
X144877236Y-111074166D01*
X144900339Y-110975416D01*
X144909473Y-110881634D01*
X144896134Y-110839179D01*
X144849981Y-110827825D01*
X144824692Y-110827457D01*
X144745022Y-110824334D01*
X144706748Y-110818385D01*
X144682384Y-110842918D01*
X144650471Y-110915085D01*
X144643248Y-110936314D01*
X144602973Y-111025061D01*
X144547973Y-111060089D01*
X144511486Y-111063314D01*
X144443216Y-111048484D01*
X144413528Y-110989924D01*
X144408758Y-110958012D01*
X144410872Y-110896248D01*
X144439133Y-110834082D01*
X144503605Y-110756248D01*
X144612125Y-110649583D01*
X144747027Y-110516845D01*
X144834681Y-110412694D01*
X144884704Y-110320633D01*
X144906716Y-110224166D01*
X144910629Y-110137622D01*
X144879312Y-109979215D01*
X144791461Y-109860551D01*
X144656224Y-109790511D01*
X144537313Y-109775171D01*
X144369163Y-109803126D01*
G36*
X152494343Y-111299171D02*
G01*
X152786101Y-111299171D01*
X152776294Y-110546242D01*
X152766486Y-109793314D01*
X152630414Y-109782052D01*
X152494343Y-109770790D01*
X152494343Y-111299171D01*
G37*
X152494343Y-111299171D02*
X152786101Y-111299171D01*
X152776294Y-110546242D01*
X152766486Y-109793314D01*
X152630414Y-109782052D01*
X152494343Y-109770790D01*
X152494343Y-111299171D01*
G36*
X151442057Y-111299171D02*
G01*
X151541843Y-111298905D01*
X151585871Y-111294301D01*
X151622609Y-111273274D01*
X151659336Y-111224606D01*
X151703329Y-111137075D01*
X151761869Y-110999460D01*
X151804915Y-110893367D01*
X151968200Y-110488094D01*
X151978460Y-110893633D01*
X151988720Y-111299171D01*
X152240343Y-111299171D01*
X152240343Y-109775171D01*
X152137277Y-109775171D01*
X152090309Y-109779713D01*
X152051534Y-109801042D01*
X152012778Y-109850713D01*
X151965868Y-109940282D01*
X151902631Y-110081302D01*
X151874205Y-110147099D01*
X151714200Y-110519028D01*
X151696057Y-110156171D01*
X151677915Y-109793314D01*
X151559986Y-109781943D01*
X151442057Y-109770573D01*
X151442057Y-111299171D01*
G37*
X151442057Y-111299171D02*
X151541843Y-111298905D01*
X151585871Y-111294301D01*
X151622609Y-111273274D01*
X151659336Y-111224606D01*
X151703329Y-111137075D01*
X151761869Y-110999460D01*
X151804915Y-110893367D01*
X151968200Y-110488094D01*
X151978460Y-110893633D01*
X151988720Y-111299171D01*
X152240343Y-111299171D01*
X152240343Y-109775171D01*
X152137277Y-109775171D01*
X152090309Y-109779713D01*
X152051534Y-109801042D01*
X152012778Y-109850713D01*
X151965868Y-109940282D01*
X151902631Y-110081302D01*
X151874205Y-110147099D01*
X151714200Y-110519028D01*
X151696057Y-110156171D01*
X151677915Y-109793314D01*
X151559986Y-109781943D01*
X151442057Y-109770573D01*
X151442057Y-111299171D01*
G36*
X150900831Y-109782474D02*
G01*
X150690055Y-109806369D01*
X150539908Y-109852695D01*
X150440725Y-109925841D01*
X150388152Y-110015288D01*
X150374491Y-110086758D01*
X150363366Y-110212614D01*
X150355970Y-110374680D01*
X150353486Y-110543121D01*
X150358876Y-110797179D01*
X150379407Y-110987942D01*
X150421618Y-111124175D01*
X150492051Y-111214645D01*
X150597245Y-111268115D01*
X150743742Y-111293352D01*
X150917622Y-111299171D01*
X151188057Y-111299171D01*
X151188057Y-110537171D01*
X150897772Y-110537171D01*
X150897772Y-111081457D01*
X150808334Y-111081457D01*
X150721267Y-111053838D01*
X150681334Y-111011271D01*
X150666281Y-110947985D01*
X150654103Y-110829863D01*
X150646165Y-110674624D01*
X150643772Y-110524005D01*
X150647480Y-110313540D01*
X150660916Y-110165372D01*
X150687545Y-110069496D01*
X150730833Y-110015910D01*
X150794247Y-109994610D01*
X150827792Y-109992885D01*
X150854710Y-109997002D01*
X150873679Y-110016522D01*
X150886084Y-110062199D01*
X150893306Y-110144787D01*
X150896729Y-110275039D01*
X150897735Y-110463709D01*
X150897772Y-110537171D01*
X151188057Y-110537171D01*
X151188057Y-109765847D01*
X150900831Y-109782474D01*
G37*
X150900831Y-109782474D02*
X150690055Y-109806369D01*
X150539908Y-109852695D01*
X150440725Y-109925841D01*
X150388152Y-110015288D01*
X150374491Y-110086758D01*
X150363366Y-110212614D01*
X150355970Y-110374680D01*
X150353486Y-110543121D01*
X150358876Y-110797179D01*
X150379407Y-110987942D01*
X150421618Y-111124175D01*
X150492051Y-111214645D01*
X150597245Y-111268115D01*
X150743742Y-111293352D01*
X150917622Y-111299171D01*
X151188057Y-111299171D01*
X151188057Y-110537171D01*
X150897772Y-110537171D01*
X150897772Y-111081457D01*
X150808334Y-111081457D01*
X150721267Y-111053838D01*
X150681334Y-111011271D01*
X150666281Y-110947985D01*
X150654103Y-110829863D01*
X150646165Y-110674624D01*
X150643772Y-110524005D01*
X150647480Y-110313540D01*
X150660916Y-110165372D01*
X150687545Y-110069496D01*
X150730833Y-110015910D01*
X150794247Y-109994610D01*
X150827792Y-109992885D01*
X150854710Y-109997002D01*
X150873679Y-110016522D01*
X150886084Y-110062199D01*
X150893306Y-110144787D01*
X150896729Y-110275039D01*
X150897735Y-110463709D01*
X150897772Y-110537171D01*
X151188057Y-110537171D01*
X151188057Y-109765847D01*
X150900831Y-109782474D01*
G36*
X147450629Y-109884028D02*
G01*
X147459620Y-109961132D01*
X147502032Y-109989550D01*
X147559486Y-109992885D01*
X147668343Y-109992885D01*
X147668343Y-111299171D01*
X147956954Y-111299171D01*
X147966863Y-110655099D01*
X147976772Y-110011028D01*
X148094700Y-109999658D01*
X148176509Y-109983185D01*
X148208230Y-109940880D01*
X148212629Y-109881729D01*
X148212629Y-109775171D01*
X147450629Y-109775171D01*
X147450629Y-109884028D01*
G37*
X147450629Y-109884028D02*
X147459620Y-109961132D01*
X147502032Y-109989550D01*
X147559486Y-109992885D01*
X147668343Y-109992885D01*
X147668343Y-111299171D01*
X147956954Y-111299171D01*
X147966863Y-110655099D01*
X147976772Y-110011028D01*
X148094700Y-109999658D01*
X148176509Y-109983185D01*
X148208230Y-109940880D01*
X148212629Y-109881729D01*
X148212629Y-109775171D01*
X147450629Y-109775171D01*
X147450629Y-109884028D01*
G36*
X147003654Y-109783772D02*
G01*
X146853319Y-109798197D01*
X146723585Y-109819682D01*
X146637478Y-109844172D01*
X146625236Y-109850431D01*
X146534769Y-109946028D01*
X146481487Y-110082185D01*
X146467921Y-110235703D01*
X146496597Y-110383380D01*
X146555883Y-110486763D01*
X146640852Y-110585545D01*
X146538374Y-110933287D01*
X146495145Y-111080819D01*
X146460794Y-111199658D01*
X146439735Y-111274434D01*
X146435262Y-111292186D01*
X146467043Y-111296672D01*
X146547586Y-111294648D01*
X146585908Y-111292186D01*
X146737186Y-111281028D01*
X146826813Y-110945385D01*
X146881557Y-110759704D01*
X146927264Y-110645923D01*
X146963696Y-110604031D01*
X146990618Y-110634017D01*
X147007791Y-110735869D01*
X147014981Y-110909576D01*
X147015200Y-110954457D01*
X147015200Y-111299171D01*
X147305486Y-111299171D01*
X147305486Y-110210599D01*
X147015200Y-110210599D01*
X147013843Y-110332608D01*
X147004729Y-110398082D01*
X146980297Y-110423061D01*
X146932985Y-110423581D01*
X146915683Y-110421653D01*
X146815662Y-110376780D01*
X146768560Y-110310385D01*
X146744216Y-110193266D01*
X146775892Y-110088758D01*
X146853833Y-110017470D01*
X146915683Y-109999546D01*
X146970315Y-109996279D01*
X147000065Y-110013225D01*
X147012496Y-110066424D01*
X147015170Y-110171913D01*
X147015200Y-110210599D01*
X147305486Y-110210599D01*
X147305486Y-109764941D01*
X147003654Y-109783772D01*
G37*
X147003654Y-109783772D02*
X146853319Y-109798197D01*
X146723585Y-109819682D01*
X146637478Y-109844172D01*
X146625236Y-109850431D01*
X146534769Y-109946028D01*
X146481487Y-110082185D01*
X146467921Y-110235703D01*
X146496597Y-110383380D01*
X146555883Y-110486763D01*
X146640852Y-110585545D01*
X146538374Y-110933287D01*
X146495145Y-111080819D01*
X146460794Y-111199658D01*
X146439735Y-111274434D01*
X146435262Y-111292186D01*
X146467043Y-111296672D01*
X146547586Y-111294648D01*
X146585908Y-111292186D01*
X146737186Y-111281028D01*
X146826813Y-110945385D01*
X146881557Y-110759704D01*
X146927264Y-110645923D01*
X146963696Y-110604031D01*
X146990618Y-110634017D01*
X147007791Y-110735869D01*
X147014981Y-110909576D01*
X147015200Y-110954457D01*
X147015200Y-111299171D01*
X147305486Y-111299171D01*
X147305486Y-110210599D01*
X147015200Y-110210599D01*
X147013843Y-110332608D01*
X147004729Y-110398082D01*
X146980297Y-110423061D01*
X146932985Y-110423581D01*
X146915683Y-110421653D01*
X146815662Y-110376780D01*
X146768560Y-110310385D01*
X146744216Y-110193266D01*
X146775892Y-110088758D01*
X146853833Y-110017470D01*
X146915683Y-109999546D01*
X146970315Y-109996279D01*
X147000065Y-110013225D01*
X147012496Y-110066424D01*
X147015170Y-110171913D01*
X147015200Y-110210599D01*
X147305486Y-110210599D01*
X147305486Y-109764941D01*
X147003654Y-109783772D01*
G36*
X145962914Y-111299171D02*
G01*
X146254673Y-111299171D01*
X146244865Y-110546242D01*
X146235057Y-109793314D01*
X146098986Y-109782052D01*
X145962914Y-109770790D01*
X145962914Y-111299171D01*
G37*
X145962914Y-111299171D02*
X146254673Y-111299171D01*
X146244865Y-110546242D01*
X146235057Y-109793314D01*
X146098986Y-109782052D01*
X145962914Y-109770790D01*
X145962914Y-111299171D01*
G36*
X145055772Y-109884028D02*
G01*
X145059735Y-109948469D01*
X145084107Y-109980603D01*
X145147606Y-109991663D01*
X145237200Y-109992885D01*
X145418629Y-109992885D01*
X145418629Y-110428314D01*
X145273486Y-110428314D01*
X145179973Y-110433265D01*
X145138410Y-110456620D01*
X145128395Y-110511128D01*
X145128343Y-110519028D01*
X145136265Y-110577474D01*
X145173632Y-110603451D01*
X145260846Y-110609710D01*
X145273486Y-110609742D01*
X145418629Y-110609742D01*
X145418629Y-111117742D01*
X145237200Y-111117742D01*
X145129524Y-111120683D01*
X145075807Y-111135693D01*
X145057490Y-111172051D01*
X145055772Y-111208457D01*
X145058372Y-111251399D01*
X145075483Y-111278062D01*
X145121070Y-111292325D01*
X145209098Y-111298067D01*
X145353533Y-111299167D01*
X145382343Y-111299171D01*
X145708914Y-111299171D01*
X145708914Y-109775171D01*
X145055772Y-109775171D01*
X145055772Y-109884028D01*
G37*
X145055772Y-109884028D02*
X145059735Y-109948469D01*
X145084107Y-109980603D01*
X145147606Y-109991663D01*
X145237200Y-109992885D01*
X145418629Y-109992885D01*
X145418629Y-110428314D01*
X145273486Y-110428314D01*
X145179973Y-110433265D01*
X145138410Y-110456620D01*
X145128395Y-110511128D01*
X145128343Y-110519028D01*
X145136265Y-110577474D01*
X145173632Y-110603451D01*
X145260846Y-110609710D01*
X145273486Y-110609742D01*
X145418629Y-110609742D01*
X145418629Y-111117742D01*
X145237200Y-111117742D01*
X145129524Y-111120683D01*
X145075807Y-111135693D01*
X145057490Y-111172051D01*
X145055772Y-111208457D01*
X145058372Y-111251399D01*
X145075483Y-111278062D01*
X145121070Y-111292325D01*
X145209098Y-111298067D01*
X145353533Y-111299167D01*
X145382343Y-111299171D01*
X145708914Y-111299171D01*
X145708914Y-109775171D01*
X145055772Y-109775171D01*
X145055772Y-109884028D01*
G36*
X153707221Y-110459848D02*
G01*
X153656858Y-110466184D01*
X153450504Y-110494827D01*
X153314048Y-110518659D01*
X153245103Y-110539333D01*
X153241282Y-110558499D01*
X153300201Y-110577808D01*
X153419472Y-110598912D01*
X153457050Y-110604462D01*
X153685010Y-110635760D01*
X153861506Y-110654746D01*
X154006553Y-110661635D01*
X154140170Y-110656640D01*
X154282373Y-110639976D01*
X154435629Y-110614936D01*
X154587562Y-110587417D01*
X154682255Y-110565810D01*
X154717117Y-110547367D01*
X154689553Y-110529336D01*
X154596972Y-110508968D01*
X154436779Y-110483513D01*
X154291858Y-110462462D01*
X154100178Y-110442222D01*
X153917145Y-110441282D01*
X153707221Y-110459848D01*
G37*
X153707221Y-110459848D02*
X153656858Y-110466184D01*
X153450504Y-110494827D01*
X153314048Y-110518659D01*
X153245103Y-110539333D01*
X153241282Y-110558499D01*
X153300201Y-110577808D01*
X153419472Y-110598912D01*
X153457050Y-110604462D01*
X153685010Y-110635760D01*
X153861506Y-110654746D01*
X154006553Y-110661635D01*
X154140170Y-110656640D01*
X154282373Y-110639976D01*
X154435629Y-110614936D01*
X154587562Y-110587417D01*
X154682255Y-110565810D01*
X154717117Y-110547367D01*
X154689553Y-110529336D01*
X154596972Y-110508968D01*
X154436779Y-110483513D01*
X154291858Y-110462462D01*
X154100178Y-110442222D01*
X153917145Y-110441282D01*
X153707221Y-110459848D01*
G36*
X142806457Y-110445867D02*
G01*
X142608180Y-110466236D01*
X142606486Y-110466443D01*
X142398311Y-110493436D01*
X142261360Y-110516167D01*
X142194552Y-110536591D01*
X142196804Y-110556662D01*
X142267036Y-110578333D01*
X142404166Y-110603560D01*
X142520636Y-110621593D01*
X142709377Y-110649357D01*
X142840086Y-110667019D01*
X142926433Y-110675688D01*
X142982087Y-110676474D01*
X143020716Y-110670488D01*
X143041914Y-110663932D01*
X143092300Y-110653673D01*
X143195952Y-110637064D01*
X143334160Y-110617028D01*
X143397714Y-110608334D01*
X143536969Y-110587721D01*
X143641669Y-110568572D01*
X143696698Y-110553834D01*
X143701031Y-110549192D01*
X143660497Y-110537132D01*
X143564316Y-110517663D01*
X143428649Y-110493879D01*
X143327088Y-110477592D01*
X143130830Y-110451002D01*
X142968979Y-110440608D01*
X142806457Y-110445867D01*
G37*
X142806457Y-110445867D02*
X142608180Y-110466236D01*
X142606486Y-110466443D01*
X142398311Y-110493436D01*
X142261360Y-110516167D01*
X142194552Y-110536591D01*
X142196804Y-110556662D01*
X142267036Y-110578333D01*
X142404166Y-110603560D01*
X142520636Y-110621593D01*
X142709377Y-110649357D01*
X142840086Y-110667019D01*
X142926433Y-110675688D01*
X142982087Y-110676474D01*
X143020716Y-110670488D01*
X143041914Y-110663932D01*
X143092300Y-110653673D01*
X143195952Y-110637064D01*
X143334160Y-110617028D01*
X143397714Y-110608334D01*
X143536969Y-110587721D01*
X143641669Y-110568572D01*
X143696698Y-110553834D01*
X143701031Y-110549192D01*
X143660497Y-110537132D01*
X143564316Y-110517663D01*
X143428649Y-110493879D01*
X143327088Y-110477592D01*
X143130830Y-110451002D01*
X142968979Y-110440608D01*
X142806457Y-110445867D01*
G36*
X147161498Y-106946239D02*
G01*
X147007764Y-107015501D01*
X146901566Y-107131944D01*
X146835528Y-107302861D01*
X146807754Y-107472735D01*
X146787333Y-107670599D01*
X147196629Y-107670599D01*
X147196629Y-107514249D01*
X147218292Y-107367216D01*
X147276509Y-107265358D01*
X147361123Y-107216263D01*
X147461974Y-107227519D01*
X147527214Y-107267330D01*
X147559750Y-107296620D01*
X147583225Y-107331434D01*
X147599423Y-107383571D01*
X147610125Y-107464830D01*
X147617114Y-107587011D01*
X147622173Y-107761912D01*
X147625429Y-107917433D01*
X147628048Y-108201015D01*
X147622311Y-108420207D01*
X147606794Y-108582858D01*
X147580072Y-108696816D01*
X147540721Y-108769930D01*
X147487314Y-108810050D01*
X147461855Y-108818578D01*
X147343183Y-108817578D01*
X147250523Y-108753270D01*
X147188469Y-108631684D01*
X147161616Y-108458853D01*
X147160878Y-108423528D01*
X147160343Y-108251171D01*
X147287343Y-108251171D01*
X147372462Y-108245554D01*
X147407371Y-108213863D01*
X147414327Y-108133838D01*
X147414343Y-108124171D01*
X147414343Y-107997171D01*
X146797486Y-107997171D01*
X146797486Y-109126409D01*
X146932124Y-109115147D01*
X147028422Y-109096668D01*
X147077067Y-109052381D01*
X147091793Y-109013171D01*
X147110832Y-108961708D01*
X147120440Y-108966977D01*
X147159413Y-109035826D01*
X147251964Y-109090226D01*
X147379605Y-109124261D01*
X147523845Y-109132012D01*
X147606197Y-109122439D01*
X147765083Y-109058078D01*
X147896927Y-108938408D01*
X147983987Y-108780092D01*
X147989711Y-108762229D01*
X148004877Y-108673577D01*
X148017225Y-108525350D01*
X148026059Y-108330510D01*
X148030681Y-108102021D01*
X148031200Y-107991578D01*
X148030542Y-107759342D01*
X148027681Y-107586763D01*
X148021291Y-107460933D01*
X148010045Y-107368943D01*
X147992614Y-107297885D01*
X147967674Y-107234851D01*
X147949557Y-107197502D01*
X147854491Y-107055532D01*
X147732391Y-106965613D01*
X147570687Y-106921657D01*
X147370146Y-106916866D01*
X147161498Y-106946239D01*
G37*
X147161498Y-106946239D02*
X147007764Y-107015501D01*
X146901566Y-107131944D01*
X146835528Y-107302861D01*
X146807754Y-107472735D01*
X146787333Y-107670599D01*
X147196629Y-107670599D01*
X147196629Y-107514249D01*
X147218292Y-107367216D01*
X147276509Y-107265358D01*
X147361123Y-107216263D01*
X147461974Y-107227519D01*
X147527214Y-107267330D01*
X147559750Y-107296620D01*
X147583225Y-107331434D01*
X147599423Y-107383571D01*
X147610125Y-107464830D01*
X147617114Y-107587011D01*
X147622173Y-107761912D01*
X147625429Y-107917433D01*
X147628048Y-108201015D01*
X147622311Y-108420207D01*
X147606794Y-108582858D01*
X147580072Y-108696816D01*
X147540721Y-108769930D01*
X147487314Y-108810050D01*
X147461855Y-108818578D01*
X147343183Y-108817578D01*
X147250523Y-108753270D01*
X147188469Y-108631684D01*
X147161616Y-108458853D01*
X147160878Y-108423528D01*
X147160343Y-108251171D01*
X147287343Y-108251171D01*
X147372462Y-108245554D01*
X147407371Y-108213863D01*
X147414327Y-108133838D01*
X147414343Y-108124171D01*
X147414343Y-107997171D01*
X146797486Y-107997171D01*
X146797486Y-109126409D01*
X146932124Y-109115147D01*
X147028422Y-109096668D01*
X147077067Y-109052381D01*
X147091793Y-109013171D01*
X147110832Y-108961708D01*
X147120440Y-108966977D01*
X147159413Y-109035826D01*
X147251964Y-109090226D01*
X147379605Y-109124261D01*
X147523845Y-109132012D01*
X147606197Y-109122439D01*
X147765083Y-109058078D01*
X147896927Y-108938408D01*
X147983987Y-108780092D01*
X147989711Y-108762229D01*
X148004877Y-108673577D01*
X148017225Y-108525350D01*
X148026059Y-108330510D01*
X148030681Y-108102021D01*
X148031200Y-107991578D01*
X148030542Y-107759342D01*
X148027681Y-107586763D01*
X148021291Y-107460933D01*
X148010045Y-107368943D01*
X147992614Y-107297885D01*
X147967674Y-107234851D01*
X147949557Y-107197502D01*
X147854491Y-107055532D01*
X147732391Y-106965613D01*
X147570687Y-106921657D01*
X147370146Y-106916866D01*
X147161498Y-106946239D01*
G36*
X153680391Y-108006242D02*
G01*
X153627692Y-108274492D01*
X153579958Y-108519643D01*
X153538913Y-108732669D01*
X153506280Y-108904545D01*
X153483783Y-109026244D01*
X153473144Y-109088741D01*
X153472529Y-109094814D01*
X153506076Y-109110497D01*
X153589958Y-109120332D01*
X153651604Y-109122028D01*
X153750612Y-109119190D01*
X153812859Y-109101105D01*
X153849757Y-109053417D01*
X153872713Y-108961770D01*
X153892202Y-108819288D01*
X153917848Y-108614028D01*
X154300267Y-108614028D01*
X154325912Y-108819288D01*
X154346216Y-108966577D01*
X154369519Y-109056139D01*
X154407232Y-109102331D01*
X154470763Y-109119508D01*
X154566511Y-109122028D01*
X154675609Y-109117247D01*
X154729311Y-109098912D01*
X154744401Y-109061034D01*
X154744443Y-109058528D01*
X154737557Y-109007675D01*
X154717913Y-108895340D01*
X154687337Y-108731131D01*
X154647656Y-108524656D01*
X154608201Y-108323742D01*
X154240504Y-108323742D01*
X154106745Y-108323742D01*
X154019667Y-108319426D01*
X153986782Y-108295844D01*
X153989787Y-108237045D01*
X153992249Y-108223957D01*
X154007273Y-108140581D01*
X154029444Y-108011060D01*
X154054408Y-107860905D01*
X154058825Y-107833885D01*
X154106138Y-107543599D01*
X154149856Y-107779457D01*
X154177277Y-107931820D01*
X154202874Y-108081358D01*
X154217039Y-108169528D01*
X154240504Y-108323742D01*
X154608201Y-108323742D01*
X154600695Y-108285524D01*
X154548283Y-108023343D01*
X154537503Y-107969957D01*
X154330178Y-106944885D01*
X153889782Y-106944885D01*
X153680391Y-108006242D01*
G37*
X153680391Y-108006242D02*
X153627692Y-108274492D01*
X153579958Y-108519643D01*
X153538913Y-108732669D01*
X153506280Y-108904545D01*
X153483783Y-109026244D01*
X153473144Y-109088741D01*
X153472529Y-109094814D01*
X153506076Y-109110497D01*
X153589958Y-109120332D01*
X153651604Y-109122028D01*
X153750612Y-109119190D01*
X153812859Y-109101105D01*
X153849757Y-109053417D01*
X153872713Y-108961770D01*
X153892202Y-108819288D01*
X153917848Y-108614028D01*
X154300267Y-108614028D01*
X154325912Y-108819288D01*
X154346216Y-108966577D01*
X154369519Y-109056139D01*
X154407232Y-109102331D01*
X154470763Y-109119508D01*
X154566511Y-109122028D01*
X154675609Y-109117247D01*
X154729311Y-109098912D01*
X154744401Y-109061034D01*
X154744443Y-109058528D01*
X154737557Y-109007675D01*
X154717913Y-108895340D01*
X154687337Y-108731131D01*
X154647656Y-108524656D01*
X154608201Y-108323742D01*
X154240504Y-108323742D01*
X154106745Y-108323742D01*
X154019667Y-108319426D01*
X153986782Y-108295844D01*
X153989787Y-108237045D01*
X153992249Y-108223957D01*
X154007273Y-108140581D01*
X154029444Y-108011060D01*
X154054408Y-107860905D01*
X154058825Y-107833885D01*
X154106138Y-107543599D01*
X154149856Y-107779457D01*
X154177277Y-107931820D01*
X154202874Y-108081358D01*
X154217039Y-108169528D01*
X154240504Y-108323742D01*
X154608201Y-108323742D01*
X154600695Y-108285524D01*
X154548283Y-108023343D01*
X154537503Y-107969957D01*
X154330178Y-106944885D01*
X153889782Y-106944885D01*
X153680391Y-108006242D01*
G36*
X152820914Y-108831742D02*
G01*
X152312915Y-108831742D01*
X152312915Y-109122028D01*
X153220057Y-109122028D01*
X153220057Y-106944885D01*
X152820914Y-106944885D01*
X152820914Y-108831742D01*
G37*
X152820914Y-108831742D02*
X152312915Y-108831742D01*
X152312915Y-109122028D01*
X153220057Y-109122028D01*
X153220057Y-106944885D01*
X152820914Y-106944885D01*
X152820914Y-108831742D01*
G36*
X151668843Y-106945420D02*
G01*
X151451409Y-106948883D01*
X151292359Y-106961547D01*
X151177668Y-106987774D01*
X151093308Y-107031924D01*
X151025255Y-107098357D01*
X150980504Y-107159423D01*
X150924634Y-107291605D01*
X150896467Y-107463123D01*
X150896536Y-107646020D01*
X150925375Y-107812337D01*
X150966195Y-107909361D01*
X151081509Y-108031149D01*
X151247275Y-108110540D01*
X151451443Y-108142014D01*
X151474755Y-108142314D01*
X151659772Y-108142314D01*
X151659772Y-109122028D01*
X151853295Y-109122028D01*
X151966221Y-109117822D01*
X152047222Y-109107029D01*
X152071010Y-109097838D01*
X152077150Y-109056734D01*
X152082717Y-108952303D01*
X152087504Y-108793788D01*
X152091307Y-108590433D01*
X152093920Y-108351479D01*
X152095137Y-108086172D01*
X152095200Y-108009266D01*
X152095200Y-107235171D01*
X151659772Y-107235171D01*
X151659772Y-107852028D01*
X151539707Y-107852028D01*
X151433810Y-107837063D01*
X151351210Y-107801989D01*
X151307647Y-107749103D01*
X151286018Y-107659717D01*
X151280774Y-107553648D01*
X151291206Y-107396594D01*
X151331570Y-107298180D01*
X151409715Y-107247914D01*
X151519072Y-107235171D01*
X151659772Y-107235171D01*
X152095200Y-107235171D01*
X152095200Y-106944885D01*
X151668843Y-106945420D01*
G37*
X151668843Y-106945420D02*
X151451409Y-106948883D01*
X151292359Y-106961547D01*
X151177668Y-106987774D01*
X151093308Y-107031924D01*
X151025255Y-107098357D01*
X150980504Y-107159423D01*
X150924634Y-107291605D01*
X150896467Y-107463123D01*
X150896536Y-107646020D01*
X150925375Y-107812337D01*
X150966195Y-107909361D01*
X151081509Y-108031149D01*
X151247275Y-108110540D01*
X151451443Y-108142014D01*
X151474755Y-108142314D01*
X151659772Y-108142314D01*
X151659772Y-109122028D01*
X151853295Y-109122028D01*
X151966221Y-109117822D01*
X152047222Y-109107029D01*
X152071010Y-109097838D01*
X152077150Y-109056734D01*
X152082717Y-108952303D01*
X152087504Y-108793788D01*
X152091307Y-108590433D01*
X152093920Y-108351479D01*
X152095137Y-108086172D01*
X152095200Y-108009266D01*
X152095200Y-107235171D01*
X151659772Y-107235171D01*
X151659772Y-107852028D01*
X151539707Y-107852028D01*
X151433810Y-107837063D01*
X151351210Y-107801989D01*
X151307647Y-107749103D01*
X151286018Y-107659717D01*
X151280774Y-107553648D01*
X151291206Y-107396594D01*
X151331570Y-107298180D01*
X151409715Y-107247914D01*
X151519072Y-107235171D01*
X151659772Y-107235171D01*
X152095200Y-107235171D01*
X152095200Y-106944885D01*
X151668843Y-106945420D01*
G36*
X149736629Y-107235171D02*
G01*
X150244629Y-107235171D01*
X150244629Y-107815742D01*
X149845486Y-107815742D01*
X149845486Y-108142314D01*
X150244629Y-108142314D01*
X150244629Y-108831742D01*
X149736629Y-108831742D01*
X149736629Y-109122028D01*
X150643772Y-109122028D01*
X150643772Y-106944885D01*
X149736629Y-106944885D01*
X149736629Y-107235171D01*
G37*
X149736629Y-107235171D02*
X150244629Y-107235171D01*
X150244629Y-107815742D01*
X149845486Y-107815742D01*
X149845486Y-108142314D01*
X150244629Y-108142314D01*
X150244629Y-108831742D01*
X149736629Y-108831742D01*
X149736629Y-109122028D01*
X150643772Y-109122028D01*
X150643772Y-106944885D01*
X149736629Y-106944885D01*
X149736629Y-107235171D01*
G36*
X149331608Y-106951870D02*
G01*
X149180588Y-106963028D01*
X148702486Y-108085722D01*
X148692493Y-107515304D01*
X148682500Y-106944885D01*
X148357772Y-106944885D01*
X148357772Y-109126409D01*
X148491560Y-109115147D01*
X148625349Y-109103885D01*
X148863489Y-108523314D01*
X149101629Y-107942742D01*
X149119772Y-108523314D01*
X149137915Y-109103885D01*
X149310272Y-109114945D01*
X149482629Y-109126004D01*
X149482629Y-106940713D01*
X149331608Y-106951870D01*
G37*
X149331608Y-106951870D02*
X149180588Y-106963028D01*
X148702486Y-108085722D01*
X148692493Y-107515304D01*
X148682500Y-106944885D01*
X148357772Y-106944885D01*
X148357772Y-109126409D01*
X148491560Y-109115147D01*
X148625349Y-109103885D01*
X148863489Y-108523314D01*
X149101629Y-107942742D01*
X149119772Y-108523314D01*
X149137915Y-109103885D01*
X149310272Y-109114945D01*
X149482629Y-109126004D01*
X149482629Y-106940713D01*
X149331608Y-106951870D01*
G36*
X146071772Y-108831742D02*
G01*
X145563772Y-108831742D01*
X145563772Y-109122028D01*
X146470915Y-109122028D01*
X146470915Y-106944885D01*
X146071772Y-106944885D01*
X146071772Y-108831742D01*
G37*
X146071772Y-108831742D02*
X145563772Y-108831742D01*
X145563772Y-109122028D01*
X146470915Y-109122028D01*
X146470915Y-106944885D01*
X146071772Y-106944885D01*
X146071772Y-108831742D01*
G36*
X144526316Y-106942019D02*
G01*
X144381317Y-107002003D01*
X144267947Y-107106723D01*
X144203057Y-107202678D01*
X144177485Y-107252042D01*
X144158690Y-107308284D01*
X144145647Y-107382876D01*
X144137333Y-107487288D01*
X144132723Y-107632989D01*
X144130792Y-107831451D01*
X144130486Y-108015314D01*
X144132817Y-108299956D01*
X144141535Y-108521967D01*
X144159227Y-108691190D01*
X144188481Y-108817466D01*
X144231884Y-108910636D01*
X144292025Y-108980542D01*
X144371490Y-109037026D01*
X144403895Y-109055203D01*
X144549518Y-109104405D01*
X144727937Y-109123914D01*
X144910250Y-109113998D01*
X145067555Y-109074922D01*
X145121381Y-109048571D01*
X145205199Y-108987952D01*
X145269282Y-108914694D01*
X145316139Y-108818810D01*
X145348283Y-108690312D01*
X145368226Y-108519213D01*
X145378478Y-108295524D01*
X145379953Y-108160105D01*
X144981492Y-108160105D01*
X144977342Y-108384687D01*
X144964398Y-108552662D01*
X144941884Y-108671830D01*
X144909028Y-108749991D01*
X144887736Y-108776880D01*
X144793489Y-108826345D01*
X144689488Y-108817109D01*
X144604761Y-108751812D01*
X144604258Y-108751097D01*
X144583546Y-108685289D01*
X144566989Y-108562617D01*
X144554699Y-108397765D01*
X144546788Y-108205413D01*
X144543371Y-108000246D01*
X144544559Y-107796944D01*
X144550464Y-107610190D01*
X144561200Y-107454667D01*
X144576878Y-107345057D01*
X144593129Y-107300199D01*
X144688046Y-107228362D01*
X144796724Y-107224186D01*
X144878357Y-107267368D01*
X144912118Y-107298102D01*
X144936139Y-107334969D01*
X144952467Y-107390401D01*
X144963144Y-107476835D01*
X144970215Y-107606704D01*
X144975726Y-107792442D01*
X144977620Y-107871114D01*
X144981492Y-108160105D01*
X145379953Y-108160105D01*
X145381546Y-108013931D01*
X145381243Y-107777714D01*
X145378845Y-107601544D01*
X145373110Y-107472901D01*
X145362792Y-107379265D01*
X145346649Y-107308118D01*
X145323436Y-107246940D01*
X145300700Y-107200187D01*
X145202154Y-107055541D01*
X145076128Y-106964366D01*
X144910316Y-106920638D01*
X144721289Y-106916645D01*
X144526316Y-106942019D01*
G37*
X144526316Y-106942019D02*
X144381317Y-107002003D01*
X144267947Y-107106723D01*
X144203057Y-107202678D01*
X144177485Y-107252042D01*
X144158690Y-107308284D01*
X144145647Y-107382876D01*
X144137333Y-107487288D01*
X144132723Y-107632989D01*
X144130792Y-107831451D01*
X144130486Y-108015314D01*
X144132817Y-108299956D01*
X144141535Y-108521967D01*
X144159227Y-108691190D01*
X144188481Y-108817466D01*
X144231884Y-108910636D01*
X144292025Y-108980542D01*
X144371490Y-109037026D01*
X144403895Y-109055203D01*
X144549518Y-109104405D01*
X144727937Y-109123914D01*
X144910250Y-109113998D01*
X145067555Y-109074922D01*
X145121381Y-109048571D01*
X145205199Y-108987952D01*
X145269282Y-108914694D01*
X145316139Y-108818810D01*
X145348283Y-108690312D01*
X145368226Y-108519213D01*
X145378478Y-108295524D01*
X145379953Y-108160105D01*
X144981492Y-108160105D01*
X144977342Y-108384687D01*
X144964398Y-108552662D01*
X144941884Y-108671830D01*
X144909028Y-108749991D01*
X144887736Y-108776880D01*
X144793489Y-108826345D01*
X144689488Y-108817109D01*
X144604761Y-108751812D01*
X144604258Y-108751097D01*
X144583546Y-108685289D01*
X144566989Y-108562617D01*
X144554699Y-108397765D01*
X144546788Y-108205413D01*
X144543371Y-108000246D01*
X144544559Y-107796944D01*
X144550464Y-107610190D01*
X144561200Y-107454667D01*
X144576878Y-107345057D01*
X144593129Y-107300199D01*
X144688046Y-107228362D01*
X144796724Y-107224186D01*
X144878357Y-107267368D01*
X144912118Y-107298102D01*
X144936139Y-107334969D01*
X144952467Y-107390401D01*
X144963144Y-107476835D01*
X144970215Y-107606704D01*
X144975726Y-107792442D01*
X144977620Y-107871114D01*
X144981492Y-108160105D01*
X145379953Y-108160105D01*
X145381546Y-108013931D01*
X145381243Y-107777714D01*
X145378845Y-107601544D01*
X145373110Y-107472901D01*
X145362792Y-107379265D01*
X145346649Y-107308118D01*
X145323436Y-107246940D01*
X145300700Y-107200187D01*
X145202154Y-107055541D01*
X145076128Y-106964366D01*
X144910316Y-106920638D01*
X144721289Y-106916645D01*
X144526316Y-106942019D01*
G36*
X143010589Y-106952125D02*
G01*
X142862700Y-106963028D01*
X142764342Y-107554137D01*
X142730611Y-107754534D01*
X142700212Y-107930795D01*
X142675427Y-108070034D01*
X142658535Y-108159370D01*
X142652696Y-108185112D01*
X142643727Y-108166016D01*
X142628111Y-108086429D01*
X142607772Y-107957922D01*
X142584638Y-107792066D01*
X142575432Y-107721004D01*
X142543334Y-107464844D01*
X142518732Y-107271682D01*
X142498503Y-107132724D01*
X142479524Y-107039177D01*
X142458671Y-106982249D01*
X142432820Y-106953146D01*
X142398850Y-106943076D01*
X142353636Y-106943245D01*
X142299748Y-106944885D01*
X142129286Y-106944885D01*
X142285093Y-108024385D01*
X142324159Y-108295088D01*
X142359715Y-108541535D01*
X142390482Y-108754860D01*
X142415182Y-108926192D01*
X142432535Y-109046664D01*
X142441264Y-109107408D01*
X142442050Y-109112957D01*
X142475235Y-109118396D01*
X142557753Y-109121634D01*
X142604842Y-109122028D01*
X142705608Y-109118160D01*
X142756480Y-109096849D01*
X142780079Y-109043532D01*
X142788033Y-109004100D01*
X142801527Y-108928329D01*
X142824666Y-108796378D01*
X142854775Y-108623586D01*
X142889179Y-108425290D01*
X142909724Y-108306505D01*
X143009865Y-107726839D01*
X143110545Y-108342791D01*
X143152035Y-108598586D01*
X143183924Y-108791707D01*
X143209564Y-108930885D01*
X143232310Y-109024852D01*
X143255515Y-109082338D01*
X143282533Y-109112075D01*
X143316717Y-109122794D01*
X143361422Y-109123226D01*
X143409844Y-109122028D01*
X143519291Y-109112172D01*
X143579377Y-109085681D01*
X143584708Y-109076671D01*
X143593379Y-109029745D01*
X143610401Y-108920923D01*
X143634305Y-108760213D01*
X143663625Y-108557622D01*
X143696892Y-108323158D01*
X143729726Y-108087885D01*
X143765764Y-107829308D01*
X143799543Y-107590073D01*
X143829509Y-107380944D01*
X143854106Y-107212689D01*
X143871781Y-107096075D01*
X143880382Y-107044671D01*
X143888541Y-106985978D01*
X143871260Y-106956475D01*
X143812012Y-106946124D01*
X143716083Y-106944885D01*
X143590438Y-106953443D01*
X143534813Y-106979200D01*
X143531702Y-106990242D01*
X143527257Y-107043260D01*
X143515245Y-107150063D01*
X143497553Y-107296151D01*
X143476069Y-107467023D01*
X143452681Y-107648180D01*
X143429275Y-107825121D01*
X143407739Y-107983347D01*
X143389961Y-108108358D01*
X143377828Y-108185653D01*
X143373773Y-108203550D01*
X143365436Y-108172557D01*
X143347714Y-108081072D01*
X143322609Y-107940278D01*
X143292119Y-107761357D01*
X143261701Y-107576811D01*
X143158479Y-106941222D01*
X143010589Y-106952125D01*
G37*
X143010589Y-106952125D02*
X142862700Y-106963028D01*
X142764342Y-107554137D01*
X142730611Y-107754534D01*
X142700212Y-107930795D01*
X142675427Y-108070034D01*
X142658535Y-108159370D01*
X142652696Y-108185112D01*
X142643727Y-108166016D01*
X142628111Y-108086429D01*
X142607772Y-107957922D01*
X142584638Y-107792066D01*
X142575432Y-107721004D01*
X142543334Y-107464844D01*
X142518732Y-107271682D01*
X142498503Y-107132724D01*
X142479524Y-107039177D01*
X142458671Y-106982249D01*
X142432820Y-106953146D01*
X142398850Y-106943076D01*
X142353636Y-106943245D01*
X142299748Y-106944885D01*
X142129286Y-106944885D01*
X142285093Y-108024385D01*
X142324159Y-108295088D01*
X142359715Y-108541535D01*
X142390482Y-108754860D01*
X142415182Y-108926192D01*
X142432535Y-109046664D01*
X142441264Y-109107408D01*
X142442050Y-109112957D01*
X142475235Y-109118396D01*
X142557753Y-109121634D01*
X142604842Y-109122028D01*
X142705608Y-109118160D01*
X142756480Y-109096849D01*
X142780079Y-109043532D01*
X142788033Y-109004100D01*
X142801527Y-108928329D01*
X142824666Y-108796378D01*
X142854775Y-108623586D01*
X142889179Y-108425290D01*
X142909724Y-108306505D01*
X143009865Y-107726839D01*
X143110545Y-108342791D01*
X143152035Y-108598586D01*
X143183924Y-108791707D01*
X143209564Y-108930885D01*
X143232310Y-109024852D01*
X143255515Y-109082338D01*
X143282533Y-109112075D01*
X143316717Y-109122794D01*
X143361422Y-109123226D01*
X143409844Y-109122028D01*
X143519291Y-109112172D01*
X143579377Y-109085681D01*
X143584708Y-109076671D01*
X143593379Y-109029745D01*
X143610401Y-108920923D01*
X143634305Y-108760213D01*
X143663625Y-108557622D01*
X143696892Y-108323158D01*
X143729726Y-108087885D01*
X143765764Y-107829308D01*
X143799543Y-107590073D01*
X143829509Y-107380944D01*
X143854106Y-107212689D01*
X143871781Y-107096075D01*
X143880382Y-107044671D01*
X143888541Y-106985978D01*
X143871260Y-106956475D01*
X143812012Y-106946124D01*
X143716083Y-106944885D01*
X143590438Y-106953443D01*
X143534813Y-106979200D01*
X143531702Y-106990242D01*
X143527257Y-107043260D01*
X143515245Y-107150063D01*
X143497553Y-107296151D01*
X143476069Y-107467023D01*
X143452681Y-107648180D01*
X143429275Y-107825121D01*
X143407739Y-107983347D01*
X143389961Y-108108358D01*
X143377828Y-108185653D01*
X143373773Y-108203550D01*
X143365436Y-108172557D01*
X143347714Y-108081072D01*
X143322609Y-107940278D01*
X143292119Y-107761357D01*
X143261701Y-107576811D01*
X143158479Y-106941222D01*
X143010589Y-106952125D01*
G36*
X159600186Y-106031908D02*
G01*
X159620769Y-106110667D01*
X159649073Y-106191957D01*
X159695663Y-106294712D01*
X159759916Y-106410444D01*
X159833122Y-106526848D01*
X159906569Y-106631620D01*
X159971547Y-106712456D01*
X160019344Y-106757050D01*
X160041249Y-106753098D01*
X160041772Y-106746657D01*
X160023893Y-106670140D01*
X159976443Y-106557754D01*
X159908696Y-106425230D01*
X159829929Y-106288302D01*
X159749417Y-106162700D01*
X159676438Y-106064157D01*
X159620267Y-106008404D01*
X159602373Y-106001457D01*
X159600186Y-106031908D01*
G37*
X159600186Y-106031908D02*
X159620769Y-106110667D01*
X159649073Y-106191957D01*
X159695663Y-106294712D01*
X159759916Y-106410444D01*
X159833122Y-106526848D01*
X159906569Y-106631620D01*
X159971547Y-106712456D01*
X160019344Y-106757050D01*
X160041249Y-106753098D01*
X160041772Y-106746657D01*
X160023893Y-106670140D01*
X159976443Y-106557754D01*
X159908696Y-106425230D01*
X159829929Y-106288302D01*
X159749417Y-106162700D01*
X159676438Y-106064157D01*
X159620267Y-106008404D01*
X159602373Y-106001457D01*
X159600186Y-106031908D01*
G36*
X159242018Y-106031094D02*
G01*
X159177029Y-106109770D01*
X159100777Y-106222133D01*
X159022021Y-106352827D01*
X158949517Y-106486500D01*
X158892025Y-106607798D01*
X158858301Y-106701368D01*
X158857104Y-106751856D01*
X158858221Y-106753144D01*
X158885493Y-106734332D01*
X158943106Y-106673050D01*
X158995997Y-106610164D01*
X159078090Y-106507592D01*
X159130795Y-106433857D01*
X159169911Y-106361829D01*
X159211238Y-106264379D01*
X159240648Y-106190086D01*
X159276409Y-106087967D01*
X159291798Y-106019469D01*
X159286988Y-106001457D01*
X159242018Y-106031094D01*
G37*
X159242018Y-106031094D02*
X159177029Y-106109770D01*
X159100777Y-106222133D01*
X159022021Y-106352827D01*
X158949517Y-106486500D01*
X158892025Y-106607798D01*
X158858301Y-106701368D01*
X158857104Y-106751856D01*
X158858221Y-106753144D01*
X158885493Y-106734332D01*
X158943106Y-106673050D01*
X158995997Y-106610164D01*
X159078090Y-106507592D01*
X159130795Y-106433857D01*
X159169911Y-106361829D01*
X159211238Y-106264379D01*
X159240648Y-106190086D01*
X159276409Y-106087967D01*
X159291798Y-106019469D01*
X159286988Y-106001457D01*
X159242018Y-106031094D01*
G36*
X159738570Y-105902952D02*
G01*
X159743523Y-105927870D01*
X159795416Y-105979586D01*
X159879266Y-106047055D01*
X159980090Y-106119234D01*
X160082905Y-106185079D01*
X160172727Y-106233546D01*
X160205057Y-106246793D01*
X160304062Y-106282132D01*
X160377415Y-106310056D01*
X160428863Y-106317850D01*
X160439793Y-106304696D01*
X160407870Y-106255226D01*
X160325962Y-106186976D01*
X160210862Y-106109568D01*
X160079368Y-106032624D01*
X159948273Y-105965767D01*
X159834376Y-105918619D01*
X159754470Y-105900804D01*
X159738570Y-105902952D01*
G37*
X159738570Y-105902952D02*
X159743523Y-105927870D01*
X159795416Y-105979586D01*
X159879266Y-106047055D01*
X159980090Y-106119234D01*
X160082905Y-106185079D01*
X160172727Y-106233546D01*
X160205057Y-106246793D01*
X160304062Y-106282132D01*
X160377415Y-106310056D01*
X160428863Y-106317850D01*
X160439793Y-106304696D01*
X160407870Y-106255226D01*
X160325962Y-106186976D01*
X160210862Y-106109568D01*
X160079368Y-106032624D01*
X159948273Y-105965767D01*
X159834376Y-105918619D01*
X159754470Y-105900804D01*
X159738570Y-105902952D01*
G36*
X159080143Y-105908637D02*
G01*
X158976615Y-105947958D01*
X158851422Y-106009802D01*
X158723375Y-106084502D01*
X158611285Y-106162393D01*
X158572200Y-106194887D01*
X158491087Y-106272265D01*
X158465078Y-106312286D01*
X158496991Y-106316508D01*
X158589644Y-106286488D01*
X158676259Y-106252405D01*
X158777063Y-106203122D01*
X158887538Y-106136359D01*
X158993751Y-106062585D01*
X159081772Y-105992271D01*
X159137667Y-105935886D01*
X159147507Y-105903900D01*
X159143195Y-105901503D01*
X159080143Y-105908637D01*
G37*
X159080143Y-105908637D02*
X158976615Y-105947958D01*
X158851422Y-106009802D01*
X158723375Y-106084502D01*
X158611285Y-106162393D01*
X158572200Y-106194887D01*
X158491087Y-106272265D01*
X158465078Y-106312286D01*
X158496991Y-106316508D01*
X158589644Y-106286488D01*
X158676259Y-106252405D01*
X158777063Y-106203122D01*
X158887538Y-106136359D01*
X158993751Y-106062585D01*
X159081772Y-105992271D01*
X159137667Y-105935886D01*
X159147507Y-105903900D01*
X159143195Y-105901503D01*
X159080143Y-105908637D01*
G36*
X159986967Y-105689971D02*
G01*
X159870168Y-105702070D01*
X159789410Y-105719029D01*
X159758843Y-105739989D01*
X159769629Y-105753605D01*
X159825333Y-105768871D01*
X159929237Y-105783829D01*
X160056992Y-105796394D01*
X160184247Y-105804484D01*
X160286653Y-105806015D01*
X160332057Y-105801716D01*
X160401645Y-105786951D01*
X160505510Y-105766917D01*
X160531629Y-105762104D01*
X160676772Y-105735633D01*
X160531629Y-105707350D01*
X160412140Y-105691422D01*
X160272102Y-105683788D01*
X160125661Y-105683591D01*
X159986967Y-105689971D01*
G37*
X159986967Y-105689971D02*
X159870168Y-105702070D01*
X159789410Y-105719029D01*
X159758843Y-105739989D01*
X159769629Y-105753605D01*
X159825333Y-105768871D01*
X159929237Y-105783829D01*
X160056992Y-105796394D01*
X160184247Y-105804484D01*
X160286653Y-105806015D01*
X160332057Y-105801716D01*
X160401645Y-105786951D01*
X160505510Y-105766917D01*
X160531629Y-105762104D01*
X160676772Y-105735633D01*
X160531629Y-105707350D01*
X160412140Y-105691422D01*
X160272102Y-105683788D01*
X160125661Y-105683591D01*
X159986967Y-105689971D01*
G36*
X158545754Y-105688446D02*
G01*
X158425566Y-105698030D01*
X158334334Y-105711957D01*
X158285667Y-105729414D01*
X158293172Y-105749591D01*
X158302806Y-105753959D01*
X158381635Y-105771751D01*
X158507446Y-105786890D01*
X158654657Y-105797654D01*
X158797685Y-105802322D01*
X158910945Y-105799174D01*
X158935057Y-105796483D01*
X159058032Y-105772930D01*
X159110108Y-105748716D01*
X159090644Y-105724351D01*
X159043915Y-105709764D01*
X158943979Y-105693863D01*
X158818569Y-105685551D01*
X158681291Y-105684016D01*
X158545754Y-105688446D01*
G37*
X158545754Y-105688446D02*
X158425566Y-105698030D01*
X158334334Y-105711957D01*
X158285667Y-105729414D01*
X158293172Y-105749591D01*
X158302806Y-105753959D01*
X158381635Y-105771751D01*
X158507446Y-105786890D01*
X158654657Y-105797654D01*
X158797685Y-105802322D01*
X158910945Y-105799174D01*
X158935057Y-105796483D01*
X159058032Y-105772930D01*
X159110108Y-105748716D01*
X159090644Y-105724351D01*
X159043915Y-105709764D01*
X158943979Y-105693863D01*
X158818569Y-105685551D01*
X158681291Y-105684016D01*
X158545754Y-105688446D01*
G36*
X160340064Y-105173816D02*
G01*
X160235024Y-105220893D01*
X160112262Y-105285236D01*
X159985795Y-105358879D01*
X159869639Y-105433858D01*
X159777808Y-105502207D01*
X159724319Y-105555961D01*
X159716322Y-105575099D01*
X159724519Y-105595812D01*
X159760101Y-105594019D01*
X159835736Y-105566428D01*
X159959180Y-105511982D01*
X160076806Y-105450682D01*
X160199959Y-105374126D01*
X160312301Y-105294139D01*
X160397492Y-105222548D01*
X160439192Y-105171178D01*
X160440915Y-105163320D01*
X160413366Y-105151970D01*
X160340064Y-105173816D01*
G37*
X160340064Y-105173816D02*
X160235024Y-105220893D01*
X160112262Y-105285236D01*
X159985795Y-105358879D01*
X159869639Y-105433858D01*
X159777808Y-105502207D01*
X159724319Y-105555961D01*
X159716322Y-105575099D01*
X159724519Y-105595812D01*
X159760101Y-105594019D01*
X159835736Y-105566428D01*
X159959180Y-105511982D01*
X160076806Y-105450682D01*
X160199959Y-105374126D01*
X160312301Y-105294139D01*
X160397492Y-105222548D01*
X160439192Y-105171178D01*
X160440915Y-105163320D01*
X160413366Y-105151970D01*
X160340064Y-105173816D01*
G36*
X158445200Y-105162823D02*
G01*
X158471111Y-105197888D01*
X158535980Y-105259620D01*
X158620511Y-105331407D01*
X158705407Y-105396635D01*
X158755500Y-105429961D01*
X158831547Y-105467579D01*
X158931909Y-105508264D01*
X159035468Y-105544748D01*
X159121104Y-105569760D01*
X159167698Y-105576030D01*
X159170915Y-105572955D01*
X159141487Y-105530217D01*
X159064115Y-105464909D01*
X158955166Y-105388087D01*
X158831006Y-105310806D01*
X158708003Y-105244124D01*
X158635700Y-105211408D01*
X158533151Y-105174538D01*
X158463993Y-105158220D01*
X158445200Y-105162823D01*
G37*
X158445200Y-105162823D02*
X158471111Y-105197888D01*
X158535980Y-105259620D01*
X158620511Y-105331407D01*
X158705407Y-105396635D01*
X158755500Y-105429961D01*
X158831547Y-105467579D01*
X158931909Y-105508264D01*
X159035468Y-105544748D01*
X159121104Y-105569760D01*
X159167698Y-105576030D01*
X159170915Y-105572955D01*
X159141487Y-105530217D01*
X159064115Y-105464909D01*
X158955166Y-105388087D01*
X158831006Y-105310806D01*
X158708003Y-105244124D01*
X158635700Y-105211408D01*
X158533151Y-105174538D01*
X158463993Y-105158220D01*
X158445200Y-105162823D01*
G36*
X158865245Y-104760824D02*
G01*
X158885569Y-104835800D01*
X158925504Y-104940102D01*
X158977875Y-105056325D01*
X159035509Y-105167064D01*
X159081256Y-105240980D01*
X159149423Y-105331515D01*
X159219785Y-105413143D01*
X159278714Y-105471579D01*
X159312580Y-105492538D01*
X159316057Y-105487102D01*
X159298122Y-105411565D01*
X159250494Y-105299468D01*
X159182439Y-105166546D01*
X159103225Y-105028534D01*
X159022119Y-104901168D01*
X158948386Y-104800182D01*
X158891294Y-104741312D01*
X158871705Y-104732579D01*
X158865245Y-104760824D01*
G37*
X158865245Y-104760824D02*
X158885569Y-104835800D01*
X158925504Y-104940102D01*
X158977875Y-105056325D01*
X159035509Y-105167064D01*
X159081256Y-105240980D01*
X159149423Y-105331515D01*
X159219785Y-105413143D01*
X159278714Y-105471579D01*
X159312580Y-105492538D01*
X159316057Y-105487102D01*
X159298122Y-105411565D01*
X159250494Y-105299468D01*
X159182439Y-105166546D01*
X159103225Y-105028534D01*
X159022119Y-104901168D01*
X158948386Y-104800182D01*
X158891294Y-104741312D01*
X158871705Y-104732579D01*
X158865245Y-104760824D01*
G36*
X159994342Y-104734480D02*
G01*
X159967623Y-104769535D01*
X159911339Y-104842834D01*
X159868128Y-104898971D01*
X159792976Y-105009685D01*
X159721024Y-105137585D01*
X159661417Y-105263342D01*
X159623298Y-105367623D01*
X159615810Y-105431098D01*
X159616061Y-105431897D01*
X159642576Y-105426838D01*
X159697968Y-105375460D01*
X159744865Y-105320388D01*
X159812253Y-105223248D01*
X159882369Y-105103064D01*
X159946876Y-104977127D01*
X159997435Y-104862729D01*
X160025711Y-104777161D01*
X160025166Y-104739041D01*
X159994977Y-104733687D01*
X159994342Y-104734480D01*
G37*
X159994342Y-104734480D02*
X159967623Y-104769535D01*
X159911339Y-104842834D01*
X159868128Y-104898971D01*
X159792976Y-105009685D01*
X159721024Y-105137585D01*
X159661417Y-105263342D01*
X159623298Y-105367623D01*
X159615810Y-105431098D01*
X159616061Y-105431897D01*
X159642576Y-105426838D01*
X159697968Y-105375460D01*
X159744865Y-105320388D01*
X159812253Y-105223248D01*
X159882369Y-105103064D01*
X159946876Y-104977127D01*
X159997435Y-104862729D01*
X160025711Y-104777161D01*
X160025166Y-104739041D01*
X159994977Y-104733687D01*
X159994342Y-104734480D01*
G36*
X159428720Y-104631186D02*
G01*
X159417653Y-104658885D01*
X159396657Y-104756683D01*
X159385431Y-104899225D01*
X159383967Y-105059439D01*
X159392257Y-105210249D01*
X159410296Y-105324582D01*
X159417838Y-105348314D01*
X159453383Y-105439028D01*
X159479855Y-105337303D01*
X159502361Y-105191413D01*
X159509224Y-105009663D01*
X159500238Y-104827104D01*
X159483521Y-104713314D01*
X159463143Y-104624538D01*
X159447845Y-104599615D01*
X159428720Y-104631186D01*
G37*
X159428720Y-104631186D02*
X159417653Y-104658885D01*
X159396657Y-104756683D01*
X159385431Y-104899225D01*
X159383967Y-105059439D01*
X159392257Y-105210249D01*
X159410296Y-105324582D01*
X159417838Y-105348314D01*
X159453383Y-105439028D01*
X159479855Y-105337303D01*
X159502361Y-105191413D01*
X159509224Y-105009663D01*
X159500238Y-104827104D01*
X159483521Y-104713314D01*
X159463143Y-104624538D01*
X159447845Y-104599615D01*
X159428720Y-104631186D01*
D12*
%TO.C,SW1*%
X160053142Y-70183858D02*
X167500960Y-74483858D01*
X162353142Y-66200142D02*
X164258397Y-67300142D01*
X167809102Y-69350142D02*
X169800960Y-70500142D01*
%TD*%
M02*
