%TF.GenerationSoftware,KiCad,Pcbnew,(6.0.1)*%
%TF.CreationDate,2022-04-19T14:46:11-07:00*%
%TF.ProjectId,Alpenglow_GoldSun_PCB,416c7065-6e67-46c6-9f77-5f476f6c6453,rev?*%
%TF.SameCoordinates,Original*%
%TF.FileFunction,Legend,Top*%
%TF.FilePolarity,Positive*%
%FSLAX46Y46*%
G04 Gerber Fmt 4.6, Leading zero omitted, Abs format (unit mm)*
G04 Created by KiCad (PCBNEW (6.0.1)) date 2022-04-19 14:46:11*
%MOMM*%
%LPD*%
G01*
G04 APERTURE LIST*
G04 Aperture macros list*
%AMHorizOval*
0 Thick line with rounded ends*
0 $1 width*
0 $2 $3 position (X,Y) of the first rounded end (center of the circle)*
0 $4 $5 position (X,Y) of the second rounded end (center of the circle)*
0 Add line between two ends*
20,1,$1,$2,$3,$4,$5,0*
0 Add two circle primitives to create the rounded ends*
1,1,$1,$2,$3*
1,1,$1,$4,$5*%
%AMRotRect*
0 Rectangle, with rotation*
0 The origin of the aperture is its center*
0 $1 length*
0 $2 width*
0 $3 Rotation angle, in degrees counterclockwise*
0 Add horizontal line*
21,1,$1,$2,0,0,$3*%
G04 Aperture macros list end*
%ADD10C,0.254000*%
%ADD11C,0.120000*%
%ADD12R,1.800000X1.800000*%
%ADD13C,1.800000*%
%ADD14RotRect,1.800000X1.800000X240.000000*%
%ADD15RotRect,1.800000X1.800000X120.000000*%
%ADD16RotRect,1.800000X1.800000X310.000000*%
%ADD17RotRect,1.800000X1.800000X55.000000*%
%ADD18O,2.500000X4.000000*%
%ADD19HorizOval,1.900000X-0.400000X-0.692820X0.400000X0.692820X0*%
%ADD20RotRect,1.300000X2.500000X330.000000*%
%ADD21HorizOval,1.300000X-0.300000X-0.519615X0.300000X0.519615X0*%
G04 APERTURE END LIST*
%TO.C,G\u002A\u002A\u002A*%
G36*
X182550641Y-60781360D02*
G01*
X182550641Y-120828641D01*
X122503360Y-120828641D01*
X122503360Y-110521646D01*
X139977118Y-110521646D01*
X139982518Y-110540210D01*
X139983752Y-110540540D01*
X140000720Y-110529475D01*
X140049214Y-110496999D01*
X140127642Y-110444190D01*
X140234414Y-110372126D01*
X140367938Y-110281885D01*
X140526622Y-110174544D01*
X140708875Y-110051183D01*
X140913105Y-109912878D01*
X141137722Y-109760708D01*
X141381133Y-109595750D01*
X141641748Y-109419084D01*
X141917974Y-109231786D01*
X142208221Y-109034935D01*
X142510897Y-108829608D01*
X142824410Y-108616884D01*
X143147170Y-108397841D01*
X143221301Y-108347525D01*
X143545977Y-108127094D01*
X143861743Y-107912608D01*
X144167009Y-107705151D01*
X144460184Y-107505808D01*
X144739676Y-107315665D01*
X145003894Y-107135807D01*
X145251247Y-106967319D01*
X145459959Y-106825044D01*
X149352378Y-106825044D01*
X149359935Y-106843792D01*
X149383685Y-106896517D01*
X149422629Y-106981109D01*
X149475766Y-107095461D01*
X149542097Y-107237464D01*
X149620621Y-107405010D01*
X149710339Y-107595990D01*
X149810251Y-107808295D01*
X149919356Y-108039817D01*
X150036655Y-108288448D01*
X150161148Y-108552078D01*
X150291835Y-108828601D01*
X150427716Y-109115906D01*
X150567791Y-109411886D01*
X150711060Y-109714431D01*
X150856523Y-110021435D01*
X151003180Y-110330787D01*
X151150032Y-110640380D01*
X151296077Y-110948105D01*
X151440318Y-111251854D01*
X151581752Y-111549517D01*
X151719382Y-111838988D01*
X151852205Y-112118156D01*
X151979223Y-112384914D01*
X152099436Y-112637153D01*
X152211844Y-112872764D01*
X152315446Y-113089640D01*
X152409244Y-113285671D01*
X152492236Y-113458749D01*
X152563423Y-113606766D01*
X152621805Y-113727613D01*
X152666382Y-113819182D01*
X152696154Y-113879364D01*
X152710121Y-113906050D01*
X152711067Y-113907230D01*
X152720705Y-113887901D01*
X152746231Y-113833942D01*
X152786837Y-113747105D01*
X152841712Y-113629143D01*
X152910048Y-113481808D01*
X152991036Y-113306854D01*
X153083868Y-113106032D01*
X153187734Y-112881096D01*
X153301826Y-112633799D01*
X153425334Y-112365892D01*
X153557451Y-112079129D01*
X153697366Y-111775263D01*
X153844271Y-111456046D01*
X153997358Y-111123230D01*
X154155817Y-110778569D01*
X154318839Y-110423816D01*
X154355830Y-110343297D01*
X155986583Y-106793414D01*
X152670542Y-106807943D01*
X152309443Y-106809540D01*
X151959298Y-106811119D01*
X151622192Y-106812668D01*
X151300209Y-106814177D01*
X150995431Y-106815635D01*
X150709944Y-106817032D01*
X150445830Y-106818356D01*
X150205174Y-106819597D01*
X149990058Y-106820745D01*
X149802567Y-106821787D01*
X149644784Y-106822715D01*
X149518793Y-106823516D01*
X149426678Y-106824181D01*
X149370522Y-106824698D01*
X149352378Y-106825044D01*
X145459959Y-106825044D01*
X145480142Y-106811286D01*
X145688991Y-106668794D01*
X145876200Y-106540928D01*
X146040178Y-106428774D01*
X146179335Y-106333416D01*
X146292079Y-106255941D01*
X146376819Y-106197432D01*
X146431964Y-106158976D01*
X146439110Y-106153810D01*
X158842030Y-106153810D01*
X158861787Y-106166838D01*
X158913680Y-106199081D01*
X158995706Y-106249334D01*
X159105860Y-106316396D01*
X159242139Y-106399065D01*
X159402540Y-106496137D01*
X159585059Y-106606411D01*
X159787692Y-106728685D01*
X160008436Y-106861756D01*
X160245287Y-107004422D01*
X160496241Y-107155480D01*
X160759295Y-107313728D01*
X161032446Y-107477965D01*
X161313689Y-107646986D01*
X161601021Y-107819591D01*
X161892439Y-107994577D01*
X162185938Y-108170741D01*
X162479516Y-108346882D01*
X162771169Y-108521796D01*
X163058892Y-108694282D01*
X163340683Y-108863137D01*
X163614538Y-109027159D01*
X163878453Y-109185145D01*
X164130424Y-109335894D01*
X164368449Y-109478203D01*
X164590523Y-109610869D01*
X164794642Y-109732691D01*
X164978804Y-109842465D01*
X165141005Y-109938990D01*
X165279240Y-110021064D01*
X165391507Y-110087483D01*
X165475801Y-110137046D01*
X165530120Y-110168551D01*
X165552459Y-110180794D01*
X165552930Y-110180890D01*
X165550411Y-110159946D01*
X165541896Y-110101374D01*
X165527684Y-110007081D01*
X165508073Y-109878972D01*
X165483362Y-109718954D01*
X165453850Y-109528933D01*
X165419835Y-109310815D01*
X165381617Y-109066506D01*
X165339493Y-108797911D01*
X165293762Y-108506938D01*
X165244724Y-108195492D01*
X165192676Y-107865479D01*
X165137917Y-107518806D01*
X165080747Y-107157378D01*
X165021463Y-106783101D01*
X164960364Y-106397882D01*
X164947513Y-106316919D01*
X164886008Y-105929740D01*
X164826114Y-105553164D01*
X164768137Y-105189093D01*
X164712382Y-104839431D01*
X164659155Y-104506079D01*
X164608761Y-104190941D01*
X164561506Y-103895918D01*
X164517696Y-103622914D01*
X164477637Y-103373831D01*
X164441634Y-103150572D01*
X164409994Y-102955039D01*
X164383021Y-102789135D01*
X164361021Y-102654763D01*
X164344301Y-102553825D01*
X164333166Y-102488223D01*
X164327921Y-102459861D01*
X164327598Y-102458815D01*
X164310324Y-102468848D01*
X164261609Y-102500124D01*
X164183187Y-102551481D01*
X164076793Y-102621760D01*
X163944161Y-102709801D01*
X163787027Y-102814444D01*
X163607125Y-102934529D01*
X163406190Y-103068896D01*
X163185957Y-103216385D01*
X162948160Y-103375836D01*
X162694535Y-103546090D01*
X162426815Y-103725985D01*
X162146736Y-103914362D01*
X161856033Y-104110061D01*
X161576740Y-104298239D01*
X161277828Y-104499791D01*
X160988103Y-104695291D01*
X160709291Y-104883568D01*
X160443114Y-105063453D01*
X160191298Y-105233778D01*
X159955564Y-105393371D01*
X159737638Y-105541063D01*
X159539243Y-105675685D01*
X159362103Y-105796067D01*
X159207942Y-105901039D01*
X159078483Y-105989432D01*
X158975451Y-106060075D01*
X158900569Y-106111800D01*
X158855562Y-106143437D01*
X158842030Y-106153810D01*
X146439110Y-106153810D01*
X146455922Y-106141657D01*
X146456851Y-106140787D01*
X146440607Y-106129070D01*
X146392163Y-106098246D01*
X146313699Y-106049617D01*
X146207398Y-105984487D01*
X146075442Y-105904161D01*
X145920012Y-105809941D01*
X145743290Y-105703131D01*
X145547458Y-105585035D01*
X145334698Y-105456956D01*
X145107191Y-105320199D01*
X144867120Y-105176065D01*
X144616665Y-105025860D01*
X144358009Y-104870887D01*
X144093334Y-104712449D01*
X143824822Y-104551850D01*
X143554653Y-104390394D01*
X143285010Y-104229383D01*
X143018075Y-104070123D01*
X142756030Y-103913916D01*
X142501056Y-103762066D01*
X142255334Y-103615876D01*
X142021048Y-103476651D01*
X141800378Y-103345694D01*
X141595507Y-103224308D01*
X141408616Y-103113797D01*
X141241886Y-103015464D01*
X141097501Y-102930614D01*
X140977641Y-102860549D01*
X140884488Y-102806574D01*
X140820224Y-102769992D01*
X140787031Y-102752107D01*
X140782773Y-102750551D01*
X140780314Y-102771311D01*
X140773986Y-102829557D01*
X140764033Y-102922956D01*
X140750696Y-103049174D01*
X140734217Y-103205877D01*
X140714838Y-103390731D01*
X140692801Y-103601403D01*
X140668347Y-103835560D01*
X140641720Y-104090866D01*
X140613161Y-104364989D01*
X140582911Y-104655595D01*
X140551213Y-104960350D01*
X140518309Y-105276921D01*
X140484440Y-105602973D01*
X140449849Y-105936174D01*
X140414777Y-106274189D01*
X140379467Y-106614684D01*
X140344160Y-106955326D01*
X140309098Y-107293782D01*
X140274524Y-107627717D01*
X140240679Y-107954797D01*
X140207804Y-108272690D01*
X140176143Y-108579061D01*
X140145937Y-108871577D01*
X140117428Y-109147904D01*
X140090858Y-109405708D01*
X140066469Y-109642655D01*
X140044503Y-109856412D01*
X140025201Y-110044646D01*
X140008806Y-110205021D01*
X139995560Y-110335205D01*
X139985704Y-110432865D01*
X139979480Y-110495665D01*
X139977132Y-110521273D01*
X139977118Y-110521646D01*
X122503360Y-110521646D01*
X122503360Y-100642427D01*
X130923355Y-100642427D01*
X130932125Y-100652099D01*
X130942595Y-100652924D01*
X130966097Y-100652324D01*
X131027663Y-100650528D01*
X131125347Y-100647598D01*
X131257200Y-100643593D01*
X131421275Y-100638574D01*
X131615624Y-100632601D01*
X131838302Y-100625734D01*
X132087359Y-100618034D01*
X132360849Y-100609561D01*
X132656823Y-100600375D01*
X132973336Y-100590536D01*
X133308439Y-100580105D01*
X133660185Y-100569142D01*
X134026626Y-100557707D01*
X134405816Y-100545861D01*
X134795806Y-100533664D01*
X134862682Y-100531571D01*
X135253815Y-100519295D01*
X135634197Y-100507290D01*
X136001901Y-100495620D01*
X136354998Y-100484349D01*
X136691563Y-100473539D01*
X137009667Y-100463255D01*
X137307384Y-100453560D01*
X137582786Y-100444518D01*
X137833946Y-100436192D01*
X138058938Y-100428646D01*
X138255833Y-100421944D01*
X138422705Y-100416150D01*
X138557626Y-100411326D01*
X138658669Y-100407537D01*
X138723907Y-100404846D01*
X138751413Y-100403317D01*
X138752211Y-100403168D01*
X138744110Y-100384849D01*
X138718909Y-100332657D01*
X138677543Y-100248460D01*
X138620946Y-100134125D01*
X138550051Y-99991517D01*
X138465792Y-99822505D01*
X138369105Y-99628954D01*
X138260922Y-99412733D01*
X138142177Y-99175708D01*
X138013806Y-98919746D01*
X137876741Y-98646713D01*
X137731917Y-98358477D01*
X137580268Y-98056905D01*
X137422728Y-97743863D01*
X137271454Y-97443496D01*
X137079327Y-97062202D01*
X136904354Y-96715105D01*
X136745717Y-96400632D01*
X136602594Y-96117211D01*
X136474168Y-95863268D01*
X136359619Y-95637231D01*
X136258127Y-95437527D01*
X136168873Y-95262583D01*
X136091038Y-95110826D01*
X136023803Y-94980683D01*
X135966347Y-94870582D01*
X135917853Y-94778950D01*
X135877500Y-94704214D01*
X135844469Y-94644801D01*
X135817941Y-94599138D01*
X135797096Y-94565653D01*
X135781115Y-94542773D01*
X135769179Y-94528924D01*
X135760469Y-94522535D01*
X135754165Y-94522032D01*
X135750754Y-94524330D01*
X135735143Y-94543271D01*
X135695977Y-94592092D01*
X135634489Y-94669238D01*
X135551908Y-94773150D01*
X135449467Y-94902275D01*
X135328396Y-95055055D01*
X135189927Y-95229934D01*
X135035290Y-95425356D01*
X134865716Y-95639765D01*
X134682437Y-95871606D01*
X134486684Y-96119321D01*
X134279687Y-96381354D01*
X134062677Y-96656150D01*
X133836887Y-96942153D01*
X133603546Y-97237805D01*
X133380661Y-97520288D01*
X133140770Y-97824351D01*
X132906942Y-98120701D01*
X132680434Y-98407747D01*
X132462502Y-98683897D01*
X132254405Y-98947558D01*
X132057397Y-99197140D01*
X131872738Y-99431051D01*
X131701682Y-99647698D01*
X131545487Y-99845491D01*
X131405410Y-100022838D01*
X131282708Y-100178146D01*
X131178637Y-100309824D01*
X131094455Y-100416281D01*
X131031417Y-100495925D01*
X130990782Y-100547164D01*
X130974394Y-100567687D01*
X130936617Y-100616509D01*
X130923355Y-100642427D01*
X122503360Y-100642427D01*
X122503360Y-87481062D01*
X128871549Y-87481062D01*
X128886072Y-87492302D01*
X128933167Y-87522521D01*
X129010824Y-87570538D01*
X129117030Y-87635169D01*
X129249774Y-87715233D01*
X129407044Y-87809548D01*
X129586830Y-87916931D01*
X129787119Y-88036201D01*
X130005900Y-88166175D01*
X130241162Y-88305672D01*
X130490893Y-88453509D01*
X130753081Y-88608504D01*
X131025716Y-88769475D01*
X131306786Y-88935240D01*
X131594278Y-89104617D01*
X131886182Y-89276424D01*
X132180487Y-89449478D01*
X132475180Y-89622598D01*
X132768251Y-89794601D01*
X133057687Y-89964306D01*
X133341478Y-90130530D01*
X133617612Y-90292091D01*
X133884076Y-90447807D01*
X134138861Y-90596497D01*
X134379954Y-90736977D01*
X134605344Y-90868066D01*
X134813019Y-90988581D01*
X135000969Y-91097342D01*
X135167181Y-91193164D01*
X135309643Y-91274868D01*
X135426345Y-91341269D01*
X135515276Y-91391187D01*
X135574422Y-91423439D01*
X135601774Y-91436843D01*
X135603319Y-91437146D01*
X135607420Y-91416971D01*
X135615002Y-91358801D01*
X135625879Y-91264506D01*
X135639864Y-91135955D01*
X135656771Y-90975015D01*
X135676413Y-90783557D01*
X135698605Y-90563449D01*
X135723160Y-90316560D01*
X135732210Y-90224543D01*
X136594687Y-90224543D01*
X136614457Y-91017493D01*
X136673222Y-91803771D01*
X136770322Y-92582172D01*
X136905097Y-93351496D01*
X137076886Y-94110538D01*
X137285030Y-94858098D01*
X137528867Y-95592971D01*
X137807738Y-96313957D01*
X138120982Y-97019851D01*
X138467938Y-97709453D01*
X138847947Y-98381558D01*
X139260348Y-99034965D01*
X139704480Y-99668471D01*
X140179684Y-100280874D01*
X140685298Y-100870971D01*
X141220663Y-101437560D01*
X141785118Y-101979437D01*
X142378002Y-102495401D01*
X142998656Y-102984249D01*
X143646419Y-103444779D01*
X143972170Y-103658873D01*
X144647695Y-104067646D01*
X145342451Y-104441759D01*
X146054697Y-104780648D01*
X146782690Y-105083749D01*
X147524688Y-105350498D01*
X148278950Y-105580332D01*
X149043732Y-105772688D01*
X149817293Y-105927002D01*
X150597890Y-106042710D01*
X151383781Y-106119248D01*
X151626291Y-106134826D01*
X151788454Y-106142074D01*
X151980507Y-106147535D01*
X152193417Y-106151200D01*
X152418153Y-106153057D01*
X152645680Y-106153095D01*
X152866968Y-106151302D01*
X153072982Y-106147668D01*
X153254691Y-106142182D01*
X153367662Y-106136954D01*
X154169477Y-106072496D01*
X154962008Y-105969439D01*
X155744182Y-105828260D01*
X156514925Y-105649437D01*
X157273167Y-105433447D01*
X158017832Y-105180769D01*
X158747850Y-104891879D01*
X159462146Y-104567255D01*
X160159648Y-104207374D01*
X160839283Y-103812715D01*
X161499979Y-103383754D01*
X162140662Y-102920969D01*
X162760260Y-102424838D01*
X163357700Y-101895838D01*
X163754928Y-101513432D01*
X164307072Y-100935824D01*
X164827790Y-100334414D01*
X164991453Y-100125424D01*
X166484409Y-100125424D01*
X166504700Y-100126213D01*
X166563076Y-100127363D01*
X166657590Y-100128851D01*
X166786297Y-100130655D01*
X166947252Y-100132754D01*
X167138507Y-100135124D01*
X167358118Y-100137744D01*
X167604140Y-100140592D01*
X167874626Y-100143644D01*
X168167630Y-100146880D01*
X168481208Y-100150276D01*
X168813414Y-100153811D01*
X169162301Y-100157463D01*
X169525925Y-100161208D01*
X169902339Y-100165025D01*
X170289598Y-100168892D01*
X170302124Y-100169016D01*
X170691325Y-100172880D01*
X171070671Y-100176664D01*
X171438151Y-100180347D01*
X171791749Y-100183909D01*
X172129453Y-100187329D01*
X172449249Y-100190586D01*
X172749122Y-100193658D01*
X173027060Y-100196526D01*
X173281048Y-100199168D01*
X173509073Y-100201564D01*
X173709121Y-100203692D01*
X173879179Y-100205532D01*
X174017233Y-100207062D01*
X174121269Y-100208263D01*
X174189274Y-100209113D01*
X174219081Y-100209587D01*
X174277781Y-100209316D01*
X174315922Y-100205595D01*
X174324163Y-100201652D01*
X174311618Y-100185377D01*
X174274794Y-100139724D01*
X174214913Y-100066177D01*
X174133194Y-99966218D01*
X174030857Y-99841330D01*
X173909121Y-99692996D01*
X173769208Y-99522699D01*
X173612337Y-99331923D01*
X173439728Y-99122150D01*
X173252600Y-98894863D01*
X173052174Y-98651545D01*
X172839671Y-98393679D01*
X172616308Y-98122748D01*
X172383308Y-97840235D01*
X172141889Y-97547624D01*
X171893272Y-97246396D01*
X171828641Y-97168105D01*
X171517010Y-96790750D01*
X171229940Y-96443395D01*
X170966620Y-96125075D01*
X170726239Y-95834824D01*
X170507987Y-95571677D01*
X170311054Y-95334670D01*
X170134629Y-95122838D01*
X169977901Y-94935215D01*
X169840060Y-94770835D01*
X169720295Y-94628736D01*
X169617796Y-94507950D01*
X169531752Y-94407513D01*
X169461353Y-94326460D01*
X169405788Y-94263826D01*
X169364246Y-94218645D01*
X169335918Y-94189953D01*
X169319992Y-94176785D01*
X169315821Y-94176224D01*
X169302831Y-94202084D01*
X169274029Y-94261261D01*
X169230511Y-94351453D01*
X169173372Y-94470359D01*
X169103708Y-94615677D01*
X169022615Y-94785106D01*
X168931187Y-94976345D01*
X168830520Y-95187091D01*
X168721709Y-95415043D01*
X168605851Y-95657899D01*
X168484039Y-95913359D01*
X168357370Y-96179120D01*
X168226938Y-96452881D01*
X168093840Y-96732340D01*
X167959171Y-97015196D01*
X167824026Y-97299148D01*
X167689500Y-97581893D01*
X167556688Y-97861130D01*
X167426687Y-98134558D01*
X167300592Y-98399875D01*
X167179497Y-98654780D01*
X167064499Y-98896970D01*
X166956692Y-99124145D01*
X166857172Y-99334003D01*
X166767035Y-99524242D01*
X166687376Y-99692561D01*
X166619290Y-99836659D01*
X166563872Y-99954233D01*
X166522218Y-100042982D01*
X166495424Y-100100604D01*
X166484584Y-100124799D01*
X166484409Y-100125424D01*
X164991453Y-100125424D01*
X165316425Y-99710450D01*
X165772323Y-99065177D01*
X166194829Y-98399842D01*
X166583289Y-97715692D01*
X166937046Y-97013972D01*
X167255447Y-96295929D01*
X167537837Y-95562810D01*
X167783560Y-94815861D01*
X167991962Y-94056328D01*
X168162388Y-93285458D01*
X168208766Y-93036757D01*
X168329285Y-92247983D01*
X168410188Y-91459349D01*
X168451874Y-90672128D01*
X168454745Y-89887590D01*
X168419199Y-89107006D01*
X168345636Y-88331647D01*
X168234457Y-87562784D01*
X168086060Y-86801688D01*
X167900846Y-86049631D01*
X167679214Y-85307882D01*
X167421565Y-84577714D01*
X167385736Y-84490078D01*
X168663810Y-84490078D01*
X168665896Y-84509946D01*
X168672982Y-84566954D01*
X168684731Y-84658565D01*
X168700802Y-84782247D01*
X168720857Y-84935463D01*
X168744558Y-85115680D01*
X168771566Y-85320362D01*
X168801542Y-85546975D01*
X168834147Y-85792985D01*
X168869044Y-86055856D01*
X168905893Y-86333053D01*
X168944355Y-86622043D01*
X168984092Y-86920290D01*
X169024766Y-87225259D01*
X169066037Y-87534417D01*
X169107566Y-87845227D01*
X169149016Y-88155156D01*
X169190048Y-88461669D01*
X169230322Y-88762230D01*
X169269501Y-89054306D01*
X169307244Y-89335362D01*
X169343215Y-89602862D01*
X169377074Y-89854273D01*
X169408482Y-90087059D01*
X169437101Y-90298686D01*
X169462593Y-90486618D01*
X169484617Y-90648322D01*
X169502837Y-90781263D01*
X169516912Y-90882905D01*
X169526505Y-90950714D01*
X169531147Y-90981423D01*
X169543433Y-91024165D01*
X169558371Y-91041761D01*
X169560375Y-91041471D01*
X169578760Y-91030210D01*
X169629228Y-90998401D01*
X169710151Y-90947083D01*
X169819900Y-90877297D01*
X169956847Y-90790082D01*
X170119364Y-90686478D01*
X170305822Y-90567525D01*
X170514592Y-90434263D01*
X170744047Y-90287730D01*
X170992557Y-90128968D01*
X171258494Y-89959015D01*
X171540230Y-89778913D01*
X171836136Y-89589699D01*
X172144584Y-89392415D01*
X172463945Y-89188100D01*
X172792592Y-88977793D01*
X172861757Y-88933527D01*
X173191912Y-88722167D01*
X173512950Y-88516543D01*
X173823255Y-88317693D01*
X174121209Y-88126658D01*
X174405194Y-87944480D01*
X174673591Y-87772198D01*
X174924784Y-87610853D01*
X175157155Y-87461484D01*
X175369085Y-87325134D01*
X175558958Y-87202841D01*
X175725155Y-87095647D01*
X175866058Y-87004592D01*
X175980050Y-86930717D01*
X176065513Y-86875061D01*
X176120830Y-86838666D01*
X176144382Y-86822571D01*
X176145141Y-86821864D01*
X176126365Y-86815076D01*
X176071587Y-86797123D01*
X175983038Y-86768701D01*
X175862952Y-86730505D01*
X175713558Y-86683232D01*
X175537090Y-86627576D01*
X175335779Y-86564233D01*
X175111857Y-86493899D01*
X174867556Y-86417270D01*
X174605108Y-86335040D01*
X174326744Y-86247907D01*
X174034697Y-86156565D01*
X173731199Y-86061711D01*
X173418481Y-85964039D01*
X173098775Y-85864245D01*
X172774314Y-85763025D01*
X172447328Y-85661076D01*
X172120051Y-85559091D01*
X171794713Y-85457767D01*
X171473547Y-85357800D01*
X171158785Y-85259885D01*
X170852658Y-85164718D01*
X170557399Y-85072994D01*
X170275238Y-84985409D01*
X170008409Y-84902659D01*
X169759143Y-84825440D01*
X169529672Y-84754446D01*
X169322228Y-84690375D01*
X169139043Y-84633920D01*
X168982348Y-84585778D01*
X168854375Y-84546645D01*
X168757357Y-84517216D01*
X168693525Y-84498187D01*
X168665112Y-84490253D01*
X168663810Y-84490078D01*
X167385736Y-84490078D01*
X167128297Y-83860396D01*
X166799812Y-83157201D01*
X166436507Y-82469399D01*
X166038784Y-81798260D01*
X165607042Y-81145057D01*
X165141681Y-80511060D01*
X164643101Y-79897539D01*
X164111701Y-79305767D01*
X163783574Y-78967969D01*
X163202419Y-78414806D01*
X162597807Y-77893886D01*
X161970659Y-77405698D01*
X161321896Y-76950729D01*
X160757713Y-76595715D01*
X163070352Y-76595715D01*
X163079453Y-76612726D01*
X163099069Y-76641167D01*
X163130225Y-76682238D01*
X163173946Y-76737139D01*
X163231256Y-76807067D01*
X163303179Y-76893222D01*
X163390741Y-76996803D01*
X163494966Y-77119009D01*
X163616877Y-77261039D01*
X163757501Y-77424093D01*
X163917862Y-77609368D01*
X164098983Y-77818065D01*
X164301890Y-78051381D01*
X164527608Y-78310517D01*
X164777160Y-78596672D01*
X165051571Y-78911043D01*
X165209889Y-79092315D01*
X165447076Y-79363637D01*
X165677229Y-79626499D01*
X165898965Y-79879342D01*
X166110903Y-80120605D01*
X166311659Y-80348728D01*
X166499851Y-80562152D01*
X166674098Y-80759315D01*
X166833017Y-80938658D01*
X166975226Y-81098622D01*
X167099342Y-81237645D01*
X167203983Y-81354168D01*
X167287767Y-81446631D01*
X167349312Y-81513473D01*
X167387235Y-81553135D01*
X167400092Y-81564261D01*
X167409741Y-81544568D01*
X167434809Y-81490038D01*
X167474508Y-81402438D01*
X167528050Y-81283536D01*
X167594647Y-81135097D01*
X167673512Y-80958890D01*
X167763855Y-80756681D01*
X167864891Y-80530237D01*
X167975829Y-80281327D01*
X168095884Y-80011715D01*
X168224266Y-79723171D01*
X168360187Y-79417461D01*
X168502861Y-79096351D01*
X168651499Y-78761609D01*
X168805313Y-78415003D01*
X168963514Y-78058299D01*
X168996054Y-77984906D01*
X169154861Y-77626613D01*
X169309243Y-77278159D01*
X169458422Y-76941300D01*
X169601622Y-76617796D01*
X169738067Y-76309406D01*
X169866981Y-76017889D01*
X169987585Y-75745002D01*
X170099106Y-75492506D01*
X170200765Y-75262158D01*
X170291786Y-75055718D01*
X170371394Y-74874945D01*
X170438810Y-74721597D01*
X170493260Y-74597432D01*
X170533967Y-74504211D01*
X170560153Y-74443691D01*
X170571044Y-74417631D01*
X170571314Y-74416700D01*
X170552046Y-74421639D01*
X170496585Y-74437097D01*
X170407182Y-74462425D01*
X170286085Y-74496970D01*
X170135544Y-74540082D01*
X169957807Y-74591108D01*
X169755124Y-74649398D01*
X169529743Y-74714300D01*
X169283914Y-74785163D01*
X169019886Y-74861336D01*
X168739908Y-74942166D01*
X168446230Y-75027003D01*
X168141099Y-75115196D01*
X167826766Y-75206092D01*
X167505479Y-75299041D01*
X167179488Y-75393392D01*
X166851042Y-75488492D01*
X166522389Y-75583691D01*
X166195779Y-75678337D01*
X165873462Y-75771779D01*
X165557685Y-75863365D01*
X165250699Y-75952445D01*
X164954752Y-76038366D01*
X164672093Y-76120478D01*
X164404972Y-76198128D01*
X164155638Y-76270666D01*
X163926339Y-76337441D01*
X163719326Y-76397800D01*
X163536846Y-76451093D01*
X163381149Y-76496668D01*
X163254485Y-76533874D01*
X163159102Y-76562059D01*
X163097249Y-76580573D01*
X163071176Y-76588763D01*
X163070741Y-76588936D01*
X163070352Y-76595715D01*
X160757713Y-76595715D01*
X160652436Y-76529469D01*
X159963202Y-76142406D01*
X159255112Y-75790029D01*
X158529087Y-75472826D01*
X157786047Y-75191286D01*
X157026913Y-74945898D01*
X156252603Y-74737150D01*
X155509348Y-74574306D01*
X154937615Y-74475841D01*
X154341444Y-74397914D01*
X153731182Y-74341254D01*
X153117180Y-74306589D01*
X152509784Y-74294647D01*
X151919344Y-74306158D01*
X151786417Y-74312230D01*
X151096133Y-74360251D01*
X150429087Y-74433589D01*
X149776371Y-74533703D01*
X149129079Y-74662051D01*
X148478304Y-74820092D01*
X148173572Y-74903660D01*
X147419662Y-75138304D01*
X146680440Y-75409730D01*
X145957150Y-75717015D01*
X145251033Y-76059235D01*
X144563330Y-76435467D01*
X143895285Y-76844787D01*
X143248140Y-77286273D01*
X142623135Y-77759000D01*
X142021514Y-78262045D01*
X141444518Y-78794485D01*
X140893389Y-79355396D01*
X140369370Y-79943856D01*
X139873702Y-80558940D01*
X139407627Y-81199726D01*
X139115965Y-81637625D01*
X138704211Y-82315297D01*
X138327694Y-83011205D01*
X137986868Y-83723809D01*
X137682183Y-84451570D01*
X137414092Y-85192947D01*
X137183047Y-85946402D01*
X136989500Y-86710395D01*
X136833903Y-87483386D01*
X136716707Y-88263836D01*
X136638366Y-89050206D01*
X136599330Y-89840956D01*
X136594687Y-90224543D01*
X135732210Y-90224543D01*
X135749891Y-90044758D01*
X135778612Y-89749913D01*
X135809137Y-89433894D01*
X135841279Y-89098569D01*
X135874852Y-88745807D01*
X135909671Y-88377477D01*
X135930588Y-88155044D01*
X135964157Y-87796743D01*
X135996593Y-87449281D01*
X136027706Y-87114745D01*
X136057307Y-86795222D01*
X136085205Y-86492802D01*
X136111211Y-86209571D01*
X136135136Y-85947619D01*
X136156790Y-85709034D01*
X136175983Y-85495902D01*
X136192527Y-85310313D01*
X136206230Y-85154354D01*
X136216905Y-85030114D01*
X136224360Y-84939680D01*
X136228408Y-84885141D01*
X136228983Y-84868475D01*
X136209737Y-84874307D01*
X136154993Y-84892804D01*
X136066961Y-84923183D01*
X135947847Y-84964660D01*
X135799859Y-85016450D01*
X135625205Y-85077769D01*
X135426093Y-85147835D01*
X135204731Y-85225862D01*
X134963325Y-85311067D01*
X134704084Y-85402665D01*
X134429216Y-85499874D01*
X134140928Y-85601909D01*
X133841428Y-85707985D01*
X133532923Y-85817320D01*
X133217622Y-85929129D01*
X132897732Y-86042628D01*
X132575461Y-86157033D01*
X132253016Y-86271561D01*
X131932605Y-86385427D01*
X131616436Y-86497847D01*
X131306717Y-86608038D01*
X131005656Y-86715215D01*
X130715459Y-86818595D01*
X130438335Y-86917393D01*
X130176492Y-87010826D01*
X129932136Y-87098110D01*
X129707477Y-87178460D01*
X129504721Y-87251094D01*
X129326077Y-87315226D01*
X129173751Y-87370073D01*
X129049952Y-87414851D01*
X128956888Y-87448776D01*
X128896766Y-87471064D01*
X128871794Y-87480932D01*
X128871549Y-87481062D01*
X122503360Y-87481062D01*
X122503360Y-74945368D01*
X134355076Y-74945368D01*
X134362826Y-74963558D01*
X134386475Y-75015921D01*
X134425036Y-75100335D01*
X134477525Y-75214675D01*
X134542957Y-75356819D01*
X134620345Y-75524643D01*
X134708706Y-75716023D01*
X134807053Y-75928837D01*
X134914402Y-76160961D01*
X135029766Y-76410271D01*
X135152162Y-76674644D01*
X135280604Y-76951957D01*
X135414106Y-77240085D01*
X135551684Y-77536907D01*
X135692352Y-77840298D01*
X135835124Y-78148135D01*
X135979017Y-78458295D01*
X136123043Y-78768654D01*
X136266219Y-79077089D01*
X136407559Y-79381476D01*
X136546078Y-79679692D01*
X136680790Y-79969613D01*
X136810711Y-80249117D01*
X136934854Y-80516080D01*
X137052236Y-80768378D01*
X137161870Y-81003888D01*
X137262771Y-81220486D01*
X137353955Y-81416049D01*
X137434436Y-81588455D01*
X137503228Y-81735578D01*
X137559347Y-81855297D01*
X137601807Y-81945487D01*
X137629623Y-82004025D01*
X137640698Y-82026693D01*
X137658802Y-82052631D01*
X137676328Y-82043586D01*
X137682945Y-82035111D01*
X137698101Y-82016707D01*
X137737671Y-81969313D01*
X137800283Y-81894559D01*
X137884565Y-81794078D01*
X137989148Y-81669499D01*
X138112660Y-81522455D01*
X138253729Y-81354577D01*
X138410985Y-81167495D01*
X138583057Y-80962841D01*
X138768573Y-80742247D01*
X138966162Y-80507343D01*
X139174453Y-80259760D01*
X139392075Y-80001130D01*
X139617657Y-79733084D01*
X139806984Y-79508151D01*
X140037768Y-79233934D01*
X140261525Y-78967973D01*
X140476897Y-78711884D01*
X140682528Y-78467285D01*
X140877061Y-78235793D01*
X141059139Y-78019025D01*
X141227406Y-77818597D01*
X141380505Y-77636126D01*
X141517079Y-77473230D01*
X141635771Y-77331525D01*
X141735225Y-77212629D01*
X141814084Y-77118157D01*
X141870991Y-77049728D01*
X141904590Y-77008958D01*
X141913803Y-76997285D01*
X141895296Y-76990964D01*
X141840391Y-76974842D01*
X141751342Y-76949528D01*
X141630404Y-76915635D01*
X141479831Y-76873776D01*
X141301878Y-76824562D01*
X141098800Y-76768606D01*
X140872851Y-76706518D01*
X140626286Y-76638913D01*
X140361359Y-76566400D01*
X140080324Y-76489594D01*
X139785438Y-76409104D01*
X139478953Y-76325545D01*
X139163125Y-76239527D01*
X138840208Y-76151662D01*
X138512457Y-76062563D01*
X138182127Y-75972842D01*
X137851471Y-75883111D01*
X137522745Y-75793981D01*
X137198204Y-75706066D01*
X136880101Y-75619976D01*
X136570691Y-75536324D01*
X136272229Y-75455722D01*
X135986970Y-75378782D01*
X135717168Y-75306116D01*
X135465077Y-75238336D01*
X135232953Y-75176054D01*
X135080837Y-75135347D01*
X144499623Y-75135347D01*
X144517897Y-75134230D01*
X144567346Y-75122449D01*
X144641119Y-75101849D01*
X144732362Y-75074271D01*
X144765889Y-75063715D01*
X144815502Y-75047940D01*
X144900927Y-75020779D01*
X145019826Y-74982974D01*
X145169863Y-74935269D01*
X145348700Y-74878408D01*
X145554000Y-74813132D01*
X145783425Y-74740186D01*
X146034638Y-74660313D01*
X146305301Y-74574255D01*
X146593077Y-74482756D01*
X146895629Y-74386559D01*
X147210619Y-74286408D01*
X147535710Y-74183045D01*
X147868564Y-74077214D01*
X147918714Y-74061268D01*
X148247370Y-73956672D01*
X148565406Y-73855258D01*
X148870751Y-73757697D01*
X149161334Y-73664659D01*
X149435083Y-73576813D01*
X149689927Y-73494829D01*
X149923794Y-73419377D01*
X150134612Y-73351127D01*
X150320311Y-73290748D01*
X150478818Y-73238910D01*
X150516951Y-73226333D01*
X153853255Y-73226333D01*
X153871698Y-73232955D01*
X153926087Y-73250211D01*
X154013984Y-73277374D01*
X154132947Y-73313717D01*
X154280538Y-73358513D01*
X154454318Y-73411037D01*
X154651848Y-73470561D01*
X154870686Y-73536358D01*
X155108395Y-73607702D01*
X155362535Y-73683866D01*
X155630666Y-73764124D01*
X155910350Y-73847748D01*
X156199145Y-73934012D01*
X156494614Y-74022190D01*
X156794316Y-74111554D01*
X157095813Y-74201378D01*
X157396664Y-74290935D01*
X157694431Y-74379499D01*
X157986673Y-74466343D01*
X158270952Y-74550739D01*
X158544828Y-74631962D01*
X158805861Y-74709285D01*
X159051613Y-74781981D01*
X159279643Y-74849324D01*
X159487512Y-74910586D01*
X159672782Y-74965040D01*
X159833011Y-75011962D01*
X159965762Y-75050622D01*
X160068594Y-75080296D01*
X160139068Y-75100256D01*
X160174745Y-75109775D01*
X160178025Y-75110451D01*
X160193746Y-75098427D01*
X160193809Y-75097632D01*
X160191074Y-75074671D01*
X160182727Y-75014592D01*
X160169117Y-74919712D01*
X160150592Y-74792350D01*
X160127498Y-74634822D01*
X160100183Y-74449449D01*
X160068996Y-74238547D01*
X160034284Y-74004434D01*
X159996395Y-73749429D01*
X159955676Y-73475849D01*
X159912476Y-73186013D01*
X159867142Y-72882239D01*
X159820022Y-72566844D01*
X159771463Y-72242147D01*
X159721814Y-71910465D01*
X159671422Y-71574117D01*
X159620634Y-71235421D01*
X159569799Y-70896695D01*
X159519265Y-70560256D01*
X159469378Y-70228423D01*
X159420488Y-69903514D01*
X159372941Y-69587847D01*
X159327085Y-69283740D01*
X159283268Y-68993510D01*
X159241838Y-68719477D01*
X159203143Y-68463957D01*
X159167530Y-68229269D01*
X159135347Y-68017731D01*
X159106942Y-67831662D01*
X159082662Y-67673378D01*
X159062856Y-67545198D01*
X159047871Y-67449440D01*
X159038054Y-67388423D01*
X159033754Y-67364463D01*
X159033646Y-67364199D01*
X159019771Y-67377960D01*
X158980994Y-67420017D01*
X158918862Y-67488619D01*
X158834923Y-67582015D01*
X158730726Y-67698453D01*
X158607817Y-67836181D01*
X158467744Y-67993449D01*
X158312056Y-68168504D01*
X158142300Y-68359595D01*
X157960025Y-68564971D01*
X157766777Y-68782880D01*
X157564106Y-69011570D01*
X157353557Y-69249289D01*
X157136681Y-69494288D01*
X156915023Y-69744813D01*
X156690133Y-69999113D01*
X156463558Y-70255437D01*
X156236846Y-70512033D01*
X156011544Y-70767150D01*
X155789201Y-71019036D01*
X155571364Y-71265940D01*
X155359581Y-71506110D01*
X155155400Y-71737794D01*
X154960369Y-71959241D01*
X154776036Y-72168700D01*
X154603949Y-72364419D01*
X154445654Y-72544646D01*
X154302701Y-72707630D01*
X154176637Y-72851619D01*
X154069010Y-72974862D01*
X153981367Y-73075608D01*
X153915257Y-73152104D01*
X153872228Y-73202599D01*
X153853826Y-73225342D01*
X153853255Y-73226333D01*
X150516951Y-73226333D01*
X150608062Y-73196283D01*
X150705972Y-73163537D01*
X150770475Y-73141342D01*
X150799501Y-73130366D01*
X150800984Y-73129368D01*
X150787025Y-73113229D01*
X150747538Y-73069398D01*
X150684110Y-72999598D01*
X150598330Y-72905557D01*
X150491784Y-72789000D01*
X150366060Y-72651652D01*
X150222746Y-72495240D01*
X150063430Y-72321490D01*
X149889698Y-72132127D01*
X149703138Y-71928877D01*
X149505338Y-71713466D01*
X149297886Y-71487619D01*
X149082369Y-71253063D01*
X148860374Y-71011524D01*
X148633489Y-70764727D01*
X148403301Y-70514397D01*
X148171399Y-70262262D01*
X147939369Y-70010046D01*
X147708799Y-69759476D01*
X147481277Y-69512277D01*
X147258390Y-69270175D01*
X147041726Y-69034896D01*
X146832872Y-68808165D01*
X146633417Y-68591710D01*
X146444946Y-68387255D01*
X146269048Y-68196526D01*
X146107311Y-68021249D01*
X145961322Y-67863150D01*
X145832668Y-67723954D01*
X145722937Y-67605388D01*
X145633717Y-67509178D01*
X145566595Y-67437048D01*
X145523159Y-67390726D01*
X145504996Y-67371936D01*
X145504569Y-67371604D01*
X145501176Y-67390731D01*
X145492998Y-67447249D01*
X145480335Y-67538840D01*
X145463488Y-67663189D01*
X145442756Y-67817977D01*
X145418439Y-68000889D01*
X145390836Y-68209607D01*
X145360249Y-68441815D01*
X145326977Y-68695195D01*
X145291319Y-68967431D01*
X145253575Y-69256207D01*
X145214046Y-69559205D01*
X145173031Y-69874108D01*
X145130831Y-70198600D01*
X145087744Y-70530364D01*
X145044072Y-70867083D01*
X145000113Y-71206441D01*
X144956168Y-71546119D01*
X144912537Y-71883803D01*
X144869519Y-72217174D01*
X144827414Y-72543916D01*
X144786523Y-72861712D01*
X144747145Y-73168246D01*
X144709581Y-73461200D01*
X144674129Y-73738258D01*
X144641090Y-73997102D01*
X144610763Y-74235417D01*
X144583450Y-74450885D01*
X144559449Y-74641189D01*
X144539060Y-74804013D01*
X144522584Y-74937040D01*
X144510320Y-75037953D01*
X144502568Y-75104435D01*
X144499628Y-75134169D01*
X144499623Y-75135347D01*
X135080837Y-75135347D01*
X135023050Y-75119883D01*
X134837622Y-75070433D01*
X134678924Y-75028318D01*
X134549211Y-74994149D01*
X134450737Y-74968538D01*
X134385757Y-74952098D01*
X134356525Y-74945440D01*
X134355076Y-74945368D01*
X122503360Y-74945368D01*
X122503360Y-60781360D01*
X182550641Y-60781360D01*
G37*
G36*
X152711108Y-95228583D02*
G01*
X152869859Y-95247220D01*
X153016637Y-95281972D01*
X153164827Y-95335858D01*
X153297607Y-95396843D01*
X153534517Y-95535396D01*
X153753091Y-95707161D01*
X153951835Y-95909032D01*
X154129252Y-96137905D01*
X154283848Y-96390673D01*
X154414127Y-96664233D01*
X154518594Y-96955478D01*
X154595753Y-97261304D01*
X154644109Y-97578604D01*
X154662167Y-97904275D01*
X154650868Y-98207010D01*
X154606745Y-98548311D01*
X154532548Y-98874107D01*
X154429701Y-99181684D01*
X154299625Y-99468327D01*
X154143743Y-99731320D01*
X153963478Y-99967948D01*
X153760253Y-100175496D01*
X153535489Y-100351250D01*
X153522966Y-100359650D01*
X153289093Y-100493134D01*
X153044932Y-100590329D01*
X152794104Y-100650513D01*
X152540232Y-100672963D01*
X152286937Y-100656955D01*
X152154499Y-100632707D01*
X151903398Y-100555671D01*
X151663523Y-100441532D01*
X151437089Y-100292191D01*
X151226310Y-100109550D01*
X151033403Y-99895509D01*
X150860581Y-99651970D01*
X150720370Y-99401769D01*
X150591620Y-99099891D01*
X150494256Y-98778127D01*
X150428945Y-98442254D01*
X150396354Y-98098054D01*
X150397149Y-97751304D01*
X150431995Y-97407785D01*
X150468020Y-97212534D01*
X150552850Y-96897732D01*
X150666049Y-96601191D01*
X150805621Y-96325722D01*
X150969572Y-96074140D01*
X151155904Y-95849256D01*
X151362622Y-95653884D01*
X151587730Y-95490836D01*
X151756393Y-95396843D01*
X151915822Y-95324904D01*
X152062798Y-95274588D01*
X152210707Y-95242877D01*
X152372932Y-95226751D01*
X152527000Y-95223041D01*
X152711108Y-95228583D01*
G37*
G36*
X137401652Y-89103661D02*
G01*
X137408048Y-88971672D01*
X137417429Y-88833943D01*
X137428701Y-88704040D01*
X137440769Y-88595528D01*
X137445259Y-88563235D01*
X137529267Y-88135360D01*
X137649711Y-87721280D01*
X137804908Y-87322860D01*
X137993176Y-86941968D01*
X138212831Y-86580469D01*
X138462190Y-86240231D01*
X138739572Y-85923120D01*
X139043293Y-85631003D01*
X139371670Y-85365745D01*
X139723020Y-85129214D01*
X140095661Y-84923275D01*
X140487909Y-84749796D01*
X140898082Y-84610642D01*
X141045093Y-84570515D01*
X141260598Y-84519405D01*
X141461687Y-84481246D01*
X141662244Y-84454122D01*
X141876152Y-84436113D01*
X142090205Y-84426160D01*
X142540930Y-84430388D01*
X142980357Y-84472902D01*
X143407513Y-84553307D01*
X143821424Y-84671210D01*
X144221116Y-84826220D01*
X144605616Y-85017943D01*
X144973950Y-85245986D01*
X145325145Y-85509956D01*
X145658226Y-85809460D01*
X145752062Y-85903699D01*
X146043603Y-86231903D01*
X146301708Y-86580963D01*
X146525720Y-86948753D01*
X146714984Y-87333151D01*
X146868842Y-87732034D01*
X146986639Y-88143276D01*
X147067718Y-88564756D01*
X147111422Y-88994349D01*
X147117095Y-89429932D01*
X147084081Y-89869382D01*
X147050454Y-90104449D01*
X146960495Y-90522499D01*
X146831761Y-90932902D01*
X146665098Y-91333714D01*
X146461353Y-91722995D01*
X146221375Y-92098799D01*
X146118903Y-92240280D01*
X146025785Y-92356040D01*
X145908734Y-92488430D01*
X145775539Y-92629662D01*
X145633990Y-92771947D01*
X145491876Y-92907498D01*
X145356986Y-93028525D01*
X145237109Y-93127242D01*
X145215039Y-93144058D01*
X144850249Y-93395590D01*
X144477000Y-93609105D01*
X144091746Y-93786084D01*
X143690942Y-93928008D01*
X143271043Y-94036355D01*
X142929443Y-94098290D01*
X142810446Y-94112218D01*
X142662280Y-94123494D01*
X142495735Y-94131838D01*
X142321604Y-94136970D01*
X142150677Y-94138613D01*
X141993745Y-94136486D01*
X141861601Y-94130310D01*
X141821296Y-94126957D01*
X141534111Y-94089978D01*
X141238824Y-94035070D01*
X140949701Y-93965401D01*
X140681010Y-93884141D01*
X140600324Y-93855713D01*
X140448375Y-93795161D01*
X140276720Y-93718665D01*
X140096514Y-93631822D01*
X139918917Y-93540225D01*
X139755086Y-93449470D01*
X139616177Y-93365152D01*
X139596819Y-93352506D01*
X139236594Y-93091051D01*
X138905469Y-92803272D01*
X138604436Y-92491090D01*
X138334489Y-92156427D01*
X138096620Y-91801205D01*
X137891822Y-91427346D01*
X137721088Y-91036772D01*
X137585412Y-90631405D01*
X137485786Y-90213167D01*
X137423203Y-89783980D01*
X137402165Y-89408413D01*
X138634804Y-89408413D01*
X138667172Y-89782251D01*
X138738361Y-90154488D01*
X138843840Y-90502671D01*
X138986470Y-90841104D01*
X139163723Y-91165321D01*
X139373070Y-91470860D01*
X139611983Y-91753256D01*
X139689448Y-91833200D01*
X139976595Y-92092911D01*
X140283387Y-92317797D01*
X140609135Y-92507513D01*
X140953147Y-92661716D01*
X141314732Y-92780060D01*
X141693200Y-92862202D01*
X141781474Y-92875782D01*
X141910486Y-92888765D01*
X142067449Y-92896160D01*
X142240700Y-92898141D01*
X142418575Y-92894886D01*
X142589410Y-92886569D01*
X142741544Y-92873365D01*
X142839372Y-92859848D01*
X143214299Y-92775740D01*
X143573200Y-92655780D01*
X143914106Y-92501602D01*
X144235050Y-92314834D01*
X144534065Y-92097109D01*
X144809184Y-91850058D01*
X145058439Y-91575310D01*
X145279863Y-91274497D01*
X145471488Y-90949251D01*
X145631348Y-90601201D01*
X145663043Y-90519094D01*
X145766378Y-90187622D01*
X145836740Y-89839955D01*
X145873776Y-89483099D01*
X145877136Y-89124060D01*
X145846468Y-88769843D01*
X145781421Y-88427454D01*
X145770137Y-88383093D01*
X145654554Y-88018990D01*
X145504859Y-87674021D01*
X145323008Y-87349945D01*
X145110955Y-87048523D01*
X144870653Y-86771515D01*
X144604056Y-86520679D01*
X144313119Y-86297776D01*
X143999795Y-86104566D01*
X143666038Y-85942808D01*
X143313803Y-85814262D01*
X142945044Y-85720688D01*
X142781549Y-85691590D01*
X142625012Y-85673620D01*
X142442477Y-85662998D01*
X142247297Y-85659726D01*
X142052827Y-85663808D01*
X141872420Y-85675246D01*
X141736281Y-85691341D01*
X141356156Y-85769557D01*
X140992534Y-85884034D01*
X140646439Y-86034256D01*
X140318891Y-86219708D01*
X140010912Y-86439874D01*
X139723523Y-86694238D01*
X139696302Y-86721189D01*
X139442095Y-87003013D01*
X139221139Y-87305554D01*
X139034168Y-87626179D01*
X138881917Y-87962255D01*
X138765120Y-88311150D01*
X138684513Y-88670230D01*
X138640829Y-89036862D01*
X138634804Y-89408413D01*
X137402165Y-89408413D01*
X137398656Y-89345765D01*
X137401652Y-89103661D01*
G37*
G36*
X157975484Y-88660174D02*
G01*
X158050097Y-88224908D01*
X158161725Y-87803773D01*
X158309898Y-87397878D01*
X158494144Y-87008330D01*
X158713991Y-86636239D01*
X158968967Y-86282711D01*
X159258602Y-85948856D01*
X159301939Y-85903699D01*
X159628746Y-85594805D01*
X159974781Y-85320775D01*
X160339137Y-85082046D01*
X160720911Y-84879052D01*
X161119197Y-84712230D01*
X161533090Y-84582017D01*
X161961685Y-84488847D01*
X162343307Y-84438497D01*
X162504522Y-84428064D01*
X162691276Y-84423660D01*
X162891761Y-84424966D01*
X163094167Y-84431664D01*
X163286686Y-84443437D01*
X163457509Y-84459965D01*
X163535668Y-84470615D01*
X163959561Y-84555998D01*
X164371696Y-84678240D01*
X164769768Y-84835648D01*
X165151474Y-85026531D01*
X165514507Y-85249194D01*
X165856564Y-85501945D01*
X166175340Y-85783091D01*
X166468529Y-86090939D01*
X166733827Y-86423797D01*
X166968930Y-86779970D01*
X167159163Y-87132108D01*
X167265751Y-87361580D01*
X167352723Y-87573001D01*
X167425071Y-87779894D01*
X167487786Y-87995781D01*
X167509986Y-88082406D01*
X167564180Y-88319662D01*
X167603681Y-88540343D01*
X167630779Y-88760866D01*
X167647763Y-88997649D01*
X167652349Y-89103661D01*
X167648964Y-89545989D01*
X167607001Y-89980338D01*
X167527454Y-90404786D01*
X167411315Y-90817410D01*
X167259577Y-91216290D01*
X167073234Y-91599503D01*
X166853277Y-91965127D01*
X166600701Y-92311240D01*
X166316498Y-92635921D01*
X166001661Y-92937247D01*
X165657183Y-93213296D01*
X165457181Y-93352506D01*
X165323349Y-93435258D01*
X165162789Y-93525352D01*
X164986661Y-93617192D01*
X164806122Y-93705182D01*
X164632328Y-93783730D01*
X164476438Y-93847238D01*
X164453676Y-93855713D01*
X164108606Y-93965050D01*
X163741319Y-94049849D01*
X163362313Y-94108649D01*
X162982082Y-94139989D01*
X162611123Y-94142407D01*
X162454817Y-94134027D01*
X162014358Y-94081942D01*
X161584242Y-93991297D01*
X161165381Y-93862438D01*
X160758684Y-93695708D01*
X160365063Y-93491453D01*
X159985430Y-93250018D01*
X159838961Y-93144058D01*
X159723135Y-93050893D01*
X159590695Y-92933815D01*
X159449430Y-92800614D01*
X159307129Y-92659077D01*
X159171581Y-92516993D01*
X159050576Y-92382149D01*
X158951902Y-92262336D01*
X158935097Y-92240280D01*
X158680710Y-91868981D01*
X158462611Y-91483227D01*
X158281344Y-91084730D01*
X158137453Y-90675199D01*
X158031483Y-90256346D01*
X157963977Y-89829881D01*
X157935481Y-89397514D01*
X157937955Y-89149003D01*
X159174977Y-89149003D01*
X159181656Y-89524546D01*
X159227271Y-89901905D01*
X159290819Y-90198842D01*
X159399672Y-90544936D01*
X159544915Y-90878570D01*
X159724035Y-91196710D01*
X159934517Y-91496326D01*
X160173845Y-91774384D01*
X160439506Y-92027851D01*
X160728984Y-92253696D01*
X161039766Y-92448886D01*
X161243864Y-92554040D01*
X161465636Y-92651463D01*
X161683636Y-92730492D01*
X161908081Y-92793921D01*
X162149191Y-92844546D01*
X162417182Y-92885161D01*
X162484841Y-92893517D01*
X162583912Y-92900805D01*
X162710785Y-92903547D01*
X162853523Y-92902020D01*
X163000187Y-92896504D01*
X163138839Y-92887276D01*
X163249419Y-92875701D01*
X163629482Y-92806378D01*
X163994071Y-92700315D01*
X164342065Y-92558062D01*
X164672345Y-92380167D01*
X164983792Y-92167181D01*
X165275286Y-91919652D01*
X165354619Y-91842792D01*
X165612798Y-91557997D01*
X165836333Y-91253624D01*
X166024582Y-90931219D01*
X166176905Y-90592328D01*
X166292661Y-90238497D01*
X166371212Y-89871271D01*
X166411915Y-89492197D01*
X166417938Y-89276194D01*
X166398520Y-88893627D01*
X166340699Y-88521426D01*
X166245123Y-88161154D01*
X166112441Y-87814376D01*
X165943303Y-87482655D01*
X165738355Y-87167556D01*
X165498248Y-86870643D01*
X165359168Y-86723407D01*
X165075624Y-86466185D01*
X164770872Y-86242748D01*
X164446074Y-86053685D01*
X164102391Y-85899582D01*
X163740983Y-85781025D01*
X163363012Y-85698602D01*
X163317719Y-85691341D01*
X163160645Y-85673446D01*
X162977792Y-85662911D01*
X162782516Y-85659732D01*
X162588170Y-85663906D01*
X162408107Y-85675430D01*
X162272452Y-85691590D01*
X161894968Y-85769956D01*
X161532711Y-85884540D01*
X161187692Y-86034014D01*
X160861924Y-86217051D01*
X160557419Y-86432325D01*
X160276189Y-86678508D01*
X160020245Y-86954276D01*
X159791600Y-87258299D01*
X159713585Y-87378874D01*
X159530744Y-87710904D01*
X159385118Y-88056227D01*
X159277052Y-88412548D01*
X159206891Y-88777572D01*
X159174977Y-89149003D01*
X157937955Y-89149003D01*
X157938359Y-89108463D01*
X157975484Y-88660174D01*
G37*
D10*
%TO.C,D1*%
X153924000Y-62798000D02*
X153924000Y-65468000D01*
X151384000Y-62798000D02*
X151384000Y-65468000D01*
D11*
X153924000Y-65468000D02*
X153924000Y-62798000D01*
X149694000Y-61678000D02*
X150094000Y-61678000D01*
X153924000Y-65468000D02*
X153924000Y-65468000D01*
X150094000Y-62798000D02*
X150094000Y-56638000D01*
X151384000Y-62798000D02*
X151384000Y-62798000D01*
X150094000Y-62798000D02*
X149694000Y-62798000D01*
X150094000Y-61678000D02*
X150094000Y-62798000D01*
X151384000Y-65468000D02*
X151384000Y-65468000D01*
X151384000Y-65468000D02*
X151384000Y-62798000D01*
X149694000Y-62798000D02*
X149694000Y-61678000D01*
X155214000Y-62798000D02*
X155214000Y-56638000D01*
X155214000Y-62798000D02*
X150094000Y-62798000D01*
X153924000Y-62798000D02*
X153924000Y-62798000D01*
X155214000Y-56638000D02*
G75*
G03*
X150094000Y-56638000I-2560000J0D01*
G01*
%TO.C,D2*%
X129731405Y-76128827D02*
X124396688Y-73048827D01*
X129731405Y-76128827D02*
X127171405Y-80562877D01*
X130128693Y-80780705D02*
X127816405Y-79445705D01*
X126971405Y-80909287D02*
X126001456Y-80349287D01*
X131398693Y-78581000D02*
X129086405Y-77246000D01*
X127171405Y-80562877D02*
X126971405Y-80909287D01*
D10*
X129086405Y-77246000D02*
X131398693Y-78581000D01*
D11*
X131398693Y-78581000D02*
X131398693Y-78581000D01*
X127171405Y-80562877D02*
X121836688Y-77482877D01*
X129086405Y-77246000D02*
X129086405Y-77246000D01*
X130128693Y-80780705D02*
X130128693Y-80780705D01*
X126201456Y-80002877D02*
X127171405Y-80562877D01*
X127816405Y-79445705D02*
X127816405Y-79445705D01*
D10*
X127816405Y-79445705D02*
X130128693Y-80780705D01*
D11*
X126001456Y-80349287D02*
X126201456Y-80002877D01*
X124396688Y-73048827D02*
G75*
G03*
X121836688Y-77482877I-1280000J-2217025D01*
G01*
%TO.C,D3*%
X175144795Y-75173723D02*
X174944795Y-74827313D01*
D10*
X177059795Y-78490600D02*
X174747507Y-79825600D01*
D11*
X177704795Y-79607773D02*
X183039512Y-76527773D01*
X174747507Y-79825600D02*
X177059795Y-78490600D01*
X175789795Y-76290895D02*
X175789795Y-76290895D01*
X174944795Y-74827313D02*
X175914744Y-74267313D01*
X175144795Y-75173723D02*
X180479512Y-72093723D01*
D10*
X175789795Y-76290895D02*
X173477507Y-77625895D01*
D11*
X173477507Y-77625895D02*
X175789795Y-76290895D01*
X175914744Y-74267313D02*
X176114744Y-74613723D01*
X173477507Y-77625895D02*
X173477507Y-77625895D01*
X176114744Y-74613723D02*
X175144795Y-75173723D01*
X177059795Y-78490600D02*
X177059795Y-78490600D01*
X177704795Y-79607773D02*
X175144795Y-75173723D01*
X174747507Y-79825600D02*
X174747507Y-79825600D01*
X183039512Y-76527773D02*
G75*
G03*
X180479512Y-72093723I-1280000J2217025D01*
G01*
%TO.C,D4*%
X133100355Y-110256744D02*
X132843240Y-109950326D01*
X131239333Y-106296454D02*
X131239333Y-106296454D01*
X134917353Y-106525964D02*
X132872014Y-108242206D01*
X132843240Y-109950326D02*
X133701210Y-109230404D01*
D10*
X132872014Y-108242206D02*
X134917353Y-106525964D01*
D11*
X133701210Y-109230404D02*
X128982376Y-113189975D01*
X132872014Y-108242206D02*
X132872014Y-108242206D01*
X130410137Y-105308256D02*
X133701210Y-109230404D01*
X133284672Y-104580211D02*
X133284672Y-104580211D01*
D10*
X131239333Y-106296454D02*
X133284672Y-104580211D01*
D11*
X133284672Y-104580211D02*
X131239333Y-106296454D01*
X133701210Y-109230404D02*
X133958325Y-109536822D01*
X133958325Y-109536822D02*
X133100355Y-110256744D01*
X134917353Y-106525964D02*
X134917353Y-106525964D01*
X130410137Y-105308256D02*
X125691304Y-109267828D01*
X125691305Y-109267829D02*
G75*
G03*
X128982376Y-113189975I1645535J-1961073D01*
G01*
%TO.C,D5*%
X175321618Y-103407559D02*
X180367595Y-106940790D01*
X173124820Y-106544912D02*
X173124820Y-106544912D01*
X175551048Y-103079898D02*
X176468499Y-103722304D01*
X172384907Y-107601618D02*
X175321618Y-103407559D01*
X175321618Y-103407559D02*
X175551048Y-103079898D01*
D10*
X174581704Y-104464265D02*
X172394568Y-102932816D01*
D11*
X172394568Y-102932816D02*
X172394568Y-102932816D01*
X172384907Y-107601618D02*
X177430883Y-111134849D01*
X176239068Y-104049965D02*
X175321618Y-103407559D01*
D10*
X173124820Y-106544912D02*
X170937684Y-105013463D01*
D11*
X172394568Y-102932816D02*
X174581704Y-104464265D01*
X170937684Y-105013463D02*
X173124820Y-106544912D01*
X170937684Y-105013463D02*
X170937684Y-105013463D01*
X176468499Y-103722304D02*
X176239068Y-104049965D01*
X174581704Y-104464265D02*
X174581704Y-104464265D01*
X177430883Y-111134848D02*
G75*
G03*
X180367595Y-106940790I1468356J2097029D01*
G01*
%TD*%
%LPC*%
D12*
%TO.C,D1*%
X153924000Y-66548000D03*
D13*
X151384000Y-66548000D03*
%TD*%
D14*
%TO.C,D2*%
X132334000Y-79121000D03*
D13*
X131064000Y-81320705D03*
%TD*%
D15*
%TO.C,D3*%
X173812200Y-80365600D03*
D13*
X172542200Y-78165895D03*
%TD*%
D16*
%TO.C,D4*%
X134112000Y-103886000D03*
D13*
X135744681Y-105831753D03*
%TD*%
D17*
%TO.C,D5*%
X170053000Y-104394000D03*
D13*
X171509884Y-102313354D03*
%TD*%
D18*
%TO.C,BT1*%
X141859000Y-89408000D03*
X162941000Y-89408000D03*
%TD*%
D19*
%TO.C,SW1*%
X161376347Y-68292000D03*
X168477755Y-72392000D03*
D20*
X163195000Y-69342000D03*
D21*
X164927051Y-70342000D03*
X166659102Y-71342000D03*
%TD*%
M02*
