%TF.GenerationSoftware,KiCad,Pcbnew,(6.0.4)*%
%TF.CreationDate,2024-01-19T16:04:25-08:00*%
%TF.ProjectId,Alpenglow_SunnySurprise_PCB,416c7065-6e67-46c6-9f77-5f53756e6e79,rev?*%
%TF.SameCoordinates,Original*%
%TF.FileFunction,Legend,Top*%
%TF.FilePolarity,Positive*%
%FSLAX46Y46*%
G04 Gerber Fmt 4.6, Leading zero omitted, Abs format (unit mm)*
G04 Created by KiCad (PCBNEW (6.0.4)) date 2024-01-19 16:04:25*
%MOMM*%
%LPD*%
G01*
G04 APERTURE LIST*
G04 Aperture macros list*
%AMRotRect*
0 Rectangle, with rotation*
0 The origin of the aperture is its center*
0 $1 length*
0 $2 width*
0 $3 Rotation angle, in degrees counterclockwise*
0 Add horizontal line*
21,1,$1,$2,0,0,$3*%
G04 Aperture macros list end*
%ADD10C,0.150000*%
%ADD11C,0.120000*%
%ADD12C,0.254000*%
%ADD13R,1.800000X1.800000*%
%ADD14C,1.800000*%
%ADD15RotRect,1.800000X1.800000X240.000000*%
%ADD16RotRect,1.800000X1.800000X120.000000*%
%ADD17RotRect,1.800000X1.800000X310.000000*%
%ADD18RotRect,1.800000X1.800000X51.000000*%
%ADD19O,2.500000X4.000000*%
%ADD20C,2.000000*%
G04 APERTURE END LIST*
D10*
%TO.C,*%
D11*
%TO.C,D1*%
X164592000Y-56324000D02*
X164592000Y-56324000D01*
X162052000Y-56324000D02*
X162052000Y-56324000D01*
D12*
X162052000Y-55118000D02*
X162052000Y-56324000D01*
X164592000Y-55118000D02*
X164592000Y-56324000D01*
D11*
%TO.C,D2*%
X142066693Y-69437000D02*
X142066693Y-69437000D01*
X140796693Y-71636705D02*
X140796693Y-71636705D01*
D12*
X139752266Y-71033705D02*
X140796693Y-71636705D01*
X141022266Y-68834000D02*
X142066693Y-69437000D01*
D11*
%TO.C,D3*%
X185415507Y-70681600D02*
X185415507Y-70681600D01*
D12*
X185189934Y-67878895D02*
X184145507Y-68481895D01*
X186459934Y-70078600D02*
X185415507Y-70681600D01*
D11*
X184145507Y-68481895D02*
X184145507Y-68481895D01*
%TO.C,D4*%
X145585353Y-97381964D02*
X145585353Y-97381964D01*
D12*
X143028822Y-96211412D02*
X143952672Y-95436211D01*
X144661503Y-98157165D02*
X145585353Y-97381964D01*
D11*
X143952672Y-95436211D02*
X143952672Y-95436211D01*
D12*
%TO.C,D5*%
X183715029Y-95603676D02*
X182777791Y-94844715D01*
X182116556Y-97577626D02*
X181179318Y-96818666D01*
D11*
X182777791Y-94844715D02*
X182777791Y-94844715D01*
X181179318Y-96818666D02*
X181179318Y-96818666D01*
%TD*%
%LPC*%
%TO.C,*%
G36*
X168796500Y-58743500D02*
G01*
X168820500Y-59163500D01*
X168855500Y-59791500D01*
X168896500Y-60573500D01*
X168942500Y-61454500D01*
X168989500Y-62378500D01*
X169034500Y-63289500D01*
X169075500Y-64133500D01*
X169109500Y-64854500D01*
X169134500Y-65398500D01*
X169145500Y-65707500D01*
X169145500Y-65756500D01*
X169134500Y-65921500D01*
X166834500Y-65245500D01*
X166030500Y-65009500D01*
X165344500Y-64808500D01*
X164831500Y-64657500D01*
X164544500Y-64572500D01*
X164502500Y-64560500D01*
X164582500Y-64433500D01*
X164824500Y-64084500D01*
X165202500Y-63548500D01*
X165691500Y-62862500D01*
X166265500Y-62061500D01*
X166622500Y-61565500D01*
X167235500Y-60716500D01*
X167780500Y-59962500D01*
X168232500Y-59339500D01*
X168565500Y-58882500D01*
X168752500Y-58628500D01*
X168783500Y-58588500D01*
X168796500Y-58743500D01*
G37*
G36*
X145365500Y-66057500D02*
G01*
X145768500Y-66175500D01*
X146375500Y-66359500D01*
X147134500Y-66590500D01*
X147994500Y-66855500D01*
X148904500Y-67136500D01*
X149815500Y-67419500D01*
X150674500Y-67687500D01*
X151431500Y-67925500D01*
X152036500Y-68117500D01*
X152437500Y-68247500D01*
X152583500Y-68300500D01*
X152483500Y-68426500D01*
X152208500Y-68757500D01*
X151793500Y-69254500D01*
X151269500Y-69878500D01*
X150714500Y-70538500D01*
X150115500Y-71250500D01*
X149589500Y-71875500D01*
X149170500Y-72373500D01*
X148892500Y-72704500D01*
X148790500Y-72826500D01*
X148702500Y-72863500D01*
X148691500Y-72847500D01*
X148603500Y-72683500D01*
X148397500Y-72286500D01*
X148099500Y-71704500D01*
X147732500Y-70985500D01*
X147319500Y-70177500D01*
X146887500Y-69327500D01*
X146458500Y-68483500D01*
X146057500Y-67693500D01*
X145708500Y-67004500D01*
X145436500Y-66464500D01*
X145264500Y-66120500D01*
X145216500Y-66018500D01*
X145365500Y-66057500D01*
G37*
G36*
X181486500Y-66251500D02*
G01*
X181312500Y-66633500D01*
X181048500Y-67208500D01*
X180715500Y-67929500D01*
X180335500Y-68747500D01*
X179933500Y-69613500D01*
X179529500Y-70480500D01*
X179146500Y-71300500D01*
X178807500Y-72023500D01*
X178535500Y-72603500D01*
X178350500Y-72990500D01*
X178277500Y-73137500D01*
X178170500Y-73031500D01*
X177885500Y-72719500D01*
X177455500Y-72238500D01*
X176912500Y-71622500D01*
X176287500Y-70910500D01*
X176189500Y-70797500D01*
X175465500Y-69966500D01*
X174929500Y-69346500D01*
X174557500Y-68908500D01*
X174326500Y-68624500D01*
X174210500Y-68464500D01*
X174188500Y-68401500D01*
X174192500Y-68398500D01*
X174363500Y-68340500D01*
X174785500Y-68205500D01*
X175406500Y-68009500D01*
X176174500Y-67768500D01*
X177041500Y-67497500D01*
X177953500Y-67213500D01*
X178861500Y-66931500D01*
X179713500Y-66668500D01*
X180458500Y-66438500D01*
X181046500Y-66258500D01*
X181426500Y-66144500D01*
X181547500Y-66110500D01*
X181486500Y-66251500D01*
G37*
G36*
X174619500Y-76983500D02*
G01*
X175518500Y-77459500D01*
X175885500Y-77766500D01*
X176492500Y-78488500D01*
X176878500Y-79324500D01*
X176902500Y-79399500D01*
X176971500Y-79657500D01*
X177002500Y-79918500D01*
X177010500Y-80326500D01*
X177010500Y-80431500D01*
X177006500Y-80877500D01*
X176983500Y-81143500D01*
X176924500Y-81370500D01*
X176898500Y-81451500D01*
X176515500Y-82296500D01*
X175944500Y-83000500D01*
X175908500Y-83035500D01*
X175070500Y-83647500D01*
X174109500Y-83970500D01*
X173514500Y-84030500D01*
X173140500Y-84034500D01*
X172934500Y-84025500D01*
X171891500Y-83707500D01*
X171013500Y-83135500D01*
X170339500Y-82342500D01*
X169960500Y-81531500D01*
X169832500Y-81019500D01*
X169791500Y-80450500D01*
X169790500Y-80393500D01*
X169935500Y-79344500D01*
X170377500Y-78406500D01*
X170866500Y-77822500D01*
X171708500Y-77202500D01*
X172654500Y-76855500D01*
X173645500Y-76782500D01*
X174619500Y-76983500D01*
G37*
G36*
X146495500Y-85911500D02*
G01*
X146689500Y-86260500D01*
X147008500Y-86868500D01*
X147456500Y-87748500D01*
X147730500Y-88290500D01*
X148999500Y-90811500D01*
X148247500Y-90805500D01*
X147805500Y-90799500D01*
X147128500Y-90788500D01*
X146303500Y-90773500D01*
X145415500Y-90755500D01*
X145244500Y-90751500D01*
X144435500Y-90733500D01*
X143753500Y-90716500D01*
X143255500Y-90701500D01*
X143000500Y-90690500D01*
X142978500Y-90688500D01*
X143060500Y-90561500D01*
X143293500Y-90223500D01*
X143642500Y-89723500D01*
X144072500Y-89111500D01*
X144547500Y-88436500D01*
X145033500Y-87747500D01*
X145495500Y-87095500D01*
X145898500Y-86528500D01*
X146208500Y-86096500D01*
X146389500Y-85848500D01*
X146419500Y-85810500D01*
X146495500Y-85911500D01*
G37*
G36*
X174508500Y-94297500D02*
G01*
X174565500Y-94737500D01*
X174647500Y-95396500D01*
X174747500Y-96224500D01*
X174859500Y-97172500D01*
X174873500Y-97291500D01*
X174987500Y-98253500D01*
X175088500Y-99105500D01*
X175171500Y-99797500D01*
X175230500Y-100277500D01*
X175258500Y-100495500D01*
X175259500Y-100501500D01*
X175247500Y-100609500D01*
X175104500Y-100535500D01*
X174722500Y-100328500D01*
X174145500Y-100013500D01*
X173414500Y-99613500D01*
X172572500Y-99149500D01*
X172354500Y-99029500D01*
X171494500Y-98552500D01*
X170738500Y-98131500D01*
X170129500Y-97787500D01*
X169707500Y-97545500D01*
X169514500Y-97428500D01*
X169506500Y-97421500D01*
X169636500Y-97326500D01*
X169990500Y-97082500D01*
X170527500Y-96715500D01*
X171204500Y-96254500D01*
X171981500Y-95729500D01*
X171986500Y-95725500D01*
X172877500Y-95125500D01*
X173536500Y-94685500D01*
X173994500Y-94386500D01*
X174284500Y-94207500D01*
X174436500Y-94127500D01*
X174482500Y-94125500D01*
X174508500Y-94297500D01*
G37*
G36*
X146894500Y-76327500D02*
G01*
X146857500Y-76752500D01*
X146799500Y-77391500D01*
X146725500Y-78194500D01*
X146641500Y-79110500D01*
X146550500Y-80086500D01*
X146458500Y-81071500D01*
X146369500Y-82015500D01*
X146288500Y-82864500D01*
X146220500Y-83568500D01*
X146170500Y-84076500D01*
X146143500Y-84336500D01*
X146140500Y-84359500D01*
X146010500Y-84276500D01*
X145648500Y-84039500D01*
X145089500Y-83670500D01*
X144368500Y-83191500D01*
X143518500Y-82626500D01*
X142574500Y-81998500D01*
X142547500Y-81980500D01*
X141601500Y-81348500D01*
X140747500Y-80775500D01*
X140022500Y-80287500D01*
X139458500Y-79905500D01*
X139091500Y-79653500D01*
X138956500Y-79554500D01*
X138956500Y-79553500D01*
X139093500Y-79484500D01*
X139479500Y-79311500D01*
X140067500Y-79054500D01*
X140811500Y-78732500D01*
X141665500Y-78366500D01*
X142582500Y-77974500D01*
X143517500Y-77576500D01*
X144422500Y-77193500D01*
X145252500Y-76843500D01*
X145961500Y-76547500D01*
X146502500Y-76324500D01*
X146828500Y-76194500D01*
X146905500Y-76169500D01*
X146894500Y-76327500D01*
G37*
G36*
X180554500Y-84589500D02*
G01*
X180741500Y-84972500D01*
X181013500Y-85534500D01*
X181344500Y-86220500D01*
X181706500Y-86977500D01*
X182075500Y-87750500D01*
X182424500Y-88484500D01*
X182727500Y-89124500D01*
X182958500Y-89616500D01*
X183092500Y-89907500D01*
X183114500Y-89961500D01*
X182988500Y-90029500D01*
X182924500Y-90046500D01*
X182713500Y-90095500D01*
X182245500Y-90204500D01*
X181572500Y-90363500D01*
X180750500Y-90557500D01*
X179937500Y-90749500D01*
X179042500Y-90961500D01*
X178263500Y-91145500D01*
X177651500Y-91289500D01*
X177255500Y-91381500D01*
X177124500Y-91411500D01*
X177121500Y-91376500D01*
X177215500Y-91166500D01*
X177420500Y-90730500D01*
X177712500Y-90115500D01*
X178070500Y-89371500D01*
X178468500Y-88543500D01*
X178885500Y-87680500D01*
X179297500Y-86831500D01*
X179680500Y-86042500D01*
X180013500Y-85361500D01*
X180272500Y-84837500D01*
X180433500Y-84517500D01*
X180476500Y-84439500D01*
X180554500Y-84589500D01*
G37*
G36*
X147826500Y-85771500D02*
G01*
X147434500Y-83914500D01*
X147336500Y-83151500D01*
X147283500Y-82412500D01*
X147262500Y-81538500D01*
X147262500Y-81391500D01*
X147267500Y-80645500D01*
X147290500Y-80228500D01*
X148048500Y-80228500D01*
X148146500Y-81398500D01*
X148214500Y-81691500D01*
X148433500Y-82287500D01*
X148756500Y-82928500D01*
X149003500Y-83310500D01*
X149748500Y-84091500D01*
X150647500Y-84709500D01*
X151401500Y-85031500D01*
X152421500Y-85226500D01*
X153455500Y-85222500D01*
X153689500Y-85189500D01*
X154857500Y-84831500D01*
X155883500Y-84211500D01*
X156723500Y-83369500D01*
X157334500Y-82340500D01*
X157528500Y-81811500D01*
X157678500Y-81193500D01*
X157725500Y-80586500D01*
X157725500Y-80509500D01*
X168580500Y-80509500D01*
X168609500Y-81060500D01*
X168630500Y-81211500D01*
X168995500Y-82397500D01*
X169632500Y-83435500D01*
X170509500Y-84286500D01*
X171374500Y-84810500D01*
X172430500Y-85154500D01*
X173573500Y-85251500D01*
X174214500Y-85189500D01*
X175275500Y-84876500D01*
X176173500Y-84398500D01*
X176556500Y-84089500D01*
X176977500Y-83683500D01*
X177232500Y-83394500D01*
X177851500Y-82351500D01*
X178193500Y-81212500D01*
X178239500Y-80045500D01*
X178237500Y-80032500D01*
X177972500Y-78793500D01*
X177430500Y-77713500D01*
X176906500Y-77068500D01*
X176314500Y-76531500D01*
X175649500Y-76122500D01*
X175634500Y-76114500D01*
X174519500Y-75696500D01*
X173414500Y-75571500D01*
X172201500Y-75722500D01*
X171098500Y-76154500D01*
X170144500Y-76836500D01*
X169376500Y-77738500D01*
X168830500Y-78830500D01*
X168648500Y-79457500D01*
X168594500Y-79915500D01*
X168580500Y-80509500D01*
X157725500Y-80509500D01*
X157725500Y-80451500D01*
X157573500Y-79201500D01*
X157128500Y-78070500D01*
X156773500Y-77523500D01*
X155910500Y-76625500D01*
X154883500Y-75994500D01*
X153727500Y-75646500D01*
X152674500Y-75585500D01*
X151776500Y-75693500D01*
X150985500Y-75954500D01*
X150843500Y-76019500D01*
X149826500Y-76665500D01*
X149002500Y-77512500D01*
X148690500Y-78013500D01*
X148390500Y-78629500D01*
X148215500Y-79103500D01*
X148048500Y-80228500D01*
X147290500Y-80228500D01*
X147299500Y-80052500D01*
X147371500Y-79446500D01*
X147437500Y-79011500D01*
X147944500Y-76831500D01*
X148747500Y-74759500D01*
X149834500Y-72821500D01*
X151191500Y-71042500D01*
X151734500Y-70455500D01*
X153418500Y-68939500D01*
X155252500Y-67703500D01*
X157256500Y-66736500D01*
X158494500Y-66296500D01*
X159595500Y-65998500D01*
X160807500Y-65768500D01*
X161234500Y-65704500D01*
X161696500Y-65666500D01*
X162364500Y-65640500D01*
X163133500Y-65629500D01*
X163896500Y-65632500D01*
X164545500Y-65651500D01*
X164954500Y-65683500D01*
X166538500Y-65955500D01*
X167945500Y-66323500D01*
X169251500Y-66796500D01*
X171193500Y-67760500D01*
X172999500Y-68993500D01*
X174626500Y-70462500D01*
X176027500Y-72127500D01*
X176288500Y-72497500D01*
X177442500Y-74460500D01*
X178292500Y-76516500D01*
X178773500Y-78327500D01*
X179042500Y-80248500D01*
X179087500Y-82198500D01*
X178951500Y-83756500D01*
X178604500Y-85520500D01*
X178074500Y-87165500D01*
X177350500Y-88771500D01*
X176226500Y-90642500D01*
X174850500Y-92343500D01*
X173256500Y-93842500D01*
X171479500Y-95109500D01*
X169553500Y-96112500D01*
X169094500Y-96302500D01*
X167118500Y-96952500D01*
X165434500Y-97291500D01*
X164494500Y-97388500D01*
X163446500Y-97439500D01*
X162470500Y-97438500D01*
X162174500Y-97423500D01*
X159944500Y-97119500D01*
X157804500Y-96516500D01*
X155780500Y-95628500D01*
X153899500Y-94468500D01*
X152189500Y-93050500D01*
X150889500Y-91651500D01*
X149589500Y-89830500D01*
X149266500Y-89209500D01*
X161045500Y-89209500D01*
X161111500Y-89806500D01*
X161280500Y-90314500D01*
X161372500Y-90511500D01*
X161843500Y-91188500D01*
X162442500Y-91619500D01*
X163117500Y-91777500D01*
X163681500Y-91689500D01*
X164339500Y-91304500D01*
X164858500Y-90665500D01*
X165163500Y-89943500D01*
X165226500Y-89661500D01*
X165249500Y-89320500D01*
X165250500Y-89051500D01*
X165239500Y-88622500D01*
X165199500Y-88336500D01*
X165138500Y-88111500D01*
X164836500Y-87418500D01*
X164437500Y-86929500D01*
X163797500Y-86479500D01*
X163116500Y-86339500D01*
X162436500Y-86506500D01*
X161823500Y-86957500D01*
X161310500Y-87705500D01*
X161063500Y-88617500D01*
X161045500Y-89209500D01*
X149266500Y-89209500D01*
X148564500Y-87859500D01*
X147826500Y-85771500D01*
G37*
G36*
X179448500Y-75808500D02*
G01*
X179864500Y-75901500D01*
X180497500Y-76044500D01*
X181300500Y-76228500D01*
X182226500Y-76441500D01*
X183227500Y-76672500D01*
X184258500Y-76911500D01*
X185269500Y-77146500D01*
X186215500Y-77367500D01*
X187048500Y-77562500D01*
X187721500Y-77721500D01*
X188186500Y-77833500D01*
X188398500Y-77887500D01*
X188405500Y-77889500D01*
X188278500Y-77967500D01*
X187912500Y-78174500D01*
X187348500Y-78485500D01*
X186630500Y-78879500D01*
X185800500Y-79332500D01*
X184900500Y-79821500D01*
X183972500Y-80324500D01*
X183060500Y-80816500D01*
X182206500Y-81276500D01*
X181452500Y-81680500D01*
X180840500Y-82006500D01*
X180414500Y-82229500D01*
X180215500Y-82328500D01*
X180207500Y-82331500D01*
X180160500Y-82191500D01*
X180102500Y-81845500D01*
X180096500Y-81801500D01*
X180052500Y-81468500D01*
X179973500Y-80883500D01*
X179870500Y-80112500D01*
X179749500Y-79218500D01*
X179657500Y-78531500D01*
X179537500Y-77638500D01*
X179434500Y-76865500D01*
X179355500Y-76264500D01*
X179308500Y-75886500D01*
X179296500Y-75778500D01*
X179448500Y-75808500D01*
G37*
G36*
X153814500Y-95415500D02*
G01*
X154588500Y-95877500D01*
X155259500Y-96278500D01*
X155782500Y-96592500D01*
X156112500Y-96792500D01*
X156207500Y-96850500D01*
X156094500Y-96949500D01*
X155771500Y-97211500D01*
X155278500Y-97602500D01*
X154660500Y-98091500D01*
X153956500Y-98643500D01*
X153211500Y-99226500D01*
X152465500Y-99807500D01*
X151762500Y-100354500D01*
X151143500Y-100832500D01*
X150651500Y-101210500D01*
X150327500Y-101453500D01*
X150215500Y-101531500D01*
X150194500Y-101490500D01*
X150219500Y-101322500D01*
X150288500Y-100893500D01*
X150393500Y-100257500D01*
X150523500Y-99467500D01*
X150671500Y-98578500D01*
X150826500Y-97645500D01*
X150981500Y-96720500D01*
X151125500Y-95859500D01*
X151251500Y-95116500D01*
X151348500Y-94544500D01*
X151409500Y-94198500D01*
X151424500Y-94121500D01*
X151454500Y-94010500D01*
X153814500Y-95415500D01*
G37*
G36*
X167441500Y-98061500D02*
G01*
X167669500Y-98071500D01*
X165781500Y-101680500D01*
X165269500Y-102658500D01*
X164808500Y-103536500D01*
X164418500Y-104275500D01*
X164119500Y-104839500D01*
X163931500Y-105189500D01*
X163873500Y-105290500D01*
X163796500Y-105155500D01*
X163587500Y-104776500D01*
X163268500Y-104190500D01*
X162859500Y-103433500D01*
X162380500Y-102544500D01*
X161927500Y-101701500D01*
X160001500Y-98111500D01*
X163607500Y-98081500D01*
X164660500Y-98073500D01*
X165612500Y-98066500D01*
X166414500Y-98062500D01*
X167017500Y-98060500D01*
X167373500Y-98060500D01*
X167441500Y-98061500D01*
G37*
G36*
X154018500Y-76956500D02*
G01*
X154935500Y-77415500D01*
X155365500Y-77766500D01*
X156032500Y-78588500D01*
X156405500Y-79514500D01*
X156502500Y-80219500D01*
X156434500Y-81208500D01*
X156135500Y-82051500D01*
X155574500Y-82846500D01*
X154805500Y-83488500D01*
X154158500Y-83812500D01*
X153326500Y-84011500D01*
X152503500Y-84033500D01*
X152414500Y-84022500D01*
X151415500Y-83729500D01*
X150538500Y-83171500D01*
X149850500Y-82394500D01*
X149643500Y-82036500D01*
X149314500Y-81041500D01*
X149277500Y-80029500D01*
X149516500Y-79057500D01*
X150013500Y-78184500D01*
X150752500Y-77468500D01*
X151039500Y-77280500D01*
X152008500Y-76882500D01*
X153022500Y-76776500D01*
X154018500Y-76956500D01*
G37*
G36*
X156269500Y-57426500D02*
G01*
X156558500Y-57742500D01*
X157006500Y-58237500D01*
X157585500Y-58880500D01*
X158267500Y-59643500D01*
X159026500Y-60495500D01*
X159114500Y-60595500D01*
X160018500Y-61611500D01*
X160732500Y-62414500D01*
X161278500Y-63029500D01*
X161677500Y-63481500D01*
X161954500Y-63796500D01*
X162129500Y-63998500D01*
X162225500Y-64114500D01*
X162264500Y-64169500D01*
X162269500Y-64188500D01*
X162266500Y-64193500D01*
X162117500Y-64243500D01*
X161715500Y-64374500D01*
X161112500Y-64568500D01*
X160359500Y-64809500D01*
X159509500Y-65081500D01*
X158613500Y-65367500D01*
X157724500Y-65650500D01*
X156893500Y-65914500D01*
X156171500Y-66142500D01*
X155612500Y-66318500D01*
X155267500Y-66425500D01*
X155180500Y-66451500D01*
X155154500Y-66399500D01*
X155171500Y-66232500D01*
X155218500Y-65797500D01*
X155289500Y-65143500D01*
X155380500Y-64319500D01*
X155485500Y-63373500D01*
X155598500Y-62356500D01*
X155714500Y-61315500D01*
X155827500Y-60300500D01*
X155932500Y-59359500D01*
X156024500Y-58542500D01*
X156097500Y-57897500D01*
X156146500Y-57473500D01*
X156164500Y-57320500D01*
X156269500Y-57426500D01*
G37*
%TD*%
D13*
%TO.C,D1*%
X164592000Y-57404000D03*
D14*
X162052000Y-57404000D03*
%TD*%
D15*
%TO.C,D2*%
X143002000Y-69977000D03*
D14*
X141732000Y-72176705D03*
%TD*%
D16*
%TO.C,D3*%
X184480200Y-71221600D03*
D14*
X183210200Y-69021895D03*
%TD*%
D17*
%TO.C,D4*%
X144780000Y-94742000D03*
D14*
X146412681Y-96687753D03*
%TD*%
D18*
%TO.C,D5*%
X180340000Y-96139000D03*
D14*
X181938474Y-94165049D03*
%TD*%
D19*
%TO.C,BT1*%
X152527000Y-80264000D03*
X173609000Y-80264000D03*
%TD*%
D20*
%TO.C,SW1*%
X170865924Y-62865448D03*
X173464000Y-64365448D03*
X176062076Y-65865448D03*
%TD*%
M02*
