%TF.GenerationSoftware,KiCad,Pcbnew,(6.0.4)*%
%TF.CreationDate,2022-06-06T14:47:46-07:00*%
%TF.ProjectId,Alpenglow_SunnySurprise_PCB,416c7065-6e67-46c6-9f77-5f53756e6e79,rev?*%
%TF.SameCoordinates,Original*%
%TF.FileFunction,Soldermask,Top*%
%TF.FilePolarity,Negative*%
%FSLAX46Y46*%
G04 Gerber Fmt 4.6, Leading zero omitted, Abs format (unit mm)*
G04 Created by KiCad (PCBNEW (6.0.4)) date 2022-06-06 14:47:46*
%MOMM*%
%LPD*%
G01*
G04 APERTURE LIST*
G04 Aperture macros list*
%AMHorizOval*
0 Thick line with rounded ends*
0 $1 width*
0 $2 $3 position (X,Y) of the first rounded end (center of the circle)*
0 $4 $5 position (X,Y) of the second rounded end (center of the circle)*
0 Add line between two ends*
20,1,$1,$2,$3,$4,$5,0*
0 Add two circle primitives to create the rounded ends*
1,1,$1,$2,$3*
1,1,$1,$4,$5*%
%AMRotRect*
0 Rectangle, with rotation*
0 The origin of the aperture is its center*
0 $1 length*
0 $2 width*
0 $3 Rotation angle, in degrees counterclockwise*
0 Add horizontal line*
21,1,$1,$2,0,0,$3*%
G04 Aperture macros list end*
%ADD10R,1.800000X1.800000*%
%ADD11C,1.800000*%
%ADD12RotRect,1.800000X1.800000X240.000000*%
%ADD13RotRect,1.800000X1.800000X120.000000*%
%ADD14RotRect,1.800000X1.800000X310.000000*%
%ADD15RotRect,1.800000X1.800000X55.000000*%
%ADD16O,2.500000X4.000000*%
%ADD17HorizOval,1.900000X-0.400000X-0.692820X0.400000X0.692820X0*%
%ADD18RotRect,1.300000X2.500000X330.000000*%
%ADD19HorizOval,1.300000X-0.300000X-0.519615X0.300000X0.519615X0*%
G04 APERTURE END LIST*
%TO.C,G\u002A\u002A\u002A*%
G36*
X163269967Y-85919593D02*
G01*
X163637340Y-85991826D01*
X163650222Y-85995068D01*
X164002887Y-86104788D01*
X164340209Y-86250004D01*
X164659842Y-86428352D01*
X164959441Y-86637468D01*
X165236662Y-86874987D01*
X165489159Y-87138544D01*
X165714588Y-87425776D01*
X165910603Y-87734316D01*
X166074859Y-88061802D01*
X166205011Y-88405868D01*
X166270067Y-88636694D01*
X166331296Y-88951917D01*
X166365990Y-89282152D01*
X166373621Y-89615085D01*
X166353662Y-89938404D01*
X166332618Y-90096078D01*
X166253363Y-90467706D01*
X166138408Y-90823671D01*
X165989644Y-91162065D01*
X165808966Y-91480979D01*
X165598267Y-91778504D01*
X165359439Y-92052733D01*
X165094377Y-92301755D01*
X164804973Y-92523664D01*
X164493120Y-92716550D01*
X164160713Y-92878505D01*
X163809644Y-93007620D01*
X163441806Y-93101987D01*
X163329970Y-93122977D01*
X163259726Y-93132101D01*
X163162161Y-93140723D01*
X163045585Y-93148517D01*
X162918313Y-93155155D01*
X162788655Y-93160313D01*
X162664925Y-93163664D01*
X162555435Y-93164882D01*
X162468497Y-93163640D01*
X162412424Y-93159612D01*
X162409245Y-93159113D01*
X162366439Y-93152686D01*
X162296923Y-93143074D01*
X162213708Y-93132062D01*
X162189072Y-93128888D01*
X161849967Y-93065760D01*
X161515098Y-92965033D01*
X161188303Y-92829138D01*
X160873422Y-92660505D01*
X160574291Y-92461565D01*
X160294751Y-92234750D01*
X160038641Y-91982488D01*
X159809798Y-91707212D01*
X159701516Y-91553774D01*
X159503670Y-91222561D01*
X159344820Y-90882663D01*
X159224657Y-90533003D01*
X159142876Y-90172501D01*
X159099168Y-89800079D01*
X159093141Y-89417309D01*
X159102951Y-89210178D01*
X159119161Y-89029904D01*
X159143593Y-88863578D01*
X159178066Y-88698288D01*
X159214508Y-88556631D01*
X159334422Y-88194456D01*
X159489290Y-87850575D01*
X159677552Y-87526880D01*
X159897647Y-87225260D01*
X160148013Y-86947606D01*
X160427088Y-86695811D01*
X160733312Y-86471763D01*
X161065123Y-86277355D01*
X161119475Y-86249631D01*
X161451182Y-86105782D01*
X161798988Y-85996926D01*
X162158832Y-85923470D01*
X162526651Y-85885824D01*
X162898384Y-85884395D01*
X163269967Y-85919593D01*
G37*
G36*
X137227095Y-97674920D02*
G01*
X137390304Y-97998770D01*
X137548507Y-98312888D01*
X137700774Y-98615420D01*
X137846176Y-98904510D01*
X137983782Y-99178303D01*
X138112663Y-99434944D01*
X138231888Y-99672577D01*
X138340529Y-99889347D01*
X138437655Y-100083399D01*
X138522336Y-100252878D01*
X138593643Y-100395928D01*
X138650645Y-100510694D01*
X138692414Y-100595321D01*
X138718018Y-100647953D01*
X138726529Y-100666735D01*
X138726520Y-100666751D01*
X138706449Y-100667802D01*
X138648697Y-100670023D01*
X138555592Y-100673342D01*
X138429467Y-100677683D01*
X138272650Y-100682972D01*
X138087473Y-100689137D01*
X137876266Y-100696102D01*
X137641358Y-100703795D01*
X137385081Y-100712140D01*
X137109765Y-100721065D01*
X136817740Y-100730494D01*
X136511336Y-100740355D01*
X136192884Y-100750573D01*
X135864713Y-100761074D01*
X135529155Y-100771785D01*
X135188540Y-100782631D01*
X134845197Y-100793539D01*
X134501458Y-100804434D01*
X134159652Y-100815243D01*
X133822110Y-100825891D01*
X133491162Y-100836305D01*
X133169139Y-100846411D01*
X132858371Y-100856135D01*
X132561187Y-100865403D01*
X132279920Y-100874140D01*
X132016898Y-100882274D01*
X131774452Y-100889730D01*
X131554912Y-100896434D01*
X131360609Y-100902312D01*
X131193873Y-100907290D01*
X131057035Y-100911295D01*
X130952424Y-100914252D01*
X130882371Y-100916088D01*
X130849207Y-100916728D01*
X130848214Y-100916725D01*
X130815837Y-100909216D01*
X130816999Y-100892089D01*
X130831647Y-100872690D01*
X130869662Y-100823742D01*
X130929583Y-100747095D01*
X131009949Y-100644603D01*
X131109298Y-100518116D01*
X131226168Y-100369485D01*
X131359097Y-100200563D01*
X131506623Y-100013200D01*
X131667286Y-99809249D01*
X131839624Y-99590561D01*
X132022174Y-99358988D01*
X132213475Y-99116380D01*
X132412065Y-98864590D01*
X132616483Y-98605470D01*
X132825268Y-98340870D01*
X133036956Y-98072642D01*
X133250087Y-97802638D01*
X133463200Y-97532709D01*
X133674831Y-97264707D01*
X133883521Y-97000484D01*
X134087806Y-96741890D01*
X134286226Y-96490778D01*
X134477318Y-96249000D01*
X134659622Y-96018405D01*
X134831675Y-95800847D01*
X134992015Y-95598177D01*
X135139181Y-95412246D01*
X135271712Y-95244906D01*
X135388145Y-95098008D01*
X135487020Y-94973404D01*
X135566873Y-94872945D01*
X135626245Y-94798484D01*
X135663672Y-94751871D01*
X135677447Y-94735195D01*
X135721742Y-94688858D01*
X137227095Y-97674920D01*
G37*
G36*
X140714377Y-102971026D02*
G01*
X140763806Y-102998100D01*
X140843219Y-103043186D01*
X140950445Y-103104991D01*
X141083312Y-103182223D01*
X141239650Y-103273590D01*
X141417288Y-103377799D01*
X141614053Y-103493558D01*
X141827776Y-103619574D01*
X142056284Y-103754556D01*
X142297407Y-103897210D01*
X142548973Y-104046245D01*
X142808812Y-104200368D01*
X143074751Y-104358286D01*
X143344621Y-104518708D01*
X143616249Y-104680340D01*
X143887464Y-104841892D01*
X144156095Y-105002069D01*
X144419972Y-105159581D01*
X144676923Y-105313133D01*
X144924776Y-105461435D01*
X145161360Y-105603194D01*
X145384505Y-105737117D01*
X145592039Y-105861912D01*
X145781791Y-105976287D01*
X145951589Y-106078949D01*
X146099263Y-106168605D01*
X146222642Y-106243965D01*
X146319553Y-106303734D01*
X146387826Y-106346622D01*
X146425290Y-106371334D01*
X146432080Y-106376908D01*
X146416275Y-106389244D01*
X146369265Y-106422739D01*
X146292973Y-106476082D01*
X146189324Y-106547963D01*
X146060243Y-106637070D01*
X145907654Y-106742093D01*
X145733483Y-106861722D01*
X145539653Y-106994644D01*
X145328089Y-107139550D01*
X145100716Y-107295129D01*
X144859459Y-107460070D01*
X144606241Y-107633062D01*
X144342988Y-107812794D01*
X144071624Y-107997956D01*
X143794074Y-108187237D01*
X143512263Y-108379327D01*
X143228114Y-108572913D01*
X142943553Y-108766686D01*
X142660504Y-108959335D01*
X142380892Y-109149549D01*
X142106641Y-109336018D01*
X141839676Y-109517430D01*
X141581922Y-109692474D01*
X141335302Y-109859841D01*
X141101743Y-110018218D01*
X140883168Y-110166297D01*
X140681501Y-110302764D01*
X140498669Y-110426311D01*
X140336594Y-110535626D01*
X140197202Y-110629398D01*
X140082418Y-110706317D01*
X139994165Y-110765071D01*
X139934369Y-110804351D01*
X139904954Y-110822844D01*
X139902207Y-110824164D01*
X139893876Y-110807135D01*
X139891515Y-110778746D01*
X139893539Y-110755210D01*
X139899450Y-110694196D01*
X139909008Y-110598047D01*
X139921970Y-110469104D01*
X139938095Y-110309706D01*
X139957143Y-110122197D01*
X139978871Y-109908916D01*
X140003039Y-109672205D01*
X140029404Y-109414405D01*
X140057727Y-109137858D01*
X140087765Y-108844903D01*
X140119278Y-108537883D01*
X140152023Y-108219139D01*
X140185759Y-107891011D01*
X140220246Y-107555842D01*
X140255242Y-107215971D01*
X140290505Y-106873740D01*
X140325795Y-106531491D01*
X140360870Y-106191564D01*
X140395488Y-105856300D01*
X140429409Y-105528041D01*
X140462390Y-105209128D01*
X140494192Y-104901902D01*
X140524572Y-104608704D01*
X140553288Y-104331875D01*
X140580101Y-104073757D01*
X140604768Y-103836690D01*
X140627048Y-103623015D01*
X140646700Y-103435075D01*
X140663483Y-103275209D01*
X140677154Y-103145759D01*
X140687474Y-103049067D01*
X140694200Y-102987472D01*
X140697092Y-102963317D01*
X140697104Y-102963256D01*
X140714377Y-102971026D01*
G37*
G36*
X142408092Y-85885427D02*
G01*
X142785083Y-85925768D01*
X143084028Y-85986401D01*
X143441062Y-86094961D01*
X143781885Y-86238880D01*
X144104324Y-86416029D01*
X144406202Y-86624277D01*
X144685344Y-86861492D01*
X144939574Y-87125545D01*
X145166716Y-87414303D01*
X145364596Y-87725637D01*
X145531036Y-88057416D01*
X145663863Y-88407508D01*
X145708316Y-88556631D01*
X145752235Y-88730518D01*
X145784641Y-88895006D01*
X145807354Y-89063007D01*
X145822196Y-89247431D01*
X145829684Y-89417309D01*
X145823488Y-89802638D01*
X145779524Y-90174976D01*
X145697484Y-90535401D01*
X145577061Y-90884992D01*
X145417948Y-91224827D01*
X145221308Y-91553774D01*
X144998850Y-91852835D01*
X144747034Y-92126283D01*
X144468719Y-92372267D01*
X144166764Y-92588935D01*
X143844027Y-92774437D01*
X143503367Y-92926921D01*
X143147643Y-93044535D01*
X142799490Y-93122091D01*
X142727783Y-93131448D01*
X142628978Y-93140279D01*
X142511375Y-93148254D01*
X142383272Y-93155041D01*
X142252969Y-93160307D01*
X142128765Y-93163721D01*
X142018959Y-93164952D01*
X141931850Y-93163667D01*
X141875739Y-93159536D01*
X141873075Y-93159113D01*
X141830277Y-93152649D01*
X141760773Y-93142936D01*
X141677572Y-93131780D01*
X141652902Y-93128554D01*
X141304053Y-93063340D01*
X140963211Y-92960669D01*
X140633371Y-92822798D01*
X140317526Y-92651988D01*
X140018673Y-92450497D01*
X139739805Y-92220583D01*
X139483917Y-91964507D01*
X139254004Y-91684526D01*
X139053061Y-91382900D01*
X138884082Y-91061887D01*
X138868994Y-91028665D01*
X138733320Y-90678024D01*
X138634697Y-90317375D01*
X138573066Y-89950129D01*
X138548366Y-89579698D01*
X138560538Y-89209495D01*
X138609522Y-88842931D01*
X138695258Y-88483419D01*
X138817685Y-88134369D01*
X138923920Y-87900613D01*
X139108683Y-87574487D01*
X139324733Y-87270549D01*
X139569372Y-86990987D01*
X139839903Y-86737990D01*
X140133627Y-86513747D01*
X140447848Y-86320446D01*
X140779867Y-86160276D01*
X141126986Y-86035427D01*
X141272602Y-85995068D01*
X141647713Y-85920097D01*
X142027589Y-85883543D01*
X142408092Y-85885427D01*
G37*
G36*
X136183844Y-85104298D02*
G01*
X136185055Y-85106531D01*
X136183836Y-85129692D01*
X136179104Y-85190153D01*
X136171097Y-85285360D01*
X136160051Y-85412756D01*
X136146202Y-85569787D01*
X136129787Y-85753898D01*
X136111042Y-85962532D01*
X136090203Y-86193136D01*
X136067507Y-86443153D01*
X136043190Y-86710028D01*
X136017489Y-86991207D01*
X135990640Y-87284134D01*
X135962878Y-87586253D01*
X135934442Y-87895009D01*
X135905566Y-88207848D01*
X135876488Y-88522214D01*
X135847444Y-88835551D01*
X135818670Y-89145305D01*
X135790402Y-89448920D01*
X135762877Y-89743840D01*
X135736331Y-90027512D01*
X135711001Y-90297378D01*
X135687123Y-90550885D01*
X135664934Y-90785477D01*
X135644669Y-90998598D01*
X135626565Y-91187694D01*
X135610859Y-91350209D01*
X135597786Y-91483588D01*
X135587584Y-91585275D01*
X135580489Y-91652716D01*
X135576736Y-91683355D01*
X135576597Y-91684094D01*
X135563947Y-91718606D01*
X135552717Y-91727768D01*
X135534243Y-91717673D01*
X135482886Y-91688306D01*
X135400300Y-91640633D01*
X135288141Y-91575621D01*
X135148066Y-91494234D01*
X134981729Y-91397439D01*
X134790787Y-91286202D01*
X134576894Y-91161487D01*
X134341707Y-91024262D01*
X134086880Y-90875492D01*
X133814071Y-90716142D01*
X133524934Y-90547178D01*
X133221124Y-90369567D01*
X132904299Y-90184274D01*
X132576112Y-89992265D01*
X132238221Y-89794505D01*
X132131335Y-89731932D01*
X131791047Y-89532627D01*
X131460182Y-89338675D01*
X131140381Y-89151046D01*
X130833286Y-88970708D01*
X130540538Y-88798631D01*
X130263777Y-88635783D01*
X130004646Y-88483133D01*
X129764783Y-88341651D01*
X129545832Y-88212304D01*
X129349433Y-88096063D01*
X129177227Y-87993896D01*
X129030855Y-87906771D01*
X128911958Y-87835659D01*
X128822178Y-87781527D01*
X128763155Y-87745346D01*
X128736531Y-87728083D01*
X128735120Y-87726713D01*
X128754743Y-87719024D01*
X128810276Y-87698561D01*
X128899914Y-87665972D01*
X129021851Y-87621902D01*
X129174283Y-87566998D01*
X129355404Y-87501907D01*
X129563409Y-87427274D01*
X129796492Y-87343747D01*
X130052850Y-87251972D01*
X130330675Y-87152595D01*
X130628165Y-87046263D01*
X130943512Y-86933623D01*
X131274912Y-86815320D01*
X131620559Y-86692001D01*
X131978650Y-86564313D01*
X132347377Y-86432903D01*
X132462124Y-86392022D01*
X132905364Y-86234154D01*
X133312424Y-86089249D01*
X133684816Y-85956783D01*
X134024053Y-85836235D01*
X134331648Y-85727082D01*
X134609112Y-85628803D01*
X134857959Y-85540874D01*
X135079699Y-85462775D01*
X135275847Y-85393982D01*
X135447913Y-85333973D01*
X135597411Y-85282226D01*
X135725853Y-85238220D01*
X135834752Y-85201431D01*
X135925618Y-85171338D01*
X135999966Y-85147419D01*
X136059307Y-85129150D01*
X136105154Y-85116011D01*
X136139018Y-85107478D01*
X136162413Y-85103030D01*
X136176851Y-85102144D01*
X136183844Y-85104298D01*
G37*
G36*
X169266878Y-94378947D02*
G01*
X169304605Y-94421895D01*
X169364820Y-94492156D01*
X169446038Y-94587941D01*
X169546777Y-94707458D01*
X169665553Y-94848915D01*
X169800882Y-95010523D01*
X169951281Y-95190488D01*
X170115266Y-95387022D01*
X170291353Y-95598332D01*
X170478059Y-95822628D01*
X170673901Y-96058118D01*
X170877394Y-96303011D01*
X171087055Y-96555517D01*
X171301400Y-96813844D01*
X171518947Y-97076201D01*
X171738210Y-97340797D01*
X171957707Y-97605842D01*
X172175954Y-97869543D01*
X172391468Y-98130110D01*
X172602764Y-98385753D01*
X172808360Y-98634679D01*
X173006771Y-98875098D01*
X173196514Y-99105218D01*
X173376106Y-99323249D01*
X173544062Y-99527400D01*
X173698899Y-99715879D01*
X173839134Y-99886896D01*
X173963283Y-100038659D01*
X174069862Y-100169377D01*
X174157388Y-100277259D01*
X174224378Y-100360515D01*
X174269346Y-100417353D01*
X174290811Y-100445982D01*
X174292418Y-100448726D01*
X174289843Y-100463793D01*
X174263027Y-100471629D01*
X174205367Y-100473616D01*
X174175650Y-100473163D01*
X174142426Y-100472663D01*
X174071271Y-100471786D01*
X173964284Y-100470555D01*
X173823564Y-100468990D01*
X173651209Y-100467114D01*
X173449318Y-100464950D01*
X173219989Y-100462519D01*
X172965322Y-100459842D01*
X172687415Y-100456943D01*
X172388367Y-100453844D01*
X172070276Y-100450565D01*
X171735241Y-100447129D01*
X171385361Y-100443559D01*
X171022734Y-100439876D01*
X170649460Y-100436102D01*
X170465589Y-100434249D01*
X170085718Y-100430406D01*
X169714197Y-100426609D01*
X169353222Y-100422881D01*
X169004991Y-100419247D01*
X168671700Y-100415731D01*
X168355544Y-100412357D01*
X168058722Y-100409150D01*
X167783429Y-100406133D01*
X167531861Y-100403331D01*
X167306216Y-100400768D01*
X167108690Y-100398468D01*
X166941479Y-100396454D01*
X166806781Y-100394752D01*
X166706791Y-100393386D01*
X166643705Y-100392379D01*
X166628675Y-100392067D01*
X166374583Y-100385945D01*
X167805991Y-97383581D01*
X167961817Y-97056836D01*
X168113093Y-96739829D01*
X168258912Y-96434450D01*
X168398368Y-96142590D01*
X168530553Y-95866140D01*
X168654563Y-95606989D01*
X168769490Y-95367029D01*
X168874428Y-95148149D01*
X168968471Y-94952241D01*
X169050712Y-94781195D01*
X169120245Y-94636902D01*
X169176164Y-94521252D01*
X169217562Y-94436135D01*
X169243533Y-94383443D01*
X169253123Y-94365104D01*
X169266878Y-94378947D01*
G37*
G36*
X158977023Y-67554062D02*
G01*
X158978856Y-67555740D01*
X158983010Y-67576473D01*
X158992774Y-67634894D01*
X159007856Y-67729097D01*
X159027965Y-67857175D01*
X159052813Y-68017221D01*
X159082107Y-68207330D01*
X159115559Y-68425594D01*
X159152877Y-68670107D01*
X159193771Y-68938963D01*
X159237951Y-69230255D01*
X159285127Y-69542077D01*
X159335008Y-69872522D01*
X159387303Y-70219684D01*
X159441723Y-70581656D01*
X159497978Y-70956532D01*
X159555776Y-71342405D01*
X159568451Y-71427121D01*
X159626575Y-71815635D01*
X159683174Y-72193863D01*
X159737959Y-72559877D01*
X159790640Y-72911750D01*
X159840929Y-73247554D01*
X159888537Y-73565362D01*
X159933174Y-73863245D01*
X159974551Y-74139275D01*
X160012380Y-74391525D01*
X160046372Y-74618067D01*
X160076236Y-74816973D01*
X160101685Y-74986315D01*
X160122428Y-75124166D01*
X160138178Y-75228597D01*
X160148645Y-75297681D01*
X160153540Y-75329491D01*
X160153827Y-75331217D01*
X160151325Y-75367102D01*
X160129677Y-75375193D01*
X160107254Y-75369490D01*
X160048475Y-75353012D01*
X159955367Y-75326353D01*
X159829958Y-75290107D01*
X159674275Y-75244868D01*
X159490345Y-75191229D01*
X159280195Y-75129784D01*
X159045852Y-75061128D01*
X158789345Y-74985854D01*
X158512699Y-74904556D01*
X158217943Y-74817828D01*
X157907103Y-74726263D01*
X157582207Y-74630457D01*
X157245282Y-74531002D01*
X156929985Y-74437842D01*
X156584162Y-74335562D01*
X156248732Y-74236248D01*
X155925707Y-74140500D01*
X155617099Y-74048919D01*
X155324921Y-73962106D01*
X155051184Y-73880660D01*
X154797900Y-73805184D01*
X154567082Y-73736277D01*
X154360742Y-73674540D01*
X154180892Y-73620574D01*
X154029544Y-73574979D01*
X153908709Y-73538356D01*
X153820402Y-73511306D01*
X153766632Y-73494430D01*
X153749402Y-73488408D01*
X153756440Y-73469113D01*
X153785772Y-73427263D01*
X153832370Y-73369567D01*
X153875664Y-73319888D01*
X153898699Y-73293954D01*
X153946138Y-73240320D01*
X154016412Y-73160767D01*
X154107952Y-73057075D01*
X154219187Y-72931026D01*
X154348548Y-72784400D01*
X154494465Y-72618979D01*
X154655368Y-72436543D01*
X154829687Y-72238873D01*
X155015852Y-72027751D01*
X155212295Y-71804958D01*
X155417444Y-71572273D01*
X155629731Y-71331479D01*
X155847585Y-71084356D01*
X156069436Y-70832686D01*
X156293716Y-70578249D01*
X156518853Y-70322826D01*
X156743279Y-70068199D01*
X156965422Y-69816147D01*
X157183715Y-69568453D01*
X157396586Y-69326897D01*
X157602466Y-69093260D01*
X157799786Y-68869324D01*
X157986975Y-68656868D01*
X158162463Y-68457675D01*
X158324682Y-68273525D01*
X158472060Y-68106198D01*
X158603029Y-67957477D01*
X158716018Y-67829142D01*
X158809458Y-67722974D01*
X158881778Y-67640754D01*
X158931410Y-67584263D01*
X158956783Y-67555282D01*
X158959815Y-67551758D01*
X158977023Y-67554062D01*
G37*
G36*
X155190947Y-107027049D02*
G01*
X155388265Y-107027240D01*
X155559749Y-107027599D01*
X155702870Y-107028135D01*
X155815096Y-107028856D01*
X155893900Y-107029769D01*
X155936751Y-107030884D01*
X155944154Y-107031669D01*
X155935940Y-107051279D01*
X155911947Y-107105125D01*
X155873151Y-107191085D01*
X155820525Y-107307037D01*
X155755046Y-107450860D01*
X155677687Y-107620432D01*
X155589424Y-107813632D01*
X155491231Y-108028337D01*
X155384084Y-108262426D01*
X155268957Y-108513778D01*
X155146825Y-108780271D01*
X155018663Y-109059784D01*
X154885445Y-109350194D01*
X154748148Y-109649380D01*
X154607745Y-109955221D01*
X154465211Y-110265594D01*
X154321521Y-110578379D01*
X154177651Y-110891454D01*
X154034574Y-111202696D01*
X153893266Y-111509985D01*
X153754702Y-111811199D01*
X153619856Y-112104215D01*
X153489704Y-112386914D01*
X153365220Y-112657172D01*
X153247378Y-112912868D01*
X153137155Y-113151882D01*
X153035524Y-113372090D01*
X152943461Y-113571372D01*
X152861941Y-113747605D01*
X152791938Y-113898669D01*
X152734427Y-114022441D01*
X152690383Y-114116800D01*
X152660781Y-114179625D01*
X152646595Y-114208793D01*
X152645517Y-114210642D01*
X152635725Y-114194211D01*
X152609714Y-114143269D01*
X152568305Y-114059534D01*
X152512315Y-113944719D01*
X152442564Y-113800542D01*
X152359869Y-113628716D01*
X152265051Y-113430959D01*
X152158928Y-113208984D01*
X152042318Y-112964508D01*
X151916041Y-112699246D01*
X151780915Y-112414913D01*
X151637760Y-112113226D01*
X151487393Y-111795899D01*
X151330635Y-111464648D01*
X151168303Y-111121189D01*
X151001216Y-110767237D01*
X150942328Y-110642387D01*
X150773848Y-110284998D01*
X150610052Y-109937311D01*
X150451749Y-109601054D01*
X150299747Y-109277953D01*
X150154856Y-108969736D01*
X150017885Y-108678129D01*
X149889643Y-108404859D01*
X149770938Y-108151653D01*
X149662579Y-107920238D01*
X149565376Y-107712342D01*
X149480138Y-107529690D01*
X149407673Y-107374010D01*
X149348790Y-107247029D01*
X149304299Y-107150474D01*
X149275009Y-107086071D01*
X149261727Y-107055549D01*
X149261004Y-107053194D01*
X149282051Y-107051821D01*
X149340504Y-107050413D01*
X149433833Y-107048979D01*
X149559510Y-107047525D01*
X149715005Y-107046060D01*
X149897787Y-107044593D01*
X150105327Y-107043131D01*
X150335097Y-107041683D01*
X150584565Y-107040257D01*
X150851203Y-107038860D01*
X151132480Y-107037502D01*
X151425867Y-107036190D01*
X151728835Y-107034932D01*
X152038854Y-107033737D01*
X152353395Y-107032613D01*
X152669926Y-107031567D01*
X152985920Y-107030609D01*
X153298846Y-107029745D01*
X153606175Y-107028985D01*
X153905377Y-107028336D01*
X154193923Y-107027807D01*
X154469282Y-107027406D01*
X154728925Y-107027140D01*
X154970324Y-107027018D01*
X155190947Y-107027049D01*
G37*
G36*
X164286696Y-102665837D02*
G01*
X164290727Y-102675333D01*
X164293812Y-102697215D01*
X164302822Y-102756314D01*
X164317391Y-102850315D01*
X164337151Y-102976901D01*
X164361734Y-103133756D01*
X164390773Y-103318564D01*
X164423901Y-103529009D01*
X164460751Y-103762775D01*
X164500955Y-104017544D01*
X164544146Y-104291003D01*
X164589956Y-104580833D01*
X164638019Y-104884719D01*
X164687967Y-105200345D01*
X164739433Y-105525394D01*
X164792049Y-105857551D01*
X164845448Y-106194499D01*
X164899263Y-106533922D01*
X164953126Y-106873504D01*
X165006671Y-107210928D01*
X165059529Y-107543879D01*
X165111334Y-107870040D01*
X165161718Y-108187096D01*
X165210314Y-108492729D01*
X165256755Y-108784624D01*
X165300673Y-109060465D01*
X165341701Y-109317935D01*
X165379472Y-109554718D01*
X165413618Y-109768499D01*
X165443772Y-109956960D01*
X165469566Y-110117786D01*
X165490635Y-110248661D01*
X165506609Y-110347267D01*
X165517122Y-110411291D01*
X165521807Y-110438414D01*
X165521905Y-110438861D01*
X165524451Y-110473208D01*
X165517073Y-110483195D01*
X165498648Y-110472952D01*
X165447588Y-110443024D01*
X165365539Y-110394399D01*
X165254146Y-110328064D01*
X165115057Y-110245006D01*
X164949916Y-110146213D01*
X164760369Y-110032672D01*
X164548063Y-109905371D01*
X164314644Y-109765297D01*
X164061757Y-109613437D01*
X163791048Y-109450779D01*
X163504163Y-109278311D01*
X163202748Y-109097019D01*
X162888448Y-108907892D01*
X162562911Y-108711917D01*
X162227781Y-108510080D01*
X162129024Y-108450586D01*
X161791351Y-108247120D01*
X161462799Y-108049089D01*
X161145014Y-107857490D01*
X160839642Y-107673317D01*
X160548332Y-107497565D01*
X160272730Y-107331230D01*
X160014482Y-107175306D01*
X159775236Y-107030789D01*
X159556638Y-106898673D01*
X159360336Y-106779955D01*
X159187976Y-106675629D01*
X159041205Y-106586690D01*
X158921670Y-106514134D01*
X158831018Y-106458955D01*
X158770895Y-106422148D01*
X158742949Y-106404710D01*
X158741103Y-106403422D01*
X158756085Y-106391209D01*
X158802180Y-106358060D01*
X158877293Y-106305394D01*
X158979328Y-106234630D01*
X159106190Y-106147187D01*
X159255784Y-106044484D01*
X159426016Y-105927940D01*
X159614789Y-105798974D01*
X159820008Y-105659006D01*
X160039579Y-105509454D01*
X160271406Y-105351736D01*
X160513393Y-105187273D01*
X160763447Y-105017484D01*
X161019471Y-104843786D01*
X161279370Y-104667600D01*
X161541049Y-104490343D01*
X161802413Y-104313436D01*
X162061367Y-104138298D01*
X162315815Y-103966346D01*
X162563662Y-103799001D01*
X162802814Y-103637681D01*
X163031174Y-103483805D01*
X163246648Y-103338792D01*
X163447140Y-103204062D01*
X163630556Y-103081033D01*
X163794799Y-102971125D01*
X163937776Y-102875756D01*
X164057390Y-102796345D01*
X164151546Y-102734311D01*
X164218150Y-102691074D01*
X164255105Y-102668052D01*
X164261431Y-102664693D01*
X164286696Y-102665837D01*
G37*
G36*
X145429205Y-67603182D02*
G01*
X145443919Y-67612828D01*
X145464796Y-67629769D01*
X145492945Y-67655184D01*
X145529476Y-67690251D01*
X145575500Y-67736148D01*
X145632126Y-67794055D01*
X145700465Y-67865149D01*
X145781628Y-67950608D01*
X145876723Y-68051612D01*
X145986862Y-68169339D01*
X146113154Y-68304966D01*
X146256710Y-68459673D01*
X146418640Y-68634638D01*
X146600054Y-68831038D01*
X146802062Y-69050054D01*
X147025774Y-69292863D01*
X147272301Y-69560643D01*
X147542753Y-69854572D01*
X147838239Y-70175831D01*
X148104781Y-70465684D01*
X148372011Y-70756472D01*
X148631769Y-71039456D01*
X148882771Y-71313226D01*
X149123736Y-71576372D01*
X149353384Y-71827484D01*
X149570431Y-72065151D01*
X149773596Y-72287964D01*
X149961598Y-72494512D01*
X150133154Y-72683386D01*
X150286983Y-72853174D01*
X150421803Y-73002468D01*
X150536332Y-73129856D01*
X150629289Y-73233930D01*
X150699391Y-73313277D01*
X150745358Y-73366490D01*
X150765906Y-73392157D01*
X150766877Y-73394355D01*
X150746540Y-73401783D01*
X150690468Y-73420532D01*
X150601086Y-73449830D01*
X150480822Y-73488904D01*
X150332101Y-73536980D01*
X150157349Y-73593286D01*
X149958992Y-73657050D01*
X149739456Y-73727498D01*
X149501167Y-73803858D01*
X149246551Y-73885357D01*
X148978034Y-73971221D01*
X148698043Y-74060679D01*
X148409002Y-74152957D01*
X148113338Y-74247282D01*
X147813477Y-74342883D01*
X147511845Y-74438984D01*
X147210869Y-74534815D01*
X146912973Y-74629602D01*
X146620584Y-74722572D01*
X146336128Y-74812953D01*
X146062030Y-74899972D01*
X145800718Y-74982855D01*
X145554617Y-75060830D01*
X145326152Y-75133124D01*
X145117751Y-75198965D01*
X144931838Y-75257579D01*
X144770840Y-75308194D01*
X144637183Y-75350037D01*
X144533293Y-75382335D01*
X144461596Y-75404315D01*
X144424517Y-75415204D01*
X144419842Y-75416284D01*
X144412050Y-75398118D01*
X144412148Y-75349531D01*
X144417152Y-75301194D01*
X144421251Y-75269763D01*
X144430173Y-75200634D01*
X144443660Y-75095818D01*
X144461456Y-74957325D01*
X144483302Y-74787165D01*
X144508940Y-74587349D01*
X144538114Y-74359887D01*
X144570564Y-74106788D01*
X144606035Y-73830064D01*
X144644267Y-73531724D01*
X144685003Y-73213778D01*
X144727985Y-72878238D01*
X144772956Y-72527113D01*
X144819658Y-72162413D01*
X144867834Y-71786149D01*
X144914305Y-71423140D01*
X144963542Y-71038824D01*
X145011548Y-70664757D01*
X145058067Y-70302908D01*
X145102842Y-69955245D01*
X145145619Y-69623734D01*
X145186140Y-69310345D01*
X145224150Y-69017046D01*
X145259392Y-68745803D01*
X145291611Y-68498586D01*
X145320550Y-68277362D01*
X145345954Y-68084100D01*
X145367566Y-67920766D01*
X145385130Y-67789330D01*
X145398390Y-67691758D01*
X145407091Y-67630020D01*
X145410932Y-67606232D01*
X145413821Y-67601062D01*
X145419542Y-67599653D01*
X145429205Y-67603182D01*
G37*
G36*
X170541808Y-74641072D02*
G01*
X170519303Y-74694297D01*
X170482365Y-74779825D01*
X170431940Y-74895530D01*
X170368972Y-75039287D01*
X170294407Y-75208972D01*
X170209187Y-75402458D01*
X170114259Y-75617621D01*
X170010567Y-75852335D01*
X169899055Y-76104475D01*
X169780669Y-76371916D01*
X169656352Y-76652533D01*
X169527050Y-76944201D01*
X169393708Y-77244793D01*
X169257269Y-77552186D01*
X169118679Y-77864253D01*
X168978882Y-78178870D01*
X168838824Y-78493912D01*
X168699447Y-78807252D01*
X168561698Y-79116767D01*
X168426522Y-79420330D01*
X168294861Y-79715817D01*
X168167662Y-80001102D01*
X168045869Y-80274060D01*
X167930427Y-80532565D01*
X167822280Y-80774494D01*
X167722373Y-80997720D01*
X167631651Y-81200117D01*
X167551058Y-81379562D01*
X167481540Y-81533929D01*
X167424039Y-81661092D01*
X167379503Y-81758926D01*
X167348874Y-81825306D01*
X167333098Y-81858107D01*
X167331124Y-81861359D01*
X167316437Y-81846536D01*
X167276815Y-81803111D01*
X167213639Y-81732653D01*
X167128289Y-81636727D01*
X167022142Y-81516903D01*
X166896579Y-81374746D01*
X166752978Y-81211825D01*
X166592720Y-81029707D01*
X166417183Y-80829958D01*
X166227746Y-80614148D01*
X166025789Y-80383842D01*
X165812691Y-80140608D01*
X165589831Y-79886014D01*
X165358589Y-79621627D01*
X165127404Y-79357096D01*
X164889387Y-79084601D01*
X164658540Y-78820230D01*
X164436235Y-78565560D01*
X164223845Y-78322166D01*
X164022742Y-78091625D01*
X163834300Y-77875511D01*
X163659891Y-77675402D01*
X163500888Y-77492873D01*
X163358664Y-77329500D01*
X163234591Y-77186858D01*
X163130044Y-77066525D01*
X163046394Y-76970075D01*
X162985013Y-76899085D01*
X162947276Y-76855131D01*
X162934560Y-76839818D01*
X162953014Y-76833336D01*
X163007690Y-76816372D01*
X163096361Y-76789573D01*
X163216798Y-76753589D01*
X163366770Y-76709070D01*
X163544049Y-76656665D01*
X163746407Y-76597022D01*
X163971613Y-76530791D01*
X164217439Y-76458621D01*
X164481655Y-76381161D01*
X164762033Y-76299061D01*
X165056343Y-76212969D01*
X165362357Y-76123535D01*
X165677844Y-76031408D01*
X166000577Y-75937237D01*
X166328326Y-75841672D01*
X166658862Y-75745361D01*
X166989956Y-75648954D01*
X167319378Y-75553100D01*
X167644900Y-75458448D01*
X167964293Y-75365647D01*
X168275327Y-75275346D01*
X168575773Y-75188196D01*
X168863403Y-75104844D01*
X169135987Y-75025940D01*
X169391295Y-74952133D01*
X169627100Y-74884072D01*
X169841172Y-74822407D01*
X170031281Y-74767787D01*
X170195199Y-74720861D01*
X170330697Y-74682277D01*
X170435545Y-74652686D01*
X170507514Y-74632737D01*
X170544376Y-74623078D01*
X170548937Y-74622275D01*
X170541808Y-74641072D01*
G37*
G36*
X134274200Y-75166379D02*
G01*
X134330556Y-75180376D01*
X134421044Y-75203652D01*
X134543413Y-75235600D01*
X134695412Y-75275614D01*
X134874791Y-75323086D01*
X135079300Y-75377411D01*
X135306688Y-75437980D01*
X135554705Y-75504188D01*
X135821101Y-75575428D01*
X136103625Y-75651093D01*
X136400026Y-75730576D01*
X136708055Y-75813271D01*
X137025461Y-75898571D01*
X137349994Y-75985868D01*
X137679403Y-76074557D01*
X138011437Y-76164030D01*
X138343847Y-76253681D01*
X138674383Y-76342903D01*
X139000793Y-76431090D01*
X139320827Y-76517634D01*
X139632236Y-76601928D01*
X139932768Y-76683367D01*
X140220173Y-76761343D01*
X140492201Y-76835250D01*
X140746601Y-76904480D01*
X140981124Y-76968428D01*
X141193518Y-77026485D01*
X141381533Y-77078046D01*
X141542919Y-77122505D01*
X141675426Y-77159253D01*
X141776803Y-77187684D01*
X141844800Y-77207192D01*
X141877166Y-77217170D01*
X141879602Y-77218223D01*
X141868318Y-77234386D01*
X141832869Y-77279225D01*
X141774879Y-77350800D01*
X141695973Y-77447169D01*
X141597778Y-77566393D01*
X141481918Y-77706530D01*
X141350019Y-77865642D01*
X141203705Y-78041786D01*
X141044603Y-78233023D01*
X140874337Y-78437413D01*
X140694532Y-78653015D01*
X140506814Y-78877888D01*
X140312808Y-79110092D01*
X140114140Y-79347687D01*
X139912434Y-79588732D01*
X139709316Y-79831287D01*
X139506411Y-80073411D01*
X139305344Y-80313165D01*
X139107741Y-80548607D01*
X138915227Y-80777797D01*
X138729427Y-80998795D01*
X138551966Y-81209660D01*
X138384470Y-81408452D01*
X138228564Y-81593231D01*
X138085873Y-81762055D01*
X137958022Y-81912985D01*
X137846637Y-82044081D01*
X137753343Y-82153401D01*
X137679765Y-82239005D01*
X137627528Y-82298954D01*
X137598258Y-82331306D01*
X137592531Y-82336636D01*
X137582939Y-82319266D01*
X137557299Y-82267313D01*
X137516420Y-82182506D01*
X137461114Y-82066570D01*
X137392192Y-81921232D01*
X137310462Y-81748218D01*
X137216738Y-81549255D01*
X137111828Y-81326069D01*
X136996543Y-81080387D01*
X136871695Y-80813936D01*
X136738093Y-80528441D01*
X136596548Y-80225630D01*
X136447872Y-79907229D01*
X136292873Y-79574964D01*
X136132364Y-79230562D01*
X135967155Y-78875750D01*
X135911885Y-78756980D01*
X135745402Y-78399004D01*
X135583576Y-78050728D01*
X135427205Y-77713886D01*
X135277090Y-77390212D01*
X135134031Y-77081440D01*
X134998828Y-76789305D01*
X134872279Y-76515541D01*
X134755186Y-76261883D01*
X134648347Y-76030065D01*
X134552563Y-75821820D01*
X134468633Y-75638885D01*
X134397357Y-75482992D01*
X134339535Y-75355877D01*
X134295967Y-75259273D01*
X134267452Y-75194915D01*
X134254791Y-75164538D01*
X134254225Y-75162268D01*
X134274200Y-75166379D01*
G37*
G36*
X138024195Y-97258068D02*
G01*
X137709640Y-96545617D01*
X137430624Y-95819041D01*
X137187589Y-95079581D01*
X136980977Y-94328478D01*
X136811230Y-93566973D01*
X136678791Y-92796306D01*
X136584102Y-92017718D01*
X136527605Y-91232451D01*
X136509741Y-90441744D01*
X136530954Y-89646838D01*
X136542294Y-89497372D01*
X137361677Y-89497372D01*
X137362517Y-89708685D01*
X137367592Y-89890051D01*
X137377998Y-90051434D01*
X137394834Y-90202796D01*
X137419197Y-90354098D01*
X137452186Y-90515303D01*
X137492911Y-90688309D01*
X137614118Y-91098373D01*
X137771714Y-91494692D01*
X137963721Y-91874944D01*
X138188160Y-92236804D01*
X138443052Y-92577950D01*
X138726420Y-92896058D01*
X139036284Y-93188807D01*
X139370666Y-93453871D01*
X139727588Y-93688930D01*
X140105072Y-93891658D01*
X140293865Y-93977177D01*
X140615362Y-94099789D01*
X140953845Y-94202155D01*
X141295199Y-94280503D01*
X141612870Y-94329662D01*
X141704942Y-94340198D01*
X141789955Y-94349963D01*
X141854514Y-94357417D01*
X141873075Y-94359579D01*
X141938287Y-94363502D01*
X142034794Y-94364557D01*
X142153984Y-94363074D01*
X142287248Y-94359381D01*
X142425977Y-94353809D01*
X142561560Y-94346688D01*
X142685388Y-94338347D01*
X142788850Y-94329116D01*
X142843839Y-94322404D01*
X143243250Y-94249376D01*
X143622607Y-94147381D01*
X143992554Y-94013137D01*
X144305665Y-93872155D01*
X144694737Y-93660264D01*
X145058521Y-93418045D01*
X145395819Y-93147137D01*
X145705437Y-92849181D01*
X145986180Y-92525817D01*
X146236851Y-92178684D01*
X146456257Y-91809423D01*
X146643201Y-91419673D01*
X146796489Y-91011075D01*
X146914924Y-90585269D01*
X146990847Y-90187915D01*
X147007756Y-90040733D01*
X147019378Y-89864930D01*
X147025717Y-89671104D01*
X147026190Y-89581715D01*
X157895982Y-89581715D01*
X157899969Y-89780159D01*
X157909237Y-89965302D01*
X157923789Y-90126546D01*
X157931978Y-90187915D01*
X158017962Y-90627832D01*
X158139875Y-91052020D01*
X158296523Y-91458838D01*
X158486711Y-91846647D01*
X158709242Y-92213806D01*
X158962922Y-92558676D01*
X159246556Y-92879616D01*
X159558947Y-93174987D01*
X159898901Y-93443148D01*
X160265223Y-93682459D01*
X160617160Y-93872155D01*
X160889923Y-93996968D01*
X161157001Y-94100709D01*
X161426944Y-94185691D01*
X161708304Y-94254226D01*
X162009630Y-94308625D01*
X162339473Y-94351202D01*
X162419253Y-94359464D01*
X162493639Y-94363387D01*
X162598728Y-94364267D01*
X162725337Y-94362456D01*
X162864282Y-94358306D01*
X163006377Y-94352170D01*
X163142441Y-94344400D01*
X163263289Y-94335348D01*
X163359736Y-94325366D01*
X163380009Y-94322614D01*
X163823201Y-94238664D01*
X164249970Y-94118408D01*
X164659295Y-93962416D01*
X165050152Y-93771257D01*
X165421520Y-93545501D01*
X165772375Y-93285716D01*
X166101696Y-92992472D01*
X166408460Y-92666338D01*
X166456487Y-92609822D01*
X166714085Y-92271440D01*
X166941043Y-91908745D01*
X167136059Y-91524665D01*
X167297826Y-91122129D01*
X167425039Y-90704065D01*
X167516395Y-90273400D01*
X167526919Y-90207931D01*
X167543882Y-90062991D01*
X167555697Y-89888589D01*
X167562375Y-89694964D01*
X167563923Y-89492353D01*
X167560351Y-89290992D01*
X167551668Y-89101120D01*
X167537884Y-88932972D01*
X167525690Y-88836852D01*
X167439283Y-88400040D01*
X167315227Y-87975508D01*
X167154417Y-87565299D01*
X166957748Y-87171454D01*
X166726112Y-86796014D01*
X166496086Y-86485000D01*
X166213040Y-86163696D01*
X165902244Y-85869774D01*
X165566478Y-85604723D01*
X165208521Y-85370032D01*
X164831153Y-85167191D01*
X164437154Y-84997688D01*
X164029305Y-84863012D01*
X163610383Y-84764652D01*
X163183170Y-84704098D01*
X163168971Y-84702762D01*
X162989343Y-84691389D01*
X162786019Y-84687298D01*
X162571918Y-84690137D01*
X162359958Y-84699554D01*
X162163058Y-84715197D01*
X162008930Y-84734380D01*
X161583022Y-84820053D01*
X161167104Y-84943698D01*
X160763897Y-85103921D01*
X160376126Y-85299327D01*
X160006513Y-85528521D01*
X159657783Y-85790110D01*
X159332657Y-86082699D01*
X159287090Y-86128165D01*
X158991753Y-86454646D01*
X158730128Y-86802607D01*
X158502440Y-87171594D01*
X158308913Y-87561153D01*
X158149771Y-87970833D01*
X158025238Y-88400178D01*
X157935539Y-88848737D01*
X157932709Y-88866875D01*
X157915637Y-89012550D01*
X157903822Y-89187313D01*
X157897268Y-89380568D01*
X157895982Y-89581715D01*
X147026190Y-89581715D01*
X147026781Y-89469852D01*
X147022573Y-89271772D01*
X147013101Y-89087460D01*
X146998371Y-88927515D01*
X146990115Y-88866875D01*
X146901799Y-88417566D01*
X146778640Y-87987451D01*
X146620863Y-87576985D01*
X146428693Y-87186621D01*
X146202352Y-86816811D01*
X145942066Y-86468010D01*
X145648059Y-86140670D01*
X145635735Y-86128165D01*
X145311582Y-85828361D01*
X144964457Y-85560651D01*
X144596382Y-85326197D01*
X144209375Y-85126162D01*
X143805456Y-84961708D01*
X143387133Y-84834124D01*
X143159004Y-84780392D01*
X142945178Y-84740884D01*
X142730457Y-84713459D01*
X142499642Y-84695974D01*
X142363397Y-84689928D01*
X141926129Y-84693936D01*
X141496195Y-84736415D01*
X141075678Y-84816149D01*
X140666661Y-84931925D01*
X140271228Y-85082527D01*
X139891462Y-85266740D01*
X139529446Y-85483349D01*
X139187264Y-85731140D01*
X138866999Y-86008898D01*
X138570734Y-86315407D01*
X138300553Y-86649453D01*
X138058538Y-87009822D01*
X137898255Y-87293783D01*
X137726879Y-87656992D01*
X137588143Y-88028937D01*
X137479293Y-88417781D01*
X137415373Y-88726765D01*
X137398228Y-88827076D01*
X137385227Y-88916063D01*
X137375782Y-89002212D01*
X137369299Y-89094008D01*
X137365187Y-89199937D01*
X137362856Y-89328484D01*
X137361714Y-89488135D01*
X137361677Y-89497372D01*
X136542294Y-89497372D01*
X136590891Y-88856867D01*
X136689778Y-88070398D01*
X136827106Y-87293550D01*
X137002178Y-86527521D01*
X137214299Y-85773508D01*
X137462773Y-85032708D01*
X137746905Y-84306318D01*
X138066000Y-83595535D01*
X138419363Y-82901557D01*
X138806297Y-82225580D01*
X139226109Y-81568802D01*
X139678101Y-80932419D01*
X140161579Y-80317629D01*
X140675848Y-79725629D01*
X141220212Y-79157617D01*
X141793976Y-78614788D01*
X142396444Y-78098341D01*
X143026921Y-77609473D01*
X143195317Y-77487054D01*
X143849989Y-77041911D01*
X144523448Y-76631714D01*
X145214361Y-76256801D01*
X145921395Y-75917510D01*
X146643214Y-75614181D01*
X147378486Y-75347150D01*
X148125877Y-75116758D01*
X148884053Y-74923341D01*
X149651679Y-74767239D01*
X150427424Y-74648790D01*
X151209952Y-74568332D01*
X151997929Y-74526204D01*
X152790023Y-74522745D01*
X153584900Y-74558292D01*
X154381225Y-74633184D01*
X154422957Y-74638198D01*
X155202225Y-74752834D01*
X155971914Y-74905877D01*
X156730767Y-75096581D01*
X157477528Y-75324197D01*
X158210940Y-75587977D01*
X158929748Y-75887173D01*
X159632695Y-76221036D01*
X160318525Y-76588819D01*
X160985981Y-76989772D01*
X161633808Y-77423148D01*
X162260749Y-77888200D01*
X162865548Y-78384177D01*
X163446948Y-78910333D01*
X164003694Y-79465919D01*
X164534530Y-80050187D01*
X165038198Y-80662389D01*
X165441486Y-81200635D01*
X165887427Y-81856404D01*
X166298314Y-82530798D01*
X166673815Y-83222510D01*
X167013594Y-83930235D01*
X167317316Y-84652667D01*
X167584646Y-85388500D01*
X167815250Y-86136430D01*
X168008793Y-86895149D01*
X168164941Y-87663353D01*
X168283358Y-88439736D01*
X168363710Y-89222991D01*
X168405662Y-90011814D01*
X168408879Y-90804899D01*
X168373027Y-91600940D01*
X168302369Y-92359625D01*
X168191309Y-93139725D01*
X168041519Y-93911319D01*
X167853654Y-94673059D01*
X167628370Y-95423594D01*
X167366324Y-96161577D01*
X167068171Y-96885658D01*
X166734568Y-97594488D01*
X166366170Y-98286717D01*
X165963634Y-98960998D01*
X165527616Y-99615980D01*
X165058771Y-100250314D01*
X164557756Y-100862651D01*
X164025226Y-101451643D01*
X163737891Y-101746428D01*
X163156201Y-102300184D01*
X162551203Y-102821660D01*
X161923842Y-103310334D01*
X161275066Y-103765682D01*
X160605821Y-104187181D01*
X159917054Y-104574309D01*
X159209709Y-104926541D01*
X158484735Y-105243354D01*
X157743078Y-105524226D01*
X156985683Y-105768633D01*
X156213497Y-105976052D01*
X155994194Y-106027559D01*
X155594707Y-106114016D01*
X155211862Y-106187196D01*
X154833522Y-106248969D01*
X154447554Y-106301205D01*
X154041822Y-106345775D01*
X153762437Y-106371462D01*
X153664858Y-106378222D01*
X153535716Y-106384739D01*
X153380981Y-106390900D01*
X153206626Y-106396597D01*
X153018622Y-106401718D01*
X152822940Y-106406153D01*
X152625553Y-106409792D01*
X152432433Y-106412525D01*
X152249550Y-106414242D01*
X152082877Y-106414831D01*
X151938385Y-106414184D01*
X151822046Y-106412189D01*
X151740845Y-106408803D01*
X151531364Y-106394892D01*
X151355599Y-106382849D01*
X151207304Y-106372168D01*
X151080233Y-106362342D01*
X150968141Y-106352865D01*
X150864783Y-106343229D01*
X150763912Y-106332929D01*
X150659283Y-106321457D01*
X150646998Y-106320071D01*
X150306628Y-106278682D01*
X149990135Y-106233703D01*
X149683327Y-106182718D01*
X149372013Y-106123310D01*
X149042003Y-106053063D01*
X148928630Y-106027559D01*
X148152261Y-105830579D01*
X147390506Y-105596491D01*
X146644290Y-105325808D01*
X145914539Y-105019042D01*
X145202178Y-104676705D01*
X144508133Y-104299307D01*
X143833330Y-103887361D01*
X143178694Y-103441379D01*
X142545150Y-102961873D01*
X141933624Y-102449353D01*
X141345042Y-101904332D01*
X141184027Y-101745522D01*
X140633080Y-101166682D01*
X140114577Y-100565033D01*
X139628960Y-99941815D01*
X139176671Y-99298269D01*
X138758153Y-98635635D01*
X138465352Y-98117181D01*
X150346678Y-98117181D01*
X150354401Y-98434515D01*
X150392489Y-98752162D01*
X150461996Y-99066939D01*
X150520812Y-99257759D01*
X150640315Y-99556236D01*
X150784810Y-99830685D01*
X150952322Y-100078850D01*
X151140878Y-100298473D01*
X151348505Y-100487299D01*
X151573228Y-100643069D01*
X151813073Y-100763528D01*
X151850931Y-100778682D01*
X152096578Y-100853640D01*
X152346896Y-100891181D01*
X152596527Y-100890783D01*
X152766214Y-100867992D01*
X153004408Y-100803193D01*
X153238926Y-100702406D01*
X153463044Y-100569564D01*
X153670043Y-100408594D01*
X153836837Y-100242141D01*
X154037313Y-99986175D01*
X154207069Y-99707276D01*
X154345502Y-99408887D01*
X154452004Y-99094455D01*
X154525969Y-98767423D01*
X154566792Y-98431236D01*
X154573865Y-98089339D01*
X154546583Y-97745175D01*
X154484340Y-97402190D01*
X154392885Y-97082380D01*
X154341396Y-96950238D01*
X154271886Y-96799478D01*
X154191099Y-96642937D01*
X154105778Y-96493449D01*
X154022666Y-96363850D01*
X153995064Y-96325182D01*
X153804851Y-96098931D01*
X153592360Y-95903496D01*
X153360493Y-95741344D01*
X153214580Y-95661694D01*
X153041670Y-95584414D01*
X152882082Y-95531939D01*
X152720820Y-95500777D01*
X152542889Y-95487435D01*
X152461412Y-95486305D01*
X152272279Y-95493334D01*
X152105979Y-95516748D01*
X151947518Y-95560039D01*
X151781900Y-95626699D01*
X151708245Y-95661694D01*
X151470141Y-95800743D01*
X151251888Y-95971951D01*
X151054538Y-96172133D01*
X150879141Y-96398104D01*
X150726750Y-96646680D01*
X150598416Y-96914677D01*
X150495190Y-97198910D01*
X150418124Y-97496195D01*
X150368269Y-97803346D01*
X150346678Y-98117181D01*
X138465352Y-98117181D01*
X138373846Y-97955155D01*
X138024195Y-97258068D01*
G37*
G36*
X168599551Y-84716165D02*
G01*
X168655852Y-84732298D01*
X168746710Y-84759244D01*
X168870298Y-84796440D01*
X169024790Y-84843325D01*
X169208359Y-84899336D01*
X169419179Y-84963911D01*
X169655422Y-85036489D01*
X169915262Y-85116507D01*
X170196872Y-85203402D01*
X170498426Y-85296614D01*
X170818097Y-85395579D01*
X171154058Y-85499736D01*
X171504483Y-85608522D01*
X171867545Y-85721376D01*
X172241417Y-85837735D01*
X172366013Y-85876545D01*
X172828427Y-86020667D01*
X173253907Y-86153409D01*
X173643773Y-86275193D01*
X173999342Y-86386440D01*
X174321933Y-86487575D01*
X174612866Y-86579018D01*
X174873458Y-86661192D01*
X175105029Y-86734518D01*
X175308896Y-86799421D01*
X175486380Y-86856320D01*
X175638797Y-86905640D01*
X175767467Y-86947801D01*
X175873709Y-86983227D01*
X175958840Y-87012339D01*
X176024181Y-87035559D01*
X176071049Y-87053311D01*
X176100762Y-87066016D01*
X176114641Y-87074096D01*
X176115681Y-87077188D01*
X176096628Y-87090146D01*
X176045818Y-87123382D01*
X175965229Y-87175629D01*
X175856838Y-87245623D01*
X175722622Y-87332099D01*
X175564557Y-87433790D01*
X175384621Y-87549433D01*
X175184790Y-87677762D01*
X174967042Y-87817511D01*
X174733354Y-87967416D01*
X174485702Y-88126210D01*
X174226063Y-88292630D01*
X173956415Y-88465410D01*
X173678734Y-88643284D01*
X173394998Y-88824987D01*
X173107183Y-89009254D01*
X172817266Y-89194821D01*
X172527225Y-89380421D01*
X172239035Y-89564789D01*
X171954675Y-89746661D01*
X171676121Y-89924770D01*
X171405350Y-90097853D01*
X171144340Y-90264643D01*
X170895066Y-90423875D01*
X170659506Y-90574284D01*
X170439637Y-90714606D01*
X170237437Y-90843574D01*
X170054881Y-90959923D01*
X169893947Y-91062389D01*
X169756612Y-91149706D01*
X169644852Y-91220609D01*
X169560646Y-91273832D01*
X169505969Y-91308111D01*
X169482799Y-91322180D01*
X169482265Y-91322437D01*
X169463913Y-91311325D01*
X169449485Y-91270973D01*
X169448366Y-91264963D01*
X169441649Y-91221317D01*
X169430278Y-91142087D01*
X169414587Y-91029798D01*
X169394910Y-90886974D01*
X169371583Y-90716139D01*
X169344940Y-90519817D01*
X169315315Y-90300532D01*
X169283044Y-90060809D01*
X169248460Y-89803172D01*
X169211899Y-89530145D01*
X169173694Y-89244252D01*
X169134182Y-88948018D01*
X169093695Y-88643967D01*
X169052570Y-88334623D01*
X169011140Y-88022510D01*
X168969740Y-87710153D01*
X168928704Y-87400075D01*
X168888368Y-87094801D01*
X168849066Y-86796856D01*
X168811133Y-86508763D01*
X168774902Y-86233047D01*
X168740709Y-85972231D01*
X168708889Y-85728841D01*
X168679775Y-85505400D01*
X168653703Y-85304433D01*
X168631007Y-85128463D01*
X168612022Y-84980016D01*
X168597083Y-84861615D01*
X168586523Y-84775784D01*
X168580678Y-84725048D01*
X168579633Y-84711407D01*
X168599551Y-84716165D01*
G37*
%TD*%
D10*
%TO.C,D1*%
X153924000Y-66548000D03*
D11*
X151384000Y-66548000D03*
%TD*%
D12*
%TO.C,D2*%
X132334000Y-79121000D03*
D11*
X131064000Y-81320705D03*
%TD*%
D13*
%TO.C,D3*%
X173812200Y-80365600D03*
D11*
X172542200Y-78165895D03*
%TD*%
D14*
%TO.C,D4*%
X134112000Y-103886000D03*
D11*
X135744681Y-105831753D03*
%TD*%
D15*
%TO.C,D5*%
X170053000Y-104394000D03*
D11*
X171509884Y-102313354D03*
%TD*%
D16*
%TO.C,BT1*%
X141859000Y-89408000D03*
X162941000Y-89408000D03*
%TD*%
D17*
%TO.C,SW1*%
X161376347Y-68292000D03*
X168477755Y-72392000D03*
D18*
X163195000Y-69342000D03*
D19*
X164927051Y-70342000D03*
X166659102Y-71342000D03*
%TD*%
M02*
