M48
; DRILL file {KiCad (6.0.4)} date Fri Jan 19 16:04:23 2024
; FORMAT={-:-/ absolute / inch / decimal}
; #@! TF.CreationDate,2024-01-19T16:04:23-08:00
; #@! TF.GenerationSoftware,Kicad,Pcbnew,(6.0.4)
; #@! TF.FileFunction,Plated,1,2,PTH
FMAT,2
INCH
; #@! TA.AperFunction,Plated,PTH,ViaDrill
T1C0.0157
; #@! TA.AperFunction,Plated,PTH,ComponentDrill
T2C0.0354
; #@! TA.AperFunction,Plated,PTH,ComponentDrill
T3C0.0394
; #@! TA.AperFunction,Plated,PTH,ComponentDrill
T4C0.0650
%
G90
G05
T1
X5.66Y-3.38
X5.77Y-2.945
X6.43Y-2.475
X6.72Y-2.58
X7.065Y-2.92
T2
X5.58Y-2.8416
X5.63Y-2.755
X5.7Y-3.73
X5.7643Y-3.8066
X6.38Y-2.26
X6.48Y-2.26
X7.1Y-3.785
X7.1629Y-3.7073
X7.213Y-2.7174
X7.263Y-2.804
T3
X6.727Y-2.475
X6.8293Y-2.5341
X6.9316Y-2.5931
T4
X6.005Y-3.16
X6.835Y-3.16
T0
M30
