%TF.GenerationSoftware,KiCad,Pcbnew,(6.0.4)*%
%TF.CreationDate,2024-01-19T16:04:25-08:00*%
%TF.ProjectId,Alpenglow_SunnySurprise_PCB,416c7065-6e67-46c6-9f77-5f53756e6e79,rev?*%
%TF.SameCoordinates,Original*%
%TF.FileFunction,Other,Comment*%
%FSLAX46Y46*%
G04 Gerber Fmt 4.6, Leading zero omitted, Abs format (unit mm)*
G04 Created by KiCad (PCBNEW (6.0.4)) date 2024-01-19 16:04:25*
%MOMM*%
%LPD*%
G01*
G04 APERTURE LIST*
%ADD10C,0.200000*%
G04 APERTURE END LIST*
D10*
X197551428Y-58473285D02*
X197980000Y-58616142D01*
X198694285Y-58616142D01*
X198980000Y-58473285D01*
X199122857Y-58330428D01*
X199265714Y-58044714D01*
X199265714Y-57759000D01*
X199122857Y-57473285D01*
X198980000Y-57330428D01*
X198694285Y-57187571D01*
X198122857Y-57044714D01*
X197837142Y-56901857D01*
X197694285Y-56759000D01*
X197551428Y-56473285D01*
X197551428Y-56187571D01*
X197694285Y-55901857D01*
X197837142Y-55759000D01*
X198122857Y-55616142D01*
X198837142Y-55616142D01*
X199265714Y-55759000D01*
X201837142Y-56616142D02*
X201837142Y-58616142D01*
X200551428Y-56616142D02*
X200551428Y-58187571D01*
X200694285Y-58473285D01*
X200980000Y-58616142D01*
X201408571Y-58616142D01*
X201694285Y-58473285D01*
X201837142Y-58330428D01*
X203265714Y-56616142D02*
X203265714Y-58616142D01*
X203265714Y-56901857D02*
X203408571Y-56759000D01*
X203694285Y-56616142D01*
X204122857Y-56616142D01*
X204408571Y-56759000D01*
X204551428Y-57044714D01*
X204551428Y-58616142D01*
X205980000Y-56616142D02*
X205980000Y-58616142D01*
X205980000Y-56901857D02*
X206122857Y-56759000D01*
X206408571Y-56616142D01*
X206837142Y-56616142D01*
X207122857Y-56759000D01*
X207265714Y-57044714D01*
X207265714Y-58616142D01*
X208408571Y-56616142D02*
X209122857Y-58616142D01*
X209837142Y-56616142D02*
X209122857Y-58616142D01*
X208837142Y-59330428D01*
X208694285Y-59473285D01*
X208408571Y-59616142D01*
X213122857Y-58473285D02*
X213551428Y-58616142D01*
X214265714Y-58616142D01*
X214551428Y-58473285D01*
X214694285Y-58330428D01*
X214837142Y-58044714D01*
X214837142Y-57759000D01*
X214694285Y-57473285D01*
X214551428Y-57330428D01*
X214265714Y-57187571D01*
X213694285Y-57044714D01*
X213408571Y-56901857D01*
X213265714Y-56759000D01*
X213122857Y-56473285D01*
X213122857Y-56187571D01*
X213265714Y-55901857D01*
X213408571Y-55759000D01*
X213694285Y-55616142D01*
X214408571Y-55616142D01*
X214837142Y-55759000D01*
X217408571Y-56616142D02*
X217408571Y-58616142D01*
X216122857Y-56616142D02*
X216122857Y-58187571D01*
X216265714Y-58473285D01*
X216551428Y-58616142D01*
X216980000Y-58616142D01*
X217265714Y-58473285D01*
X217408571Y-58330428D01*
X218837142Y-58616142D02*
X218837142Y-56616142D01*
X218837142Y-57187571D02*
X218980000Y-56901857D01*
X219122857Y-56759000D01*
X219408571Y-56616142D01*
X219694285Y-56616142D01*
X220694285Y-56616142D02*
X220694285Y-59616142D01*
X220694285Y-56759000D02*
X220980000Y-56616142D01*
X221551428Y-56616142D01*
X221837142Y-56759000D01*
X221980000Y-56901857D01*
X222122857Y-57187571D01*
X222122857Y-58044714D01*
X221980000Y-58330428D01*
X221837142Y-58473285D01*
X221551428Y-58616142D01*
X220980000Y-58616142D01*
X220694285Y-58473285D01*
X223408571Y-58616142D02*
X223408571Y-56616142D01*
X223408571Y-57187571D02*
X223551428Y-56901857D01*
X223694285Y-56759000D01*
X223980000Y-56616142D01*
X224265714Y-56616142D01*
X225265714Y-58616142D02*
X225265714Y-56616142D01*
X225265714Y-55616142D02*
X225122857Y-55759000D01*
X225265714Y-55901857D01*
X225408571Y-55759000D01*
X225265714Y-55616142D01*
X225265714Y-55901857D01*
X226551428Y-58473285D02*
X226837142Y-58616142D01*
X227408571Y-58616142D01*
X227694285Y-58473285D01*
X227837142Y-58187571D01*
X227837142Y-58044714D01*
X227694285Y-57759000D01*
X227408571Y-57616142D01*
X226980000Y-57616142D01*
X226694285Y-57473285D01*
X226551428Y-57187571D01*
X226551428Y-57044714D01*
X226694285Y-56759000D01*
X226980000Y-56616142D01*
X227408571Y-56616142D01*
X227694285Y-56759000D01*
X230265714Y-58473285D02*
X229980000Y-58616142D01*
X229408571Y-58616142D01*
X229122857Y-58473285D01*
X228980000Y-58187571D01*
X228980000Y-57044714D01*
X229122857Y-56759000D01*
X229408571Y-56616142D01*
X229980000Y-56616142D01*
X230265714Y-56759000D01*
X230408571Y-57044714D01*
X230408571Y-57330428D01*
X228980000Y-57616142D01*
X199408571Y-63446142D02*
X198408571Y-62017571D01*
X197694285Y-63446142D02*
X197694285Y-60446142D01*
X198837142Y-60446142D01*
X199122857Y-60589000D01*
X199265714Y-60731857D01*
X199408571Y-61017571D01*
X199408571Y-61446142D01*
X199265714Y-61731857D01*
X199122857Y-61874714D01*
X198837142Y-62017571D01*
X197694285Y-62017571D01*
X201837142Y-63303285D02*
X201551428Y-63446142D01*
X200980000Y-63446142D01*
X200694285Y-63303285D01*
X200551428Y-63017571D01*
X200551428Y-61874714D01*
X200694285Y-61589000D01*
X200980000Y-61446142D01*
X201551428Y-61446142D01*
X201837142Y-61589000D01*
X201980000Y-61874714D01*
X201980000Y-62160428D01*
X200551428Y-62446142D01*
X202980000Y-61446142D02*
X203694285Y-63446142D01*
X204408571Y-61446142D01*
X207694285Y-60731857D02*
X207837142Y-60589000D01*
X208122857Y-60446142D01*
X208837142Y-60446142D01*
X209122857Y-60589000D01*
X209265714Y-60731857D01*
X209408571Y-61017571D01*
X209408571Y-61303285D01*
X209265714Y-61731857D01*
X207551428Y-63446142D01*
X209408571Y-63446142D01*
X210694285Y-63160428D02*
X210837142Y-63303285D01*
X210694285Y-63446142D01*
X210551428Y-63303285D01*
X210694285Y-63160428D01*
X210694285Y-63446142D01*
X212694285Y-60446142D02*
X212980000Y-60446142D01*
X213265714Y-60589000D01*
X213408571Y-60731857D01*
X213551428Y-61017571D01*
X213694285Y-61589000D01*
X213694285Y-62303285D01*
X213551428Y-62874714D01*
X213408571Y-63160428D01*
X213265714Y-63303285D01*
X212980000Y-63446142D01*
X212694285Y-63446142D01*
X212408571Y-63303285D01*
X212265714Y-63160428D01*
X212122857Y-62874714D01*
X211980000Y-62303285D01*
X211980000Y-61589000D01*
X212122857Y-61017571D01*
X212265714Y-60731857D01*
X212408571Y-60589000D01*
X212694285Y-60446142D01*
X197694285Y-73106142D02*
X197694285Y-70106142D01*
X198837142Y-70106142D01*
X199122857Y-70249000D01*
X199265714Y-70391857D01*
X199408571Y-70677571D01*
X199408571Y-71106142D01*
X199265714Y-71391857D01*
X199122857Y-71534714D01*
X198837142Y-71677571D01*
X197694285Y-71677571D01*
X202408571Y-72820428D02*
X202265714Y-72963285D01*
X201837142Y-73106142D01*
X201551428Y-73106142D01*
X201122857Y-72963285D01*
X200837142Y-72677571D01*
X200694285Y-72391857D01*
X200551428Y-71820428D01*
X200551428Y-71391857D01*
X200694285Y-70820428D01*
X200837142Y-70534714D01*
X201122857Y-70249000D01*
X201551428Y-70106142D01*
X201837142Y-70106142D01*
X202265714Y-70249000D01*
X202408571Y-70391857D01*
X204694285Y-71534714D02*
X205122857Y-71677571D01*
X205265714Y-71820428D01*
X205408571Y-72106142D01*
X205408571Y-72534714D01*
X205265714Y-72820428D01*
X205122857Y-72963285D01*
X204837142Y-73106142D01*
X203694285Y-73106142D01*
X203694285Y-70106142D01*
X204694285Y-70106142D01*
X204980000Y-70249000D01*
X205122857Y-70391857D01*
X205265714Y-70677571D01*
X205265714Y-70963285D01*
X205122857Y-71249000D01*
X204980000Y-71391857D01*
X204694285Y-71534714D01*
X203694285Y-71534714D01*
X208837142Y-72963285D02*
X209265714Y-73106142D01*
X209980000Y-73106142D01*
X210265714Y-72963285D01*
X210408571Y-72820428D01*
X210551428Y-72534714D01*
X210551428Y-72249000D01*
X210408571Y-71963285D01*
X210265714Y-71820428D01*
X209980000Y-71677571D01*
X209408571Y-71534714D01*
X209122857Y-71391857D01*
X208980000Y-71249000D01*
X208837142Y-70963285D01*
X208837142Y-70677571D01*
X208980000Y-70391857D01*
X209122857Y-70249000D01*
X209408571Y-70106142D01*
X210122857Y-70106142D01*
X210551428Y-70249000D01*
X211837142Y-71106142D02*
X211837142Y-74106142D01*
X211837142Y-71249000D02*
X212122857Y-71106142D01*
X212694285Y-71106142D01*
X212980000Y-71249000D01*
X213122857Y-71391857D01*
X213265714Y-71677571D01*
X213265714Y-72534714D01*
X213122857Y-72820428D01*
X212980000Y-72963285D01*
X212694285Y-73106142D01*
X212122857Y-73106142D01*
X211837142Y-72963285D01*
X215694285Y-72963285D02*
X215408571Y-73106142D01*
X214837142Y-73106142D01*
X214551428Y-72963285D01*
X214408571Y-72677571D01*
X214408571Y-71534714D01*
X214551428Y-71249000D01*
X214837142Y-71106142D01*
X215408571Y-71106142D01*
X215694285Y-71249000D01*
X215837142Y-71534714D01*
X215837142Y-71820428D01*
X214408571Y-72106142D01*
X218408571Y-72963285D02*
X218122857Y-73106142D01*
X217551428Y-73106142D01*
X217265714Y-72963285D01*
X217122857Y-72820428D01*
X216980000Y-72534714D01*
X216980000Y-71677571D01*
X217122857Y-71391857D01*
X217265714Y-71249000D01*
X217551428Y-71106142D01*
X218122857Y-71106142D01*
X218408571Y-71249000D01*
X219694285Y-73106142D02*
X219694285Y-71106142D01*
X219694285Y-70106142D02*
X219551428Y-70249000D01*
X219694285Y-70391857D01*
X219837142Y-70249000D01*
X219694285Y-70106142D01*
X219694285Y-70391857D01*
X220694285Y-71106142D02*
X221837142Y-71106142D01*
X221122857Y-73106142D02*
X221122857Y-70534714D01*
X221265714Y-70249000D01*
X221551428Y-70106142D01*
X221837142Y-70106142D01*
X222837142Y-73106142D02*
X222837142Y-71106142D01*
X222837142Y-70106142D02*
X222694285Y-70249000D01*
X222837142Y-70391857D01*
X222980000Y-70249000D01*
X222837142Y-70106142D01*
X222837142Y-70391857D01*
X225551428Y-72963285D02*
X225265714Y-73106142D01*
X224694285Y-73106142D01*
X224408571Y-72963285D01*
X224265714Y-72820428D01*
X224122857Y-72534714D01*
X224122857Y-71677571D01*
X224265714Y-71391857D01*
X224408571Y-71249000D01*
X224694285Y-71106142D01*
X225265714Y-71106142D01*
X225551428Y-71249000D01*
X228122857Y-73106142D02*
X228122857Y-71534714D01*
X227980000Y-71249000D01*
X227694285Y-71106142D01*
X227122857Y-71106142D01*
X226837142Y-71249000D01*
X228122857Y-72963285D02*
X227837142Y-73106142D01*
X227122857Y-73106142D01*
X226837142Y-72963285D01*
X226694285Y-72677571D01*
X226694285Y-72391857D01*
X226837142Y-72106142D01*
X227122857Y-71963285D01*
X227837142Y-71963285D01*
X228122857Y-71820428D01*
X229122857Y-71106142D02*
X230265714Y-71106142D01*
X229551428Y-70106142D02*
X229551428Y-72677571D01*
X229694285Y-72963285D01*
X229980000Y-73106142D01*
X230265714Y-73106142D01*
X231265714Y-73106142D02*
X231265714Y-71106142D01*
X231265714Y-70106142D02*
X231122857Y-70249000D01*
X231265714Y-70391857D01*
X231408571Y-70249000D01*
X231265714Y-70106142D01*
X231265714Y-70391857D01*
X233122857Y-73106142D02*
X232837142Y-72963285D01*
X232694285Y-72820428D01*
X232551428Y-72534714D01*
X232551428Y-71677571D01*
X232694285Y-71391857D01*
X232837142Y-71249000D01*
X233122857Y-71106142D01*
X233551428Y-71106142D01*
X233837142Y-71249000D01*
X233980000Y-71391857D01*
X234122857Y-71677571D01*
X234122857Y-72534714D01*
X233980000Y-72820428D01*
X233837142Y-72963285D01*
X233551428Y-73106142D01*
X233122857Y-73106142D01*
X235408571Y-71106142D02*
X235408571Y-73106142D01*
X235408571Y-71391857D02*
X235551428Y-71249000D01*
X235837142Y-71106142D01*
X236265714Y-71106142D01*
X236551428Y-71249000D01*
X236694285Y-71534714D01*
X236694285Y-73106142D01*
X237980000Y-72963285D02*
X238265714Y-73106142D01*
X238837142Y-73106142D01*
X239122857Y-72963285D01*
X239265714Y-72677571D01*
X239265714Y-72534714D01*
X239122857Y-72249000D01*
X238837142Y-72106142D01*
X238408571Y-72106142D01*
X238122857Y-71963285D01*
X237980000Y-71677571D01*
X237980000Y-71534714D01*
X238122857Y-71249000D01*
X238408571Y-71106142D01*
X238837142Y-71106142D01*
X239122857Y-71249000D01*
X240551428Y-72820428D02*
X240694285Y-72963285D01*
X240551428Y-73106142D01*
X240408571Y-72963285D01*
X240551428Y-72820428D01*
X240551428Y-73106142D01*
X240551428Y-71249000D02*
X240694285Y-71391857D01*
X240551428Y-71534714D01*
X240408571Y-71391857D01*
X240551428Y-71249000D01*
X240551428Y-71534714D01*
X199265714Y-77936142D02*
X197551428Y-77936142D01*
X198408571Y-77936142D02*
X198408571Y-74936142D01*
X198122857Y-75364714D01*
X197837142Y-75650428D01*
X197551428Y-75793285D01*
X200551428Y-77650428D02*
X200694285Y-77793285D01*
X200551428Y-77936142D01*
X200408571Y-77793285D01*
X200551428Y-77650428D01*
X200551428Y-77936142D01*
X205837142Y-77936142D02*
X204122857Y-77936142D01*
X204980000Y-77936142D02*
X204980000Y-74936142D01*
X204694285Y-75364714D01*
X204408571Y-75650428D01*
X204122857Y-75793285D01*
X209837142Y-77936142D02*
X209551428Y-77793285D01*
X209408571Y-77650428D01*
X209265714Y-77364714D01*
X209265714Y-76507571D01*
X209408571Y-76221857D01*
X209551428Y-76079000D01*
X209837142Y-75936142D01*
X210265714Y-75936142D01*
X210551428Y-76079000D01*
X210694285Y-76221857D01*
X210837142Y-76507571D01*
X210837142Y-77364714D01*
X210694285Y-77650428D01*
X210551428Y-77793285D01*
X210265714Y-77936142D01*
X209837142Y-77936142D01*
X211837142Y-75936142D02*
X213408571Y-75936142D01*
X211837142Y-77936142D01*
X213408571Y-77936142D01*
X218551428Y-77650428D02*
X218408571Y-77793285D01*
X217980000Y-77936142D01*
X217694285Y-77936142D01*
X217265714Y-77793285D01*
X216980000Y-77507571D01*
X216837142Y-77221857D01*
X216694285Y-76650428D01*
X216694285Y-76221857D01*
X216837142Y-75650428D01*
X216980000Y-75364714D01*
X217265714Y-75079000D01*
X217694285Y-74936142D01*
X217980000Y-74936142D01*
X218408571Y-75079000D01*
X218551428Y-75221857D01*
X221122857Y-75936142D02*
X221122857Y-77936142D01*
X219837142Y-75936142D02*
X219837142Y-77507571D01*
X219980000Y-77793285D01*
X220265714Y-77936142D01*
X220694285Y-77936142D01*
X220980000Y-77793285D01*
X221122857Y-77650428D01*
X222694285Y-77793285D02*
X222694285Y-77936142D01*
X222551428Y-78221857D01*
X222408571Y-78364714D01*
X227265714Y-76364714D02*
X226265714Y-76364714D01*
X226265714Y-77936142D02*
X226265714Y-74936142D01*
X227694285Y-74936142D01*
X230551428Y-77936142D02*
X229551428Y-76507571D01*
X228837142Y-77936142D02*
X228837142Y-74936142D01*
X229980000Y-74936142D01*
X230265714Y-75079000D01*
X230408571Y-75221857D01*
X230551428Y-75507571D01*
X230551428Y-75936142D01*
X230408571Y-76221857D01*
X230265714Y-76364714D01*
X229980000Y-76507571D01*
X228837142Y-76507571D01*
X231837142Y-76793285D02*
X234122857Y-76793285D01*
X236837142Y-75936142D02*
X236837142Y-77936142D01*
X236122857Y-74793285D02*
X235408571Y-76936142D01*
X237265714Y-76936142D01*
X197551428Y-80051857D02*
X197694285Y-79909000D01*
X197980000Y-79766142D01*
X198694285Y-79766142D01*
X198980000Y-79909000D01*
X199122857Y-80051857D01*
X199265714Y-80337571D01*
X199265714Y-80623285D01*
X199122857Y-81051857D01*
X197408571Y-82766142D01*
X199265714Y-82766142D01*
X200551428Y-82480428D02*
X200694285Y-82623285D01*
X200551428Y-82766142D01*
X200408571Y-82623285D01*
X200551428Y-82480428D01*
X200551428Y-82766142D01*
X204122857Y-80051857D02*
X204265714Y-79909000D01*
X204551428Y-79766142D01*
X205265714Y-79766142D01*
X205551428Y-79909000D01*
X205694285Y-80051857D01*
X205837142Y-80337571D01*
X205837142Y-80623285D01*
X205694285Y-81051857D01*
X203980000Y-82766142D01*
X205837142Y-82766142D01*
X209837142Y-82766142D02*
X209551428Y-82623285D01*
X209408571Y-82337571D01*
X209408571Y-79766142D01*
X212265714Y-82766142D02*
X212265714Y-81194714D01*
X212122857Y-80909000D01*
X211837142Y-80766142D01*
X211265714Y-80766142D01*
X210980000Y-80909000D01*
X212265714Y-82623285D02*
X211980000Y-82766142D01*
X211265714Y-82766142D01*
X210980000Y-82623285D01*
X210837142Y-82337571D01*
X210837142Y-82051857D01*
X210980000Y-81766142D01*
X211265714Y-81623285D01*
X211980000Y-81623285D01*
X212265714Y-81480428D01*
X213408571Y-80766142D02*
X214122857Y-82766142D01*
X214837142Y-80766142D02*
X214122857Y-82766142D01*
X213837142Y-83480428D01*
X213694285Y-83623285D01*
X213408571Y-83766142D01*
X217122857Y-82623285D02*
X216837142Y-82766142D01*
X216265714Y-82766142D01*
X215980000Y-82623285D01*
X215837142Y-82337571D01*
X215837142Y-81194714D01*
X215980000Y-80909000D01*
X216265714Y-80766142D01*
X216837142Y-80766142D01*
X217122857Y-80909000D01*
X217265714Y-81194714D01*
X217265714Y-81480428D01*
X215837142Y-81766142D01*
X218551428Y-82766142D02*
X218551428Y-80766142D01*
X218551428Y-81337571D02*
X218694285Y-81051857D01*
X218837142Y-80909000D01*
X219122857Y-80766142D01*
X219408571Y-80766142D01*
X220265714Y-82623285D02*
X220551428Y-82766142D01*
X221122857Y-82766142D01*
X221408571Y-82623285D01*
X221551428Y-82337571D01*
X221551428Y-82194714D01*
X221408571Y-81909000D01*
X221122857Y-81766142D01*
X220694285Y-81766142D01*
X220408571Y-81623285D01*
X220265714Y-81337571D01*
X220265714Y-81194714D01*
X220408571Y-80909000D01*
X220694285Y-80766142D01*
X221122857Y-80766142D01*
X221408571Y-80909000D01*
X197408571Y-84596142D02*
X199265714Y-84596142D01*
X198265714Y-85739000D01*
X198694285Y-85739000D01*
X198980000Y-85881857D01*
X199122857Y-86024714D01*
X199265714Y-86310428D01*
X199265714Y-87024714D01*
X199122857Y-87310428D01*
X198980000Y-87453285D01*
X198694285Y-87596142D01*
X197837142Y-87596142D01*
X197551428Y-87453285D01*
X197408571Y-87310428D01*
X200551428Y-87310428D02*
X200694285Y-87453285D01*
X200551428Y-87596142D01*
X200408571Y-87453285D01*
X200551428Y-87310428D01*
X200551428Y-87596142D01*
X204837142Y-84596142D02*
X205122857Y-84596142D01*
X205408571Y-84739000D01*
X205551428Y-84881857D01*
X205694285Y-85167571D01*
X205837142Y-85739000D01*
X205837142Y-86453285D01*
X205694285Y-87024714D01*
X205551428Y-87310428D01*
X205408571Y-87453285D01*
X205122857Y-87596142D01*
X204837142Y-87596142D01*
X204551428Y-87453285D01*
X204408571Y-87310428D01*
X204265714Y-87024714D01*
X204122857Y-86453285D01*
X204122857Y-85739000D01*
X204265714Y-85167571D01*
X204408571Y-84881857D01*
X204551428Y-84739000D01*
X204837142Y-84596142D01*
X207122857Y-87310428D02*
X207265714Y-87453285D01*
X207122857Y-87596142D01*
X206980000Y-87453285D01*
X207122857Y-87310428D01*
X207122857Y-87596142D01*
X209122857Y-84596142D02*
X209408571Y-84596142D01*
X209694285Y-84739000D01*
X209837142Y-84881857D01*
X209980000Y-85167571D01*
X210122857Y-85739000D01*
X210122857Y-86453285D01*
X209980000Y-87024714D01*
X209837142Y-87310428D01*
X209694285Y-87453285D01*
X209408571Y-87596142D01*
X209122857Y-87596142D01*
X208837142Y-87453285D01*
X208694285Y-87310428D01*
X208551428Y-87024714D01*
X208408571Y-86453285D01*
X208408571Y-85739000D01*
X208551428Y-85167571D01*
X208694285Y-84881857D01*
X208837142Y-84739000D01*
X209122857Y-84596142D01*
X212694285Y-84596142D02*
X212122857Y-84596142D01*
X211837142Y-84739000D01*
X211694285Y-84881857D01*
X211408571Y-85310428D01*
X211265714Y-85881857D01*
X211265714Y-87024714D01*
X211408571Y-87310428D01*
X211551428Y-87453285D01*
X211837142Y-87596142D01*
X212408571Y-87596142D01*
X212694285Y-87453285D01*
X212837142Y-87310428D01*
X212980000Y-87024714D01*
X212980000Y-86310428D01*
X212837142Y-86024714D01*
X212694285Y-85881857D01*
X212408571Y-85739000D01*
X211837142Y-85739000D01*
X211551428Y-85881857D01*
X211408571Y-86024714D01*
X211265714Y-86310428D01*
X213980000Y-84596142D02*
X215837142Y-84596142D01*
X214837142Y-85739000D01*
X215265714Y-85739000D01*
X215551428Y-85881857D01*
X215694285Y-86024714D01*
X215837142Y-86310428D01*
X215837142Y-87024714D01*
X215694285Y-87310428D01*
X215551428Y-87453285D01*
X215265714Y-87596142D01*
X214408571Y-87596142D01*
X214122857Y-87453285D01*
X213980000Y-87310428D01*
X219408571Y-87596142D02*
X219408571Y-85596142D01*
X219408571Y-84596142D02*
X219265714Y-84739000D01*
X219408571Y-84881857D01*
X219551428Y-84739000D01*
X219408571Y-84596142D01*
X219408571Y-84881857D01*
X220837142Y-85596142D02*
X220837142Y-87596142D01*
X220837142Y-85881857D02*
X220980000Y-85739000D01*
X221265714Y-85596142D01*
X221694285Y-85596142D01*
X221980000Y-85739000D01*
X222122857Y-86024714D01*
X222122857Y-87596142D01*
X224837142Y-87453285D02*
X224551428Y-87596142D01*
X223980000Y-87596142D01*
X223694285Y-87453285D01*
X223551428Y-87310428D01*
X223408571Y-87024714D01*
X223408571Y-86167571D01*
X223551428Y-85881857D01*
X223694285Y-85739000D01*
X223980000Y-85596142D01*
X224551428Y-85596142D01*
X224837142Y-85739000D01*
X226122857Y-87596142D02*
X226122857Y-84596142D01*
X227408571Y-87596142D02*
X227408571Y-86024714D01*
X227265714Y-85739000D01*
X226980000Y-85596142D01*
X226551428Y-85596142D01*
X226265714Y-85739000D01*
X226122857Y-85881857D01*
X233265714Y-84453285D02*
X230694285Y-88310428D01*
X238122857Y-87596142D02*
X236408571Y-87596142D01*
X237265714Y-87596142D02*
X237265714Y-84596142D01*
X236980000Y-85024714D01*
X236694285Y-85310428D01*
X236408571Y-85453285D01*
X239408571Y-87310428D02*
X239551428Y-87453285D01*
X239408571Y-87596142D01*
X239265714Y-87453285D01*
X239408571Y-87310428D01*
X239408571Y-87596142D01*
X242122857Y-84596142D02*
X241551428Y-84596142D01*
X241265714Y-84739000D01*
X241122857Y-84881857D01*
X240837142Y-85310428D01*
X240694285Y-85881857D01*
X240694285Y-87024714D01*
X240837142Y-87310428D01*
X240980000Y-87453285D01*
X241265714Y-87596142D01*
X241837142Y-87596142D01*
X242122857Y-87453285D01*
X242265714Y-87310428D01*
X242408571Y-87024714D01*
X242408571Y-86310428D01*
X242265714Y-86024714D01*
X242122857Y-85881857D01*
X241837142Y-85739000D01*
X241265714Y-85739000D01*
X240980000Y-85881857D01*
X240837142Y-86024714D01*
X240694285Y-86310428D01*
X243694285Y-87596142D02*
X243694285Y-85596142D01*
X243694285Y-85881857D02*
X243837142Y-85739000D01*
X244122857Y-85596142D01*
X244551428Y-85596142D01*
X244837142Y-85739000D01*
X244980000Y-86024714D01*
X244980000Y-87596142D01*
X244980000Y-86024714D02*
X245122857Y-85739000D01*
X245408571Y-85596142D01*
X245837142Y-85596142D01*
X246122857Y-85739000D01*
X246265714Y-86024714D01*
X246265714Y-87596142D01*
X247694285Y-87596142D02*
X247694285Y-85596142D01*
X247694285Y-85881857D02*
X247837142Y-85739000D01*
X248122857Y-85596142D01*
X248551428Y-85596142D01*
X248837142Y-85739000D01*
X248980000Y-86024714D01*
X248980000Y-87596142D01*
X248980000Y-86024714D02*
X249122857Y-85739000D01*
X249408571Y-85596142D01*
X249837142Y-85596142D01*
X250122857Y-85739000D01*
X250265714Y-86024714D01*
X250265714Y-87596142D01*
X253551428Y-85596142D02*
X254694285Y-85596142D01*
X253980000Y-84596142D02*
X253980000Y-87167571D01*
X254122857Y-87453285D01*
X254408571Y-87596142D01*
X254694285Y-87596142D01*
X255694285Y-87596142D02*
X255694285Y-84596142D01*
X256980000Y-87596142D02*
X256980000Y-86024714D01*
X256837142Y-85739000D01*
X256551428Y-85596142D01*
X256122857Y-85596142D01*
X255837142Y-85739000D01*
X255694285Y-85881857D01*
X258408571Y-87596142D02*
X258408571Y-85596142D01*
X258408571Y-84596142D02*
X258265714Y-84739000D01*
X258408571Y-84881857D01*
X258551428Y-84739000D01*
X258408571Y-84596142D01*
X258408571Y-84881857D01*
X261122857Y-87453285D02*
X260837142Y-87596142D01*
X260265714Y-87596142D01*
X259980000Y-87453285D01*
X259837142Y-87310428D01*
X259694285Y-87024714D01*
X259694285Y-86167571D01*
X259837142Y-85881857D01*
X259980000Y-85739000D01*
X260265714Y-85596142D01*
X260837142Y-85596142D01*
X261122857Y-85739000D01*
X262408571Y-87596142D02*
X262408571Y-84596142D01*
X262694285Y-86453285D02*
X263551428Y-87596142D01*
X263551428Y-85596142D02*
X262408571Y-86739000D01*
X198980000Y-90426142D02*
X198980000Y-92426142D01*
X198265714Y-89283285D02*
X197551428Y-91426142D01*
X199408571Y-91426142D01*
X200551428Y-92140428D02*
X200694285Y-92283285D01*
X200551428Y-92426142D01*
X200408571Y-92283285D01*
X200551428Y-92140428D01*
X200551428Y-92426142D01*
X204122857Y-92283285D02*
X204551428Y-92426142D01*
X205265714Y-92426142D01*
X205551428Y-92283285D01*
X205694285Y-92140428D01*
X205837142Y-91854714D01*
X205837142Y-91569000D01*
X205694285Y-91283285D01*
X205551428Y-91140428D01*
X205265714Y-90997571D01*
X204694285Y-90854714D01*
X204408571Y-90711857D01*
X204265714Y-90569000D01*
X204122857Y-90283285D01*
X204122857Y-89997571D01*
X204265714Y-89711857D01*
X204408571Y-89569000D01*
X204694285Y-89426142D01*
X205408571Y-89426142D01*
X205837142Y-89569000D01*
X207551428Y-92426142D02*
X207265714Y-92283285D01*
X207122857Y-92140428D01*
X206980000Y-91854714D01*
X206980000Y-90997571D01*
X207122857Y-90711857D01*
X207265714Y-90569000D01*
X207551428Y-90426142D01*
X207980000Y-90426142D01*
X208265714Y-90569000D01*
X208408571Y-90711857D01*
X208551428Y-90997571D01*
X208551428Y-91854714D01*
X208408571Y-92140428D01*
X208265714Y-92283285D01*
X207980000Y-92426142D01*
X207551428Y-92426142D01*
X210265714Y-92426142D02*
X209980000Y-92283285D01*
X209837142Y-91997571D01*
X209837142Y-89426142D01*
X212694285Y-92426142D02*
X212694285Y-89426142D01*
X212694285Y-92283285D02*
X212408571Y-92426142D01*
X211837142Y-92426142D01*
X211551428Y-92283285D01*
X211408571Y-92140428D01*
X211265714Y-91854714D01*
X211265714Y-90997571D01*
X211408571Y-90711857D01*
X211551428Y-90569000D01*
X211837142Y-90426142D01*
X212408571Y-90426142D01*
X212694285Y-90569000D01*
X215265714Y-92283285D02*
X214980000Y-92426142D01*
X214408571Y-92426142D01*
X214122857Y-92283285D01*
X213980000Y-91997571D01*
X213980000Y-90854714D01*
X214122857Y-90569000D01*
X214408571Y-90426142D01*
X214980000Y-90426142D01*
X215265714Y-90569000D01*
X215408571Y-90854714D01*
X215408571Y-91140428D01*
X213980000Y-91426142D01*
X216694285Y-92426142D02*
X216694285Y-90426142D01*
X216694285Y-90997571D02*
X216837142Y-90711857D01*
X216980000Y-90569000D01*
X217265714Y-90426142D01*
X217551428Y-90426142D01*
X218551428Y-92426142D02*
X218551428Y-90426142D01*
X218551428Y-90711857D02*
X218694285Y-90569000D01*
X218980000Y-90426142D01*
X219408571Y-90426142D01*
X219694285Y-90569000D01*
X219837142Y-90854714D01*
X219837142Y-92426142D01*
X219837142Y-90854714D02*
X219980000Y-90569000D01*
X220265714Y-90426142D01*
X220694285Y-90426142D01*
X220980000Y-90569000D01*
X221122857Y-90854714D01*
X221122857Y-92426142D01*
X223837142Y-92426142D02*
X223837142Y-90854714D01*
X223694285Y-90569000D01*
X223408571Y-90426142D01*
X222837142Y-90426142D01*
X222551428Y-90569000D01*
X223837142Y-92283285D02*
X223551428Y-92426142D01*
X222837142Y-92426142D01*
X222551428Y-92283285D01*
X222408571Y-91997571D01*
X222408571Y-91711857D01*
X222551428Y-91426142D01*
X222837142Y-91283285D01*
X223551428Y-91283285D01*
X223837142Y-91140428D01*
X225122857Y-92283285D02*
X225408571Y-92426142D01*
X225980000Y-92426142D01*
X226265714Y-92283285D01*
X226408571Y-91997571D01*
X226408571Y-91854714D01*
X226265714Y-91569000D01*
X225980000Y-91426142D01*
X225551428Y-91426142D01*
X225265714Y-91283285D01*
X225122857Y-90997571D01*
X225122857Y-90854714D01*
X225265714Y-90569000D01*
X225551428Y-90426142D01*
X225980000Y-90426142D01*
X226265714Y-90569000D01*
X227694285Y-92426142D02*
X227694285Y-89426142D01*
X227980000Y-91283285D02*
X228837142Y-92426142D01*
X228837142Y-90426142D02*
X227694285Y-91569000D01*
X230122857Y-92140428D02*
X230265714Y-92283285D01*
X230122857Y-92426142D01*
X229980000Y-92283285D01*
X230122857Y-92140428D01*
X230122857Y-92426142D01*
X230122857Y-90569000D02*
X230265714Y-90711857D01*
X230122857Y-90854714D01*
X229980000Y-90711857D01*
X230122857Y-90569000D01*
X230122857Y-90854714D01*
X234408571Y-90997571D02*
X234408571Y-92426142D01*
X233408571Y-89426142D02*
X234408571Y-90997571D01*
X235408571Y-89426142D01*
X237551428Y-92283285D02*
X237265714Y-92426142D01*
X236694285Y-92426142D01*
X236408571Y-92283285D01*
X236265714Y-91997571D01*
X236265714Y-90854714D01*
X236408571Y-90569000D01*
X236694285Y-90426142D01*
X237265714Y-90426142D01*
X237551428Y-90569000D01*
X237694285Y-90854714D01*
X237694285Y-91140428D01*
X236265714Y-91426142D01*
X239408571Y-92426142D02*
X239122857Y-92283285D01*
X238980000Y-91997571D01*
X238980000Y-89426142D01*
X240980000Y-92426142D02*
X240694285Y-92283285D01*
X240551428Y-91997571D01*
X240551428Y-89426142D01*
X242551428Y-92426142D02*
X242265714Y-92283285D01*
X242122857Y-92140428D01*
X241980000Y-91854714D01*
X241980000Y-90997571D01*
X242122857Y-90711857D01*
X242265714Y-90569000D01*
X242551428Y-90426142D01*
X242980000Y-90426142D01*
X243265714Y-90569000D01*
X243408571Y-90711857D01*
X243551428Y-90997571D01*
X243551428Y-91854714D01*
X243408571Y-92140428D01*
X243265714Y-92283285D01*
X242980000Y-92426142D01*
X242551428Y-92426142D01*
X244551428Y-90426142D02*
X245122857Y-92426142D01*
X245694285Y-90997571D01*
X246265714Y-92426142D01*
X246837142Y-90426142D01*
X248122857Y-92283285D02*
X248122857Y-92426142D01*
X247980000Y-92711857D01*
X247837142Y-92854714D01*
X251694285Y-92426142D02*
X251694285Y-89426142D01*
X251694285Y-90569000D02*
X251980000Y-90426142D01*
X252551428Y-90426142D01*
X252837142Y-90569000D01*
X252980000Y-90711857D01*
X253122857Y-90997571D01*
X253122857Y-91854714D01*
X252980000Y-92140428D01*
X252837142Y-92283285D01*
X252551428Y-92426142D01*
X251980000Y-92426142D01*
X251694285Y-92283285D01*
X254837142Y-92426142D02*
X254551428Y-92283285D01*
X254408571Y-92140428D01*
X254265714Y-91854714D01*
X254265714Y-90997571D01*
X254408571Y-90711857D01*
X254551428Y-90569000D01*
X254837142Y-90426142D01*
X255265714Y-90426142D01*
X255551428Y-90569000D01*
X255694285Y-90711857D01*
X255837142Y-90997571D01*
X255837142Y-91854714D01*
X255694285Y-92140428D01*
X255551428Y-92283285D01*
X255265714Y-92426142D01*
X254837142Y-92426142D01*
X256694285Y-90426142D02*
X257837142Y-90426142D01*
X257122857Y-89426142D02*
X257122857Y-91997571D01*
X257265714Y-92283285D01*
X257551428Y-92426142D01*
X257837142Y-92426142D01*
X258837142Y-92426142D02*
X258837142Y-89426142D01*
X260122857Y-92426142D02*
X260122857Y-90854714D01*
X259980000Y-90569000D01*
X259694285Y-90426142D01*
X259265714Y-90426142D01*
X258980000Y-90569000D01*
X258837142Y-90711857D01*
X263694285Y-92283285D02*
X263980000Y-92426142D01*
X264551428Y-92426142D01*
X264837142Y-92283285D01*
X264980000Y-91997571D01*
X264980000Y-91854714D01*
X264837142Y-91569000D01*
X264551428Y-91426142D01*
X264122857Y-91426142D01*
X263837142Y-91283285D01*
X263694285Y-90997571D01*
X263694285Y-90854714D01*
X263837142Y-90569000D01*
X264122857Y-90426142D01*
X264551428Y-90426142D01*
X264837142Y-90569000D01*
X266265714Y-92426142D02*
X266265714Y-90426142D01*
X266265714Y-89426142D02*
X266122857Y-89569000D01*
X266265714Y-89711857D01*
X266408571Y-89569000D01*
X266265714Y-89426142D01*
X266265714Y-89711857D01*
X268980000Y-92426142D02*
X268980000Y-89426142D01*
X268980000Y-92283285D02*
X268694285Y-92426142D01*
X268122857Y-92426142D01*
X267837142Y-92283285D01*
X267694285Y-92140428D01*
X267551428Y-91854714D01*
X267551428Y-90997571D01*
X267694285Y-90711857D01*
X267837142Y-90569000D01*
X268122857Y-90426142D01*
X268694285Y-90426142D01*
X268980000Y-90569000D01*
X271551428Y-92283285D02*
X271265714Y-92426142D01*
X270694285Y-92426142D01*
X270408571Y-92283285D01*
X270265714Y-91997571D01*
X270265714Y-90854714D01*
X270408571Y-90569000D01*
X270694285Y-90426142D01*
X271265714Y-90426142D01*
X271551428Y-90569000D01*
X271694285Y-90854714D01*
X271694285Y-91140428D01*
X270265714Y-91426142D01*
X272837142Y-92283285D02*
X273122857Y-92426142D01*
X273694285Y-92426142D01*
X273980000Y-92283285D01*
X274122857Y-91997571D01*
X274122857Y-91854714D01*
X273980000Y-91569000D01*
X273694285Y-91426142D01*
X273265714Y-91426142D01*
X272980000Y-91283285D01*
X272837142Y-90997571D01*
X272837142Y-90854714D01*
X272980000Y-90569000D01*
X273265714Y-90426142D01*
X273694285Y-90426142D01*
X273980000Y-90569000D01*
X199122857Y-94256142D02*
X197694285Y-94256142D01*
X197551428Y-95684714D01*
X197694285Y-95541857D01*
X197980000Y-95399000D01*
X198694285Y-95399000D01*
X198980000Y-95541857D01*
X199122857Y-95684714D01*
X199265714Y-95970428D01*
X199265714Y-96684714D01*
X199122857Y-96970428D01*
X198980000Y-97113285D01*
X198694285Y-97256142D01*
X197980000Y-97256142D01*
X197694285Y-97113285D01*
X197551428Y-96970428D01*
X200551428Y-96970428D02*
X200694285Y-97113285D01*
X200551428Y-97256142D01*
X200408571Y-97113285D01*
X200551428Y-96970428D01*
X200551428Y-97256142D01*
X204122857Y-97113285D02*
X204551428Y-97256142D01*
X205265714Y-97256142D01*
X205551428Y-97113285D01*
X205694285Y-96970428D01*
X205837142Y-96684714D01*
X205837142Y-96399000D01*
X205694285Y-96113285D01*
X205551428Y-95970428D01*
X205265714Y-95827571D01*
X204694285Y-95684714D01*
X204408571Y-95541857D01*
X204265714Y-95399000D01*
X204122857Y-95113285D01*
X204122857Y-94827571D01*
X204265714Y-94541857D01*
X204408571Y-94399000D01*
X204694285Y-94256142D01*
X205408571Y-94256142D01*
X205837142Y-94399000D01*
X207122857Y-97256142D02*
X207122857Y-95256142D01*
X207122857Y-94256142D02*
X206980000Y-94399000D01*
X207122857Y-94541857D01*
X207265714Y-94399000D01*
X207122857Y-94256142D01*
X207122857Y-94541857D01*
X208980000Y-97256142D02*
X208694285Y-97113285D01*
X208551428Y-96827571D01*
X208551428Y-94256142D01*
X210122857Y-97256142D02*
X210122857Y-94256142D01*
X210408571Y-96113285D02*
X211265714Y-97256142D01*
X211265714Y-95256142D02*
X210122857Y-96399000D01*
X212408571Y-97113285D02*
X212694285Y-97256142D01*
X213265714Y-97256142D01*
X213551428Y-97113285D01*
X213694285Y-96827571D01*
X213694285Y-96684714D01*
X213551428Y-96399000D01*
X213265714Y-96256142D01*
X212837142Y-96256142D01*
X212551428Y-96113285D01*
X212408571Y-95827571D01*
X212408571Y-95684714D01*
X212551428Y-95399000D01*
X212837142Y-95256142D01*
X213265714Y-95256142D01*
X213551428Y-95399000D01*
X216265714Y-97113285D02*
X215980000Y-97256142D01*
X215408571Y-97256142D01*
X215122857Y-97113285D01*
X214980000Y-96970428D01*
X214837142Y-96684714D01*
X214837142Y-95827571D01*
X214980000Y-95541857D01*
X215122857Y-95399000D01*
X215408571Y-95256142D01*
X215980000Y-95256142D01*
X216265714Y-95399000D01*
X217551428Y-97256142D02*
X217551428Y-95256142D01*
X217551428Y-95827571D02*
X217694285Y-95541857D01*
X217837142Y-95399000D01*
X218122857Y-95256142D01*
X218408571Y-95256142D01*
X220551428Y-97113285D02*
X220265714Y-97256142D01*
X219694285Y-97256142D01*
X219408571Y-97113285D01*
X219265714Y-96827571D01*
X219265714Y-95684714D01*
X219408571Y-95399000D01*
X219694285Y-95256142D01*
X220265714Y-95256142D01*
X220551428Y-95399000D01*
X220694285Y-95684714D01*
X220694285Y-95970428D01*
X219265714Y-96256142D01*
X223122857Y-97113285D02*
X222837142Y-97256142D01*
X222265714Y-97256142D01*
X221980000Y-97113285D01*
X221837142Y-96827571D01*
X221837142Y-95684714D01*
X221980000Y-95399000D01*
X222265714Y-95256142D01*
X222837142Y-95256142D01*
X223122857Y-95399000D01*
X223265714Y-95684714D01*
X223265714Y-95970428D01*
X221837142Y-96256142D01*
X224551428Y-95256142D02*
X224551428Y-97256142D01*
X224551428Y-95541857D02*
X224694285Y-95399000D01*
X224980000Y-95256142D01*
X225408571Y-95256142D01*
X225694285Y-95399000D01*
X225837142Y-95684714D01*
X225837142Y-97256142D01*
X227265714Y-96970428D02*
X227408571Y-97113285D01*
X227265714Y-97256142D01*
X227122857Y-97113285D01*
X227265714Y-96970428D01*
X227265714Y-97256142D01*
X227265714Y-95399000D02*
X227408571Y-95541857D01*
X227265714Y-95684714D01*
X227122857Y-95541857D01*
X227265714Y-95399000D01*
X227265714Y-95684714D01*
X232694285Y-97256142D02*
X231694285Y-95827571D01*
X230980000Y-97256142D02*
X230980000Y-94256142D01*
X232122857Y-94256142D01*
X232408571Y-94399000D01*
X232551428Y-94541857D01*
X232694285Y-94827571D01*
X232694285Y-95256142D01*
X232551428Y-95541857D01*
X232408571Y-95684714D01*
X232122857Y-95827571D01*
X230980000Y-95827571D01*
X235122857Y-97113285D02*
X234837142Y-97256142D01*
X234265714Y-97256142D01*
X233980000Y-97113285D01*
X233837142Y-96827571D01*
X233837142Y-95684714D01*
X233980000Y-95399000D01*
X234265714Y-95256142D01*
X234837142Y-95256142D01*
X235122857Y-95399000D01*
X235265714Y-95684714D01*
X235265714Y-95970428D01*
X233837142Y-96256142D01*
X237837142Y-97256142D02*
X237837142Y-94256142D01*
X237837142Y-97113285D02*
X237551428Y-97256142D01*
X236980000Y-97256142D01*
X236694285Y-97113285D01*
X236551428Y-96970428D01*
X236408571Y-96684714D01*
X236408571Y-95827571D01*
X236551428Y-95541857D01*
X236694285Y-95399000D01*
X236980000Y-95256142D01*
X237551428Y-95256142D01*
X237837142Y-95399000D01*
X239408571Y-97113285D02*
X239408571Y-97256142D01*
X239265714Y-97541857D01*
X239122857Y-97684714D01*
X242980000Y-97256142D02*
X242980000Y-94256142D01*
X242980000Y-95399000D02*
X243265714Y-95256142D01*
X243837142Y-95256142D01*
X244122857Y-95399000D01*
X244265714Y-95541857D01*
X244408571Y-95827571D01*
X244408571Y-96684714D01*
X244265714Y-96970428D01*
X244122857Y-97113285D01*
X243837142Y-97256142D01*
X243265714Y-97256142D01*
X242980000Y-97113285D01*
X246122857Y-97256142D02*
X245837142Y-97113285D01*
X245694285Y-96970428D01*
X245551428Y-96684714D01*
X245551428Y-95827571D01*
X245694285Y-95541857D01*
X245837142Y-95399000D01*
X246122857Y-95256142D01*
X246551428Y-95256142D01*
X246837142Y-95399000D01*
X246980000Y-95541857D01*
X247122857Y-95827571D01*
X247122857Y-96684714D01*
X246980000Y-96970428D01*
X246837142Y-97113285D01*
X246551428Y-97256142D01*
X246122857Y-97256142D01*
X247980000Y-95256142D02*
X249122857Y-95256142D01*
X248408571Y-94256142D02*
X248408571Y-96827571D01*
X248551428Y-97113285D01*
X248837142Y-97256142D01*
X249122857Y-97256142D01*
X250122857Y-97256142D02*
X250122857Y-94256142D01*
X251408571Y-97256142D02*
X251408571Y-95684714D01*
X251265714Y-95399000D01*
X250980000Y-95256142D01*
X250551428Y-95256142D01*
X250265714Y-95399000D01*
X250122857Y-95541857D01*
X254980000Y-97113285D02*
X255265714Y-97256142D01*
X255837142Y-97256142D01*
X256122857Y-97113285D01*
X256265714Y-96827571D01*
X256265714Y-96684714D01*
X256122857Y-96399000D01*
X255837142Y-96256142D01*
X255408571Y-96256142D01*
X255122857Y-96113285D01*
X254980000Y-95827571D01*
X254980000Y-95684714D01*
X255122857Y-95399000D01*
X255408571Y-95256142D01*
X255837142Y-95256142D01*
X256122857Y-95399000D01*
X257551428Y-97256142D02*
X257551428Y-95256142D01*
X257551428Y-94256142D02*
X257408571Y-94399000D01*
X257551428Y-94541857D01*
X257694285Y-94399000D01*
X257551428Y-94256142D01*
X257551428Y-94541857D01*
X260265714Y-97256142D02*
X260265714Y-94256142D01*
X260265714Y-97113285D02*
X259980000Y-97256142D01*
X259408571Y-97256142D01*
X259122857Y-97113285D01*
X258980000Y-96970428D01*
X258837142Y-96684714D01*
X258837142Y-95827571D01*
X258980000Y-95541857D01*
X259122857Y-95399000D01*
X259408571Y-95256142D01*
X259980000Y-95256142D01*
X260265714Y-95399000D01*
X262837142Y-97113285D02*
X262551428Y-97256142D01*
X261980000Y-97256142D01*
X261694285Y-97113285D01*
X261551428Y-96827571D01*
X261551428Y-95684714D01*
X261694285Y-95399000D01*
X261980000Y-95256142D01*
X262551428Y-95256142D01*
X262837142Y-95399000D01*
X262980000Y-95684714D01*
X262980000Y-95970428D01*
X261551428Y-96256142D01*
X264122857Y-97113285D02*
X264408571Y-97256142D01*
X264980000Y-97256142D01*
X265265714Y-97113285D01*
X265408571Y-96827571D01*
X265408571Y-96684714D01*
X265265714Y-96399000D01*
X264980000Y-96256142D01*
X264551428Y-96256142D01*
X264265714Y-96113285D01*
X264122857Y-95827571D01*
X264122857Y-95684714D01*
X264265714Y-95399000D01*
X264551428Y-95256142D01*
X264980000Y-95256142D01*
X265265714Y-95399000D01*
X198980000Y-99086142D02*
X198408571Y-99086142D01*
X198122857Y-99229000D01*
X197980000Y-99371857D01*
X197694285Y-99800428D01*
X197551428Y-100371857D01*
X197551428Y-101514714D01*
X197694285Y-101800428D01*
X197837142Y-101943285D01*
X198122857Y-102086142D01*
X198694285Y-102086142D01*
X198980000Y-101943285D01*
X199122857Y-101800428D01*
X199265714Y-101514714D01*
X199265714Y-100800428D01*
X199122857Y-100514714D01*
X198980000Y-100371857D01*
X198694285Y-100229000D01*
X198122857Y-100229000D01*
X197837142Y-100371857D01*
X197694285Y-100514714D01*
X197551428Y-100800428D01*
X200551428Y-101800428D02*
X200694285Y-101943285D01*
X200551428Y-102086142D01*
X200408571Y-101943285D01*
X200551428Y-101800428D01*
X200551428Y-102086142D01*
X205265714Y-100514714D02*
X204265714Y-100514714D01*
X204265714Y-102086142D02*
X204265714Y-99086142D01*
X205694285Y-99086142D01*
X206837142Y-102086142D02*
X206837142Y-100086142D01*
X206837142Y-99086142D02*
X206694285Y-99229000D01*
X206837142Y-99371857D01*
X206980000Y-99229000D01*
X206837142Y-99086142D01*
X206837142Y-99371857D01*
X208265714Y-100086142D02*
X208265714Y-102086142D01*
X208265714Y-100371857D02*
X208408571Y-100229000D01*
X208694285Y-100086142D01*
X209122857Y-100086142D01*
X209408571Y-100229000D01*
X209551428Y-100514714D01*
X209551428Y-102086142D01*
X210980000Y-102086142D02*
X210980000Y-100086142D01*
X210980000Y-99086142D02*
X210837142Y-99229000D01*
X210980000Y-99371857D01*
X211122857Y-99229000D01*
X210980000Y-99086142D01*
X210980000Y-99371857D01*
X212265714Y-101943285D02*
X212551428Y-102086142D01*
X213122857Y-102086142D01*
X213408571Y-101943285D01*
X213551428Y-101657571D01*
X213551428Y-101514714D01*
X213408571Y-101229000D01*
X213122857Y-101086142D01*
X212694285Y-101086142D01*
X212408571Y-100943285D01*
X212265714Y-100657571D01*
X212265714Y-100514714D01*
X212408571Y-100229000D01*
X212694285Y-100086142D01*
X213122857Y-100086142D01*
X213408571Y-100229000D01*
X214837142Y-102086142D02*
X214837142Y-99086142D01*
X216122857Y-102086142D02*
X216122857Y-100514714D01*
X215980000Y-100229000D01*
X215694285Y-100086142D01*
X215265714Y-100086142D01*
X214980000Y-100229000D01*
X214837142Y-100371857D01*
X217551428Y-101800428D02*
X217694285Y-101943285D01*
X217551428Y-102086142D01*
X217408571Y-101943285D01*
X217551428Y-101800428D01*
X217551428Y-102086142D01*
X217551428Y-100229000D02*
X217694285Y-100371857D01*
X217551428Y-100514714D01*
X217408571Y-100371857D01*
X217551428Y-100229000D01*
X217551428Y-100514714D01*
X221265714Y-100514714D02*
X222265714Y-100514714D01*
X222694285Y-102086142D02*
X221265714Y-102086142D01*
X221265714Y-99086142D01*
X222694285Y-99086142D01*
X223980000Y-102086142D02*
X223980000Y-99086142D01*
X225694285Y-102086142D01*
X225694285Y-99086142D01*
X227122857Y-102086142D02*
X227122857Y-99086142D01*
X230122857Y-99229000D02*
X229837142Y-99086142D01*
X229408571Y-99086142D01*
X228980000Y-99229000D01*
X228694285Y-99514714D01*
X228551428Y-99800428D01*
X228408571Y-100371857D01*
X228408571Y-100800428D01*
X228551428Y-101371857D01*
X228694285Y-101657571D01*
X228980000Y-101943285D01*
X229408571Y-102086142D01*
X229694285Y-102086142D01*
X230122857Y-101943285D01*
X230265714Y-101800428D01*
X230265714Y-100800428D01*
X229694285Y-100800428D01*
M02*
