%TF.GenerationSoftware,KiCad,Pcbnew,(5.1.8)-1*%
%TF.CreationDate,2022-03-30T16:06:01-07:00*%
%TF.ProjectId,Alpenglow_Sun_PCB,416c7065-6e67-46c6-9f77-5f53756e5f50,rev?*%
%TF.SameCoordinates,Original*%
%TF.FileFunction,Copper,L1,Top*%
%TF.FilePolarity,Positive*%
%FSLAX46Y46*%
G04 Gerber Fmt 4.6, Leading zero omitted, Abs format (unit mm)*
G04 Created by KiCad (PCBNEW (5.1.8)-1) date 2022-03-30 16:06:01*
%MOMM*%
%LPD*%
G01*
G04 APERTURE LIST*
%TA.AperFunction,ComponentPad*%
%ADD10R,1.800000X1.800000*%
%TD*%
%TA.AperFunction,ComponentPad*%
%ADD11C,1.800000*%
%TD*%
%TA.AperFunction,ComponentPad*%
%ADD12C,0.100000*%
%TD*%
%TA.AperFunction,ComponentPad*%
%ADD13O,2.500000X4.000000*%
%TD*%
%TA.AperFunction,Conductor*%
%ADD14C,0.508000*%
%TD*%
%TA.AperFunction,Conductor*%
%ADD15C,0.254000*%
%TD*%
%TA.AperFunction,Conductor*%
%ADD16C,0.100000*%
%TD*%
G04 APERTURE END LIST*
D10*
%TO.P,D1,1*%
%TO.N,GND*%
X153924000Y-66548000D03*
D11*
%TO.P,D1,2*%
%TO.N,Net-(D1-Pad2)*%
X151384000Y-66548000D03*
%TD*%
%TA.AperFunction,ComponentPad*%
D12*
%TO.P,D3,1*%
%TO.N,GND*%
G36*
X175041623Y-80695023D02*
G01*
X173482777Y-81595023D01*
X172582777Y-80036177D01*
X174141623Y-79136177D01*
X175041623Y-80695023D01*
G37*
%TD.AperFunction*%
D11*
%TO.P,D3,2*%
%TO.N,Net-(D1-Pad2)*%
X172542200Y-78165895D03*
%TD*%
%TA.AperFunction,ComponentPad*%
D12*
%TO.P,D2,1*%
%TO.N,GND*%
G36*
X132004577Y-77891577D02*
G01*
X133563423Y-78791577D01*
X132663423Y-80350423D01*
X131104577Y-79450423D01*
X132004577Y-77891577D01*
G37*
%TD.AperFunction*%
D11*
%TO.P,D2,2*%
%TO.N,Net-(D1-Pad2)*%
X131064000Y-81320705D03*
%TD*%
%TA.AperFunction,ComponentPad*%
D12*
%TO.P,D4,1*%
%TO.N,GND*%
G36*
X132844051Y-103775069D02*
G01*
X134222931Y-102618051D01*
X135379949Y-103996931D01*
X134001069Y-105153949D01*
X132844051Y-103775069D01*
G37*
%TD.AperFunction*%
D11*
%TO.P,D4,2*%
%TO.N,Net-(D1-Pad2)*%
X135744681Y-105831753D03*
%TD*%
%TA.AperFunction,ComponentPad*%
D12*
%TO.P,D5,1*%
%TO.N,GND*%
G36*
X170274018Y-105647456D02*
G01*
X168799544Y-104615018D01*
X169831982Y-103140544D01*
X171306456Y-104172982D01*
X170274018Y-105647456D01*
G37*
%TD.AperFunction*%
D11*
%TO.P,D5,2*%
%TO.N,Net-(D1-Pad2)*%
X171509884Y-102313354D03*
%TD*%
%TA.AperFunction,ComponentPad*%
D12*
%TO.P,SW1,1*%
%TO.N,Net-(SW1-Pad1)*%
G36*
X162007083Y-70099532D02*
G01*
X163257083Y-67934468D01*
X164382917Y-68584468D01*
X163132917Y-70749532D01*
X162007083Y-70099532D01*
G37*
%TD.AperFunction*%
%TO.P,SW1,2*%
%TO.N,VCC*%
%TA.AperFunction,ComponentPad*%
G36*
G01*
X164064134Y-70536615D02*
X164664134Y-69497385D01*
G75*
G02*
X165552051Y-69259468I562917J-325000D01*
G01*
X165552051Y-69259468D01*
G75*
G02*
X165789968Y-70147385I-325000J-562917D01*
G01*
X165189968Y-71186615D01*
G75*
G02*
X164302051Y-71424532I-562917J325000D01*
G01*
X164302051Y-71424532D01*
G75*
G02*
X164064134Y-70536615I325000J562917D01*
G01*
G37*
%TD.AperFunction*%
%TO.P,SW1,3*%
%TO.N,Net-(D1-Pad2)*%
%TA.AperFunction,ComponentPad*%
G36*
G01*
X165796185Y-71536615D02*
X166396185Y-70497385D01*
G75*
G02*
X167284102Y-70259468I562917J-325000D01*
G01*
X167284102Y-70259468D01*
G75*
G02*
X167522019Y-71147385I-325000J-562917D01*
G01*
X166922019Y-72186615D01*
G75*
G02*
X166034102Y-72424532I-562917J325000D01*
G01*
X166034102Y-72424532D01*
G75*
G02*
X165796185Y-71536615I325000J562917D01*
G01*
G37*
%TD.AperFunction*%
%TO.P,SW1,*%
%TO.N,GND*%
%TA.AperFunction,ComponentPad*%
G36*
G01*
X160153623Y-68509820D02*
X160953623Y-67124180D01*
G75*
G02*
X162251347Y-66776456I822724J-475000D01*
G01*
X162251347Y-66776456D01*
G75*
G02*
X162599071Y-68074180I-475000J-822724D01*
G01*
X161799071Y-69459820D01*
G75*
G02*
X160501347Y-69807544I-822724J475000D01*
G01*
X160501347Y-69807544D01*
G75*
G02*
X160153623Y-68509820I475000J822724D01*
G01*
G37*
%TD.AperFunction*%
%TA.AperFunction,ComponentPad*%
G36*
G01*
X167255031Y-72609820D02*
X168055031Y-71224180D01*
G75*
G02*
X169352755Y-70876456I822724J-475000D01*
G01*
X169352755Y-70876456D01*
G75*
G02*
X169700479Y-72174180I-475000J-822724D01*
G01*
X168900479Y-73559820D01*
G75*
G02*
X167602755Y-73907544I-822724J475000D01*
G01*
X167602755Y-73907544D01*
G75*
G02*
X167255031Y-72609820I475000J822724D01*
G01*
G37*
%TD.AperFunction*%
%TD*%
D13*
%TO.P,BT1,1*%
%TO.N,VCC*%
X162941000Y-89408000D03*
X141859000Y-89408000D03*
%TD*%
D14*
%TO.N,Net-(D1-Pad2)*%
X151384000Y-66548000D02*
X158521400Y-73685400D01*
X164315702Y-73685400D02*
X166659102Y-71342000D01*
X158521400Y-73685400D02*
X164315702Y-73685400D01*
%TD*%
D15*
%TO.N,GND*%
X155602084Y-64451553D02*
X157580793Y-64764950D01*
X159528813Y-65232628D01*
X161434134Y-65851705D01*
X161820203Y-66011620D01*
X161799410Y-66009267D01*
X161488791Y-66035318D01*
X161189222Y-66121466D01*
X160912216Y-66264402D01*
X160668418Y-66458633D01*
X160467197Y-66696694D01*
X160067197Y-67389515D01*
X161329862Y-68118515D01*
X161339862Y-68101194D01*
X161559832Y-68228194D01*
X161549832Y-68245515D01*
X161567153Y-68255515D01*
X161440153Y-68475485D01*
X161422832Y-68465485D01*
X160376040Y-70278582D01*
X160528725Y-70505301D01*
X160643550Y-70539683D01*
X160953284Y-70574733D01*
X161263903Y-70548682D01*
X161496948Y-70481664D01*
X161500867Y-70487966D01*
X161586373Y-70579260D01*
X161688047Y-70652119D01*
X162813881Y-71302119D01*
X162927816Y-71353742D01*
X163049632Y-71382145D01*
X163174649Y-71386238D01*
X163298062Y-71365862D01*
X163415129Y-71321801D01*
X163424954Y-71315692D01*
X163468994Y-71432705D01*
X163602660Y-71647658D01*
X163775693Y-71832403D01*
X163981443Y-71979841D01*
X164212003Y-72084307D01*
X164458513Y-72141785D01*
X164597531Y-72146336D01*
X163947467Y-72796400D01*
X158889636Y-72796400D01*
X154997086Y-68903850D01*
X159388330Y-68903850D01*
X159403047Y-69215212D01*
X159478225Y-69517720D01*
X159610974Y-69799750D01*
X159796195Y-70050462D01*
X159883383Y-70132713D01*
X160156070Y-70151582D01*
X161202862Y-68338485D01*
X159940197Y-67609485D01*
X159540197Y-68302306D01*
X159434640Y-68595599D01*
X159388330Y-68903850D01*
X154997086Y-68903850D01*
X154051002Y-67957767D01*
X154051002Y-67924252D01*
X154209750Y-68083000D01*
X154824000Y-68086072D01*
X154948482Y-68073812D01*
X155068180Y-68037502D01*
X155178494Y-67978537D01*
X155275185Y-67899185D01*
X155354537Y-67802494D01*
X155413502Y-67692180D01*
X155449812Y-67572482D01*
X155462072Y-67448000D01*
X155459000Y-66833750D01*
X155300250Y-66675000D01*
X154051000Y-66675000D01*
X154051000Y-66695000D01*
X153797000Y-66695000D01*
X153797000Y-66675000D01*
X153777000Y-66675000D01*
X153777000Y-66421000D01*
X153797000Y-66421000D01*
X153797000Y-65171750D01*
X154051000Y-65171750D01*
X154051000Y-66421000D01*
X155300250Y-66421000D01*
X155459000Y-66262250D01*
X155462072Y-65648000D01*
X155449812Y-65523518D01*
X155413502Y-65403820D01*
X155354537Y-65293506D01*
X155275185Y-65196815D01*
X155178494Y-65117463D01*
X155068180Y-65058498D01*
X154948482Y-65022188D01*
X154824000Y-65009928D01*
X154209750Y-65013000D01*
X154051000Y-65171750D01*
X153797000Y-65171750D01*
X153638250Y-65013000D01*
X153024000Y-65009928D01*
X152899518Y-65022188D01*
X152779820Y-65058498D01*
X152669506Y-65117463D01*
X152572815Y-65196815D01*
X152493463Y-65293506D01*
X152434498Y-65403820D01*
X152428944Y-65422127D01*
X152362505Y-65355688D01*
X152111095Y-65187701D01*
X151831743Y-65071989D01*
X151535184Y-65013000D01*
X151232816Y-65013000D01*
X150936257Y-65071989D01*
X150656905Y-65187701D01*
X150405495Y-65355688D01*
X150191688Y-65569495D01*
X150023701Y-65820905D01*
X149907989Y-66100257D01*
X149849000Y-66396816D01*
X149849000Y-66699184D01*
X149907989Y-66995743D01*
X150023701Y-67275095D01*
X150191688Y-67526505D01*
X150405495Y-67740312D01*
X150656905Y-67908299D01*
X150936257Y-68024011D01*
X151232816Y-68083000D01*
X151535184Y-68083000D01*
X151640764Y-68061999D01*
X157861906Y-74283142D01*
X157889741Y-74317059D01*
X158025109Y-74428153D01*
X158179549Y-74510703D01*
X158274158Y-74539402D01*
X158347125Y-74561536D01*
X158363725Y-74563171D01*
X158477733Y-74574400D01*
X158477740Y-74574400D01*
X158521400Y-74578700D01*
X158565060Y-74574400D01*
X164272042Y-74574400D01*
X164315702Y-74578700D01*
X164359362Y-74574400D01*
X164359369Y-74574400D01*
X164489976Y-74561536D01*
X164657553Y-74510703D01*
X164811993Y-74428153D01*
X164872395Y-74378582D01*
X167477448Y-74378582D01*
X167630133Y-74605301D01*
X167744958Y-74639683D01*
X168054692Y-74674733D01*
X168365311Y-74648682D01*
X168664880Y-74562534D01*
X168941886Y-74419598D01*
X169185684Y-74225367D01*
X169386905Y-73987306D01*
X169786905Y-73294485D01*
X168524240Y-72565485D01*
X167477448Y-74378582D01*
X164872395Y-74378582D01*
X164947361Y-74317059D01*
X164975201Y-74283136D01*
X166130547Y-73127791D01*
X166190564Y-73141785D01*
X166443551Y-73150067D01*
X166496238Y-73141368D01*
X166504455Y-73315212D01*
X166579633Y-73617720D01*
X166712382Y-73899750D01*
X166897603Y-74150462D01*
X166984791Y-74232713D01*
X167257478Y-74251582D01*
X168304270Y-72438485D01*
X168286949Y-72428485D01*
X168413949Y-72208515D01*
X168431270Y-72218515D01*
X168441270Y-72201194D01*
X168661240Y-72328194D01*
X168651240Y-72345515D01*
X169913905Y-73074515D01*
X170313905Y-72381694D01*
X170419462Y-72088401D01*
X170465772Y-71780150D01*
X170456672Y-71587621D01*
X171338925Y-72469874D01*
X172640012Y-73993251D01*
X173817565Y-75614014D01*
X174864325Y-77322171D01*
X175773837Y-79107190D01*
X176540495Y-80958066D01*
X177159572Y-82863387D01*
X177627250Y-84811407D01*
X177940647Y-86790116D01*
X178097829Y-88787313D01*
X178097829Y-90790687D01*
X177940647Y-92787884D01*
X177627250Y-94766593D01*
X177159572Y-96714613D01*
X176540495Y-98619934D01*
X175773837Y-100470810D01*
X174864325Y-102255829D01*
X173817565Y-103963986D01*
X172640012Y-105584749D01*
X171338925Y-107108126D01*
X169922326Y-108524725D01*
X168398949Y-109825812D01*
X166778186Y-111003365D01*
X165070029Y-112050125D01*
X163285010Y-112959637D01*
X161434134Y-113726295D01*
X159528813Y-114345372D01*
X157580793Y-114813050D01*
X155602084Y-115126447D01*
X153604887Y-115283629D01*
X151601513Y-115283629D01*
X149604316Y-115126447D01*
X147625607Y-114813050D01*
X145677587Y-114345372D01*
X143772266Y-113726295D01*
X141921390Y-112959637D01*
X140136371Y-112050125D01*
X138428214Y-111003365D01*
X136807451Y-109825812D01*
X135284074Y-108524725D01*
X133867475Y-107108126D01*
X132566388Y-105584749D01*
X132208077Y-105091576D01*
X133119798Y-105091576D01*
X133512277Y-105564094D01*
X133601685Y-105651572D01*
X133706440Y-105719926D01*
X133822518Y-105766530D01*
X133945457Y-105789593D01*
X134070533Y-105788228D01*
X134192941Y-105762489D01*
X134209681Y-105755340D01*
X134209681Y-105982937D01*
X134268670Y-106279496D01*
X134384382Y-106558848D01*
X134552369Y-106810258D01*
X134766176Y-107024065D01*
X135017586Y-107192052D01*
X135296938Y-107307764D01*
X135593497Y-107366753D01*
X135895865Y-107366753D01*
X136192424Y-107307764D01*
X136471776Y-107192052D01*
X136723186Y-107024065D01*
X136936993Y-106810258D01*
X137104980Y-106558848D01*
X137220692Y-106279496D01*
X137279681Y-105982937D01*
X137279681Y-105680569D01*
X137262502Y-105594202D01*
X169367648Y-105594202D01*
X169406633Y-105815298D01*
X169908035Y-106170134D01*
X170017037Y-106231491D01*
X170135914Y-106270403D01*
X170260099Y-106285376D01*
X170384818Y-106275834D01*
X170505279Y-106242144D01*
X170616854Y-106185601D01*
X170715253Y-106108376D01*
X170796696Y-106013439D01*
X171146499Y-105508513D01*
X171107514Y-105287417D01*
X170084188Y-104570877D01*
X169367648Y-105594202D01*
X137262502Y-105594202D01*
X137220692Y-105384010D01*
X137104980Y-105104658D01*
X136936993Y-104853248D01*
X136723186Y-104639441D01*
X136665804Y-104601099D01*
X168161624Y-104601099D01*
X168171166Y-104725818D01*
X168204856Y-104846279D01*
X168261399Y-104957854D01*
X168338624Y-105056253D01*
X168433561Y-105137696D01*
X168938487Y-105487499D01*
X169159583Y-105448514D01*
X169876123Y-104425188D01*
X168852798Y-103708648D01*
X168631702Y-103747633D01*
X168276866Y-104249035D01*
X168215509Y-104358037D01*
X168176597Y-104476914D01*
X168161624Y-104601099D01*
X136665804Y-104601099D01*
X136471776Y-104471454D01*
X136192424Y-104355742D01*
X135937176Y-104304970D01*
X135945926Y-104291560D01*
X135992530Y-104175482D01*
X136015593Y-104052543D01*
X136014228Y-103927467D01*
X135988489Y-103805059D01*
X135939364Y-103690026D01*
X135868740Y-103586786D01*
X135608256Y-103279487D01*
X168959501Y-103279487D01*
X168998486Y-103500583D01*
X170021812Y-104217123D01*
X170033283Y-104200740D01*
X170241349Y-104346429D01*
X170229877Y-104362812D01*
X171253202Y-105079352D01*
X171474298Y-105040367D01*
X171829134Y-104538965D01*
X171890491Y-104429963D01*
X171929403Y-104311086D01*
X171944376Y-104186901D01*
X171934834Y-104062182D01*
X171901144Y-103941721D01*
X171844601Y-103830146D01*
X171832179Y-103814318D01*
X171957627Y-103789365D01*
X172236979Y-103673653D01*
X172488389Y-103505666D01*
X172702196Y-103291859D01*
X172870183Y-103040449D01*
X172985895Y-102761097D01*
X173044884Y-102464538D01*
X173044884Y-102162170D01*
X172985895Y-101865611D01*
X172870183Y-101586259D01*
X172702196Y-101334849D01*
X172488389Y-101121042D01*
X172236979Y-100953055D01*
X171957627Y-100837343D01*
X171661068Y-100778354D01*
X171358700Y-100778354D01*
X171062141Y-100837343D01*
X170782789Y-100953055D01*
X170531379Y-101121042D01*
X170317572Y-101334849D01*
X170149585Y-101586259D01*
X170033873Y-101865611D01*
X169974884Y-102162170D01*
X169974884Y-102464538D01*
X169986507Y-102522972D01*
X169970086Y-102517597D01*
X169845901Y-102502624D01*
X169721182Y-102512166D01*
X169600721Y-102545856D01*
X169489146Y-102602399D01*
X169390747Y-102679624D01*
X169309304Y-102774561D01*
X168959501Y-103279487D01*
X135608256Y-103279487D01*
X135471555Y-103118218D01*
X135247903Y-103098651D01*
X134290922Y-103901654D01*
X134303777Y-103916974D01*
X134109202Y-104080243D01*
X134096346Y-104064922D01*
X133139365Y-104867924D01*
X133119798Y-105091576D01*
X132208077Y-105091576D01*
X131388835Y-103963986D01*
X131238988Y-103719457D01*
X132208407Y-103719457D01*
X132209772Y-103844533D01*
X132235511Y-103966941D01*
X132284636Y-104081974D01*
X132355260Y-104185214D01*
X132752445Y-104653782D01*
X132976097Y-104673349D01*
X133933078Y-103870346D01*
X133130076Y-102913365D01*
X132906424Y-102893798D01*
X132433906Y-103286277D01*
X132346428Y-103375685D01*
X132278074Y-103480440D01*
X132231470Y-103596518D01*
X132208407Y-103719457D01*
X131238988Y-103719457D01*
X130644964Y-102750097D01*
X133324651Y-102750097D01*
X134127654Y-103707078D01*
X135084635Y-102904076D01*
X135104202Y-102680424D01*
X134711723Y-102207906D01*
X134622315Y-102120428D01*
X134517560Y-102052074D01*
X134401482Y-102005470D01*
X134278543Y-101982407D01*
X134153467Y-101983772D01*
X134031059Y-102009511D01*
X133916026Y-102058636D01*
X133812786Y-102129260D01*
X133344218Y-102526445D01*
X133324651Y-102750097D01*
X130644964Y-102750097D01*
X130342075Y-102255829D01*
X129432563Y-100470810D01*
X128665905Y-98619934D01*
X128046828Y-96714613D01*
X127579150Y-94766593D01*
X127265753Y-92787884D01*
X127108571Y-90790687D01*
X127108571Y-88787313D01*
X127126035Y-88565404D01*
X139974000Y-88565404D01*
X139974000Y-90250597D01*
X140001275Y-90527524D01*
X140109062Y-90882848D01*
X140284098Y-91210317D01*
X140519656Y-91497345D01*
X140806684Y-91732903D01*
X141134153Y-91907939D01*
X141489477Y-92015725D01*
X141859000Y-92052120D01*
X142228524Y-92015725D01*
X142583848Y-91907939D01*
X142911317Y-91732903D01*
X143198345Y-91497345D01*
X143433903Y-91210317D01*
X143608939Y-90882848D01*
X143716725Y-90527524D01*
X143744000Y-90250597D01*
X143744000Y-88565404D01*
X161056000Y-88565404D01*
X161056000Y-90250597D01*
X161083275Y-90527524D01*
X161191062Y-90882848D01*
X161366098Y-91210317D01*
X161601656Y-91497345D01*
X161888684Y-91732903D01*
X162216153Y-91907939D01*
X162571477Y-92015725D01*
X162941000Y-92052120D01*
X163310524Y-92015725D01*
X163665848Y-91907939D01*
X163993317Y-91732903D01*
X164280345Y-91497345D01*
X164515903Y-91210317D01*
X164690939Y-90882848D01*
X164798725Y-90527524D01*
X164826000Y-90250597D01*
X164826000Y-88565403D01*
X164798725Y-88288476D01*
X164690939Y-87933152D01*
X164515903Y-87605683D01*
X164280345Y-87318655D01*
X163993317Y-87083097D01*
X163665847Y-86908061D01*
X163310523Y-86800275D01*
X162941000Y-86763880D01*
X162571476Y-86800275D01*
X162216152Y-86908061D01*
X161888683Y-87083097D01*
X161601655Y-87318655D01*
X161366097Y-87605683D01*
X161191061Y-87933153D01*
X161083275Y-88288477D01*
X161056000Y-88565404D01*
X143744000Y-88565404D01*
X143744000Y-88565403D01*
X143716725Y-88288476D01*
X143608939Y-87933152D01*
X143433903Y-87605683D01*
X143198345Y-87318655D01*
X142911317Y-87083097D01*
X142583847Y-86908061D01*
X142228523Y-86800275D01*
X141859000Y-86763880D01*
X141489476Y-86800275D01*
X141134152Y-86908061D01*
X140806683Y-87083097D01*
X140519655Y-87318655D01*
X140284097Y-87605683D01*
X140109061Y-87933153D01*
X140001275Y-88288477D01*
X139974000Y-88565404D01*
X127126035Y-88565404D01*
X127265753Y-86790116D01*
X127579150Y-84811407D01*
X128046828Y-82863387D01*
X128597199Y-81169521D01*
X129529000Y-81169521D01*
X129529000Y-81471889D01*
X129587989Y-81768448D01*
X129703701Y-82047800D01*
X129871688Y-82299210D01*
X130085495Y-82513017D01*
X130336905Y-82681004D01*
X130616257Y-82796716D01*
X130912816Y-82855705D01*
X131215184Y-82855705D01*
X131511743Y-82796716D01*
X131791095Y-82681004D01*
X132042505Y-82513017D01*
X132256312Y-82299210D01*
X132424299Y-82047800D01*
X132540011Y-81768448D01*
X132599000Y-81471889D01*
X132599000Y-81380567D01*
X172625726Y-81380567D01*
X172930191Y-81914059D01*
X173003049Y-82015733D01*
X173094343Y-82101240D01*
X173200566Y-82167292D01*
X173317632Y-82211353D01*
X173441045Y-82231728D01*
X173566062Y-82227637D01*
X173687879Y-82199233D01*
X173801813Y-82147609D01*
X174332233Y-81837824D01*
X174390340Y-81620967D01*
X173765715Y-80539085D01*
X172683833Y-81163710D01*
X172625726Y-81380567D01*
X132599000Y-81380567D01*
X132599000Y-81169521D01*
X132561019Y-80978579D01*
X132580138Y-80983037D01*
X132705155Y-80987128D01*
X132828568Y-80966753D01*
X132945634Y-80922692D01*
X133051857Y-80856640D01*
X133143151Y-80771133D01*
X133216009Y-80669459D01*
X133520474Y-80135967D01*
X133462367Y-79919110D01*
X132380485Y-79294485D01*
X132370485Y-79311806D01*
X132150515Y-79184806D01*
X132160515Y-79167485D01*
X131999487Y-79074515D01*
X132507485Y-79074515D01*
X133589367Y-79699140D01*
X133806224Y-79641033D01*
X134116009Y-79110613D01*
X134167633Y-78996679D01*
X134196037Y-78874862D01*
X134200128Y-78749845D01*
X134179753Y-78626432D01*
X134135692Y-78509366D01*
X134069640Y-78403143D01*
X133984133Y-78311849D01*
X133882459Y-78238991D01*
X133489470Y-78014711D01*
X171007200Y-78014711D01*
X171007200Y-78317079D01*
X171066189Y-78613638D01*
X171181901Y-78892990D01*
X171349888Y-79144400D01*
X171563695Y-79358207D01*
X171815105Y-79526194D01*
X172085501Y-79638196D01*
X172076560Y-79647743D01*
X172010508Y-79753966D01*
X171966447Y-79871032D01*
X171946072Y-79994445D01*
X171950163Y-80119462D01*
X171978567Y-80241279D01*
X172030191Y-80355213D01*
X172339976Y-80885633D01*
X172556833Y-80943740D01*
X173477686Y-80412085D01*
X173985685Y-80412085D01*
X174610310Y-81493967D01*
X174827167Y-81552074D01*
X175360659Y-81247609D01*
X175462333Y-81174751D01*
X175547840Y-81083457D01*
X175613892Y-80977234D01*
X175657953Y-80860168D01*
X175678328Y-80736755D01*
X175674237Y-80611738D01*
X175645833Y-80489921D01*
X175594209Y-80375987D01*
X175284424Y-79845567D01*
X175067567Y-79787460D01*
X173985685Y-80412085D01*
X173477686Y-80412085D01*
X173638715Y-80319115D01*
X173628715Y-80301794D01*
X173848685Y-80174794D01*
X173858685Y-80192115D01*
X174940567Y-79567490D01*
X174998674Y-79350633D01*
X174694209Y-78817141D01*
X174621351Y-78715467D01*
X174530057Y-78629960D01*
X174423834Y-78563908D01*
X174306768Y-78519847D01*
X174183355Y-78499472D01*
X174058338Y-78503563D01*
X174039219Y-78508021D01*
X174077200Y-78317079D01*
X174077200Y-78014711D01*
X174018211Y-77718152D01*
X173902499Y-77438800D01*
X173734512Y-77187390D01*
X173520705Y-76973583D01*
X173269295Y-76805596D01*
X172989943Y-76689884D01*
X172693384Y-76630895D01*
X172391016Y-76630895D01*
X172094457Y-76689884D01*
X171815105Y-76805596D01*
X171563695Y-76973583D01*
X171349888Y-77187390D01*
X171181901Y-77438800D01*
X171066189Y-77718152D01*
X171007200Y-78014711D01*
X133489470Y-78014711D01*
X133348967Y-77934526D01*
X133132110Y-77992633D01*
X132507485Y-79074515D01*
X131999487Y-79074515D01*
X131078633Y-78542860D01*
X130861776Y-78600967D01*
X130551991Y-79131387D01*
X130500367Y-79245321D01*
X130471963Y-79367138D01*
X130467872Y-79492155D01*
X130488247Y-79615568D01*
X130532308Y-79732634D01*
X130598360Y-79838857D01*
X130607301Y-79848404D01*
X130336905Y-79960406D01*
X130085495Y-80128393D01*
X129871688Y-80342200D01*
X129703701Y-80593610D01*
X129587989Y-80872962D01*
X129529000Y-81169521D01*
X128597199Y-81169521D01*
X128665905Y-80958066D01*
X129432563Y-79107190D01*
X129942677Y-78106033D01*
X131147526Y-78106033D01*
X131205633Y-78322890D01*
X132287515Y-78947515D01*
X132912140Y-77865633D01*
X132854033Y-77648776D01*
X132323613Y-77338991D01*
X132209679Y-77287367D01*
X132087862Y-77258963D01*
X131962845Y-77254872D01*
X131839432Y-77275247D01*
X131722366Y-77319308D01*
X131616143Y-77385360D01*
X131524849Y-77470867D01*
X131451991Y-77572541D01*
X131147526Y-78106033D01*
X129942677Y-78106033D01*
X130342075Y-77322171D01*
X131388835Y-75614014D01*
X132566388Y-73993251D01*
X133867475Y-72469874D01*
X135284074Y-71053275D01*
X136807451Y-69752188D01*
X138428214Y-68574635D01*
X140136371Y-67527875D01*
X141921390Y-66618363D01*
X143772266Y-65851705D01*
X145677587Y-65232628D01*
X147625607Y-64764950D01*
X149604316Y-64451553D01*
X151601513Y-64294371D01*
X153604887Y-64294371D01*
X155602084Y-64451553D01*
%TA.AperFunction,Conductor*%
D16*
G36*
X155602084Y-64451553D02*
G01*
X157580793Y-64764950D01*
X159528813Y-65232628D01*
X161434134Y-65851705D01*
X161820203Y-66011620D01*
X161799410Y-66009267D01*
X161488791Y-66035318D01*
X161189222Y-66121466D01*
X160912216Y-66264402D01*
X160668418Y-66458633D01*
X160467197Y-66696694D01*
X160067197Y-67389515D01*
X161329862Y-68118515D01*
X161339862Y-68101194D01*
X161559832Y-68228194D01*
X161549832Y-68245515D01*
X161567153Y-68255515D01*
X161440153Y-68475485D01*
X161422832Y-68465485D01*
X160376040Y-70278582D01*
X160528725Y-70505301D01*
X160643550Y-70539683D01*
X160953284Y-70574733D01*
X161263903Y-70548682D01*
X161496948Y-70481664D01*
X161500867Y-70487966D01*
X161586373Y-70579260D01*
X161688047Y-70652119D01*
X162813881Y-71302119D01*
X162927816Y-71353742D01*
X163049632Y-71382145D01*
X163174649Y-71386238D01*
X163298062Y-71365862D01*
X163415129Y-71321801D01*
X163424954Y-71315692D01*
X163468994Y-71432705D01*
X163602660Y-71647658D01*
X163775693Y-71832403D01*
X163981443Y-71979841D01*
X164212003Y-72084307D01*
X164458513Y-72141785D01*
X164597531Y-72146336D01*
X163947467Y-72796400D01*
X158889636Y-72796400D01*
X154997086Y-68903850D01*
X159388330Y-68903850D01*
X159403047Y-69215212D01*
X159478225Y-69517720D01*
X159610974Y-69799750D01*
X159796195Y-70050462D01*
X159883383Y-70132713D01*
X160156070Y-70151582D01*
X161202862Y-68338485D01*
X159940197Y-67609485D01*
X159540197Y-68302306D01*
X159434640Y-68595599D01*
X159388330Y-68903850D01*
X154997086Y-68903850D01*
X154051002Y-67957767D01*
X154051002Y-67924252D01*
X154209750Y-68083000D01*
X154824000Y-68086072D01*
X154948482Y-68073812D01*
X155068180Y-68037502D01*
X155178494Y-67978537D01*
X155275185Y-67899185D01*
X155354537Y-67802494D01*
X155413502Y-67692180D01*
X155449812Y-67572482D01*
X155462072Y-67448000D01*
X155459000Y-66833750D01*
X155300250Y-66675000D01*
X154051000Y-66675000D01*
X154051000Y-66695000D01*
X153797000Y-66695000D01*
X153797000Y-66675000D01*
X153777000Y-66675000D01*
X153777000Y-66421000D01*
X153797000Y-66421000D01*
X153797000Y-65171750D01*
X154051000Y-65171750D01*
X154051000Y-66421000D01*
X155300250Y-66421000D01*
X155459000Y-66262250D01*
X155462072Y-65648000D01*
X155449812Y-65523518D01*
X155413502Y-65403820D01*
X155354537Y-65293506D01*
X155275185Y-65196815D01*
X155178494Y-65117463D01*
X155068180Y-65058498D01*
X154948482Y-65022188D01*
X154824000Y-65009928D01*
X154209750Y-65013000D01*
X154051000Y-65171750D01*
X153797000Y-65171750D01*
X153638250Y-65013000D01*
X153024000Y-65009928D01*
X152899518Y-65022188D01*
X152779820Y-65058498D01*
X152669506Y-65117463D01*
X152572815Y-65196815D01*
X152493463Y-65293506D01*
X152434498Y-65403820D01*
X152428944Y-65422127D01*
X152362505Y-65355688D01*
X152111095Y-65187701D01*
X151831743Y-65071989D01*
X151535184Y-65013000D01*
X151232816Y-65013000D01*
X150936257Y-65071989D01*
X150656905Y-65187701D01*
X150405495Y-65355688D01*
X150191688Y-65569495D01*
X150023701Y-65820905D01*
X149907989Y-66100257D01*
X149849000Y-66396816D01*
X149849000Y-66699184D01*
X149907989Y-66995743D01*
X150023701Y-67275095D01*
X150191688Y-67526505D01*
X150405495Y-67740312D01*
X150656905Y-67908299D01*
X150936257Y-68024011D01*
X151232816Y-68083000D01*
X151535184Y-68083000D01*
X151640764Y-68061999D01*
X157861906Y-74283142D01*
X157889741Y-74317059D01*
X158025109Y-74428153D01*
X158179549Y-74510703D01*
X158274158Y-74539402D01*
X158347125Y-74561536D01*
X158363725Y-74563171D01*
X158477733Y-74574400D01*
X158477740Y-74574400D01*
X158521400Y-74578700D01*
X158565060Y-74574400D01*
X164272042Y-74574400D01*
X164315702Y-74578700D01*
X164359362Y-74574400D01*
X164359369Y-74574400D01*
X164489976Y-74561536D01*
X164657553Y-74510703D01*
X164811993Y-74428153D01*
X164872395Y-74378582D01*
X167477448Y-74378582D01*
X167630133Y-74605301D01*
X167744958Y-74639683D01*
X168054692Y-74674733D01*
X168365311Y-74648682D01*
X168664880Y-74562534D01*
X168941886Y-74419598D01*
X169185684Y-74225367D01*
X169386905Y-73987306D01*
X169786905Y-73294485D01*
X168524240Y-72565485D01*
X167477448Y-74378582D01*
X164872395Y-74378582D01*
X164947361Y-74317059D01*
X164975201Y-74283136D01*
X166130547Y-73127791D01*
X166190564Y-73141785D01*
X166443551Y-73150067D01*
X166496238Y-73141368D01*
X166504455Y-73315212D01*
X166579633Y-73617720D01*
X166712382Y-73899750D01*
X166897603Y-74150462D01*
X166984791Y-74232713D01*
X167257478Y-74251582D01*
X168304270Y-72438485D01*
X168286949Y-72428485D01*
X168413949Y-72208515D01*
X168431270Y-72218515D01*
X168441270Y-72201194D01*
X168661240Y-72328194D01*
X168651240Y-72345515D01*
X169913905Y-73074515D01*
X170313905Y-72381694D01*
X170419462Y-72088401D01*
X170465772Y-71780150D01*
X170456672Y-71587621D01*
X171338925Y-72469874D01*
X172640012Y-73993251D01*
X173817565Y-75614014D01*
X174864325Y-77322171D01*
X175773837Y-79107190D01*
X176540495Y-80958066D01*
X177159572Y-82863387D01*
X177627250Y-84811407D01*
X177940647Y-86790116D01*
X178097829Y-88787313D01*
X178097829Y-90790687D01*
X177940647Y-92787884D01*
X177627250Y-94766593D01*
X177159572Y-96714613D01*
X176540495Y-98619934D01*
X175773837Y-100470810D01*
X174864325Y-102255829D01*
X173817565Y-103963986D01*
X172640012Y-105584749D01*
X171338925Y-107108126D01*
X169922326Y-108524725D01*
X168398949Y-109825812D01*
X166778186Y-111003365D01*
X165070029Y-112050125D01*
X163285010Y-112959637D01*
X161434134Y-113726295D01*
X159528813Y-114345372D01*
X157580793Y-114813050D01*
X155602084Y-115126447D01*
X153604887Y-115283629D01*
X151601513Y-115283629D01*
X149604316Y-115126447D01*
X147625607Y-114813050D01*
X145677587Y-114345372D01*
X143772266Y-113726295D01*
X141921390Y-112959637D01*
X140136371Y-112050125D01*
X138428214Y-111003365D01*
X136807451Y-109825812D01*
X135284074Y-108524725D01*
X133867475Y-107108126D01*
X132566388Y-105584749D01*
X132208077Y-105091576D01*
X133119798Y-105091576D01*
X133512277Y-105564094D01*
X133601685Y-105651572D01*
X133706440Y-105719926D01*
X133822518Y-105766530D01*
X133945457Y-105789593D01*
X134070533Y-105788228D01*
X134192941Y-105762489D01*
X134209681Y-105755340D01*
X134209681Y-105982937D01*
X134268670Y-106279496D01*
X134384382Y-106558848D01*
X134552369Y-106810258D01*
X134766176Y-107024065D01*
X135017586Y-107192052D01*
X135296938Y-107307764D01*
X135593497Y-107366753D01*
X135895865Y-107366753D01*
X136192424Y-107307764D01*
X136471776Y-107192052D01*
X136723186Y-107024065D01*
X136936993Y-106810258D01*
X137104980Y-106558848D01*
X137220692Y-106279496D01*
X137279681Y-105982937D01*
X137279681Y-105680569D01*
X137262502Y-105594202D01*
X169367648Y-105594202D01*
X169406633Y-105815298D01*
X169908035Y-106170134D01*
X170017037Y-106231491D01*
X170135914Y-106270403D01*
X170260099Y-106285376D01*
X170384818Y-106275834D01*
X170505279Y-106242144D01*
X170616854Y-106185601D01*
X170715253Y-106108376D01*
X170796696Y-106013439D01*
X171146499Y-105508513D01*
X171107514Y-105287417D01*
X170084188Y-104570877D01*
X169367648Y-105594202D01*
X137262502Y-105594202D01*
X137220692Y-105384010D01*
X137104980Y-105104658D01*
X136936993Y-104853248D01*
X136723186Y-104639441D01*
X136665804Y-104601099D01*
X168161624Y-104601099D01*
X168171166Y-104725818D01*
X168204856Y-104846279D01*
X168261399Y-104957854D01*
X168338624Y-105056253D01*
X168433561Y-105137696D01*
X168938487Y-105487499D01*
X169159583Y-105448514D01*
X169876123Y-104425188D01*
X168852798Y-103708648D01*
X168631702Y-103747633D01*
X168276866Y-104249035D01*
X168215509Y-104358037D01*
X168176597Y-104476914D01*
X168161624Y-104601099D01*
X136665804Y-104601099D01*
X136471776Y-104471454D01*
X136192424Y-104355742D01*
X135937176Y-104304970D01*
X135945926Y-104291560D01*
X135992530Y-104175482D01*
X136015593Y-104052543D01*
X136014228Y-103927467D01*
X135988489Y-103805059D01*
X135939364Y-103690026D01*
X135868740Y-103586786D01*
X135608256Y-103279487D01*
X168959501Y-103279487D01*
X168998486Y-103500583D01*
X170021812Y-104217123D01*
X170033283Y-104200740D01*
X170241349Y-104346429D01*
X170229877Y-104362812D01*
X171253202Y-105079352D01*
X171474298Y-105040367D01*
X171829134Y-104538965D01*
X171890491Y-104429963D01*
X171929403Y-104311086D01*
X171944376Y-104186901D01*
X171934834Y-104062182D01*
X171901144Y-103941721D01*
X171844601Y-103830146D01*
X171832179Y-103814318D01*
X171957627Y-103789365D01*
X172236979Y-103673653D01*
X172488389Y-103505666D01*
X172702196Y-103291859D01*
X172870183Y-103040449D01*
X172985895Y-102761097D01*
X173044884Y-102464538D01*
X173044884Y-102162170D01*
X172985895Y-101865611D01*
X172870183Y-101586259D01*
X172702196Y-101334849D01*
X172488389Y-101121042D01*
X172236979Y-100953055D01*
X171957627Y-100837343D01*
X171661068Y-100778354D01*
X171358700Y-100778354D01*
X171062141Y-100837343D01*
X170782789Y-100953055D01*
X170531379Y-101121042D01*
X170317572Y-101334849D01*
X170149585Y-101586259D01*
X170033873Y-101865611D01*
X169974884Y-102162170D01*
X169974884Y-102464538D01*
X169986507Y-102522972D01*
X169970086Y-102517597D01*
X169845901Y-102502624D01*
X169721182Y-102512166D01*
X169600721Y-102545856D01*
X169489146Y-102602399D01*
X169390747Y-102679624D01*
X169309304Y-102774561D01*
X168959501Y-103279487D01*
X135608256Y-103279487D01*
X135471555Y-103118218D01*
X135247903Y-103098651D01*
X134290922Y-103901654D01*
X134303777Y-103916974D01*
X134109202Y-104080243D01*
X134096346Y-104064922D01*
X133139365Y-104867924D01*
X133119798Y-105091576D01*
X132208077Y-105091576D01*
X131388835Y-103963986D01*
X131238988Y-103719457D01*
X132208407Y-103719457D01*
X132209772Y-103844533D01*
X132235511Y-103966941D01*
X132284636Y-104081974D01*
X132355260Y-104185214D01*
X132752445Y-104653782D01*
X132976097Y-104673349D01*
X133933078Y-103870346D01*
X133130076Y-102913365D01*
X132906424Y-102893798D01*
X132433906Y-103286277D01*
X132346428Y-103375685D01*
X132278074Y-103480440D01*
X132231470Y-103596518D01*
X132208407Y-103719457D01*
X131238988Y-103719457D01*
X130644964Y-102750097D01*
X133324651Y-102750097D01*
X134127654Y-103707078D01*
X135084635Y-102904076D01*
X135104202Y-102680424D01*
X134711723Y-102207906D01*
X134622315Y-102120428D01*
X134517560Y-102052074D01*
X134401482Y-102005470D01*
X134278543Y-101982407D01*
X134153467Y-101983772D01*
X134031059Y-102009511D01*
X133916026Y-102058636D01*
X133812786Y-102129260D01*
X133344218Y-102526445D01*
X133324651Y-102750097D01*
X130644964Y-102750097D01*
X130342075Y-102255829D01*
X129432563Y-100470810D01*
X128665905Y-98619934D01*
X128046828Y-96714613D01*
X127579150Y-94766593D01*
X127265753Y-92787884D01*
X127108571Y-90790687D01*
X127108571Y-88787313D01*
X127126035Y-88565404D01*
X139974000Y-88565404D01*
X139974000Y-90250597D01*
X140001275Y-90527524D01*
X140109062Y-90882848D01*
X140284098Y-91210317D01*
X140519656Y-91497345D01*
X140806684Y-91732903D01*
X141134153Y-91907939D01*
X141489477Y-92015725D01*
X141859000Y-92052120D01*
X142228524Y-92015725D01*
X142583848Y-91907939D01*
X142911317Y-91732903D01*
X143198345Y-91497345D01*
X143433903Y-91210317D01*
X143608939Y-90882848D01*
X143716725Y-90527524D01*
X143744000Y-90250597D01*
X143744000Y-88565404D01*
X161056000Y-88565404D01*
X161056000Y-90250597D01*
X161083275Y-90527524D01*
X161191062Y-90882848D01*
X161366098Y-91210317D01*
X161601656Y-91497345D01*
X161888684Y-91732903D01*
X162216153Y-91907939D01*
X162571477Y-92015725D01*
X162941000Y-92052120D01*
X163310524Y-92015725D01*
X163665848Y-91907939D01*
X163993317Y-91732903D01*
X164280345Y-91497345D01*
X164515903Y-91210317D01*
X164690939Y-90882848D01*
X164798725Y-90527524D01*
X164826000Y-90250597D01*
X164826000Y-88565403D01*
X164798725Y-88288476D01*
X164690939Y-87933152D01*
X164515903Y-87605683D01*
X164280345Y-87318655D01*
X163993317Y-87083097D01*
X163665847Y-86908061D01*
X163310523Y-86800275D01*
X162941000Y-86763880D01*
X162571476Y-86800275D01*
X162216152Y-86908061D01*
X161888683Y-87083097D01*
X161601655Y-87318655D01*
X161366097Y-87605683D01*
X161191061Y-87933153D01*
X161083275Y-88288477D01*
X161056000Y-88565404D01*
X143744000Y-88565404D01*
X143744000Y-88565403D01*
X143716725Y-88288476D01*
X143608939Y-87933152D01*
X143433903Y-87605683D01*
X143198345Y-87318655D01*
X142911317Y-87083097D01*
X142583847Y-86908061D01*
X142228523Y-86800275D01*
X141859000Y-86763880D01*
X141489476Y-86800275D01*
X141134152Y-86908061D01*
X140806683Y-87083097D01*
X140519655Y-87318655D01*
X140284097Y-87605683D01*
X140109061Y-87933153D01*
X140001275Y-88288477D01*
X139974000Y-88565404D01*
X127126035Y-88565404D01*
X127265753Y-86790116D01*
X127579150Y-84811407D01*
X128046828Y-82863387D01*
X128597199Y-81169521D01*
X129529000Y-81169521D01*
X129529000Y-81471889D01*
X129587989Y-81768448D01*
X129703701Y-82047800D01*
X129871688Y-82299210D01*
X130085495Y-82513017D01*
X130336905Y-82681004D01*
X130616257Y-82796716D01*
X130912816Y-82855705D01*
X131215184Y-82855705D01*
X131511743Y-82796716D01*
X131791095Y-82681004D01*
X132042505Y-82513017D01*
X132256312Y-82299210D01*
X132424299Y-82047800D01*
X132540011Y-81768448D01*
X132599000Y-81471889D01*
X132599000Y-81380567D01*
X172625726Y-81380567D01*
X172930191Y-81914059D01*
X173003049Y-82015733D01*
X173094343Y-82101240D01*
X173200566Y-82167292D01*
X173317632Y-82211353D01*
X173441045Y-82231728D01*
X173566062Y-82227637D01*
X173687879Y-82199233D01*
X173801813Y-82147609D01*
X174332233Y-81837824D01*
X174390340Y-81620967D01*
X173765715Y-80539085D01*
X172683833Y-81163710D01*
X172625726Y-81380567D01*
X132599000Y-81380567D01*
X132599000Y-81169521D01*
X132561019Y-80978579D01*
X132580138Y-80983037D01*
X132705155Y-80987128D01*
X132828568Y-80966753D01*
X132945634Y-80922692D01*
X133051857Y-80856640D01*
X133143151Y-80771133D01*
X133216009Y-80669459D01*
X133520474Y-80135967D01*
X133462367Y-79919110D01*
X132380485Y-79294485D01*
X132370485Y-79311806D01*
X132150515Y-79184806D01*
X132160515Y-79167485D01*
X131999487Y-79074515D01*
X132507485Y-79074515D01*
X133589367Y-79699140D01*
X133806224Y-79641033D01*
X134116009Y-79110613D01*
X134167633Y-78996679D01*
X134196037Y-78874862D01*
X134200128Y-78749845D01*
X134179753Y-78626432D01*
X134135692Y-78509366D01*
X134069640Y-78403143D01*
X133984133Y-78311849D01*
X133882459Y-78238991D01*
X133489470Y-78014711D01*
X171007200Y-78014711D01*
X171007200Y-78317079D01*
X171066189Y-78613638D01*
X171181901Y-78892990D01*
X171349888Y-79144400D01*
X171563695Y-79358207D01*
X171815105Y-79526194D01*
X172085501Y-79638196D01*
X172076560Y-79647743D01*
X172010508Y-79753966D01*
X171966447Y-79871032D01*
X171946072Y-79994445D01*
X171950163Y-80119462D01*
X171978567Y-80241279D01*
X172030191Y-80355213D01*
X172339976Y-80885633D01*
X172556833Y-80943740D01*
X173477686Y-80412085D01*
X173985685Y-80412085D01*
X174610310Y-81493967D01*
X174827167Y-81552074D01*
X175360659Y-81247609D01*
X175462333Y-81174751D01*
X175547840Y-81083457D01*
X175613892Y-80977234D01*
X175657953Y-80860168D01*
X175678328Y-80736755D01*
X175674237Y-80611738D01*
X175645833Y-80489921D01*
X175594209Y-80375987D01*
X175284424Y-79845567D01*
X175067567Y-79787460D01*
X173985685Y-80412085D01*
X173477686Y-80412085D01*
X173638715Y-80319115D01*
X173628715Y-80301794D01*
X173848685Y-80174794D01*
X173858685Y-80192115D01*
X174940567Y-79567490D01*
X174998674Y-79350633D01*
X174694209Y-78817141D01*
X174621351Y-78715467D01*
X174530057Y-78629960D01*
X174423834Y-78563908D01*
X174306768Y-78519847D01*
X174183355Y-78499472D01*
X174058338Y-78503563D01*
X174039219Y-78508021D01*
X174077200Y-78317079D01*
X174077200Y-78014711D01*
X174018211Y-77718152D01*
X173902499Y-77438800D01*
X173734512Y-77187390D01*
X173520705Y-76973583D01*
X173269295Y-76805596D01*
X172989943Y-76689884D01*
X172693384Y-76630895D01*
X172391016Y-76630895D01*
X172094457Y-76689884D01*
X171815105Y-76805596D01*
X171563695Y-76973583D01*
X171349888Y-77187390D01*
X171181901Y-77438800D01*
X171066189Y-77718152D01*
X171007200Y-78014711D01*
X133489470Y-78014711D01*
X133348967Y-77934526D01*
X133132110Y-77992633D01*
X132507485Y-79074515D01*
X131999487Y-79074515D01*
X131078633Y-78542860D01*
X130861776Y-78600967D01*
X130551991Y-79131387D01*
X130500367Y-79245321D01*
X130471963Y-79367138D01*
X130467872Y-79492155D01*
X130488247Y-79615568D01*
X130532308Y-79732634D01*
X130598360Y-79838857D01*
X130607301Y-79848404D01*
X130336905Y-79960406D01*
X130085495Y-80128393D01*
X129871688Y-80342200D01*
X129703701Y-80593610D01*
X129587989Y-80872962D01*
X129529000Y-81169521D01*
X128597199Y-81169521D01*
X128665905Y-80958066D01*
X129432563Y-79107190D01*
X129942677Y-78106033D01*
X131147526Y-78106033D01*
X131205633Y-78322890D01*
X132287515Y-78947515D01*
X132912140Y-77865633D01*
X132854033Y-77648776D01*
X132323613Y-77338991D01*
X132209679Y-77287367D01*
X132087862Y-77258963D01*
X131962845Y-77254872D01*
X131839432Y-77275247D01*
X131722366Y-77319308D01*
X131616143Y-77385360D01*
X131524849Y-77470867D01*
X131451991Y-77572541D01*
X131147526Y-78106033D01*
X129942677Y-78106033D01*
X130342075Y-77322171D01*
X131388835Y-75614014D01*
X132566388Y-73993251D01*
X133867475Y-72469874D01*
X135284074Y-71053275D01*
X136807451Y-69752188D01*
X138428214Y-68574635D01*
X140136371Y-67527875D01*
X141921390Y-66618363D01*
X143772266Y-65851705D01*
X145677587Y-65232628D01*
X147625607Y-64764950D01*
X149604316Y-64451553D01*
X151601513Y-64294371D01*
X153604887Y-64294371D01*
X155602084Y-64451553D01*
G37*
%TD.AperFunction*%
%TD*%
M02*
