%TF.GenerationSoftware,KiCad,Pcbnew,(5.1.8)-1*%
%TF.CreationDate,2022-03-30T16:06:01-07:00*%
%TF.ProjectId,Alpenglow_Sun_PCB,416c7065-6e67-46c6-9f77-5f53756e5f50,rev?*%
%TF.SameCoordinates,Original*%
%TF.FileFunction,Soldermask,Top*%
%TF.FilePolarity,Negative*%
%FSLAX46Y46*%
G04 Gerber Fmt 4.6, Leading zero omitted, Abs format (unit mm)*
G04 Created by KiCad (PCBNEW (5.1.8)-1) date 2022-03-30 16:06:01*
%MOMM*%
%LPD*%
G01*
G04 APERTURE LIST*
%ADD10C,0.762000*%
%ADD11C,0.010000*%
%ADD12R,1.800000X1.800000*%
%ADD13C,1.800000*%
%ADD14C,0.100000*%
%ADD15O,2.500000X4.000000*%
G04 APERTURE END LIST*
D10*
X166573288Y-89433400D02*
G75*
G03*
X166573288Y-89433400I-3683088J0D01*
G01*
X145516688Y-89382513D02*
G75*
G03*
X145516688Y-89382513I-3683088J0D01*
G01*
D11*
%TO.C,G\u002A\u002A\u002A*%
G36*
X152415948Y-97235180D02*
G01*
X152627434Y-97261866D01*
X152835199Y-97315081D01*
X153036886Y-97394940D01*
X153076539Y-97414245D01*
X153211243Y-97486971D01*
X153332040Y-97563861D01*
X153445696Y-97650059D01*
X153558978Y-97750708D01*
X153678652Y-97870952D01*
X153681939Y-97874416D01*
X153849805Y-98071718D01*
X153997810Y-98287057D01*
X154125689Y-98518162D01*
X154233176Y-98762757D01*
X154320005Y-99018570D01*
X154385910Y-99283328D01*
X154430625Y-99554756D01*
X154453884Y-99830581D01*
X154455420Y-100108530D01*
X154434969Y-100386329D01*
X154392263Y-100661705D01*
X154327036Y-100932383D01*
X154239024Y-101196091D01*
X154127959Y-101450556D01*
X154105581Y-101495043D01*
X153979432Y-101715491D01*
X153837276Y-101918058D01*
X153680743Y-102101417D01*
X153511464Y-102264238D01*
X153331069Y-102405195D01*
X153141189Y-102522959D01*
X152943455Y-102616203D01*
X152739496Y-102683599D01*
X152611667Y-102711638D01*
X152464987Y-102731562D01*
X152318408Y-102738173D01*
X152163588Y-102732401D01*
X151957988Y-102703969D01*
X151755418Y-102648531D01*
X151557564Y-102567271D01*
X151366110Y-102461373D01*
X151182741Y-102332020D01*
X151009142Y-102180397D01*
X150846997Y-102007688D01*
X150697992Y-101815076D01*
X150568125Y-101611247D01*
X150443601Y-101368063D01*
X150340942Y-101109623D01*
X150260477Y-100838913D01*
X150202534Y-100558916D01*
X150167443Y-100272618D01*
X150155533Y-99983003D01*
X150167134Y-99693058D01*
X150202573Y-99405766D01*
X150262182Y-99124113D01*
X150284736Y-99041478D01*
X150373666Y-98775499D01*
X150482547Y-98525139D01*
X150610363Y-98291827D01*
X150756097Y-98076988D01*
X150918733Y-97882053D01*
X151097254Y-97708447D01*
X151290644Y-97557600D01*
X151385167Y-97495721D01*
X151579916Y-97391461D01*
X151782725Y-97313164D01*
X151991237Y-97260942D01*
X152203097Y-97234910D01*
X152415948Y-97235180D01*
G37*
X152415948Y-97235180D02*
X152627434Y-97261866D01*
X152835199Y-97315081D01*
X153036886Y-97394940D01*
X153076539Y-97414245D01*
X153211243Y-97486971D01*
X153332040Y-97563861D01*
X153445696Y-97650059D01*
X153558978Y-97750708D01*
X153678652Y-97870952D01*
X153681939Y-97874416D01*
X153849805Y-98071718D01*
X153997810Y-98287057D01*
X154125689Y-98518162D01*
X154233176Y-98762757D01*
X154320005Y-99018570D01*
X154385910Y-99283328D01*
X154430625Y-99554756D01*
X154453884Y-99830581D01*
X154455420Y-100108530D01*
X154434969Y-100386329D01*
X154392263Y-100661705D01*
X154327036Y-100932383D01*
X154239024Y-101196091D01*
X154127959Y-101450556D01*
X154105581Y-101495043D01*
X153979432Y-101715491D01*
X153837276Y-101918058D01*
X153680743Y-102101417D01*
X153511464Y-102264238D01*
X153331069Y-102405195D01*
X153141189Y-102522959D01*
X152943455Y-102616203D01*
X152739496Y-102683599D01*
X152611667Y-102711638D01*
X152464987Y-102731562D01*
X152318408Y-102738173D01*
X152163588Y-102732401D01*
X151957988Y-102703969D01*
X151755418Y-102648531D01*
X151557564Y-102567271D01*
X151366110Y-102461373D01*
X151182741Y-102332020D01*
X151009142Y-102180397D01*
X150846997Y-102007688D01*
X150697992Y-101815076D01*
X150568125Y-101611247D01*
X150443601Y-101368063D01*
X150340942Y-101109623D01*
X150260477Y-100838913D01*
X150202534Y-100558916D01*
X150167443Y-100272618D01*
X150155533Y-99983003D01*
X150167134Y-99693058D01*
X150202573Y-99405766D01*
X150262182Y-99124113D01*
X150284736Y-99041478D01*
X150373666Y-98775499D01*
X150482547Y-98525139D01*
X150610363Y-98291827D01*
X150756097Y-98076988D01*
X150918733Y-97882053D01*
X151097254Y-97708447D01*
X151290644Y-97557600D01*
X151385167Y-97495721D01*
X151579916Y-97391461D01*
X151782725Y-97313164D01*
X151991237Y-97260942D01*
X152203097Y-97234910D01*
X152415948Y-97235180D01*
%TD*%
D12*
%TO.C,D1*%
X153924000Y-66548000D03*
D13*
X151384000Y-66548000D03*
%TD*%
D14*
%TO.C,D3*%
G36*
X175041623Y-80695023D02*
G01*
X173482777Y-81595023D01*
X172582777Y-80036177D01*
X174141623Y-79136177D01*
X175041623Y-80695023D01*
G37*
D13*
X172542200Y-78165895D03*
%TD*%
D14*
%TO.C,D2*%
G36*
X132004577Y-77891577D02*
G01*
X133563423Y-78791577D01*
X132663423Y-80350423D01*
X131104577Y-79450423D01*
X132004577Y-77891577D01*
G37*
D13*
X131064000Y-81320705D03*
%TD*%
D14*
%TO.C,D4*%
G36*
X132844051Y-103775069D02*
G01*
X134222931Y-102618051D01*
X135379949Y-103996931D01*
X134001069Y-105153949D01*
X132844051Y-103775069D01*
G37*
D13*
X135744681Y-105831753D03*
%TD*%
D14*
%TO.C,D5*%
G36*
X170274018Y-105647456D02*
G01*
X168799544Y-104615018D01*
X169831982Y-103140544D01*
X171306456Y-104172982D01*
X170274018Y-105647456D01*
G37*
D13*
X171509884Y-102313354D03*
%TD*%
D14*
%TO.C,SW1*%
G36*
X162007083Y-70099532D02*
G01*
X163257083Y-67934468D01*
X164382917Y-68584468D01*
X163132917Y-70749532D01*
X162007083Y-70099532D01*
G37*
G36*
G01*
X164064134Y-70536615D02*
X164664134Y-69497385D01*
G75*
G02*
X165552051Y-69259468I562917J-325000D01*
G01*
X165552051Y-69259468D01*
G75*
G02*
X165789968Y-70147385I-325000J-562917D01*
G01*
X165189968Y-71186615D01*
G75*
G02*
X164302051Y-71424532I-562917J325000D01*
G01*
X164302051Y-71424532D01*
G75*
G02*
X164064134Y-70536615I325000J562917D01*
G01*
G37*
G36*
G01*
X165796185Y-71536615D02*
X166396185Y-70497385D01*
G75*
G02*
X167284102Y-70259468I562917J-325000D01*
G01*
X167284102Y-70259468D01*
G75*
G02*
X167522019Y-71147385I-325000J-562917D01*
G01*
X166922019Y-72186615D01*
G75*
G02*
X166034102Y-72424532I-562917J325000D01*
G01*
X166034102Y-72424532D01*
G75*
G02*
X165796185Y-71536615I325000J562917D01*
G01*
G37*
G36*
G01*
X160153623Y-68509820D02*
X160953623Y-67124180D01*
G75*
G02*
X162251347Y-66776456I822724J-475000D01*
G01*
X162251347Y-66776456D01*
G75*
G02*
X162599071Y-68074180I-475000J-822724D01*
G01*
X161799071Y-69459820D01*
G75*
G02*
X160501347Y-69807544I-822724J475000D01*
G01*
X160501347Y-69807544D01*
G75*
G02*
X160153623Y-68509820I475000J822724D01*
G01*
G37*
G36*
G01*
X167255031Y-72609820D02*
X168055031Y-71224180D01*
G75*
G02*
X169352755Y-70876456I822724J-475000D01*
G01*
X169352755Y-70876456D01*
G75*
G02*
X169700479Y-72174180I-475000J-822724D01*
G01*
X168900479Y-73559820D01*
G75*
G02*
X167602755Y-73907544I-822724J475000D01*
G01*
X167602755Y-73907544D01*
G75*
G02*
X167255031Y-72609820I475000J822724D01*
G01*
G37*
%TD*%
D15*
%TO.C,BT1*%
X162941000Y-89408000D03*
X141859000Y-89408000D03*
%TD*%
M02*
