%TF.GenerationSoftware,KiCad,Pcbnew,(5.1.8)-1*%
%TF.CreationDate,2022-03-30T16:06:01-07:00*%
%TF.ProjectId,Alpenglow_Sun_PCB,416c7065-6e67-46c6-9f77-5f53756e5f50,rev?*%
%TF.SameCoordinates,Original*%
%TF.FileFunction,Legend,Top*%
%TF.FilePolarity,Positive*%
%FSLAX46Y46*%
G04 Gerber Fmt 4.6, Leading zero omitted, Abs format (unit mm)*
G04 Created by KiCad (PCBNEW (5.1.8)-1) date 2022-03-30 16:06:01*
%MOMM*%
%LPD*%
G01*
G04 APERTURE LIST*
%ADD10C,0.120000*%
%ADD11C,0.254000*%
%ADD12C,0.010000*%
G04 APERTURE END LIST*
D10*
%TO.C,D1*%
X151384000Y-65468000D02*
X151384000Y-65468000D01*
D11*
X151384000Y-62798000D02*
X151384000Y-65468000D01*
D10*
X151384000Y-62798000D02*
X151384000Y-62798000D01*
X151384000Y-65468000D02*
X151384000Y-62798000D01*
X153924000Y-65468000D02*
X153924000Y-65468000D01*
D11*
X153924000Y-62798000D02*
X153924000Y-65468000D01*
D10*
X153924000Y-62798000D02*
X153924000Y-62798000D01*
X153924000Y-65468000D02*
X153924000Y-62798000D01*
X150094000Y-62798000D02*
X149694000Y-62798000D01*
X150094000Y-61678000D02*
X150094000Y-62798000D01*
X149694000Y-61678000D02*
X150094000Y-61678000D01*
X149694000Y-62798000D02*
X149694000Y-61678000D01*
X155214000Y-62798000D02*
X150094000Y-62798000D01*
X150094000Y-62798000D02*
X150094000Y-56638000D01*
X155214000Y-62798000D02*
X155214000Y-56638000D01*
X150094000Y-56638000D02*
G75*
G02*
X155214000Y-56638000I2560000J0D01*
G01*
%TO.C,D3*%
X173477507Y-77625895D02*
X173477507Y-77625895D01*
D11*
X175789795Y-76290895D02*
X173477507Y-77625895D01*
D10*
X175789795Y-76290895D02*
X175789795Y-76290895D01*
X173477507Y-77625895D02*
X175789795Y-76290895D01*
X174747507Y-79825600D02*
X174747507Y-79825600D01*
D11*
X177059795Y-78490600D02*
X174747507Y-79825600D01*
D10*
X177059795Y-78490600D02*
X177059795Y-78490600D01*
X174747507Y-79825600D02*
X177059795Y-78490600D01*
X175144795Y-75173723D02*
X174944795Y-74827313D01*
X176114744Y-74613723D02*
X175144795Y-75173723D01*
X175914744Y-74267313D02*
X176114744Y-74613723D01*
X174944795Y-74827313D02*
X175914744Y-74267313D01*
X177704795Y-79607773D02*
X175144795Y-75173723D01*
X175144795Y-75173723D02*
X180479512Y-72093723D01*
X177704795Y-79607773D02*
X183039512Y-76527773D01*
X180479512Y-72093723D02*
G75*
G02*
X183039512Y-76527773I1280000J-2217025D01*
G01*
%TO.C,D2*%
X130128693Y-80780705D02*
X130128693Y-80780705D01*
D11*
X127816405Y-79445705D02*
X130128693Y-80780705D01*
D10*
X127816405Y-79445705D02*
X127816405Y-79445705D01*
X130128693Y-80780705D02*
X127816405Y-79445705D01*
X131398693Y-78581000D02*
X131398693Y-78581000D01*
D11*
X129086405Y-77246000D02*
X131398693Y-78581000D01*
D10*
X129086405Y-77246000D02*
X129086405Y-77246000D01*
X131398693Y-78581000D02*
X129086405Y-77246000D01*
X127171405Y-80562877D02*
X126971405Y-80909287D01*
X126201456Y-80002877D02*
X127171405Y-80562877D01*
X126001456Y-80349287D02*
X126201456Y-80002877D01*
X126971405Y-80909287D02*
X126001456Y-80349287D01*
X129731405Y-76128827D02*
X127171405Y-80562877D01*
X127171405Y-80562877D02*
X121836688Y-77482877D01*
X129731405Y-76128827D02*
X124396688Y-73048827D01*
X121836688Y-77482877D02*
G75*
G02*
X124396688Y-73048827I1280000J2217025D01*
G01*
%TO.C,D4*%
X134917353Y-106525964D02*
X134917353Y-106525964D01*
D11*
X132872014Y-108242206D02*
X134917353Y-106525964D01*
D10*
X132872014Y-108242206D02*
X132872014Y-108242206D01*
X134917353Y-106525964D02*
X132872014Y-108242206D01*
X133284672Y-104580211D02*
X133284672Y-104580211D01*
D11*
X131239333Y-106296454D02*
X133284672Y-104580211D01*
D10*
X131239333Y-106296454D02*
X131239333Y-106296454D01*
X133284672Y-104580211D02*
X131239333Y-106296454D01*
X133701210Y-109230404D02*
X133958325Y-109536822D01*
X132843240Y-109950326D02*
X133701210Y-109230404D01*
X133100355Y-110256744D02*
X132843240Y-109950326D01*
X133958325Y-109536822D02*
X133100355Y-110256744D01*
X130410137Y-105308256D02*
X133701210Y-109230404D01*
X133701210Y-109230404D02*
X128982376Y-113189975D01*
X130410137Y-105308256D02*
X125691304Y-109267828D01*
X128982376Y-113189976D02*
G75*
G02*
X125691304Y-109267828I-1645536J1961074D01*
G01*
%TO.C,D5*%
X172394568Y-102932816D02*
X172394568Y-102932816D01*
D11*
X174581704Y-104464265D02*
X172394568Y-102932816D01*
D10*
X174581704Y-104464265D02*
X174581704Y-104464265D01*
X172394568Y-102932816D02*
X174581704Y-104464265D01*
X170937684Y-105013463D02*
X170937684Y-105013463D01*
D11*
X173124820Y-106544912D02*
X170937684Y-105013463D01*
D10*
X173124820Y-106544912D02*
X173124820Y-106544912D01*
X170937684Y-105013463D02*
X173124820Y-106544912D01*
X175321618Y-103407559D02*
X175551048Y-103079898D01*
X176239068Y-104049965D02*
X175321618Y-103407559D01*
X176468499Y-103722304D02*
X176239068Y-104049965D01*
X175551048Y-103079898D02*
X176468499Y-103722304D01*
X172384907Y-107601618D02*
X175321618Y-103407559D01*
X175321618Y-103407559D02*
X180367595Y-106940790D01*
X172384907Y-107601618D02*
X177430883Y-111134849D01*
X180367595Y-106940789D02*
G75*
G02*
X177430883Y-111134849I-1468356J-2097030D01*
G01*
D12*
%TO.C,G\u002A\u002A\u002A*%
G36*
X159415193Y-65660917D02*
G01*
X159405608Y-65670502D01*
X159396023Y-65660917D01*
X159405608Y-65651333D01*
X159415193Y-65660917D01*
G37*
X159415193Y-65660917D02*
X159405608Y-65670502D01*
X159396023Y-65660917D01*
X159405608Y-65651333D01*
X159415193Y-65660917D01*
G36*
X129912853Y-100415785D02*
G01*
X129903268Y-100425370D01*
X129893684Y-100415785D01*
X129903268Y-100406200D01*
X129912853Y-100415785D01*
G37*
X129912853Y-100415785D02*
X129903268Y-100425370D01*
X129893684Y-100415785D01*
X129903268Y-100406200D01*
X129912853Y-100415785D01*
G36*
X166354665Y-110709974D02*
G01*
X166345080Y-110719559D01*
X166335495Y-110709974D01*
X166345080Y-110700389D01*
X166354665Y-110709974D01*
G37*
X166354665Y-110709974D02*
X166345080Y-110719559D01*
X166335495Y-110709974D01*
X166345080Y-110700389D01*
X166354665Y-110709974D01*
G36*
X139267721Y-110997521D02*
G01*
X139258136Y-111007106D01*
X139248551Y-110997521D01*
X139258136Y-110987936D01*
X139267721Y-110997521D01*
G37*
X139267721Y-110997521D02*
X139258136Y-111007106D01*
X139248551Y-110997521D01*
X139258136Y-110987936D01*
X139267721Y-110997521D01*
G36*
X159381613Y-65814276D02*
G01*
X159376576Y-65890596D01*
X159373028Y-65998798D01*
X159370913Y-66132459D01*
X159370177Y-66285152D01*
X159370766Y-66450453D01*
X159372625Y-66621935D01*
X159375699Y-66793174D01*
X159379934Y-66957743D01*
X159385275Y-67109219D01*
X159391667Y-67241175D01*
X159394090Y-67280767D01*
X159438714Y-67881578D01*
X159494784Y-68497811D01*
X159561491Y-69124072D01*
X159638029Y-69754968D01*
X159723588Y-70385104D01*
X159817360Y-71009088D01*
X159918537Y-71621526D01*
X160026312Y-72217024D01*
X160139875Y-72790189D01*
X160258420Y-73335628D01*
X160373614Y-73818015D01*
X160474228Y-74201775D01*
X160574300Y-74547505D01*
X160673965Y-74855505D01*
X160773355Y-75126078D01*
X160872606Y-75359526D01*
X160971852Y-75556152D01*
X161071227Y-75716257D01*
X161170866Y-75840144D01*
X161270901Y-75928116D01*
X161325212Y-75960833D01*
X161446821Y-76005988D01*
X161602457Y-76036140D01*
X161790965Y-76051516D01*
X162011188Y-76052342D01*
X162261968Y-76038843D01*
X162542149Y-76011246D01*
X162850573Y-75969777D01*
X163186084Y-75914662D01*
X163547524Y-75846127D01*
X163933737Y-75764398D01*
X164343566Y-75669702D01*
X164775853Y-75562264D01*
X165229442Y-75442310D01*
X165703175Y-75310067D01*
X166195896Y-75165761D01*
X166706448Y-75009618D01*
X167233674Y-74841864D01*
X167504853Y-74753150D01*
X167908006Y-74618008D01*
X168300542Y-74482350D01*
X168680258Y-74347073D01*
X169044949Y-74213073D01*
X169392409Y-74081249D01*
X169720434Y-73952496D01*
X170026820Y-73827713D01*
X170309361Y-73707795D01*
X170565853Y-73593641D01*
X170794091Y-73486147D01*
X170991870Y-73386209D01*
X171156986Y-73294727D01*
X171281306Y-73216654D01*
X171367570Y-73157873D01*
X171305086Y-73233773D01*
X171190793Y-73381668D01*
X171063519Y-73562996D01*
X170924489Y-73775578D01*
X170774927Y-74017236D01*
X170616057Y-74285791D01*
X170449105Y-74579066D01*
X170275294Y-74894882D01*
X170095849Y-75231061D01*
X169911993Y-75585424D01*
X169724953Y-75955792D01*
X169535952Y-76339989D01*
X169398343Y-76626050D01*
X169164410Y-77123810D01*
X168942171Y-77610492D01*
X168732099Y-78084718D01*
X168534667Y-78545108D01*
X168350347Y-78990284D01*
X168179613Y-79418867D01*
X168022937Y-79829478D01*
X167880794Y-80220739D01*
X167753655Y-80591270D01*
X167641994Y-80939693D01*
X167546283Y-81264629D01*
X167466996Y-81564700D01*
X167404606Y-81838526D01*
X167359586Y-82084728D01*
X167332408Y-82301929D01*
X167323546Y-82488749D01*
X167333472Y-82643809D01*
X167333608Y-82644774D01*
X167355550Y-82757918D01*
X167389508Y-82848675D01*
X167442464Y-82930866D01*
X167521402Y-83018315D01*
X167523233Y-83020152D01*
X167655299Y-83136134D01*
X167824949Y-83257285D01*
X168031801Y-83383428D01*
X168275476Y-83514387D01*
X168555592Y-83649986D01*
X168871768Y-83790048D01*
X169223622Y-83934398D01*
X169610775Y-84082859D01*
X170032844Y-84235255D01*
X170482651Y-84389141D01*
X170877851Y-84518243D01*
X171284047Y-84645649D01*
X171698571Y-84770740D01*
X172118757Y-84892899D01*
X172541937Y-85011506D01*
X172965442Y-85125945D01*
X173386605Y-85235597D01*
X173802757Y-85339845D01*
X174211233Y-85438069D01*
X174609363Y-85529652D01*
X174994480Y-85613976D01*
X175363916Y-85690423D01*
X175715003Y-85758375D01*
X176045074Y-85817213D01*
X176351461Y-85866320D01*
X176631496Y-85905078D01*
X176882511Y-85932868D01*
X177101839Y-85949072D01*
X177233533Y-85953178D01*
X177348551Y-85954225D01*
X177243117Y-85988586D01*
X177067503Y-86051957D01*
X176863308Y-86136508D01*
X176632934Y-86240841D01*
X176378786Y-86363556D01*
X176103267Y-86503256D01*
X175808782Y-86658540D01*
X175497734Y-86828011D01*
X175172527Y-87010270D01*
X174835565Y-87203917D01*
X174489251Y-87407555D01*
X174135990Y-87619783D01*
X173778185Y-87839204D01*
X173418241Y-88064419D01*
X173058560Y-88294029D01*
X172701547Y-88526634D01*
X172349605Y-88760837D01*
X172005138Y-88995239D01*
X171670551Y-89228440D01*
X171647730Y-89244564D01*
X171229969Y-89544451D01*
X170843670Y-89830946D01*
X170489168Y-90103752D01*
X170166799Y-90362571D01*
X169876898Y-90607107D01*
X169619802Y-90837062D01*
X169395844Y-91052139D01*
X169205362Y-91252040D01*
X169048691Y-91436468D01*
X168926166Y-91605127D01*
X168861414Y-91712691D01*
X168831706Y-91770199D01*
X168813240Y-91818026D01*
X168803371Y-91868726D01*
X168799456Y-91934851D01*
X168798835Y-92009823D01*
X168800802Y-92099039D01*
X168808226Y-92177367D01*
X168823422Y-92253082D01*
X168848705Y-92334458D01*
X168886391Y-92429770D01*
X168938794Y-92547293D01*
X168964948Y-92603556D01*
X169075037Y-92820788D01*
X169212901Y-93062119D01*
X169377594Y-93326254D01*
X169568168Y-93611897D01*
X169783676Y-93917752D01*
X170023171Y-94242524D01*
X170285706Y-94584916D01*
X170570333Y-94943632D01*
X170876105Y-95317378D01*
X171202075Y-95704857D01*
X171403702Y-95939634D01*
X171694149Y-96271824D01*
X171988801Y-96602035D01*
X172285696Y-96928323D01*
X172582871Y-97248742D01*
X172878363Y-97561343D01*
X173170211Y-97864182D01*
X173456451Y-98155312D01*
X173735122Y-98432787D01*
X174004260Y-98694660D01*
X174261903Y-98938984D01*
X174506088Y-99163815D01*
X174734854Y-99367204D01*
X174946237Y-99547207D01*
X175138276Y-99701875D01*
X175309007Y-99829265D01*
X175364476Y-99867800D01*
X175417164Y-99904904D01*
X175449233Y-99930208D01*
X175455835Y-99939753D01*
X175451241Y-99938642D01*
X175399813Y-99924057D01*
X175317310Y-99905566D01*
X175210652Y-99884378D01*
X175086760Y-99861703D01*
X174952555Y-99838753D01*
X174814959Y-99816736D01*
X174680891Y-99796865D01*
X174557274Y-99780348D01*
X174521004Y-99775963D01*
X174123204Y-99733382D01*
X173708183Y-99697007D01*
X173272924Y-99666698D01*
X172814410Y-99642313D01*
X172329624Y-99623714D01*
X171815551Y-99610760D01*
X171269171Y-99603310D01*
X170758736Y-99601197D01*
X170376833Y-99601983D01*
X170027275Y-99604554D01*
X169704101Y-99609086D01*
X169401351Y-99615754D01*
X169113063Y-99624731D01*
X168833277Y-99636193D01*
X168556031Y-99650315D01*
X168275366Y-99667270D01*
X168099117Y-99679136D01*
X167636725Y-99715088D01*
X167212105Y-99755859D01*
X166824986Y-99801510D01*
X166475097Y-99852105D01*
X166162166Y-99907710D01*
X165885923Y-99968386D01*
X165646095Y-100034197D01*
X165442411Y-100105208D01*
X165274601Y-100181481D01*
X165142392Y-100263081D01*
X165045513Y-100350070D01*
X165004399Y-100404611D01*
X164943454Y-100528111D01*
X164892776Y-100687691D01*
X164852350Y-100882498D01*
X164822164Y-101111675D01*
X164802202Y-101374370D01*
X164792451Y-101669726D01*
X164792898Y-101996890D01*
X164803527Y-102355006D01*
X164824326Y-102743219D01*
X164855279Y-103160676D01*
X164896374Y-103606521D01*
X164947596Y-104079900D01*
X165008931Y-104579957D01*
X165080365Y-105105839D01*
X165081296Y-105112389D01*
X165148249Y-105566200D01*
X165219747Y-106018696D01*
X165295207Y-106467264D01*
X165374048Y-106909295D01*
X165455688Y-107342179D01*
X165539546Y-107763304D01*
X165625041Y-108170061D01*
X165711591Y-108559838D01*
X165798614Y-108930025D01*
X165885528Y-109278011D01*
X165971753Y-109601187D01*
X166056707Y-109896941D01*
X166139808Y-110162663D01*
X166220475Y-110395742D01*
X166298125Y-110593569D01*
X166306840Y-110613951D01*
X166317374Y-110640989D01*
X166317827Y-110653427D01*
X166304939Y-110648931D01*
X166275451Y-110625168D01*
X166226104Y-110579806D01*
X166153638Y-110510510D01*
X166128620Y-110486364D01*
X165931189Y-110303344D01*
X165701018Y-110103939D01*
X165439508Y-109889209D01*
X165148063Y-109660212D01*
X164828084Y-109418007D01*
X164480973Y-109163651D01*
X164108133Y-108898203D01*
X163710965Y-108622722D01*
X163290872Y-108338265D01*
X163220400Y-108291174D01*
X162740611Y-107975024D01*
X162269766Y-107672461D01*
X161809578Y-107384431D01*
X161361760Y-107111878D01*
X160928026Y-106855750D01*
X160510088Y-106616991D01*
X160109658Y-106396547D01*
X159728450Y-106195364D01*
X159368176Y-106014388D01*
X159030549Y-105854564D01*
X158717282Y-105716838D01*
X158430089Y-105602156D01*
X158207495Y-105523416D01*
X158047494Y-105472672D01*
X157914204Y-105435303D01*
X157799101Y-105409574D01*
X157693661Y-105393745D01*
X157589360Y-105386080D01*
X157526967Y-105384697D01*
X157440865Y-105386253D01*
X157377632Y-105394389D01*
X157321959Y-105412181D01*
X157271302Y-105436087D01*
X157172714Y-105499472D01*
X157060250Y-105594584D01*
X156936451Y-105718503D01*
X156803861Y-105868309D01*
X156665021Y-106041084D01*
X156522474Y-106233908D01*
X156378762Y-106443862D01*
X156334492Y-106511785D01*
X156191787Y-106741086D01*
X156037826Y-107002977D01*
X155874378Y-107293989D01*
X155703211Y-107610651D01*
X155526091Y-107949496D01*
X155344786Y-108307052D01*
X155161065Y-108679850D01*
X154976695Y-109064420D01*
X154793444Y-109457294D01*
X154613079Y-109855000D01*
X154493479Y-110125295D01*
X154322190Y-110521703D01*
X154155942Y-110916836D01*
X153995622Y-111308198D01*
X153842118Y-111693290D01*
X153696315Y-112069618D01*
X153559101Y-112434683D01*
X153431362Y-112785990D01*
X153313985Y-113121042D01*
X153207857Y-113437341D01*
X153113866Y-113732392D01*
X153032897Y-114003698D01*
X152965837Y-114248761D01*
X152913574Y-114465086D01*
X152876994Y-114650175D01*
X152869500Y-114697295D01*
X152846676Y-114850653D01*
X152832307Y-114754804D01*
X152799887Y-114581286D01*
X152750407Y-114376481D01*
X152684910Y-114142897D01*
X152604441Y-113883044D01*
X152510045Y-113599429D01*
X152402766Y-113294562D01*
X152283648Y-112970951D01*
X152153735Y-112631104D01*
X152014073Y-112277530D01*
X151865705Y-111912738D01*
X151709676Y-111539237D01*
X151547030Y-111159534D01*
X151378812Y-110776138D01*
X151206065Y-110391558D01*
X151029835Y-110008303D01*
X150851166Y-109628881D01*
X150671102Y-109255801D01*
X150490687Y-108891571D01*
X150310967Y-108538699D01*
X150132984Y-108199696D01*
X150003537Y-107960197D01*
X149776470Y-107553600D01*
X149560680Y-107183587D01*
X149356131Y-106850111D01*
X149162788Y-106553123D01*
X148980616Y-106292575D01*
X148809578Y-106068420D01*
X148649640Y-105880608D01*
X148500765Y-105729091D01*
X148362920Y-105613823D01*
X148236067Y-105534753D01*
X148208062Y-105521514D01*
X148093510Y-105489229D01*
X147951754Y-105481776D01*
X147782613Y-105499214D01*
X147585907Y-105541600D01*
X147361455Y-105608995D01*
X147109078Y-105701455D01*
X146828594Y-105819041D01*
X146519824Y-105961809D01*
X146182586Y-106129820D01*
X145934811Y-106259637D01*
X145588769Y-106448445D01*
X145228274Y-106653119D01*
X144856006Y-106871792D01*
X144474642Y-107102596D01*
X144086862Y-107343667D01*
X143695343Y-107593136D01*
X143302766Y-107849137D01*
X142911808Y-108109805D01*
X142525148Y-108373271D01*
X142145466Y-108637669D01*
X141775439Y-108901133D01*
X141417746Y-109161797D01*
X141075067Y-109417792D01*
X140750079Y-109667254D01*
X140445462Y-109908314D01*
X140163894Y-110139107D01*
X139908054Y-110357766D01*
X139680621Y-110562424D01*
X139484273Y-110751215D01*
X139473144Y-110762395D01*
X139395344Y-110840189D01*
X139341063Y-110892647D01*
X139307279Y-110922102D01*
X139290971Y-110930890D01*
X139289119Y-110921342D01*
X139297820Y-110897827D01*
X139358708Y-110742883D01*
X139423336Y-110552672D01*
X139491051Y-110330012D01*
X139561200Y-110077721D01*
X139633130Y-109798620D01*
X139706188Y-109495527D01*
X139779720Y-109171261D01*
X139853074Y-108828642D01*
X139925596Y-108470488D01*
X139996634Y-108099618D01*
X140065534Y-107718852D01*
X140131642Y-107331008D01*
X140149638Y-107221068D01*
X140235788Y-106671028D01*
X140313841Y-106133876D01*
X140383696Y-105611279D01*
X140445255Y-105104901D01*
X140498418Y-104616409D01*
X140543087Y-104147468D01*
X140579161Y-103699744D01*
X140606541Y-103274902D01*
X140625128Y-102874608D01*
X140634822Y-102500527D01*
X140635525Y-102154325D01*
X140627137Y-101837668D01*
X140609558Y-101552222D01*
X140582689Y-101299651D01*
X140546430Y-101081621D01*
X140522182Y-100975987D01*
X140480610Y-100845474D01*
X140427424Y-100725749D01*
X140367389Y-100626106D01*
X140307954Y-100558160D01*
X140201560Y-100482917D01*
X140058614Y-100411292D01*
X139880776Y-100343799D01*
X139669708Y-100280951D01*
X139427071Y-100223260D01*
X139154526Y-100171239D01*
X138949584Y-100138872D01*
X138624700Y-100096851D01*
X138265183Y-100060186D01*
X137874374Y-100028941D01*
X137455612Y-100003182D01*
X137012237Y-99982976D01*
X136547589Y-99968387D01*
X136065009Y-99959480D01*
X135567836Y-99956322D01*
X135059411Y-99958978D01*
X134543074Y-99967513D01*
X134022164Y-99981993D01*
X133500021Y-100002484D01*
X133075872Y-100023675D01*
X132703827Y-100046049D01*
X132341366Y-100071661D01*
X131991455Y-100100164D01*
X131657058Y-100131211D01*
X131341141Y-100164454D01*
X131046670Y-100199549D01*
X130776609Y-100236147D01*
X130533924Y-100273903D01*
X130321580Y-100312468D01*
X130142543Y-100351497D01*
X130038989Y-100378801D01*
X129984286Y-100393079D01*
X129947054Y-100399906D01*
X129937958Y-100399356D01*
X129948536Y-100386102D01*
X129982925Y-100359404D01*
X130013105Y-100338702D01*
X130140339Y-100248054D01*
X130289861Y-100129525D01*
X130459797Y-99985003D01*
X130648274Y-99816374D01*
X130853415Y-99625524D01*
X131073348Y-99414341D01*
X131306196Y-99184711D01*
X131550086Y-98938519D01*
X131803143Y-98677654D01*
X132063492Y-98404002D01*
X132329260Y-98119448D01*
X132598570Y-97825881D01*
X132869549Y-97525185D01*
X133140323Y-97219248D01*
X133336534Y-96993974D01*
X133679293Y-96592959D01*
X134007804Y-96199097D01*
X134320787Y-95814133D01*
X134616963Y-95439815D01*
X134895052Y-95077886D01*
X135153773Y-94730095D01*
X135391846Y-94398185D01*
X135607993Y-94083903D01*
X135800933Y-93788995D01*
X135969386Y-93515207D01*
X136112072Y-93264285D01*
X136210449Y-93073748D01*
X136304316Y-92869591D01*
X136373393Y-92690859D01*
X136418289Y-92534262D01*
X136439619Y-92396509D01*
X136437994Y-92274308D01*
X136414026Y-92164369D01*
X136390480Y-92105672D01*
X136312113Y-91967643D01*
X136199791Y-91813564D01*
X136054113Y-91643988D01*
X135875681Y-91459468D01*
X135665098Y-91260559D01*
X135422964Y-91047814D01*
X135149880Y-90821786D01*
X134846448Y-90583029D01*
X134513270Y-90332096D01*
X134273985Y-90157641D01*
X133942027Y-89922318D01*
X133595087Y-89683491D01*
X133235713Y-89442616D01*
X132866452Y-89201150D01*
X132489851Y-88960547D01*
X132108457Y-88722265D01*
X131724817Y-88487758D01*
X131341477Y-88258483D01*
X130960985Y-88035896D01*
X130585887Y-87821453D01*
X130218730Y-87616609D01*
X129862061Y-87422820D01*
X129518428Y-87241543D01*
X129190377Y-87074234D01*
X128880454Y-86922347D01*
X128591207Y-86787340D01*
X128325184Y-86670668D01*
X128084929Y-86573786D01*
X127872992Y-86498152D01*
X127871268Y-86497588D01*
X127737080Y-86453695D01*
X127890438Y-86451970D01*
X128065261Y-86443847D01*
X128273658Y-86423424D01*
X128513101Y-86391311D01*
X128781066Y-86348121D01*
X129075025Y-86294465D01*
X129392453Y-86230955D01*
X129730823Y-86158203D01*
X130087609Y-86076819D01*
X130460284Y-85987417D01*
X130846323Y-85890606D01*
X131243199Y-85787001D01*
X131648386Y-85677210D01*
X132059357Y-85561848D01*
X132473587Y-85441524D01*
X132888548Y-85316851D01*
X133301715Y-85188441D01*
X133710562Y-85056905D01*
X133871419Y-85003853D01*
X134356047Y-84839292D01*
X134810246Y-84677758D01*
X135233427Y-84519541D01*
X135624995Y-84364935D01*
X135984360Y-84214230D01*
X136310928Y-84067717D01*
X136604109Y-83925688D01*
X136863309Y-83788436D01*
X137087938Y-83656250D01*
X137277401Y-83529423D01*
X137431108Y-83408246D01*
X137548466Y-83293011D01*
X137628884Y-83184009D01*
X137649862Y-83143785D01*
X137687750Y-83024309D01*
X137705598Y-82874967D01*
X137703349Y-82695516D01*
X137680945Y-82485711D01*
X137638330Y-82245307D01*
X137575447Y-81974061D01*
X137492239Y-81671727D01*
X137388648Y-81338063D01*
X137264618Y-80972823D01*
X137120091Y-80575762D01*
X136955011Y-80146638D01*
X136942511Y-80114955D01*
X136798876Y-79759387D01*
X136644455Y-79391837D01*
X136480575Y-79014843D01*
X136308562Y-78630940D01*
X136129745Y-78242665D01*
X135945448Y-77852552D01*
X135757001Y-77463138D01*
X135565728Y-77076960D01*
X135372959Y-76696552D01*
X135180018Y-76324451D01*
X134988234Y-75963194D01*
X134798932Y-75615315D01*
X134613441Y-75283351D01*
X134433087Y-74969838D01*
X134259197Y-74677312D01*
X134093098Y-74408309D01*
X133936116Y-74165364D01*
X133789579Y-73951014D01*
X133654814Y-73767795D01*
X133558928Y-73648371D01*
X133472798Y-73546163D01*
X133576260Y-73612282D01*
X133711761Y-73691934D01*
X133881960Y-73780279D01*
X134084440Y-73876383D01*
X134316790Y-73979308D01*
X134576593Y-74088120D01*
X134861437Y-74201882D01*
X135168907Y-74319659D01*
X135496589Y-74440515D01*
X135842069Y-74563514D01*
X136202932Y-74687720D01*
X136576766Y-74812198D01*
X136961155Y-74936012D01*
X137120702Y-74986197D01*
X137650779Y-75148668D01*
X138169559Y-75301528D01*
X138675289Y-75444403D01*
X139166211Y-75576917D01*
X139640570Y-75698697D01*
X140096611Y-75809368D01*
X140532578Y-75908555D01*
X140946716Y-75995885D01*
X141337269Y-76070983D01*
X141702481Y-76133474D01*
X142040597Y-76182984D01*
X142349861Y-76219139D01*
X142628518Y-76241564D01*
X142874812Y-76249884D01*
X143031848Y-76246898D01*
X143219313Y-76233357D01*
X143374824Y-76209250D01*
X143504136Y-76170926D01*
X143613006Y-76114731D01*
X143707190Y-76037013D01*
X143792446Y-75934119D01*
X143874528Y-75802396D01*
X143944863Y-75667559D01*
X144043847Y-75446886D01*
X144142017Y-75188692D01*
X144239179Y-74893789D01*
X144335140Y-74562992D01*
X144429706Y-74197113D01*
X144522685Y-73796966D01*
X144613884Y-73363364D01*
X144703108Y-72897121D01*
X144790165Y-72399048D01*
X144874862Y-71869961D01*
X144921889Y-71555634D01*
X144981306Y-71133127D01*
X145037078Y-70705418D01*
X145088952Y-70275767D01*
X145136675Y-69847436D01*
X145179994Y-69423685D01*
X145218656Y-69007775D01*
X145252408Y-68602968D01*
X145280997Y-68212523D01*
X145304170Y-67839702D01*
X145321674Y-67487767D01*
X145333255Y-67159977D01*
X145338662Y-66859593D01*
X145337640Y-66589878D01*
X145329937Y-66354091D01*
X145328109Y-66320455D01*
X145320705Y-66198140D01*
X145313239Y-66085638D01*
X145306216Y-65989781D01*
X145300143Y-65917407D01*
X145295523Y-65875350D01*
X145294933Y-65871785D01*
X145297661Y-65859785D01*
X145315694Y-65880573D01*
X145347746Y-65932371D01*
X145378201Y-65986804D01*
X145499646Y-66198022D01*
X145646743Y-66433339D01*
X145817471Y-66690323D01*
X146009808Y-66966539D01*
X146221731Y-67259553D01*
X146451221Y-67566931D01*
X146696254Y-67886239D01*
X146954809Y-68215042D01*
X147224864Y-68550908D01*
X147504399Y-68891400D01*
X147791390Y-69234086D01*
X148083817Y-69576531D01*
X148379657Y-69916301D01*
X148676889Y-70250963D01*
X148973492Y-70578081D01*
X149267443Y-70895222D01*
X149556721Y-71199952D01*
X149839304Y-71489836D01*
X150113171Y-71762441D01*
X150376299Y-72015332D01*
X150417184Y-72053723D01*
X150684109Y-72300138D01*
X150928488Y-72518445D01*
X151152235Y-72710059D01*
X151357262Y-72876396D01*
X151545482Y-73018872D01*
X151718809Y-73138903D01*
X151879156Y-73237905D01*
X152028437Y-73317293D01*
X152168563Y-73378483D01*
X152243544Y-73405262D01*
X152348918Y-73428161D01*
X152460740Y-73428560D01*
X152581779Y-73405362D01*
X152714803Y-73357473D01*
X152862580Y-73283796D01*
X153027880Y-73183237D01*
X153213470Y-73054700D01*
X153309608Y-72983470D01*
X153522113Y-72815191D01*
X153753671Y-72617043D01*
X154002331Y-72391234D01*
X154266144Y-72139970D01*
X154543162Y-71865460D01*
X154831435Y-71569910D01*
X155129013Y-71255528D01*
X155433947Y-70924521D01*
X155744288Y-70579096D01*
X156058086Y-70221461D01*
X156373393Y-69853822D01*
X156688258Y-69478387D01*
X157000733Y-69097364D01*
X157308868Y-68712959D01*
X157610714Y-68327380D01*
X157904321Y-67942834D01*
X158187740Y-67561529D01*
X158459022Y-67185671D01*
X158574468Y-67021974D01*
X158709875Y-66825393D01*
X158841222Y-66628695D01*
X158965539Y-66436661D01*
X159079855Y-66254074D01*
X159181200Y-66085714D01*
X159266603Y-65936361D01*
X159333093Y-65810799D01*
X159354643Y-65766351D01*
X159394977Y-65680087D01*
X159381613Y-65814276D01*
G37*
X159381613Y-65814276D02*
X159376576Y-65890596D01*
X159373028Y-65998798D01*
X159370913Y-66132459D01*
X159370177Y-66285152D01*
X159370766Y-66450453D01*
X159372625Y-66621935D01*
X159375699Y-66793174D01*
X159379934Y-66957743D01*
X159385275Y-67109219D01*
X159391667Y-67241175D01*
X159394090Y-67280767D01*
X159438714Y-67881578D01*
X159494784Y-68497811D01*
X159561491Y-69124072D01*
X159638029Y-69754968D01*
X159723588Y-70385104D01*
X159817360Y-71009088D01*
X159918537Y-71621526D01*
X160026312Y-72217024D01*
X160139875Y-72790189D01*
X160258420Y-73335628D01*
X160373614Y-73818015D01*
X160474228Y-74201775D01*
X160574300Y-74547505D01*
X160673965Y-74855505D01*
X160773355Y-75126078D01*
X160872606Y-75359526D01*
X160971852Y-75556152D01*
X161071227Y-75716257D01*
X161170866Y-75840144D01*
X161270901Y-75928116D01*
X161325212Y-75960833D01*
X161446821Y-76005988D01*
X161602457Y-76036140D01*
X161790965Y-76051516D01*
X162011188Y-76052342D01*
X162261968Y-76038843D01*
X162542149Y-76011246D01*
X162850573Y-75969777D01*
X163186084Y-75914662D01*
X163547524Y-75846127D01*
X163933737Y-75764398D01*
X164343566Y-75669702D01*
X164775853Y-75562264D01*
X165229442Y-75442310D01*
X165703175Y-75310067D01*
X166195896Y-75165761D01*
X166706448Y-75009618D01*
X167233674Y-74841864D01*
X167504853Y-74753150D01*
X167908006Y-74618008D01*
X168300542Y-74482350D01*
X168680258Y-74347073D01*
X169044949Y-74213073D01*
X169392409Y-74081249D01*
X169720434Y-73952496D01*
X170026820Y-73827713D01*
X170309361Y-73707795D01*
X170565853Y-73593641D01*
X170794091Y-73486147D01*
X170991870Y-73386209D01*
X171156986Y-73294727D01*
X171281306Y-73216654D01*
X171367570Y-73157873D01*
X171305086Y-73233773D01*
X171190793Y-73381668D01*
X171063519Y-73562996D01*
X170924489Y-73775578D01*
X170774927Y-74017236D01*
X170616057Y-74285791D01*
X170449105Y-74579066D01*
X170275294Y-74894882D01*
X170095849Y-75231061D01*
X169911993Y-75585424D01*
X169724953Y-75955792D01*
X169535952Y-76339989D01*
X169398343Y-76626050D01*
X169164410Y-77123810D01*
X168942171Y-77610492D01*
X168732099Y-78084718D01*
X168534667Y-78545108D01*
X168350347Y-78990284D01*
X168179613Y-79418867D01*
X168022937Y-79829478D01*
X167880794Y-80220739D01*
X167753655Y-80591270D01*
X167641994Y-80939693D01*
X167546283Y-81264629D01*
X167466996Y-81564700D01*
X167404606Y-81838526D01*
X167359586Y-82084728D01*
X167332408Y-82301929D01*
X167323546Y-82488749D01*
X167333472Y-82643809D01*
X167333608Y-82644774D01*
X167355550Y-82757918D01*
X167389508Y-82848675D01*
X167442464Y-82930866D01*
X167521402Y-83018315D01*
X167523233Y-83020152D01*
X167655299Y-83136134D01*
X167824949Y-83257285D01*
X168031801Y-83383428D01*
X168275476Y-83514387D01*
X168555592Y-83649986D01*
X168871768Y-83790048D01*
X169223622Y-83934398D01*
X169610775Y-84082859D01*
X170032844Y-84235255D01*
X170482651Y-84389141D01*
X170877851Y-84518243D01*
X171284047Y-84645649D01*
X171698571Y-84770740D01*
X172118757Y-84892899D01*
X172541937Y-85011506D01*
X172965442Y-85125945D01*
X173386605Y-85235597D01*
X173802757Y-85339845D01*
X174211233Y-85438069D01*
X174609363Y-85529652D01*
X174994480Y-85613976D01*
X175363916Y-85690423D01*
X175715003Y-85758375D01*
X176045074Y-85817213D01*
X176351461Y-85866320D01*
X176631496Y-85905078D01*
X176882511Y-85932868D01*
X177101839Y-85949072D01*
X177233533Y-85953178D01*
X177348551Y-85954225D01*
X177243117Y-85988586D01*
X177067503Y-86051957D01*
X176863308Y-86136508D01*
X176632934Y-86240841D01*
X176378786Y-86363556D01*
X176103267Y-86503256D01*
X175808782Y-86658540D01*
X175497734Y-86828011D01*
X175172527Y-87010270D01*
X174835565Y-87203917D01*
X174489251Y-87407555D01*
X174135990Y-87619783D01*
X173778185Y-87839204D01*
X173418241Y-88064419D01*
X173058560Y-88294029D01*
X172701547Y-88526634D01*
X172349605Y-88760837D01*
X172005138Y-88995239D01*
X171670551Y-89228440D01*
X171647730Y-89244564D01*
X171229969Y-89544451D01*
X170843670Y-89830946D01*
X170489168Y-90103752D01*
X170166799Y-90362571D01*
X169876898Y-90607107D01*
X169619802Y-90837062D01*
X169395844Y-91052139D01*
X169205362Y-91252040D01*
X169048691Y-91436468D01*
X168926166Y-91605127D01*
X168861414Y-91712691D01*
X168831706Y-91770199D01*
X168813240Y-91818026D01*
X168803371Y-91868726D01*
X168799456Y-91934851D01*
X168798835Y-92009823D01*
X168800802Y-92099039D01*
X168808226Y-92177367D01*
X168823422Y-92253082D01*
X168848705Y-92334458D01*
X168886391Y-92429770D01*
X168938794Y-92547293D01*
X168964948Y-92603556D01*
X169075037Y-92820788D01*
X169212901Y-93062119D01*
X169377594Y-93326254D01*
X169568168Y-93611897D01*
X169783676Y-93917752D01*
X170023171Y-94242524D01*
X170285706Y-94584916D01*
X170570333Y-94943632D01*
X170876105Y-95317378D01*
X171202075Y-95704857D01*
X171403702Y-95939634D01*
X171694149Y-96271824D01*
X171988801Y-96602035D01*
X172285696Y-96928323D01*
X172582871Y-97248742D01*
X172878363Y-97561343D01*
X173170211Y-97864182D01*
X173456451Y-98155312D01*
X173735122Y-98432787D01*
X174004260Y-98694660D01*
X174261903Y-98938984D01*
X174506088Y-99163815D01*
X174734854Y-99367204D01*
X174946237Y-99547207D01*
X175138276Y-99701875D01*
X175309007Y-99829265D01*
X175364476Y-99867800D01*
X175417164Y-99904904D01*
X175449233Y-99930208D01*
X175455835Y-99939753D01*
X175451241Y-99938642D01*
X175399813Y-99924057D01*
X175317310Y-99905566D01*
X175210652Y-99884378D01*
X175086760Y-99861703D01*
X174952555Y-99838753D01*
X174814959Y-99816736D01*
X174680891Y-99796865D01*
X174557274Y-99780348D01*
X174521004Y-99775963D01*
X174123204Y-99733382D01*
X173708183Y-99697007D01*
X173272924Y-99666698D01*
X172814410Y-99642313D01*
X172329624Y-99623714D01*
X171815551Y-99610760D01*
X171269171Y-99603310D01*
X170758736Y-99601197D01*
X170376833Y-99601983D01*
X170027275Y-99604554D01*
X169704101Y-99609086D01*
X169401351Y-99615754D01*
X169113063Y-99624731D01*
X168833277Y-99636193D01*
X168556031Y-99650315D01*
X168275366Y-99667270D01*
X168099117Y-99679136D01*
X167636725Y-99715088D01*
X167212105Y-99755859D01*
X166824986Y-99801510D01*
X166475097Y-99852105D01*
X166162166Y-99907710D01*
X165885923Y-99968386D01*
X165646095Y-100034197D01*
X165442411Y-100105208D01*
X165274601Y-100181481D01*
X165142392Y-100263081D01*
X165045513Y-100350070D01*
X165004399Y-100404611D01*
X164943454Y-100528111D01*
X164892776Y-100687691D01*
X164852350Y-100882498D01*
X164822164Y-101111675D01*
X164802202Y-101374370D01*
X164792451Y-101669726D01*
X164792898Y-101996890D01*
X164803527Y-102355006D01*
X164824326Y-102743219D01*
X164855279Y-103160676D01*
X164896374Y-103606521D01*
X164947596Y-104079900D01*
X165008931Y-104579957D01*
X165080365Y-105105839D01*
X165081296Y-105112389D01*
X165148249Y-105566200D01*
X165219747Y-106018696D01*
X165295207Y-106467264D01*
X165374048Y-106909295D01*
X165455688Y-107342179D01*
X165539546Y-107763304D01*
X165625041Y-108170061D01*
X165711591Y-108559838D01*
X165798614Y-108930025D01*
X165885528Y-109278011D01*
X165971753Y-109601187D01*
X166056707Y-109896941D01*
X166139808Y-110162663D01*
X166220475Y-110395742D01*
X166298125Y-110593569D01*
X166306840Y-110613951D01*
X166317374Y-110640989D01*
X166317827Y-110653427D01*
X166304939Y-110648931D01*
X166275451Y-110625168D01*
X166226104Y-110579806D01*
X166153638Y-110510510D01*
X166128620Y-110486364D01*
X165931189Y-110303344D01*
X165701018Y-110103939D01*
X165439508Y-109889209D01*
X165148063Y-109660212D01*
X164828084Y-109418007D01*
X164480973Y-109163651D01*
X164108133Y-108898203D01*
X163710965Y-108622722D01*
X163290872Y-108338265D01*
X163220400Y-108291174D01*
X162740611Y-107975024D01*
X162269766Y-107672461D01*
X161809578Y-107384431D01*
X161361760Y-107111878D01*
X160928026Y-106855750D01*
X160510088Y-106616991D01*
X160109658Y-106396547D01*
X159728450Y-106195364D01*
X159368176Y-106014388D01*
X159030549Y-105854564D01*
X158717282Y-105716838D01*
X158430089Y-105602156D01*
X158207495Y-105523416D01*
X158047494Y-105472672D01*
X157914204Y-105435303D01*
X157799101Y-105409574D01*
X157693661Y-105393745D01*
X157589360Y-105386080D01*
X157526967Y-105384697D01*
X157440865Y-105386253D01*
X157377632Y-105394389D01*
X157321959Y-105412181D01*
X157271302Y-105436087D01*
X157172714Y-105499472D01*
X157060250Y-105594584D01*
X156936451Y-105718503D01*
X156803861Y-105868309D01*
X156665021Y-106041084D01*
X156522474Y-106233908D01*
X156378762Y-106443862D01*
X156334492Y-106511785D01*
X156191787Y-106741086D01*
X156037826Y-107002977D01*
X155874378Y-107293989D01*
X155703211Y-107610651D01*
X155526091Y-107949496D01*
X155344786Y-108307052D01*
X155161065Y-108679850D01*
X154976695Y-109064420D01*
X154793444Y-109457294D01*
X154613079Y-109855000D01*
X154493479Y-110125295D01*
X154322190Y-110521703D01*
X154155942Y-110916836D01*
X153995622Y-111308198D01*
X153842118Y-111693290D01*
X153696315Y-112069618D01*
X153559101Y-112434683D01*
X153431362Y-112785990D01*
X153313985Y-113121042D01*
X153207857Y-113437341D01*
X153113866Y-113732392D01*
X153032897Y-114003698D01*
X152965837Y-114248761D01*
X152913574Y-114465086D01*
X152876994Y-114650175D01*
X152869500Y-114697295D01*
X152846676Y-114850653D01*
X152832307Y-114754804D01*
X152799887Y-114581286D01*
X152750407Y-114376481D01*
X152684910Y-114142897D01*
X152604441Y-113883044D01*
X152510045Y-113599429D01*
X152402766Y-113294562D01*
X152283648Y-112970951D01*
X152153735Y-112631104D01*
X152014073Y-112277530D01*
X151865705Y-111912738D01*
X151709676Y-111539237D01*
X151547030Y-111159534D01*
X151378812Y-110776138D01*
X151206065Y-110391558D01*
X151029835Y-110008303D01*
X150851166Y-109628881D01*
X150671102Y-109255801D01*
X150490687Y-108891571D01*
X150310967Y-108538699D01*
X150132984Y-108199696D01*
X150003537Y-107960197D01*
X149776470Y-107553600D01*
X149560680Y-107183587D01*
X149356131Y-106850111D01*
X149162788Y-106553123D01*
X148980616Y-106292575D01*
X148809578Y-106068420D01*
X148649640Y-105880608D01*
X148500765Y-105729091D01*
X148362920Y-105613823D01*
X148236067Y-105534753D01*
X148208062Y-105521514D01*
X148093510Y-105489229D01*
X147951754Y-105481776D01*
X147782613Y-105499214D01*
X147585907Y-105541600D01*
X147361455Y-105608995D01*
X147109078Y-105701455D01*
X146828594Y-105819041D01*
X146519824Y-105961809D01*
X146182586Y-106129820D01*
X145934811Y-106259637D01*
X145588769Y-106448445D01*
X145228274Y-106653119D01*
X144856006Y-106871792D01*
X144474642Y-107102596D01*
X144086862Y-107343667D01*
X143695343Y-107593136D01*
X143302766Y-107849137D01*
X142911808Y-108109805D01*
X142525148Y-108373271D01*
X142145466Y-108637669D01*
X141775439Y-108901133D01*
X141417746Y-109161797D01*
X141075067Y-109417792D01*
X140750079Y-109667254D01*
X140445462Y-109908314D01*
X140163894Y-110139107D01*
X139908054Y-110357766D01*
X139680621Y-110562424D01*
X139484273Y-110751215D01*
X139473144Y-110762395D01*
X139395344Y-110840189D01*
X139341063Y-110892647D01*
X139307279Y-110922102D01*
X139290971Y-110930890D01*
X139289119Y-110921342D01*
X139297820Y-110897827D01*
X139358708Y-110742883D01*
X139423336Y-110552672D01*
X139491051Y-110330012D01*
X139561200Y-110077721D01*
X139633130Y-109798620D01*
X139706188Y-109495527D01*
X139779720Y-109171261D01*
X139853074Y-108828642D01*
X139925596Y-108470488D01*
X139996634Y-108099618D01*
X140065534Y-107718852D01*
X140131642Y-107331008D01*
X140149638Y-107221068D01*
X140235788Y-106671028D01*
X140313841Y-106133876D01*
X140383696Y-105611279D01*
X140445255Y-105104901D01*
X140498418Y-104616409D01*
X140543087Y-104147468D01*
X140579161Y-103699744D01*
X140606541Y-103274902D01*
X140625128Y-102874608D01*
X140634822Y-102500527D01*
X140635525Y-102154325D01*
X140627137Y-101837668D01*
X140609558Y-101552222D01*
X140582689Y-101299651D01*
X140546430Y-101081621D01*
X140522182Y-100975987D01*
X140480610Y-100845474D01*
X140427424Y-100725749D01*
X140367389Y-100626106D01*
X140307954Y-100558160D01*
X140201560Y-100482917D01*
X140058614Y-100411292D01*
X139880776Y-100343799D01*
X139669708Y-100280951D01*
X139427071Y-100223260D01*
X139154526Y-100171239D01*
X138949584Y-100138872D01*
X138624700Y-100096851D01*
X138265183Y-100060186D01*
X137874374Y-100028941D01*
X137455612Y-100003182D01*
X137012237Y-99982976D01*
X136547589Y-99968387D01*
X136065009Y-99959480D01*
X135567836Y-99956322D01*
X135059411Y-99958978D01*
X134543074Y-99967513D01*
X134022164Y-99981993D01*
X133500021Y-100002484D01*
X133075872Y-100023675D01*
X132703827Y-100046049D01*
X132341366Y-100071661D01*
X131991455Y-100100164D01*
X131657058Y-100131211D01*
X131341141Y-100164454D01*
X131046670Y-100199549D01*
X130776609Y-100236147D01*
X130533924Y-100273903D01*
X130321580Y-100312468D01*
X130142543Y-100351497D01*
X130038989Y-100378801D01*
X129984286Y-100393079D01*
X129947054Y-100399906D01*
X129937958Y-100399356D01*
X129948536Y-100386102D01*
X129982925Y-100359404D01*
X130013105Y-100338702D01*
X130140339Y-100248054D01*
X130289861Y-100129525D01*
X130459797Y-99985003D01*
X130648274Y-99816374D01*
X130853415Y-99625524D01*
X131073348Y-99414341D01*
X131306196Y-99184711D01*
X131550086Y-98938519D01*
X131803143Y-98677654D01*
X132063492Y-98404002D01*
X132329260Y-98119448D01*
X132598570Y-97825881D01*
X132869549Y-97525185D01*
X133140323Y-97219248D01*
X133336534Y-96993974D01*
X133679293Y-96592959D01*
X134007804Y-96199097D01*
X134320787Y-95814133D01*
X134616963Y-95439815D01*
X134895052Y-95077886D01*
X135153773Y-94730095D01*
X135391846Y-94398185D01*
X135607993Y-94083903D01*
X135800933Y-93788995D01*
X135969386Y-93515207D01*
X136112072Y-93264285D01*
X136210449Y-93073748D01*
X136304316Y-92869591D01*
X136373393Y-92690859D01*
X136418289Y-92534262D01*
X136439619Y-92396509D01*
X136437994Y-92274308D01*
X136414026Y-92164369D01*
X136390480Y-92105672D01*
X136312113Y-91967643D01*
X136199791Y-91813564D01*
X136054113Y-91643988D01*
X135875681Y-91459468D01*
X135665098Y-91260559D01*
X135422964Y-91047814D01*
X135149880Y-90821786D01*
X134846448Y-90583029D01*
X134513270Y-90332096D01*
X134273985Y-90157641D01*
X133942027Y-89922318D01*
X133595087Y-89683491D01*
X133235713Y-89442616D01*
X132866452Y-89201150D01*
X132489851Y-88960547D01*
X132108457Y-88722265D01*
X131724817Y-88487758D01*
X131341477Y-88258483D01*
X130960985Y-88035896D01*
X130585887Y-87821453D01*
X130218730Y-87616609D01*
X129862061Y-87422820D01*
X129518428Y-87241543D01*
X129190377Y-87074234D01*
X128880454Y-86922347D01*
X128591207Y-86787340D01*
X128325184Y-86670668D01*
X128084929Y-86573786D01*
X127872992Y-86498152D01*
X127871268Y-86497588D01*
X127737080Y-86453695D01*
X127890438Y-86451970D01*
X128065261Y-86443847D01*
X128273658Y-86423424D01*
X128513101Y-86391311D01*
X128781066Y-86348121D01*
X129075025Y-86294465D01*
X129392453Y-86230955D01*
X129730823Y-86158203D01*
X130087609Y-86076819D01*
X130460284Y-85987417D01*
X130846323Y-85890606D01*
X131243199Y-85787001D01*
X131648386Y-85677210D01*
X132059357Y-85561848D01*
X132473587Y-85441524D01*
X132888548Y-85316851D01*
X133301715Y-85188441D01*
X133710562Y-85056905D01*
X133871419Y-85003853D01*
X134356047Y-84839292D01*
X134810246Y-84677758D01*
X135233427Y-84519541D01*
X135624995Y-84364935D01*
X135984360Y-84214230D01*
X136310928Y-84067717D01*
X136604109Y-83925688D01*
X136863309Y-83788436D01*
X137087938Y-83656250D01*
X137277401Y-83529423D01*
X137431108Y-83408246D01*
X137548466Y-83293011D01*
X137628884Y-83184009D01*
X137649862Y-83143785D01*
X137687750Y-83024309D01*
X137705598Y-82874967D01*
X137703349Y-82695516D01*
X137680945Y-82485711D01*
X137638330Y-82245307D01*
X137575447Y-81974061D01*
X137492239Y-81671727D01*
X137388648Y-81338063D01*
X137264618Y-80972823D01*
X137120091Y-80575762D01*
X136955011Y-80146638D01*
X136942511Y-80114955D01*
X136798876Y-79759387D01*
X136644455Y-79391837D01*
X136480575Y-79014843D01*
X136308562Y-78630940D01*
X136129745Y-78242665D01*
X135945448Y-77852552D01*
X135757001Y-77463138D01*
X135565728Y-77076960D01*
X135372959Y-76696552D01*
X135180018Y-76324451D01*
X134988234Y-75963194D01*
X134798932Y-75615315D01*
X134613441Y-75283351D01*
X134433087Y-74969838D01*
X134259197Y-74677312D01*
X134093098Y-74408309D01*
X133936116Y-74165364D01*
X133789579Y-73951014D01*
X133654814Y-73767795D01*
X133558928Y-73648371D01*
X133472798Y-73546163D01*
X133576260Y-73612282D01*
X133711761Y-73691934D01*
X133881960Y-73780279D01*
X134084440Y-73876383D01*
X134316790Y-73979308D01*
X134576593Y-74088120D01*
X134861437Y-74201882D01*
X135168907Y-74319659D01*
X135496589Y-74440515D01*
X135842069Y-74563514D01*
X136202932Y-74687720D01*
X136576766Y-74812198D01*
X136961155Y-74936012D01*
X137120702Y-74986197D01*
X137650779Y-75148668D01*
X138169559Y-75301528D01*
X138675289Y-75444403D01*
X139166211Y-75576917D01*
X139640570Y-75698697D01*
X140096611Y-75809368D01*
X140532578Y-75908555D01*
X140946716Y-75995885D01*
X141337269Y-76070983D01*
X141702481Y-76133474D01*
X142040597Y-76182984D01*
X142349861Y-76219139D01*
X142628518Y-76241564D01*
X142874812Y-76249884D01*
X143031848Y-76246898D01*
X143219313Y-76233357D01*
X143374824Y-76209250D01*
X143504136Y-76170926D01*
X143613006Y-76114731D01*
X143707190Y-76037013D01*
X143792446Y-75934119D01*
X143874528Y-75802396D01*
X143944863Y-75667559D01*
X144043847Y-75446886D01*
X144142017Y-75188692D01*
X144239179Y-74893789D01*
X144335140Y-74562992D01*
X144429706Y-74197113D01*
X144522685Y-73796966D01*
X144613884Y-73363364D01*
X144703108Y-72897121D01*
X144790165Y-72399048D01*
X144874862Y-71869961D01*
X144921889Y-71555634D01*
X144981306Y-71133127D01*
X145037078Y-70705418D01*
X145088952Y-70275767D01*
X145136675Y-69847436D01*
X145179994Y-69423685D01*
X145218656Y-69007775D01*
X145252408Y-68602968D01*
X145280997Y-68212523D01*
X145304170Y-67839702D01*
X145321674Y-67487767D01*
X145333255Y-67159977D01*
X145338662Y-66859593D01*
X145337640Y-66589878D01*
X145329937Y-66354091D01*
X145328109Y-66320455D01*
X145320705Y-66198140D01*
X145313239Y-66085638D01*
X145306216Y-65989781D01*
X145300143Y-65917407D01*
X145295523Y-65875350D01*
X145294933Y-65871785D01*
X145297661Y-65859785D01*
X145315694Y-65880573D01*
X145347746Y-65932371D01*
X145378201Y-65986804D01*
X145499646Y-66198022D01*
X145646743Y-66433339D01*
X145817471Y-66690323D01*
X146009808Y-66966539D01*
X146221731Y-67259553D01*
X146451221Y-67566931D01*
X146696254Y-67886239D01*
X146954809Y-68215042D01*
X147224864Y-68550908D01*
X147504399Y-68891400D01*
X147791390Y-69234086D01*
X148083817Y-69576531D01*
X148379657Y-69916301D01*
X148676889Y-70250963D01*
X148973492Y-70578081D01*
X149267443Y-70895222D01*
X149556721Y-71199952D01*
X149839304Y-71489836D01*
X150113171Y-71762441D01*
X150376299Y-72015332D01*
X150417184Y-72053723D01*
X150684109Y-72300138D01*
X150928488Y-72518445D01*
X151152235Y-72710059D01*
X151357262Y-72876396D01*
X151545482Y-73018872D01*
X151718809Y-73138903D01*
X151879156Y-73237905D01*
X152028437Y-73317293D01*
X152168563Y-73378483D01*
X152243544Y-73405262D01*
X152348918Y-73428161D01*
X152460740Y-73428560D01*
X152581779Y-73405362D01*
X152714803Y-73357473D01*
X152862580Y-73283796D01*
X153027880Y-73183237D01*
X153213470Y-73054700D01*
X153309608Y-72983470D01*
X153522113Y-72815191D01*
X153753671Y-72617043D01*
X154002331Y-72391234D01*
X154266144Y-72139970D01*
X154543162Y-71865460D01*
X154831435Y-71569910D01*
X155129013Y-71255528D01*
X155433947Y-70924521D01*
X155744288Y-70579096D01*
X156058086Y-70221461D01*
X156373393Y-69853822D01*
X156688258Y-69478387D01*
X157000733Y-69097364D01*
X157308868Y-68712959D01*
X157610714Y-68327380D01*
X157904321Y-67942834D01*
X158187740Y-67561529D01*
X158459022Y-67185671D01*
X158574468Y-67021974D01*
X158709875Y-66825393D01*
X158841222Y-66628695D01*
X158965539Y-66436661D01*
X159079855Y-66254074D01*
X159181200Y-66085714D01*
X159266603Y-65936361D01*
X159333093Y-65810799D01*
X159354643Y-65766351D01*
X159394977Y-65680087D01*
X159381613Y-65814276D01*
%TD*%
M02*
